<?xml version="1.0" encoding="utf-8"?>
<!-- Generator: Adobe Illustrator 22.1.0, SVG Export Plug-In . SVG Version: 6.00 Build 0)  -->
<svg version="1.1" id="Layer_1" xmlns="http://www.w3.org/2000/svg" xmlns:xlink="http://www.w3.org/1999/xlink" x="0px" y="0px"
	 viewBox="0 0 24 24" style="enable-background:new 0 0 24 24;" xml:space="preserve">
<style type="text/css">
	.st0{fill:none;}
	.st1{fill:#0097D6;}
</style>
<g>
	<rect class="st0" width="24" height="24"/>
</g>
<g>
	<path class="st1" d="M21.6,3.7h-1.4V3.1c0-0.3-0.2-0.5-0.5-0.5s-0.5,0.2-0.5,0.5v0.6h-2.9V3.1c0-0.3-0.2-0.5-0.5-0.5
		s-0.5,0.2-0.5,0.5v0.6h-2.9V3.1c0-0.3-0.2-0.5-0.5-0.5c-0.3,0-0.5,0.2-0.5,0.5v0.6H8.6V3.1c0-0.3-0.2-0.5-0.5-0.5
		c-0.3,0-0.5,0.2-0.5,0.5v0.6H4.8V3.1c0-0.3-0.2-0.5-0.5-0.5C4,2.6,3.8,2.9,3.8,3.1v0.6H2.4C1.6,3.7,1,4.4,1,5.2v14.8
		c0,0.8,0.6,1.4,1.4,1.4h19.1c0.8,0,1.4-0.6,1.4-1.4V5.2C23,4.4,22.4,3.7,21.6,3.7z M2.4,4.7h1.4v0.5c0,0.3,0.2,0.5,0.5,0.5
		c0.3,0,0.5-0.2,0.5-0.5V4.7h2.9v0.5c0,0.3,0.2,0.5,0.5,0.5c0.3,0,0.5-0.2,0.5-0.5V4.7h2.9v0.5c0,0.3,0.2,0.5,0.5,0.5
		c0.3,0,0.5-0.2,0.5-0.5V4.7h2.9v0.5c0,0.3,0.2,0.5,0.5,0.5s0.5-0.2,0.5-0.5V4.7h2.9v0.5c0,0.3,0.2,0.5,0.5,0.5s0.5-0.2,0.5-0.5V4.7
		h1.4c0.3,0,0.5,0.2,0.5,0.5v12H2v-12C2,4.9,2.2,4.7,2.4,4.7z M21.6,20.4H2.4c-0.3,0-0.5-0.2-0.5-0.5v-1.8H22v1.8
		C22,20.2,21.8,20.4,21.6,20.4z"/>
	<path class="st1" d="M5.6,10.7h2.5c0.3,0,0.5-0.2,0.5-0.5V7.7c0-0.3-0.2-0.5-0.5-0.5H5.6c-0.3,0-0.5,0.2-0.5,0.5v2.5
		C5.1,10.5,5.4,10.7,5.6,10.7z M6.1,8.2h1.6v1.6H6.1V8.2z"/>
	<path class="st1" d="M10.7,10.7h2.5c0.3,0,0.5-0.2,0.5-0.5V7.7c0-0.3-0.2-0.5-0.5-0.5h-2.5c-0.3,0-0.5,0.2-0.5,0.5v2.5
		C10.2,10.5,10.5,10.7,10.7,10.7z M11.2,8.2h1.6v1.6h-1.6V8.2z"/>
	<path class="st1" d="M15.8,10.7h2.6c0.3,0,0.5-0.2,0.5-0.5V7.7c0-0.3-0.2-0.5-0.5-0.5h-2.6c-0.3,0-0.5,0.2-0.5,0.5v2.6
		C15.3,10.5,15.5,10.7,15.8,10.7z M16.3,8.2h1.6v1.6h-1.6V8.2z"/>
	<path class="st1" d="M5.6,15.8h2.5c0.3,0,0.5-0.2,0.5-0.5v-2.5c0-0.3-0.2-0.5-0.5-0.5H5.6c-0.3,0-0.5,0.2-0.5,0.5v2.5
		C5.1,15.6,5.4,15.8,5.6,15.8z M6.1,13.3h1.6v1.6H6.1V13.3z"/>
	<path class="st1" d="M10.7,15.8h2.5c0.3,0,0.5-0.2,0.5-0.5v-2.5c0-0.3-0.2-0.5-0.5-0.5h-2.5c-0.3,0-0.5,0.2-0.5,0.5v2.5
		C10.2,15.6,10.5,15.8,10.7,15.8z M11.2,13.3h1.6v1.6h-1.6V13.3z"/>
	<path class="st1" d="M15.8,15.8h2.6c0.3,0,0.5-0.2,0.5-0.5v-2.6c0-0.3-0.2-0.5-0.5-0.5h-2.6c-0.3,0-0.5,0.2-0.5,0.5v2.6
		C15.3,15.6,15.5,15.8,15.8,15.8z M16.3,13.2h1.6v1.6h-1.6V13.2z"/>
</g>
</svg>
