<svg xmlns="http://www.w3.org/2000/svg" viewBox="0 0 75.09 75.04"><defs><style>.cls-1,.cls-2{fill:#fff;}.cls-2{stroke:#0097d6;stroke-miterlimit:10;stroke-width:0.75px;}</style></defs><title>aerospace_hover</title><g id="Layer_2" data-name="Layer 2"><g id="Layer_1-2" data-name="Layer 1"><path class="cls-1" d="M6.87,68.86H2.59l-1,2.93H0L4.1,60.41H5.42l4,11.38H7.87ZM3,67.57h3.4L4.77,62.68h0Z"/><path class="cls-1" d="M14.4,72a3.58,3.58,0,0,1-2.84-1.16,4.5,4.5,0,0,1-1-3.07v-.34a4.38,4.38,0,0,1,1.05-3,3.28,3.28,0,0,1,2.57-1.19,3.07,3.07,0,0,1,2.54,1.05A4.38,4.38,0,0,1,17.55,67v.81H12.14l0,0A3.42,3.42,0,0,0,12.68,70a2,2,0,0,0,1.72.8,3.82,3.82,0,0,0,1.37-.23,2.94,2.94,0,0,0,1-.61l.6,1a3.72,3.72,0,0,1-1.19.74A4.79,4.79,0,0,1,14.4,72Zm-.24-7.56a1.68,1.68,0,0,0-1.34.62,2.94,2.94,0,0,0-.64,1.59l0,0H16v-.13A2.41,2.41,0,0,0,15.55,65,1.62,1.62,0,0,0,14.16,64.39Z"/><path class="cls-1" d="M23.27,64.69l-.79,0a1.78,1.78,0,0,0-1,.29,1.91,1.91,0,0,0-.65.82v6H19.27V63.33h1.38l.15,1.24a3,3,0,0,1,.88-1,2.13,2.13,0,0,1,1.22-.36l.33,0,.25.06Z"/><path class="cls-1" d="M24.36,67.48a4.64,4.64,0,0,1,1-3.09,3.38,3.38,0,0,1,2.75-1.21,3.44,3.44,0,0,1,2.78,1.21,4.62,4.62,0,0,1,1,3.09v.17a4.65,4.65,0,0,1-1,3.1A3.42,3.42,0,0,1,28.15,72a3.42,3.42,0,0,1-2.77-1.21,4.61,4.61,0,0,1-1-3.09Zm1.54.17a4.06,4.06,0,0,0,.56,2.22,2,2,0,0,0,3.36,0,4,4,0,0,0,.57-2.22v-.17a4,4,0,0,0-.57-2.21,1.89,1.89,0,0,0-1.69-.88,1.86,1.86,0,0,0-1.67.88,4.1,4.1,0,0,0-.56,2.21Z"/><path class="cls-1" d="M38.73,69.51a1,1,0,0,0-.39-.83,3.82,3.82,0,0,0-1.46-.56,6.06,6.06,0,0,1-2.3-.9,1.81,1.81,0,0,1-.8-1.54,2.22,2.22,0,0,1,.88-1.77,3.9,3.9,0,0,1,4.61.05,2.27,2.27,0,0,1,.85,1.82l0,0H38.63a1.34,1.34,0,0,0-.48-1,1.73,1.73,0,0,0-1.21-.44,1.8,1.8,0,0,0-1.22.36,1.15,1.15,0,0,0-.4.88.93.93,0,0,0,.35.77,3.69,3.69,0,0,0,1.43.5,6.1,6.1,0,0,1,2.36.93,1.87,1.87,0,0,1,.81,1.57,2.25,2.25,0,0,1-.91,1.84A3.79,3.79,0,0,1,37,72a3.71,3.71,0,0,1-2.55-.82,2.35,2.35,0,0,1-.88-1.91v0H35a1.43,1.43,0,0,0,.61,1.2,2.39,2.39,0,0,0,1.34.38,2.11,2.11,0,0,0,1.28-.35A1.07,1.07,0,0,0,38.73,69.51Z"/><path class="cls-1" d="M49.38,67.88a4.68,4.68,0,0,1-.87,3A2.9,2.9,0,0,1,46.09,72a3.45,3.45,0,0,1-1.37-.26,2.64,2.64,0,0,1-1-.79V75H42.18V63.33h1.18l.24,1.1a2.77,2.77,0,0,1,1-.93,3,3,0,0,1,1.44-.32,2.8,2.8,0,0,1,2.44,1.24,5.65,5.65,0,0,1,.87,3.3Zm-1.54-.16a4.57,4.57,0,0,0-.56-2.37,1.84,1.84,0,0,0-1.67-.92,2,2,0,0,0-1.13.3,2.15,2.15,0,0,0-.76.82v4.09a2.07,2.07,0,0,0,1.91,1.11,1.9,1.9,0,0,0,1.65-.8,3.51,3.51,0,0,0,.56-2.07Z"/><path class="cls-1" d="M56.47,71.79c0-.26-.09-.48-.12-.68a3.92,3.92,0,0,1-.05-.59,3.55,3.55,0,0,1-1.12,1,2.93,2.93,0,0,1-1.49.41,2.76,2.76,0,0,1-2-.68,2.45,2.45,0,0,1-.7-1.86,2.17,2.17,0,0,1,1-1.89,4.57,4.57,0,0,1,2.67-.69H56.3V66a1.53,1.53,0,0,0-.46-1.18,1.77,1.77,0,0,0-1.28-.43,1.86,1.86,0,0,0-1.21.37,1.12,1.12,0,0,0-.46.9l-1.46,0,0-.05a2.06,2.06,0,0,1,.87-1.69,3.57,3.57,0,0,1,2.37-.76,3.46,3.46,0,0,1,2.31.73,2.59,2.59,0,0,1,.88,2.1v4.07a8.26,8.26,0,0,0,0,.88,4.7,4.7,0,0,0,.17.83Zm-2.56-1.13a2.72,2.72,0,0,0,1.51-.43,2.08,2.08,0,0,0,.88-1V67.87H54.57a2.25,2.25,0,0,0-1.49.47,1.41,1.41,0,0,0-.56,1.1,1.14,1.14,0,0,0,.36.89A1.45,1.45,0,0,0,53.91,70.66Z"/><path class="cls-1" d="M63.43,70.75a1.79,1.79,0,0,0,1.24-.48,1.46,1.46,0,0,0,.53-1.16h1.39l0,0a2.41,2.41,0,0,1-.94,1.94,3.58,3.58,0,0,1-5-.36,4.66,4.66,0,0,1-1-3v-.33a4.69,4.69,0,0,1,1-3,3.33,3.33,0,0,1,2.75-1.21,3.23,3.23,0,0,1,2.32.87,2.79,2.79,0,0,1,.87,2.15l0,0H65.2a1.84,1.84,0,0,0-.5-1.32,1.67,1.67,0,0,0-1.27-.54,1.76,1.76,0,0,0-1.65.88,4,4,0,0,0-.52,2.12v.33a4.2,4.2,0,0,0,.51,2.15A1.76,1.76,0,0,0,63.43,70.75Z"/><path class="cls-1" d="M72,72a3.58,3.58,0,0,1-2.84-1.16,4.5,4.5,0,0,1-1-3.07v-.34a4.38,4.38,0,0,1,1-3,3.26,3.26,0,0,1,2.56-1.19,3.09,3.09,0,0,1,2.55,1.05A4.38,4.38,0,0,1,75.09,67v.81h-5.4l0,0A3.42,3.42,0,0,0,70.23,70a2,2,0,0,0,1.72.8,3.86,3.86,0,0,0,1.37-.23,2.94,2.94,0,0,0,1-.61l.6,1a3.67,3.67,0,0,1-1.2.74A4.73,4.73,0,0,1,72,72Zm-.25-7.56a1.66,1.66,0,0,0-1.33.62,2.86,2.86,0,0,0-.64,1.59v0h3.81v-.13A2.47,2.47,0,0,0,73.1,65,1.64,1.64,0,0,0,71.7,64.39Z"/><path class="cls-2" d="M47.09,16a4.15,4.15,0,0,0-2.92-1.21A4.07,4.07,0,0,0,41.25,16a4.14,4.14,0,0,0,2.92,7.06,4.07,4.07,0,0,0,2.92-1.21A4.13,4.13,0,0,0,47.09,16Zm-1.37,4.5a2.19,2.19,0,0,1-1.57.63,2.23,2.23,0,0,1-1.56-.63,2.2,2.2,0,0,1,0-3.13,2.15,2.15,0,0,1,1.56-.63,2.28,2.28,0,0,1,1.57.63A2.2,2.2,0,0,1,45.72,20.52ZM62.48.65a1,1,0,0,0-.83-.27A43.89,43.89,0,0,0,51.12,3.76l0,0a47.47,47.47,0,0,0-24.4,24.64l-3-3a1,1,0,0,0-.68-.31h0a1,1,0,0,0-.67.31l-8,8.12a1,1,0,0,0,.75,1.64l6.94-.52L28.43,41,28,47.88a1,1,0,0,0,.56.94,1,1,0,0,0,.4.1,1,1,0,0,0,.68-.27l8.07-7.91a.9.9,0,0,0,.29-.67,1,1,0,0,0-.29-.69l-3-3A47.23,47.23,0,0,0,59.39,12.07h0A44.69,44.69,0,0,0,62.81,1.5,1.14,1.14,0,0,0,62.48.65ZM56.9,12.71,50.41,6.25l.85-.41,6,6C57.17,12.15,57,12.42,56.9,12.71ZM33.2,34.94l-5-5c.12-.27.21-.54.33-.79L34,34.61Zm2.38,5.11L30,45.49l.33-4.78a.93.93,0,0,0-.29-.76L23.1,33a1,1,0,0,0-.68-.29h-.07l-4.81.37L23,27.52l3.31,3.29h0l5.94,5.94h0Zm.29-6.31-6.53-6.51A45.07,45.07,0,0,1,48.61,7.15L56,14.48A44.79,44.79,0,0,1,35.87,33.74ZM58.15,10l-5-5a45.46,45.46,0,0,1,7.42-2.41A47.62,47.62,0,0,1,58.15,10ZM23.72,38.84a42.46,42.46,0,0,0-10.59,3.41,1,1,0,0,0-.29,1.56l7,7a1,1,0,0,0,.67.29.55.55,0,0,0,.18,0,1,1,0,0,0,.71-.56,44.69,44.69,0,0,0,3.42-10.57,1,1,0,0,0-1.1-1.09ZM20.2,48.42l-5-5A45.46,45.46,0,0,1,22.64,41,47.62,47.62,0,0,1,20.2,48.42Z"/></g></g></svg>