<svg xmlns="http://www.w3.org/2000/svg" viewBox="0 0 81.48 70.35"><defs><style>.cls-1,.cls-2{fill:#0097d6;}.cls-2{stroke:#fff;stroke-miterlimit:10;stroke-width:0.25px;}</style></defs><title>automotive</title><g id="Layer_2" data-name="Layer 2"><g id="Layer_1-2" data-name="Layer 1"><path class="cls-1" d="M6.87,67.25H2.59l-1,2.93H0L4.1,58.81H5.42l4,11.37H7.87ZM3,66h3.4L4.77,61.08h0Z"/><path class="cls-1" d="M16.18,68.93a2.73,2.73,0,0,1-2.47,1.42,2.73,2.73,0,0,1-2.16-.89,4.11,4.11,0,0,1-.77-2.75v-5h1.54v5a3.12,3.12,0,0,0,.4,1.86A1.47,1.47,0,0,0,14,69.1a2.47,2.47,0,0,0,1.36-.34,2.14,2.14,0,0,0,.81-.94V61.73h1.53v8.45H16.28Z"/><path class="cls-1" d="M22.05,59.69v2h1.6v1.14h-1.6V68a1.17,1.17,0,0,0,.24.84.91.91,0,0,0,.66.24l.29,0,.28-.08L23.73,70a1.52,1.52,0,0,1-.51.23,2.63,2.63,0,0,1-.67.09,2,2,0,0,1-1.49-.57A2.47,2.47,0,0,1,20.51,68V62.87H19.16V61.73h1.35v-2Z"/><path class="cls-1" d="M24.94,65.88a4.69,4.69,0,0,1,1-3.09,3.42,3.42,0,0,1,2.76-1.22,3.47,3.47,0,0,1,2.78,1.21,4.65,4.65,0,0,1,1,3.1v.17a4.61,4.61,0,0,1-1,3.09,3.41,3.41,0,0,1-2.76,1.21A3.45,3.45,0,0,1,26,69.14a4.62,4.62,0,0,1-1-3.09Zm1.54.17A4.06,4.06,0,0,0,27,68.27a2.06,2.06,0,0,0,3.36,0A4,4,0,0,0,31,66.05v-.17a3.91,3.91,0,0,0-.58-2.21,2,2,0,0,0-3.35,0,4.07,4.07,0,0,0-.56,2.21Z"/><path class="cls-1" d="M35.77,61.73l.11,1.11a2.77,2.77,0,0,1,1-.93,3,3,0,0,1,1.48-.34,2.64,2.64,0,0,1,1.45.39,2.45,2.45,0,0,1,.91,1.18,3.16,3.16,0,0,1,1-1.15,2.79,2.79,0,0,1,1.53-.42,2.54,2.54,0,0,1,2,.89,4.05,4.05,0,0,1,.75,2.67v5.05H44.6V65.11a2.8,2.8,0,0,0-.43-1.77,1.59,1.59,0,0,0-1.28-.52,1.66,1.66,0,0,0-1.28.55A2.46,2.46,0,0,0,41,64.75v5.43H39.49V65.11a2.82,2.82,0,0,0-.44-1.74,1.55,1.55,0,0,0-1.27-.55,2.11,2.11,0,0,0-1.15.29,1.9,1.9,0,0,0-.7.81v6.26H34.39V61.73Z"/><path class="cls-1" d="M48,65.88a4.64,4.64,0,0,1,1-3.09,3.42,3.42,0,0,1,2.76-1.22,3.47,3.47,0,0,1,2.78,1.21,4.65,4.65,0,0,1,1,3.1v.17a4.61,4.61,0,0,1-1,3.09,3.76,3.76,0,0,1-5.53,0,4.62,4.62,0,0,1-1-3.09Zm1.53.17a4,4,0,0,0,.57,2.22,2.06,2.06,0,0,0,3.36,0,4,4,0,0,0,.57-2.22v-.17a3.91,3.91,0,0,0-.58-2.21,2,2,0,0,0-3.35,0,4,4,0,0,0-.57,2.21Z"/><path class="cls-1" d="M59.61,59.69v2h1.6v1.14h-1.6V68a1.13,1.13,0,0,0,.25.84.88.88,0,0,0,.65.24l.29,0,.28-.08L61.29,70a1.52,1.52,0,0,1-.51.23,2.5,2.5,0,0,1-.66.09,2,2,0,0,1-1.49-.57A2.42,2.42,0,0,1,58.07,68V62.87H56.73V61.73h1.34v-2Z"/><path class="cls-1" d="M64.52,59.57H63V58h1.54Zm0,10.61H63V61.73h1.54Z"/><path class="cls-1" d="M69.71,67.69l.13.59h0l.15-.59,1.94-6h1.57l-3.1,8.45H69.28l-3.15-8.45h1.58Z"/><path class="cls-1" d="M78.34,70.35a3.56,3.56,0,0,1-2.84-1.17,4.45,4.45,0,0,1-1-3.06v-.34a4.41,4.41,0,0,1,1-3,3.29,3.29,0,0,1,2.56-1.19,3.07,3.07,0,0,1,2.55,1.06,4.37,4.37,0,0,1,.84,2.8v.81h-5.4l0,0a3.47,3.47,0,0,0,.57,2.07,2,2,0,0,0,1.72.79,3.86,3.86,0,0,0,1.37-.22,3.1,3.1,0,0,0,1-.61l.6,1a3.72,3.72,0,0,1-1.19.74A4.83,4.83,0,0,1,78.34,70.35Zm-.25-7.57a1.67,1.67,0,0,0-1.33.63A2.93,2.93,0,0,0,76.12,65v0H80v-.12a2.45,2.45,0,0,0-.46-1.52A1.65,1.65,0,0,0,78.09,62.78Z"/><path class="cls-2" d="M55.35,9.77a3.14,3.14,0,1,0,3.14-3.14A3.15,3.15,0,0,0,55.35,9.77Zm5.08,0a1.94,1.94,0,1,1-1.94-1.94A1.94,1.94,0,0,1,60.43,9.77Z"/><path class="cls-2" d="M37.74,9.77a3.14,3.14,0,1,0,3.14-3.14A3.15,3.15,0,0,0,37.74,9.77Zm5.08,0a1.94,1.94,0,1,1-1.94-1.94A1.94,1.94,0,0,1,42.82,9.77Z"/><path class="cls-2" d="M20.13,9.77a3.14,3.14,0,1,0,3.14-3.14A3.15,3.15,0,0,0,20.13,9.77Zm5.08,0a1.94,1.94,0,1,1-1.94-1.94A1.94,1.94,0,0,1,25.21,9.77Z"/><path class="cls-2" d="M62.56,42V38.75a4.08,4.08,0,1,0-8.15,0v3.17H45V38.75a4.08,4.08,0,1,0-8.15,0v3.17H27.34V38.75a4.08,4.08,0,1,0-8.15,0V42a2.83,2.83,0,0,0-2.31,2.78v.53a2.83,2.83,0,0,0,2.83,2.83H62a2.84,2.84,0,0,0,2.84-2.83v-.53A2.82,2.82,0,0,0,62.56,42Zm-7-3.23a2.88,2.88,0,1,1,5.75,0v3.17H55.61ZM38,38.75a2.88,2.88,0,1,1,5.75,0v3.17H38ZM23.27,35.87a2.88,2.88,0,0,1,2.87,2.88v3.17H20.39V38.75A2.88,2.88,0,0,1,23.27,35.87Zm40.41,9.42A1.64,1.64,0,0,1,62,46.92H19.71a1.63,1.63,0,0,1-1.63-1.63v-.53a1.64,1.64,0,0,1,1.63-1.64H62a1.64,1.64,0,0,1,1.64,1.64v.53Z"/><path class="cls-2" d="M64.28,1.32a.6.6,0,1,0,0-1.19H17.48a.6.6,0,1,0,0,1.19h5.19V3.51a6.38,6.38,0,0,0-2.24,12.07V21a1.84,1.84,0,0,0,1.84,1.84h.4v1.36a5,5,0,0,0-3,1.44,5.09,5.09,0,0,0,0,7.19.6.6,0,0,0,.85-.85,3.89,3.89,0,1,1,5.5,0,.59.59,0,0,0,0,.85.58.58,0,0,0,.84,0,5.08,5.08,0,0,0,0-7.19,5,5,0,0,0-3-1.44V22.8h.4A1.84,1.84,0,0,0,26.11,21V15.58A6.39,6.39,0,0,0,23.87,3.5V1.32H40.28V3.51A6.38,6.38,0,0,0,38,15.58V21a1.84,1.84,0,0,0,1.84,1.84h.4v1.36a5,5,0,0,0-3,1.44,5.09,5.09,0,0,0,0,7.19.59.59,0,0,0,.85,0,.58.58,0,0,0,0-.84,3.89,3.89,0,1,1,5.5,0,.59.59,0,1,0,.84.84,5.08,5.08,0,0,0,0-7.19,5,5,0,0,0-3-1.44V22.8h.4A1.84,1.84,0,0,0,43.72,21V15.58A6.38,6.38,0,0,0,41.48,3.51V1.32H57.89V3.51a6.38,6.38,0,0,0-2.24,12.07V21a1.84,1.84,0,0,0,1.84,1.84h.4v1.36a5,5,0,0,0-3,1.44,5.09,5.09,0,0,0,0,7.19.59.59,0,0,0,.85,0,.58.58,0,0,0,0-.84,3.89,3.89,0,1,1,5.5,0,.59.59,0,1,0,.84.84,5.08,5.08,0,0,0,0-7.19,5,5,0,0,0-3-1.44V22.8h.4A1.84,1.84,0,0,0,61.33,21V15.58A6.39,6.39,0,0,0,59.09,3.5V1.32ZM24.91,21a.64.64,0,0,1-.64.64h-2a.64.64,0,0,1-.64-.64V16a6.22,6.22,0,0,0,3.28,0Zm3.55-11.1a5.19,5.19,0,1,1-5.19-5.19A5.19,5.19,0,0,1,28.46,9.86ZM42.52,21a.64.64,0,0,1-.64.64h-2a.64.64,0,0,1-.64-.64V16a6.22,6.22,0,0,0,3.28,0Zm3.55-11.1a5.19,5.19,0,1,1-5.19-5.19A5.19,5.19,0,0,1,46.07,9.86ZM60.13,21a.64.64,0,0,1-.64.64h-2a.64.64,0,0,1-.64-.64V16a6.22,6.22,0,0,0,3.28,0Zm3.55-11.1a5.19,5.19,0,1,1-5.19-5.19A5.19,5.19,0,0,1,63.68,9.86Z"/></g></g></svg>