<svg xmlns="http://www.w3.org/2000/svg" viewBox="0 0 77.41 71.97"><defs><style>.cls-1,.cls-2{fill:#0097d6;}.cls-2{stroke:#fff;stroke-miterlimit:10;stroke-width:0.75px;}</style></defs><title>computers</title><g id="Layer_2" data-name="Layer 2"><g id="Layer_1-2" data-name="Layer 1"><path class="cls-1" d="M8.52,65.08l0,0A3.43,3.43,0,0,1,7.41,67.8a4.27,4.27,0,0,1-3,1.08,4,4,0,0,1-3.15-1.37A5,5,0,0,1,0,64V62a5,5,0,0,1,1.21-3.47,4,4,0,0,1,3.15-1.37,4.39,4.39,0,0,1,3.07,1,3.39,3.39,0,0,1,1.11,2.72l0,0H7.05a2.56,2.56,0,0,0-.71-1.89,2.7,2.7,0,0,0-2-.69,2.44,2.44,0,0,0-2.06,1A4.22,4.22,0,0,0,1.54,62v2a4.26,4.26,0,0,0,.76,2.6,2.44,2.44,0,0,0,2.06,1,2.7,2.7,0,0,0,2-.69,2.56,2.56,0,0,0,.71-1.91Z"/><path class="cls-1" d="M10,64.41a4.69,4.69,0,0,1,1-3.09,3.41,3.41,0,0,1,2.76-1.21,3.44,3.44,0,0,1,2.78,1.21,4.64,4.64,0,0,1,1,3.09v.17a4.63,4.63,0,0,1-1,3.1,3.42,3.42,0,0,1-2.76,1.2A3.42,3.42,0,0,1,11,67.67a4.61,4.61,0,0,1-1-3.09Zm1.54.17a4.06,4.06,0,0,0,.56,2.22,1.87,1.87,0,0,0,1.69.88,1.86,1.86,0,0,0,1.67-.88A4,4,0,0,0,16,64.58v-.17a4,4,0,0,0-.57-2.21,1.89,1.89,0,0,0-1.69-.88,1.86,1.86,0,0,0-1.67.88,4.1,4.1,0,0,0-.56,2.21Z"/><path class="cls-1" d="M20.8,60.26l.11,1.11A2.77,2.77,0,0,1,22,60.44a3.17,3.17,0,0,1,1.48-.33,2.64,2.64,0,0,1,1.45.39,2.42,2.42,0,0,1,.91,1.17,3.07,3.07,0,0,1,1.06-1.14,2.73,2.73,0,0,1,1.52-.42,2.53,2.53,0,0,1,2,.88,4.07,4.07,0,0,1,.75,2.67v5.06H29.63V63.65a2.76,2.76,0,0,0-.43-1.77,1.54,1.54,0,0,0-1.28-.52,1.66,1.66,0,0,0-1.28.54,2.46,2.46,0,0,0-.57,1.39v5.43H24.52V63.65a2.75,2.75,0,0,0-.44-1.74,1.52,1.52,0,0,0-1.27-.55,2,2,0,0,0-1.15.29,1.79,1.79,0,0,0-.7.81v6.26H19.42V60.26Z"/><path class="cls-1" d="M40.61,64.81a4.63,4.63,0,0,1-.88,3,2.87,2.87,0,0,1-2.41,1.12A3.42,3.42,0,0,1,36,68.62a2.55,2.55,0,0,1-1-.79V72H33.41V60.26h1.18l.24,1.1a2.69,2.69,0,0,1,1-.93,3,3,0,0,1,1.44-.32,2.81,2.81,0,0,1,2.44,1.24,5.65,5.65,0,0,1,.87,3.3Zm-1.54-.16a4.47,4.47,0,0,0-.57-2.37,1.83,1.83,0,0,0-1.66-.92,2.08,2.08,0,0,0-1.14.3,2.2,2.2,0,0,0-.75.82v4.09a2,2,0,0,0,1.9,1.11,1.91,1.91,0,0,0,1.66-.8,3.59,3.59,0,0,0,.56-2.07Z"/><path class="cls-1" d="M47.87,67.47a2.85,2.85,0,0,1-1,1,3.05,3.05,0,0,1-3.6-.51,4.14,4.14,0,0,1-.77-2.75v-5H44v5a3.08,3.08,0,0,0,.4,1.86,1.47,1.47,0,0,0,1.24.51A2.5,2.5,0,0,0,47,67.3a2.07,2.07,0,0,0,.81-.94v-6.1h1.54v8.46H48Z"/><path class="cls-1" d="M53.73,58.22v2h1.61V61.4H53.73v5.14a1.16,1.16,0,0,0,.25.83.85.85,0,0,0,.65.25,1.77,1.77,0,0,0,.3,0l.27-.07.21,1a1.37,1.37,0,0,1-.5.23,2.63,2.63,0,0,1-.67.09,2,2,0,0,1-1.49-.57,2.44,2.44,0,0,1-.55-1.77V61.4H50.85V60.26H52.2v-2Z"/><path class="cls-1" d="M60.48,68.88a3.6,3.6,0,0,1-2.84-1.16,4.49,4.49,0,0,1-1-3.07v-.34a4.33,4.33,0,0,1,1-3,3.26,3.26,0,0,1,2.56-1.19,3.09,3.09,0,0,1,2.55,1A4.39,4.39,0,0,1,63.63,64v.81h-5.4l0,0a3.42,3.42,0,0,0,.57,2.06,2,2,0,0,0,1.71.8,4.16,4.16,0,0,0,1.38-.22,3.12,3.12,0,0,0,1-.62l.6,1a3.67,3.67,0,0,1-1.2.74A4.75,4.75,0,0,1,60.48,68.88Zm-.24-7.56a1.69,1.69,0,0,0-1.33.62,2.86,2.86,0,0,0-.64,1.59v0h3.81v-.13a2.47,2.47,0,0,0-.45-1.52A1.64,1.64,0,0,0,60.24,61.32Z"/><path class="cls-1" d="M69.36,61.62l-.79,0a1.71,1.71,0,0,0-1,.29,1.8,1.8,0,0,0-.64.81v6H65.36V60.26h1.37l.15,1.24a3,3,0,0,1,.89-1A2.1,2.1,0,0,1,69,60.11l.33,0,.26.06Z"/><path class="cls-1" d="M75.88,66.44a1,1,0,0,0-.39-.82A3.63,3.63,0,0,0,74,65.05a6,6,0,0,1-2.29-.9,1.81,1.81,0,0,1-.8-1.54,2.22,2.22,0,0,1,.88-1.77,3.88,3.88,0,0,1,4.6,0,2.25,2.25,0,0,1,.86,1.82l0,0H75.78a1.34,1.34,0,0,0-.48-1,2,2,0,0,0-2.43-.07,1.12,1.12,0,0,0-.4.87.9.9,0,0,0,.35.77,3.69,3.69,0,0,0,1.43.5,6.1,6.1,0,0,1,2.36.93,1.88,1.88,0,0,1,.8,1.57,2.22,2.22,0,0,1-.91,1.84,3.76,3.76,0,0,1-2.37.71,3.71,3.71,0,0,1-2.55-.82,2.31,2.31,0,0,1-.88-1.91V66.1h1.47a1.43,1.43,0,0,0,.61,1.2,2.37,2.37,0,0,0,1.34.38,2.11,2.11,0,0,0,1.28-.35A1.07,1.07,0,0,0,75.88,66.44Z"/><path class="cls-2" d="M58.17,37.52h-39A4.49,4.49,0,0,1,14.64,33V4.85A4.48,4.48,0,0,1,19.12.38H58.17a4.47,4.47,0,0,1,4.47,4.47V33A4.48,4.48,0,0,1,58.17,37.52Zm-39-35.14a2.47,2.47,0,0,0-2.48,2.47V33a2.48,2.48,0,0,0,2.48,2.48H58.17A2.48,2.48,0,0,0,60.64,33V4.85a2.47,2.47,0,0,0-2.47-2.47Z"/><path class="cls-2" d="M47,44.94H30.29a1,1,0,0,1-.84-.45,1,1,0,0,1-.08-1l3.23-7.42a1,1,0,1,1,1.83.8l-2.62,6H45.48l-2.63-6a1,1,0,0,1,1.84-.8l3.23,7.42a1,1,0,0,1-.08,1A1,1,0,0,1,47,44.94Z"/><path class="cls-2" d="M61.64,30.57h-46a1,1,0,0,1,0-2h46a1,1,0,0,1,0,2Z"/><path class="cls-2" d="M23.59,25.38a1,1,0,0,1-.71-1.71L33.55,13A1,1,0,0,1,35,13L41,19.07l12-12a1,1,0,0,1,1.42,0,1,1,0,0,1,0,1.41L41.73,21.19a1,1,0,0,1-1.41,0l-6.06-6.07-10,10A1,1,0,0,1,23.59,25.38Z"/><path class="cls-2" d="M38.64,33.92a1,1,0,0,1-.38-.07,1.06,1.06,0,0,1-.33-.22,1,1,0,0,1,0-1.41.91.91,0,0,1,.33-.22,1,1,0,0,1,1.38.92,1,1,0,0,1-.29.71,1.19,1.19,0,0,1-.33.22A1,1,0,0,1,38.64,33.92Z"/></g></g></svg>