<svg xmlns="http://www.w3.org/2000/svg" viewBox="0 0 72.55 72.13"><defs><style>.cls-1{fill:#0097d6;}</style></defs><title>consumer</title><g id="Layer_2" data-name="Layer 2"><g id="Layer_1-2" data-name="Layer 1"><path class="cls-1" d="M8.52,68.32l0,.05a3.43,3.43,0,0,1-1.13,2.68,4.27,4.27,0,0,1-3,1.08,4,4,0,0,1-3.15-1.37A5,5,0,0,1,0,67.29v-2a5.07,5.07,0,0,1,1.21-3.48,4,4,0,0,1,3.15-1.37,4.43,4.43,0,0,1,3.07,1,3.4,3.4,0,0,1,1.11,2.72l0,0H7.05a2.53,2.53,0,0,0-.71-1.89,2.7,2.7,0,0,0-2-.7,2.44,2.44,0,0,0-2.06,1,4.26,4.26,0,0,0-.76,2.58v2a4.23,4.23,0,0,0,.76,2.59,2.41,2.41,0,0,0,2.06,1,2.7,2.7,0,0,0,2-.69,2.56,2.56,0,0,0,.71-1.91Z"/><path class="cls-1" d="M10,67.66a4.69,4.69,0,0,1,1-3.09,3.42,3.42,0,0,1,2.76-1.22,3.47,3.47,0,0,1,2.78,1.21,4.65,4.65,0,0,1,1,3.1v.17a4.61,4.61,0,0,1-1,3.09,3.4,3.4,0,0,1-2.76,1.21A3.45,3.45,0,0,1,11,70.92a4.62,4.62,0,0,1-1-3.09Zm1.54.17a4.06,4.06,0,0,0,.56,2.22,1.89,1.89,0,0,0,1.69.87,1.87,1.87,0,0,0,1.67-.87A4,4,0,0,0,16,67.83v-.17a4,4,0,0,0-.57-2.21,1.9,1.9,0,0,0-1.69-.89,1.87,1.87,0,0,0-1.67.89,4.07,4.07,0,0,0-.56,2.21Z"/><path class="cls-1" d="M20.8,63.51l.11,1.26a3.1,3.1,0,0,1,1.05-1,2.92,2.92,0,0,1,1.45-.37,2.77,2.77,0,0,1,2.12.8,3.54,3.54,0,0,1,.75,2.48V72H24.74v-5.3a2.31,2.31,0,0,0-.44-1.59A1.77,1.77,0,0,0,23,64.6a2.37,2.37,0,0,0-1.2.29,2.09,2.09,0,0,0-.79.8V72H19.42V63.51Z"/><path class="cls-1" d="M33.43,69.69a1,1,0,0,0-.39-.83,3.68,3.68,0,0,0-1.46-.56,5.93,5.93,0,0,1-2.29-.9,1.8,1.8,0,0,1-.81-1.55,2.25,2.25,0,0,1,.88-1.76,3.45,3.45,0,0,1,2.28-.74,3.4,3.4,0,0,1,2.33.78A2.25,2.25,0,0,1,34.82,66l0,0H33.34a1.34,1.34,0,0,0-.48-1,1.72,1.72,0,0,0-1.22-.45,1.75,1.75,0,0,0-1.21.37,1.16,1.16,0,0,0-.41.88.93.93,0,0,0,.35.77,3.86,3.86,0,0,0,1.43.5,6,6,0,0,1,2.36.93A1.86,1.86,0,0,1,35,69.58a2.23,2.23,0,0,1-.91,1.84,3.79,3.79,0,0,1-2.38.71,3.75,3.75,0,0,1-2.55-.82,2.35,2.35,0,0,1-.88-1.92l0,0h1.46a1.42,1.42,0,0,0,.61,1.19,2.32,2.32,0,0,0,1.34.38A2.09,2.09,0,0,0,33,70.58,1.08,1.08,0,0,0,33.43,69.69Z"/><path class="cls-1" d="M42.25,70.71a2.73,2.73,0,0,1-2.47,1.42,2.7,2.7,0,0,1-2.15-.89,4.05,4.05,0,0,1-.78-2.75v-5h1.54v5a3.12,3.12,0,0,0,.4,1.86,1.47,1.47,0,0,0,1.24.51,2.47,2.47,0,0,0,1.36-.34,2.14,2.14,0,0,0,.81-.94V63.51h1.53V72H42.35Z"/><path class="cls-1" d="M47.35,63.51l.11,1.11a2.92,2.92,0,0,1,1-.93A3.08,3.08,0,0,1,50,63.35a2.62,2.62,0,0,1,1.45.39,2.35,2.35,0,0,1,.91,1.18,3.1,3.1,0,0,1,1.06-1.15,2.74,2.74,0,0,1,1.53-.42,2.54,2.54,0,0,1,2,.89,4.05,4.05,0,0,1,.75,2.67v5H56.19V66.89a2.87,2.87,0,0,0-.43-1.77,1.6,1.6,0,0,0-1.28-.52,1.64,1.64,0,0,0-1.28.55,2.33,2.33,0,0,0-.57,1.38V72H51.08V66.89a2.82,2.82,0,0,0-.44-1.74,1.56,1.56,0,0,0-1.27-.55,2.14,2.14,0,0,0-1.16.29,2,2,0,0,0-.69.81V72H46V63.51Z"/><path class="cls-1" d="M63.46,72.13A3.57,3.57,0,0,1,60.62,71a4.45,4.45,0,0,1-1-3.06v-.34a4.41,4.41,0,0,1,1-3,3.31,3.31,0,0,1,2.57-1.19,3,3,0,0,1,2.54,1.06,4.31,4.31,0,0,1,.85,2.8V68H61.2l0,0a3.54,3.54,0,0,0,.56,2.07,2,2,0,0,0,1.72.79,3.82,3.82,0,0,0,1.37-.22,3.1,3.1,0,0,0,1-.61l.61,1a3.89,3.89,0,0,1-1.2.74A4.79,4.79,0,0,1,63.46,72.13Zm-.24-7.57a1.65,1.65,0,0,0-1.33.63,2.94,2.94,0,0,0-.65,1.58l0,0h3.81v-.12a2.45,2.45,0,0,0-.45-1.52A1.66,1.66,0,0,0,63.22,64.56Z"/><path class="cls-1" d="M72.34,64.87l-.79-.05a1.7,1.7,0,0,0-1.67,1.1v6H68.34V63.51h1.37l.15,1.23a3,3,0,0,1,.89-1A2.09,2.09,0,0,1,72,63.35a1.76,1.76,0,0,1,.33,0l.26.06Z"/><path class="cls-1" d="M48.14,11.51a5.76,5.76,0,1,0-5.76-5.75A5.77,5.77,0,0,0,48.14,11.51Zm0-10.36a4.61,4.61,0,1,1-4.6,4.61A4.62,4.62,0,0,1,48.14,1.15Z"/><path class="cls-1" d="M61.74,47.39,55.76,33c2.53-1.38,1.72-4.3,1.27-5.93a5.85,5.85,0,0,1-.25-1.14V18.42a6.35,6.35,0,0,0-6.34-6.33h-.95a3.42,3.42,0,0,0-2.65,1.24L37.62,24.39a2.8,2.8,0,0,0,0,3.64L31.14,42.6h-17a.58.58,0,1,0,0,1.15h17.7l6.73-15a2.71,2.71,0,0,0,1.44.25,2.77,2.77,0,0,0,1.69-.8l.07,0h1.73a.58.58,0,0,0,.57-.58.57.57,0,0,0-.57-.57h-.82l5-6,1,10.52L41.25,46.77a3.28,3.28,0,0,0,.63,4.52,2.83,2.83,0,0,0,1.64.52,3.41,3.41,0,0,0,.55-.05,3.49,3.49,0,0,0,2.24-1.49l5.56-10.51L56,49.47a3.56,3.56,0,0,0,1.76,2,3,3,0,0,0,1.3.3,2.73,2.73,0,0,0,.94-.16A3.29,3.29,0,0,0,61.74,47.39ZM45.35,49.65a2.41,2.41,0,0,1-1.48,1,1.75,1.75,0,0,1-1.33-.28,2.14,2.14,0,0,1-.31-3l7.65-15.62-1.14-12,2.72-3.3-.88-.73-9.51,11.5a1.69,1.69,0,0,1-1.13.6,1.63,1.63,0,0,1-1.22-.38,1.66,1.66,0,0,1-.22-2.34l9.22-11.06a2.28,2.28,0,0,1,1.77-.83h.95a5.18,5.18,0,0,1,5.18,5.18V25.9a6.33,6.33,0,0,0,.3,1.45c.61,2.17.94,4-1.17,4.82l-.2.08Zm14.22.91a1.75,1.75,0,0,1-1.36-.09A2.4,2.4,0,0,1,57,49.06L52.57,38.45,54.93,34l5.74,13.81A2.15,2.15,0,0,1,59.57,50.56Z"/><path class="cls-1" d="M29.14,44.9a3.46,3.46,0,1,0,3.46,3.46A3.46,3.46,0,0,0,29.14,44.9Zm0,5.76a2.31,2.31,0,1,1,2.31-2.3A2.3,2.3,0,0,1,29.14,50.66Z"/><path class="cls-1" d="M16.48,44.9a3.46,3.46,0,1,0,3.45,3.46A3.45,3.45,0,0,0,16.48,44.9Zm0,5.76a2.31,2.31,0,1,1,2.3-2.3A2.3,2.3,0,0,1,16.48,50.66Z"/><path class="cls-1" d="M30.09,40.87l5.7-12.66H10l3.8,12.66ZM34,29.36,29.35,39.72H14.6L11.5,29.36Z"/></g></g></svg>