<svg xmlns="http://www.w3.org/2000/svg" viewBox="0 0 72.01 96.12"><defs><style>.cls-1,.cls-2{fill:#0097d6;}.cls-2{stroke:#fff;stroke-miterlimit:10;stroke-width:0.5px;}</style></defs><title>food_beverages</title><g id="Layer_2" data-name="Layer 2"><g id="Layer_1-2" data-name="Layer 1"><path class="cls-1" d="M16.57,68.47H11.78v5H10.24V62.13h7.13v1.21H11.78v3.92h4.79Z"/><path class="cls-1" d="M18.33,69.2a4.64,4.64,0,0,1,1-3.09,3.39,3.39,0,0,1,2.76-1.21,3.42,3.42,0,0,1,2.77,1.21,4.62,4.62,0,0,1,1,3.09v.17a4.7,4.7,0,0,1-1,3.1,3.44,3.44,0,0,1-2.77,1.2,3.42,3.42,0,0,1-2.77-1.21,4.61,4.61,0,0,1-1-3.09Zm1.54.17a4,4,0,0,0,.57,2.22,2,2,0,0,0,3.35,0,4,4,0,0,0,.57-2.22V69.2A4,4,0,0,0,23.79,67a1.88,1.88,0,0,0-1.68-.88,1.84,1.84,0,0,0-1.67.88,4,4,0,0,0-.57,2.21Z"/><path class="cls-1" d="M27.43,69.2a4.64,4.64,0,0,1,1-3.09,3.78,3.78,0,0,1,5.54,0,4.62,4.62,0,0,1,1,3.09v.17a4.65,4.65,0,0,1-1,3.1,3.77,3.77,0,0,1-5.53,0,4.61,4.61,0,0,1-1-3.09Zm1.53.17a4,4,0,0,0,.57,2.22,2,2,0,0,0,3.36,0,4,4,0,0,0,.57-2.22V69.2A3.93,3.93,0,0,0,32.88,67a2,2,0,0,0-3.35,0A4,4,0,0,0,29,69.2Z"/><path class="cls-1" d="M36.53,69.43a5.63,5.63,0,0,1,.87-3.28,2.78,2.78,0,0,1,2.44-1.25,3.11,3.11,0,0,1,1.32.27,2.69,2.69,0,0,1,1,.8V61.32h1.54V73.51H42.5l-.24-1.08a2.74,2.74,0,0,1-1,.93,3.19,3.19,0,0,1-1.42.31,2.9,2.9,0,0,1-2.42-1.12,4.68,4.68,0,0,1-.87-3Zm1.54.17a3.58,3.58,0,0,0,.52,2.05,1.83,1.83,0,0,0,1.62.77,2,2,0,0,0,1.16-.31,2.37,2.37,0,0,0,.77-.88V67.29a2.5,2.5,0,0,0-.77-.84,2.11,2.11,0,0,0-1.14-.3,1.77,1.77,0,0,0-1.64.91,4.73,4.73,0,0,0-.52,2.37Z"/><path class="cls-1" d="M49.33,70.44a2.72,2.72,0,0,1,.55-1.67,6.94,6.94,0,0,1,1.65-1.43A7.53,7.53,0,0,1,50.62,66a2.76,2.76,0,0,1-.3-1.24,2.67,2.67,0,0,1,.77-2A2.9,2.9,0,0,1,53.18,62a2.81,2.81,0,0,1,2,.71A2.21,2.21,0,0,1,56,64.39a2.12,2.12,0,0,1-.41,1.32,5.19,5.19,0,0,1-1.21,1.15l-.85.62,2.65,3.2a4.27,4.27,0,0,0,.5-1.13,4.59,4.59,0,0,0,.18-1.3H58.2a5.57,5.57,0,0,1-.31,1.9A4.75,4.75,0,0,1,57,71.72l1.45,1.75,0,0H56.65l-.66-.8a4.75,4.75,0,0,1-1.38.71,4.91,4.91,0,0,1-1.57.25,3.86,3.86,0,0,1-2.7-.9A3,3,0,0,1,49.33,70.44Zm3.71,2a3.24,3.24,0,0,0,1.1-.2,3.72,3.72,0,0,0,1-.55l-2.82-3.39-.32.22a3.07,3.07,0,0,0-.94,1,2.09,2.09,0,0,0-.23.87,2,2,0,0,0,.56,1.46A2.12,2.12,0,0,0,53,72.47ZM51.86,64.7a2,2,0,0,0,.21.86,5.07,5.07,0,0,0,.64,1l1.08-.74a1.71,1.71,0,0,0,.6-.64,1.77,1.77,0,0,0,.16-.77,1.17,1.17,0,0,0-.38-.85,1.37,1.37,0,0,0-1-.36,1.14,1.14,0,0,0-1,.44A1.69,1.69,0,0,0,51.86,64.7Z"/><path class="cls-1" d="M7.22,88.8a4.63,4.63,0,0,1-.88,3,2.9,2.9,0,0,1-2.42,1.12,3.06,3.06,0,0,1-1.46-.33,2.68,2.68,0,0,1-1-1l-.25,1.15H0V80.52H1.54v4.73a2.65,2.65,0,0,1,1-.86,3.12,3.12,0,0,1,1.38-.29,2.78,2.78,0,0,1,2.43,1.25,5.57,5.57,0,0,1,.88,3.29Zm-1.54-.16a4.68,4.68,0,0,0-.54-2.38,1.75,1.75,0,0,0-1.62-.91,2,2,0,0,0-1.2.34,2.48,2.48,0,0,0-.78.94v3.66a2.57,2.57,0,0,0,.78,1,2,2,0,0,0,1.21.35,1.86,1.86,0,0,0,1.62-.77,3.6,3.6,0,0,0,.53-2Z"/><path class="cls-1" d="M12.59,92.87a3.6,3.6,0,0,1-2.84-1.16,4.5,4.5,0,0,1-1-3.07V88.3a4.34,4.34,0,0,1,1.06-3,3.26,3.26,0,0,1,2.56-1.19,3.06,3.06,0,0,1,2.54,1.05A4.32,4.32,0,0,1,15.74,88v.81h-5.4l0,0a3.42,3.42,0,0,0,.57,2.06,2,2,0,0,0,1.71.8A3.82,3.82,0,0,0,14,91.44a2.89,2.89,0,0,0,1-.61l.6,1a3.67,3.67,0,0,1-1.2.74A4.75,4.75,0,0,1,12.59,92.87Zm-.24-7.56a1.64,1.64,0,0,0-1.33.62,2.86,2.86,0,0,0-.64,1.59v0H14.2v-.13a2.47,2.47,0,0,0-.45-1.52A1.64,1.64,0,0,0,12.35,85.31Z"/><path class="cls-1" d="M20.19,90.21l.13.6h.05l.15-.6,1.94-6H24l-3.11,8.46H19.76l-3.15-8.46h1.58Z"/><path class="cls-1" d="M28.81,92.87A3.6,3.6,0,0,1,26,91.71a4.5,4.5,0,0,1-1-3.07V88.3a4.38,4.38,0,0,1,1.05-3,3.28,3.28,0,0,1,2.57-1.19,3.06,3.06,0,0,1,2.54,1.05A4.32,4.32,0,0,1,32,88v.81H26.55l0,0a3.49,3.49,0,0,0,.56,2.06,2,2,0,0,0,1.72.8,3.82,3.82,0,0,0,1.37-.23,3,3,0,0,0,1-.61l.6,1a3.78,3.78,0,0,1-1.2.74A4.75,4.75,0,0,1,28.81,92.87Zm-.24-7.56a1.64,1.64,0,0,0-1.33.62,2.94,2.94,0,0,0-.65,1.59l0,0h3.81v-.13A2.47,2.47,0,0,0,30,85.91,1.64,1.64,0,0,0,28.57,85.31Z"/><path class="cls-1" d="M37.69,85.61l-.79,0a1.79,1.79,0,0,0-1,.29,1.89,1.89,0,0,0-.64.82v6H33.69V84.25h1.37l.15,1.24a3,3,0,0,1,.89-1,2.08,2.08,0,0,1,1.21-.36l.33,0,.26.06Z"/><path class="cls-1" d="M44.48,92.71c0-.26-.09-.48-.12-.68a5.87,5.87,0,0,1,0-.59,3.45,3.45,0,0,1-1.12,1,2.91,2.91,0,0,1-1.49.41,2.76,2.76,0,0,1-2-.68A2.48,2.48,0,0,1,39,90.33a2.17,2.17,0,0,1,1-1.89,4.54,4.54,0,0,1,2.66-.69h1.67v-.83a1.56,1.56,0,0,0-.45-1.18,1.77,1.77,0,0,0-1.28-.43,1.84,1.84,0,0,0-1.21.37,1.12,1.12,0,0,0-.46.9l-1.46,0,0,0a2,2,0,0,1,.86-1.69,3.59,3.59,0,0,1,2.37-.76,3.5,3.5,0,0,1,2.32.73,2.58,2.58,0,0,1,.87,2.1V91a8.18,8.18,0,0,0,0,.88,4.89,4.89,0,0,0,.17.83Zm-2.55-1.13a2.72,2.72,0,0,0,1.51-.43,2,2,0,0,0,.87-1V88.79H42.59a2.25,2.25,0,0,0-1.49.47,1.38,1.38,0,0,0-.56,1.1,1.17,1.17,0,0,0,.35.89A1.48,1.48,0,0,0,41.93,91.58Z"/><path class="cls-1" d="M47.81,88.64a5.64,5.64,0,0,1,.87-3.29,2.8,2.8,0,0,1,2.44-1.25,2.9,2.9,0,0,1,1.41.32,2.84,2.84,0,0,1,1,.93l.19-1.1H55v8.5a3.23,3.23,0,0,1-.95,2.5,3.88,3.88,0,0,1-2.72.87A5.83,5.83,0,0,1,50,96a4.84,4.84,0,0,1-1.25-.46L49,94.3a4.45,4.45,0,0,0,1.07.38,6,6,0,0,0,1.24.14,2.25,2.25,0,0,0,1.64-.51,2.12,2.12,0,0,0,.51-1.56v-1a2.83,2.83,0,0,1-1,.81,3.14,3.14,0,0,1-1.34.27,2.89,2.89,0,0,1-2.42-1.12,4.68,4.68,0,0,1-.87-3Zm1.54.16a3.6,3.6,0,0,0,.53,2,1.8,1.8,0,0,0,1.61.77,2.06,2.06,0,0,0,1.17-.32,2.41,2.41,0,0,0,.77-.89V86.52a2.47,2.47,0,0,0-.77-.86,2,2,0,0,0-1.15-.31,1.74,1.74,0,0,0-1.63.91,4.74,4.74,0,0,0-.53,2.38Z"/><path class="cls-1" d="M60.68,92.87a3.6,3.6,0,0,1-2.84-1.16,4.5,4.5,0,0,1-1-3.07V88.3a4.38,4.38,0,0,1,1-3,3.28,3.28,0,0,1,2.57-1.19A3.06,3.06,0,0,1,63,85.15,4.38,4.38,0,0,1,63.83,88v.81H58.42l0,0A3.49,3.49,0,0,0,59,90.87a2,2,0,0,0,1.72.8,3.82,3.82,0,0,0,1.37-.23,2.94,2.94,0,0,0,1-.61l.6,1a3.72,3.72,0,0,1-1.19.74A4.79,4.79,0,0,1,60.68,92.87Zm-.24-7.56a1.64,1.64,0,0,0-1.33.62,2.87,2.87,0,0,0-.65,1.59l0,0h3.81v-.13a2.47,2.47,0,0,0-.45-1.52A1.65,1.65,0,0,0,60.44,85.31Z"/><path class="cls-1" d="M70.47,90.43a1,1,0,0,0-.39-.83A3.75,3.75,0,0,0,68.62,89a6.06,6.06,0,0,1-2.3-.9,1.81,1.81,0,0,1-.8-1.54,2.25,2.25,0,0,1,.88-1.77,3.9,3.9,0,0,1,4.61,0,2.27,2.27,0,0,1,.85,1.82l0,0H70.38a1.35,1.35,0,0,0-.49-1,1.73,1.73,0,0,0-1.21-.44,1.8,1.8,0,0,0-1.22.36,1.19,1.19,0,0,0-.4.88.93.93,0,0,0,.35.77,3.69,3.69,0,0,0,1.43.5,6,6,0,0,1,2.36.93A1.87,1.87,0,0,1,72,90.32a2.26,2.26,0,0,1-.91,1.84,3.79,3.79,0,0,1-2.38.71,3.71,3.71,0,0,1-2.55-.82,2.35,2.35,0,0,1-.88-1.91v0h1.47a1.43,1.43,0,0,0,.61,1.2,2.39,2.39,0,0,0,1.34.38A2.09,2.09,0,0,0,70,91.32,1.07,1.07,0,0,0,70.47,90.43Z"/><path class="cls-2" d="M40.37,33.75a13.39,13.39,0,0,0-13.45-13H23.33a13.51,13.51,0,0,0-13.44,13,3.6,3.6,0,0,0-1.8,3.13,3.66,3.66,0,0,0,2.69,3.49V43a4.44,4.44,0,0,0,4.49,4.48H35A4.43,4.43,0,0,0,39.47,43v-2.6a3.57,3.57,0,0,0,2.69-3.49A3.5,3.5,0,0,0,40.37,33.75Zm-17-11.28h3.59A11.77,11.77,0,0,1,38.58,33.21H11.68A11.77,11.77,0,0,1,23.33,22.47ZM37.68,42.88A2.65,2.65,0,0,1,35,45.57H15.27a2.64,2.64,0,0,1-2.69-2.69V40.46h25.1Zm.9-4.3H11.68a1.79,1.79,0,0,1,0-3.58h26.9a1.79,1.79,0,0,1,0,3.58Z"/><polygon class="cls-2" points="15.52 29.89 17.29 28.12 18.56 29.38 16.78 31.16 15.52 29.89"/><polygon class="cls-2" points="20 26.31 21.77 24.54 23.04 25.8 21.27 27.57 20 26.31"/><polygon class="cls-2" points="23.59 29.89 25.36 28.12 26.63 29.38 24.85 31.16 23.59 29.89"/><polygon class="cls-2" points="31.65 29.89 33.43 28.12 34.7 29.39 32.92 31.16 31.65 29.89"/><polygon class="cls-2" points="28.07 26.31 29.84 24.54 31.11 25.8 29.34 27.58 28.07 26.31"/><path class="cls-2" d="M61,15.3H53.82V8.68L46.38.35,45,1.51l6.9,7.79v5.91H43.86a2.64,2.64,0,0,0-2.68,2.69,2.69,2.69,0,0,0,1.88,2.51l2.69,27H59l2.69-27a2.7,2.7,0,0,0,1.88-2.51A2.55,2.55,0,0,0,61,15.3Zm-3.5,30.44h-10L44.94,20.67H60ZM61,18.88H44a.9.9,0,0,1,0-1.79H61a.9.9,0,1,1,0,1.79Z"/></g></g></svg>