<svg xmlns="http://www.w3.org/2000/svg" viewBox="0 0 62.85 64.9"><defs><style>.cls-1,.cls-2{fill:#0097d6;}.cls-2{stroke:#fff;stroke-miterlimit:10;stroke-width:0.75px;}</style></defs><title>furniture</title><g id="Layer_2" data-name="Layer 2"><g id="Layer_1-2" data-name="Layer 1"><path class="cls-1" d="M6.34,59.71H1.54v5H0V53.36H7.13v1.22H1.54V58.5h4.8Z"/><path class="cls-1" d="M13.81,63.49a2.69,2.69,0,0,1-2.47,1.41A2.69,2.69,0,0,1,9.19,64a4.07,4.07,0,0,1-.78-2.75v-5H10v5a3.2,3.2,0,0,0,.4,1.86,1.51,1.51,0,0,0,1.24.5A2.56,2.56,0,0,0,13,63.32a2,2,0,0,0,.81-.94V56.29H15.3v8.45H13.91Z"/><path class="cls-1" d="M21.54,57.65l-.79,0a1.7,1.7,0,0,0-1.67,1.1v6H17.54V56.29h1.37l.15,1.23a2.88,2.88,0,0,1,.89-1,2,2,0,0,1,1.21-.37,1.69,1.69,0,0,1,.33,0l.26.06Z"/><path class="cls-1" d="M24.52,56.29l.11,1.25a3.16,3.16,0,0,1,1.05-1,2.82,2.82,0,0,1,1.45-.37,2.78,2.78,0,0,1,2.12.8A3.51,3.51,0,0,1,30,59.4v5.34H28.46V59.43A2.3,2.3,0,0,0,28,57.85a1.78,1.78,0,0,0-1.35-.47,2.41,2.41,0,0,0-1.21.29,2,2,0,0,0-.78.8v6.27H23.14V56.29Z"/><path class="cls-1" d="M33.9,54.12H32.36V52.55H33.9Zm0,10.62H32.36V56.29H33.9Z"/><path class="cls-1" d="M38.41,54.25v2H40v1.14h-1.6v5.13a1.19,1.19,0,0,0,.24.84.9.9,0,0,0,.65.24,1.13,1.13,0,0,0,.3,0l.28-.07.21,1a1.35,1.35,0,0,1-.51.23,2.63,2.63,0,0,1-.67.09,2,2,0,0,1-1.49-.56,2.47,2.47,0,0,1-.55-1.78V57.43H35.52V56.29h1.35v-2Z"/><path class="cls-1" d="M47,63.49a2.69,2.69,0,0,1-2.47,1.41A2.69,2.69,0,0,1,42.4,64a4.07,4.07,0,0,1-.77-2.75v-5h1.53v5a3.2,3.2,0,0,0,.4,1.86,1.51,1.51,0,0,0,1.24.5,2.56,2.56,0,0,0,1.36-.33,2,2,0,0,0,.81-.94V56.29h1.54v8.45H47.13Z"/><path class="cls-1" d="M54.75,57.65l-.79,0a1.7,1.7,0,0,0-1.67,1.1v6H50.75V56.29h1.38l.14,1.23a2.88,2.88,0,0,1,.89-1,2,2,0,0,1,1.22-.37,1.66,1.66,0,0,1,.32,0l.26.06Z"/><path class="cls-1" d="M59.7,64.9a3.57,3.57,0,0,1-2.84-1.16,4.49,4.49,0,0,1-1-3.06v-.35a4.4,4.4,0,0,1,1-3,3.31,3.31,0,0,1,2.57-1.19,3.06,3.06,0,0,1,2.54,1A4.34,4.34,0,0,1,62.85,60v.81h-5.4l0,0A3.54,3.54,0,0,0,58,62.91a2,2,0,0,0,1.72.79,3.82,3.82,0,0,0,1.37-.22,3.17,3.17,0,0,0,1-.62l.6,1a3.61,3.61,0,0,1-1.2.74A4.75,4.75,0,0,1,59.7,64.9Zm-.24-7.56a1.67,1.67,0,0,0-1.33.62,3,3,0,0,0-.65,1.59l0,0h3.81v-.12a2.48,2.48,0,0,0-.45-1.53A1.64,1.64,0,0,0,59.46,57.34Z"/><path class="cls-2" d="M59,15.32a4.8,4.8,0,0,0-4.81-4.8H51.14V5.18a4.79,4.79,0,0,0-4.8-4.8H15.73a4.79,4.79,0,0,0-4.8,4.8v5.34H7.87a4.8,4.8,0,0,0-4.8,4.8v10a4.8,4.8,0,0,0,4.56,4.81v5.7a1.2,1.2,0,0,0,2.4,0v-5.7H52.1v5.7a1.2,1.2,0,0,0,2.4,0v-5.7a4.82,4.82,0,0,0,4.57-4.81ZM48.74,5.18V19.7H32.18V2.78H46.34A2.39,2.39,0,0,1,48.74,5.18Zm-35.41,0a2.39,2.39,0,0,1,2.4-2.4H29.78V19.7H13.33Zm43.28,20.1a2.4,2.4,0,0,1-2.41,2.4H7.87a2.39,2.39,0,0,1-2.4-2.4v-10a2.39,2.39,0,0,1,2.4-2.4h3.06v8a1.2,1.2,0,0,0,1.2,1.2H49.94a1.19,1.19,0,0,0,1.2-1.2v-8H54.2a2.4,2.4,0,0,1,2.41,2.4Z"/></g></g></svg>