<svg xmlns="http://www.w3.org/2000/svg" viewBox="0 0 48.5 70.35"><defs><style>.cls-1,.cls-2{fill:#0097d6;}.cls-2{stroke:#fff;stroke-miterlimit:10;stroke-width:1.5px;}</style></defs><title>health</title><g id="Layer_2" data-name="Layer 2"><g id="Layer_1-2" data-name="Layer 1"><path class="cls-1" d="M10.71,70.19H9.17v-5H3.65v5H2.11V58.81H3.65V64H9.17V58.81h1.54Z"/><path class="cls-1" d="M16.65,70.35a3.6,3.6,0,0,1-2.84-1.16,4.5,4.5,0,0,1-1-3.07v-.34a4.38,4.38,0,0,1,1.05-3,3.31,3.31,0,0,1,2.57-1.19A3.06,3.06,0,0,1,19,62.63a4.34,4.34,0,0,1,.85,2.81v.81H14.4l0,0a3.54,3.54,0,0,0,.56,2.07,2,2,0,0,0,1.72.79A4.06,4.06,0,0,0,18,68.93a3.17,3.17,0,0,0,1-.62l.6,1a3.78,3.78,0,0,1-1.2.74A4.75,4.75,0,0,1,16.65,70.35Zm-.24-7.56a1.67,1.67,0,0,0-1.33.62A2.94,2.94,0,0,0,14.43,65l0,0h3.81v-.13a2.47,2.47,0,0,0-.45-1.52A1.64,1.64,0,0,0,16.41,62.79Z"/><path class="cls-1" d="M26.72,70.19c0-.26-.09-.48-.12-.68a5.63,5.63,0,0,1-.05-.59,3.55,3.55,0,0,1-1.12,1,2.91,2.91,0,0,1-1.49.41,2.76,2.76,0,0,1-2-.67,2.51,2.51,0,0,1-.69-1.87,2.16,2.16,0,0,1,1-1.89,4.54,4.54,0,0,1,2.66-.69h1.67V64.4a1.56,1.56,0,0,0-.45-1.18,1.77,1.77,0,0,0-1.28-.43,1.84,1.84,0,0,0-1.21.37,1.12,1.12,0,0,0-.46.9l-1.47,0v0a2,2,0,0,1,.86-1.69,3.57,3.57,0,0,1,2.37-.76,3.5,3.5,0,0,1,2.32.73,2.6,2.6,0,0,1,.87,2.1v4.07a8.18,8.18,0,0,0,.05.88,4.7,4.7,0,0,0,.17.83Zm-2.55-1.13a2.72,2.72,0,0,0,1.51-.43,2.06,2.06,0,0,0,.87-1V66.27H24.82a2.23,2.23,0,0,0-1.48.47,1.38,1.38,0,0,0-.56,1.1,1.15,1.15,0,0,0,.35.89A1.46,1.46,0,0,0,24.17,69.06Z"/><path class="cls-1" d="M32,70.19H30.45V58H32Z"/><path class="cls-1" d="M36.5,59.69v2h1.6v1.14H36.5V68a1.16,1.16,0,0,0,.24.83.87.87,0,0,0,.66.25,1.81,1.81,0,0,0,.29,0L38,69l.21,1a1.52,1.52,0,0,1-.51.23,2.63,2.63,0,0,1-.67.09,2,2,0,0,1-1.49-.57A2.42,2.42,0,0,1,35,68V62.87H33.61V61.73H35v-2Z"/><path class="cls-1" d="M41.29,62.87a3,3,0,0,1,1.07-.95,2.88,2.88,0,0,1,1.41-.34,2.76,2.76,0,0,1,2.11.81,3.59,3.59,0,0,1,.75,2.5v5.3H45.09V64.87a2.25,2.25,0,0,0-.45-1.54,1.68,1.68,0,0,0-1.34-.5,2.46,2.46,0,0,0-1.19.27,2.12,2.12,0,0,0-.82.75v6.34H39.75V58h1.54Z"/><path class="cls-2" d="M16.48.75A4.19,4.19,0,0,0,12.3,4.91v7.33H4.93A4.2,4.2,0,0,0,.75,16.42V31.86A4.19,4.19,0,0,0,4.93,36H12.3v7.33a4.19,4.19,0,0,0,4.18,4.16H32a4.19,4.19,0,0,0,4.18-4.16V36h7.37a4.19,4.19,0,0,0,4.18-4.16V16.42a4.2,4.2,0,0,0-4.18-4.18H36.2V4.91A4.19,4.19,0,0,0,32,.75Zm0,2.9H32a1.3,1.3,0,0,1,1.27,1.26v8.78a1.45,1.45,0,0,0,1.45,1.45h8.83a1.26,1.26,0,0,1,1.26,1.28V31.86a1.23,1.23,0,0,1-1.26,1.26H34.74a1.45,1.45,0,0,0-1.45,1.45v8.78A1.27,1.27,0,0,1,32,44.61H16.48a1.24,1.24,0,0,1-1.27-1.26V34.57a1.45,1.45,0,0,0-1.45-1.45H4.93a1.23,1.23,0,0,1-1.26-1.26V16.42a1.26,1.26,0,0,1,1.26-1.28h8.83a1.45,1.45,0,0,0,1.45-1.45h0V4.91a1.27,1.27,0,0,1,1.27-1.26Z"/><path class="cls-2" d="M19.11,16.37a6.06,6.06,0,0,0-4.46,2.12,8.86,8.86,0,0,0-1.2,9.08c.07.17.13.3.2.44,1.43,3.07,5.11,6.49,9.58,10.64a1.49,1.49,0,0,0,2,0c4.49-4.17,8.18-7.59,9.6-10.68.09-.2.16-.34.22-.51a8.85,8.85,0,0,0-1.26-9,6,6,0,0,0-4.44-2.12A9.45,9.45,0,0,0,24.25,18a9.45,9.45,0,0,0-5.14-1.61Zm.08,2.9a7.13,7.13,0,0,1,4,1.51,1.58,1.58,0,0,0,2.08,0,7.21,7.21,0,0,1,4.05-1.52,3,3,0,0,1,2.31,1.11,6.43,6.43,0,0,1,.71,6.14.43.43,0,0,1,0,.07v0c-.74,1.7-3.95,5.14-8,9-4.05-3.82-7.25-7.2-8-8.92,0-.05,0-.08-.05-.11a6.43,6.43,0,0,1,.69-6.21,3,3,0,0,1,2.32-1.11Z"/></g></g></svg>