<svg xmlns="http://www.w3.org/2000/svg" viewBox="0 0 56.2 71.47"><defs><style>.cls-1,.cls-2{fill:#fff;}.cls-2{stroke:#0097d6;stroke-miterlimit:10;}</style></defs><title>lighting_hover</title><g id="Layer_2" data-name="Layer 2"><g id="Layer_1-2" data-name="Layer 1"><path class="cls-1" d="M1.54,66.85H7.09v1.21H0V56.68H1.54Z"/><path class="cls-1" d="M10.25,57.44H8.71V55.87h1.54Zm0,10.62H8.71V59.6h1.54Z"/><path class="cls-1" d="M12.34,64a5.64,5.64,0,0,1,.87-3.29,2.82,2.82,0,0,1,2.44-1.25,3,3,0,0,1,1.41.32,2.89,2.89,0,0,1,1,.94l.18-1.11H19.5v8.5a3.23,3.23,0,0,1-.95,2.5,3.86,3.86,0,0,1-2.72.87,5.31,5.31,0,0,1-1.32-.17,5.16,5.16,0,0,1-1.24-.45l.23-1.2a4.45,4.45,0,0,0,1.07.38,5.36,5.36,0,0,0,1.24.14,2.25,2.25,0,0,0,1.64-.51A2.12,2.12,0,0,0,18,68.1v-1A2.73,2.73,0,0,1,17,68a3.14,3.14,0,0,1-1.34.27,2.89,2.89,0,0,1-2.42-1.12,4.68,4.68,0,0,1-.87-2.95Zm1.54.16a3.6,3.6,0,0,0,.53,2A1.8,1.8,0,0,0,16,67a2,2,0,0,0,1.17-.31,2.44,2.44,0,0,0,.77-.9V61.87a2.57,2.57,0,0,0-.77-.86A2,2,0,0,0,16,60.7a1.74,1.74,0,0,0-1.63.91A4.74,4.74,0,0,0,13.88,64Z"/><path class="cls-1" d="M23.25,60.74a3,3,0,0,1,1.07-1,2.94,2.94,0,0,1,1.41-.34,2.74,2.74,0,0,1,2.11.81,3.59,3.59,0,0,1,.75,2.5v5.3H27.05V62.75a2.31,2.31,0,0,0-.44-1.55,1.74,1.74,0,0,0-1.34-.5,2.53,2.53,0,0,0-1.2.27,2.19,2.19,0,0,0-.82.75v6.34H21.71V55.87h1.54Z"/><path class="cls-1" d="M33,57.57v2h1.6v1.15H33v5.13a1.16,1.16,0,0,0,.24.83.87.87,0,0,0,.65.25,1.77,1.77,0,0,0,.3,0l.27-.07.22,1.05a1.35,1.35,0,0,1-.51.23,2.63,2.63,0,0,1-.67.09A2,2,0,0,1,32,67.66a2.47,2.47,0,0,1-.55-1.78V60.75H30.06V59.6h1.35v-2Z"/><path class="cls-1" d="M37.86,57.44H36.32V55.87h1.54Zm0,10.62H36.32V59.6h1.54Z"/><path class="cls-1" d="M41.6,59.6l.11,1.26a3.1,3.1,0,0,1,1.06-1,3.14,3.14,0,0,1,3.57.43,3.51,3.51,0,0,1,.75,2.47v5.34H45.55V62.75a2.3,2.3,0,0,0-.44-1.58,1.76,1.76,0,0,0-1.35-.47,2.38,2.38,0,0,0-1.21.28,2.07,2.07,0,0,0-.78.8v6.28H40.23V59.6Z"/><path class="cls-1" d="M49.05,64a5.64,5.64,0,0,1,.87-3.29,2.8,2.8,0,0,1,2.43-1.25,3.06,3.06,0,0,1,1.42.32,2.94,2.94,0,0,1,1,.94L55,59.6H56.2v8.5a3.22,3.22,0,0,1-.94,2.5,3.89,3.89,0,0,1-2.73.87,5.43,5.43,0,0,1-1.32-.17A5.16,5.16,0,0,1,50,70.85l.23-1.2a4.53,4.53,0,0,0,1.08.38,5.3,5.3,0,0,0,1.24.14,2.23,2.23,0,0,0,1.63-.51,2.12,2.12,0,0,0,.51-1.56v-1a2.57,2.57,0,0,1-1,.81,3.1,3.1,0,0,1-1.33.27,2.87,2.87,0,0,1-2.42-1.12,4.68,4.68,0,0,1-.87-2.95Zm1.54.16a3.6,3.6,0,0,0,.52,2,1.83,1.83,0,0,0,1.62.77,2,2,0,0,0,1.16-.31,2.44,2.44,0,0,0,.77-.9V61.87a2.46,2.46,0,0,0-.77-.86,2,2,0,0,0-1.15-.31,1.75,1.75,0,0,0-1.63.91A4.74,4.74,0,0,0,50.59,64Z"/><path class="cls-2" d="M44.11.5H11.86A5.38,5.38,0,0,0,6.48,5.87V38.12a5.38,5.38,0,0,0,5.36,5.38H44.11a5.37,5.37,0,0,0,5.37-5.38V5.87A5.37,5.37,0,0,0,44.11.5ZM46.8,38.12a2.69,2.69,0,0,1-2.69,2.69H11.86a2.68,2.68,0,0,1-2.69-2.69V5.87a2.68,2.68,0,0,1,2.69-2.68H26.64v9.4h-.25a1.1,1.1,0,0,0-.77.32,1.08,1.08,0,0,0-.31.76v3.41a8.07,8.07,0,1,0,5.37,0V13.67a1,1,0,0,0-.32-.76,1.09,1.09,0,0,0-.76-.32h-.25V3.19H44.13a2.68,2.68,0,0,1,2.68,2.69V38.12ZM28,19.31a5.38,5.38,0,1,1-5.37,5.38A5.38,5.38,0,0,1,28,19.31Z"/><path class="cls-2" d="M40.07,26a1.35,1.35,0,0,1,0-2.69h2.69a1.35,1.35,0,0,1,0,2.69Z"/><path class="cls-2" d="M13.19,26a1.35,1.35,0,0,1,0-2.69h2.7a1.35,1.35,0,0,1,0,2.69Z"/><path class="cls-2" d="M37.48,17.09a1.33,1.33,0,0,1-1.89,0,1.35,1.35,0,0,1,0-1.9l1.9-1.9h0a1.34,1.34,0,0,1,1.89,1.9l-1.91,1.91Z"/><path class="cls-2" d="M18.48,36.09a1.34,1.34,0,0,1-1.89-1.9l1.9-1.9h0a1.35,1.35,0,0,1,1.9,1.91l-1.91,1.9Z"/><path class="cls-2" d="M35.58,34.18a1.34,1.34,0,0,1,1.91-1.89l1.9,1.9h0a1.35,1.35,0,0,1-1.91,1.9l-1.91-1.91Z"/><path class="cls-2" d="M16.58,15.18a1.35,1.35,0,0,1,1.91-1.9l1.9,1.9h0a1.34,1.34,0,0,1-1.9,1.89l-1.91-1.9Z"/></g></g></svg>