<svg xmlns="http://www.w3.org/2000/svg" viewBox="0 0 80.29 70.9"><defs><style>.cls-1,.cls-2{fill:#fff;}.cls-2{stroke:#0097d6;stroke-miterlimit:10;stroke-width:0.25px;}</style></defs><title>mechanical_hover</title><g id="Layer_2" data-name="Layer 2"><g id="Layer_1-2" data-name="Layer 1"><path class="cls-1" d="M5.64,68.61h.05l3.63-9.25h1.91V70.74H9.7V62.22h0L6.2,70.74H5.13L1.59,61.93H1.54v8.81H0V59.36H2Z"/><path class="cls-1" d="M17.19,70.9a3.58,3.58,0,0,1-2.84-1.16,4.49,4.49,0,0,1-1-3.06v-.35a4.4,4.4,0,0,1,1.05-3A3.3,3.3,0,0,1,17,62.13a3.09,3.09,0,0,1,2.54,1A4.4,4.4,0,0,1,20.34,66v.81H14.93l0,0a3.47,3.47,0,0,0,.56,2.07,2,2,0,0,0,1.72.79,3.86,3.86,0,0,0,1.37-.22,3.12,3.12,0,0,0,1-.62l.6,1A3.56,3.56,0,0,1,19,70.6,4.83,4.83,0,0,1,17.19,70.9ZM17,63.34a1.69,1.69,0,0,0-1.34.62A3,3,0,0,0,15,65.55v0H18.8v-.12a2.48,2.48,0,0,0-.46-1.53A1.63,1.63,0,0,0,17,63.34Z"/><path class="cls-1" d="M25.42,69.7a1.83,1.83,0,0,0,1.24-.47,1.49,1.49,0,0,0,.54-1.16h1.39l0,0a2.41,2.41,0,0,1-.94,1.94,3.27,3.27,0,0,1-2.25.85,3.31,3.31,0,0,1-2.75-1.21,4.68,4.68,0,0,1-1-3v-.33a4.67,4.67,0,0,1,1-3,3.29,3.29,0,0,1,2.74-1.21,3.21,3.21,0,0,1,2.32.87,2.79,2.79,0,0,1,.87,2.15l0,0H27.2a1.87,1.87,0,0,0-.51-1.32,1.66,1.66,0,0,0-1.27-.54,1.78,1.78,0,0,0-1.65.88,4.05,4.05,0,0,0-.52,2.13v.33a4.16,4.16,0,0,0,.51,2.14A1.77,1.77,0,0,0,25.42,69.7Z"/><path class="cls-1" d="M32,63.42a3.13,3.13,0,0,1,1.07-1,2.91,2.91,0,0,1,1.41-.34,2.76,2.76,0,0,1,2.11.81,3.59,3.59,0,0,1,.75,2.5v5.3H35.78V65.43a2.26,2.26,0,0,0-.45-1.55,1.71,1.71,0,0,0-1.34-.5,2.46,2.46,0,0,0-1.19.27,2.12,2.12,0,0,0-.82.75v6.34H30.44V58.55H32Z"/><path class="cls-1" d="M44.73,70.74a5.46,5.46,0,0,1-.12-.68,5.61,5.61,0,0,1-.06-.59,3.45,3.45,0,0,1-1.12,1,3.15,3.15,0,0,1-3.5-.26,2.49,2.49,0,0,1-.69-1.87,2.2,2.2,0,0,1,1-1.89,4.56,4.56,0,0,1,2.66-.68h1.67V65a1.57,1.57,0,0,0-.45-1.18,1.77,1.77,0,0,0-1.28-.43,1.86,1.86,0,0,0-1.21.38,1.1,1.1,0,0,0-.46.89l-1.46,0,0,0a2,2,0,0,1,.87-1.69,3.62,3.62,0,0,1,2.37-.76,3.49,3.49,0,0,1,2.31.73A2.6,2.6,0,0,1,46.09,65V69a8.14,8.14,0,0,0,0,.87,4.7,4.7,0,0,0,.17.83Zm-2.56-1.13a2.72,2.72,0,0,0,1.51-.43,2,2,0,0,0,.87-1V66.82H42.83a2.25,2.25,0,0,0-1.49.47,1.42,1.42,0,0,0-.56,1.1,1.19,1.19,0,0,0,.35.9A1.52,1.52,0,0,0,42.17,69.61Z"/><path class="cls-1" d="M49.7,62.29l.11,1.25a3.19,3.19,0,0,1,1.06-1,3.14,3.14,0,0,1,3.57.43,3.51,3.51,0,0,1,.75,2.47v5.34H53.65V65.43a2.3,2.3,0,0,0-.44-1.58,1.8,1.8,0,0,0-1.35-.47,2.38,2.38,0,0,0-1.21.28,2,2,0,0,0-.78.81v6.27H48.33V62.29Z"/><path class="cls-1" d="M59.09,60.12H57.55V58.55h1.54Zm0,10.62H57.55V62.29h1.54Z"/><path class="cls-1" d="M64.81,69.7a1.81,1.81,0,0,0,1.24-.47,1.49,1.49,0,0,0,.54-1.16H68l0,0a2.41,2.41,0,0,1-.94,1.94,3.27,3.27,0,0,1-2.25.85,3.33,3.33,0,0,1-2.75-1.21,4.68,4.68,0,0,1-1-3v-.33a4.67,4.67,0,0,1,1-3,3.29,3.29,0,0,1,2.74-1.21,3.21,3.21,0,0,1,2.32.87A2.79,2.79,0,0,1,68,65.15l0,0H66.59a1.87,1.87,0,0,0-.51-1.32,1.66,1.66,0,0,0-1.27-.54,1.78,1.78,0,0,0-1.65.88,4.05,4.05,0,0,0-.52,2.13v.33a4.16,4.16,0,0,0,.51,2.14A1.77,1.77,0,0,0,64.81,69.7Z"/><path class="cls-1" d="M75,70.74c0-.26-.09-.48-.12-.68a5.63,5.63,0,0,1-.05-.59,3.55,3.55,0,0,1-1.12,1,2.81,2.81,0,0,1-1.49.41,2.76,2.76,0,0,1-2-.67,2.49,2.49,0,0,1-.69-1.87,2.2,2.2,0,0,1,1-1.89,4.54,4.54,0,0,1,2.66-.68h1.67V65a1.57,1.57,0,0,0-.45-1.18,1.77,1.77,0,0,0-1.28-.43,1.84,1.84,0,0,0-1.21.38,1.1,1.1,0,0,0-.46.89l-1.47,0v0a2,2,0,0,1,.86-1.69,3.62,3.62,0,0,1,2.37-.76,3.5,3.5,0,0,1,2.32.73A2.6,2.6,0,0,1,76.39,65V69a8.14,8.14,0,0,0,0,.87,4.7,4.7,0,0,0,.17.83Zm-2.55-1.13A2.72,2.72,0,0,0,74,69.18a2.06,2.06,0,0,0,.87-1V66.82H73.13a2.24,2.24,0,0,0-1.49.47,1.39,1.39,0,0,0-.56,1.1,1.19,1.19,0,0,0,.35.9A1.5,1.5,0,0,0,72.47,69.61Z"/><path class="cls-1" d="M80.29,70.74H78.75V58.55h1.54Z"/><path class="cls-2" d="M59.24,20.78a2,2,0,0,0-.45-2.06l-2.42-2.43A2.11,2.11,0,0,0,56,16a2,2,0,0,0-.41-2.16l-2.43-2.43a2,2,0,0,0-2.78,0l-.27.27c-.07-.08-.1-.19-.18-.27L47.47,9a2,2,0,0,0-2.78,0L42.8,10.91a4.81,4.81,0,0,0-3.89-.69l-.85.12a23.54,23.54,0,0,0-3.77.75L34,10.86a8.55,8.55,0,0,0-2.9-8.92,8.32,8.32,0,0,0-9.66-.51l-.07.05h0s0,0,0,0a.64.64,0,0,0-.28.36s0,0,0,.06a.13.13,0,0,1,0,.06.71.71,0,0,0,.09.46s0,0,0,0,0,0,.05,0a.62.62,0,0,0,.34.25l.06,0h0l4.13,1.31,0,4.28L21.7,9.74,19.12,6.23l0,0A.75.75,0,0,0,18.71,6h-.1a.7.7,0,0,0-.49.12h0v0a.71.71,0,0,0-.27.39.13.13,0,0,1,0,.06h0A8.38,8.38,0,0,0,20.74,15,8.56,8.56,0,0,0,26,16.86a7.83,7.83,0,0,0,3.31-.74l1.75,1.65c0,.49-.07,1-.07,1.37,0,3.52-.53,5.69-.89,6.05l-1,1-1-1a.87.87,0,0,0-1.17,0l-6.46,6.47a.83.83,0,0,0,0,1.17L36.6,49a.87.87,0,0,0,.59.24.83.83,0,0,0,.58-.24l6.46-6.47a.82.82,0,0,0,0-1.17l-1-1,1-1c.39-.39,1.19-.39,2.12-.37,1.36,0,3,0,4.34-1.25l.68-.66,2.9,2.75a3.42,3.42,0,0,0,2.36.9l.42,0a4.39,4.39,0,0,0,2.72-1.4,3.93,3.93,0,0,0,.08-5.54l-2.79-2.4,5-4.95a2,2,0,0,0,0-2.79Zm-4-3.32,2.43,2.43a.33.33,0,0,1,0,.45L52,26h0a.33.33,0,0,1-.45,0l-2.25-2.23a4.75,4.75,0,0,0,3.25-2.56.82.82,0,0,0-.19-.88l-.22-.22,2.65-2.66A.33.33,0,0,1,55.2,17.46Zm-5.3-3.23,1.62-1.62a.31.31,0,0,1,.45,0L54.39,15a.32.32,0,0,1,0,.46l-.8.8h0L50.94,19l-2.88-2.88,1.84-1.84Zm-4-4.05a.34.34,0,0,1,.46,0l2.42,2.43a.31.31,0,0,1,0,.45L46.89,14.9,44,12ZM30.14,14.61a.81.81,0,0,0-1.16,0s0,0-.05.08a6.7,6.7,0,0,1-7.29-.87,6.91,6.91,0,0,1-2.58-5.27L20.85,11a.75.75,0,0,0,.58.29.62.62,0,0,0,.23,0l5.06-1.68a.73.73,0,0,0,.49-.69l0-5.33a.71.71,0,0,0-.5-.68l-3-.94a6.87,6.87,0,0,1,6.5,1.12,7.1,7.1,0,0,1,2.33,7.76.5.5,0,0,0,0,.12.8.8,0,0,0,.19,1l.09.08a9.1,9.1,0,0,0-1.43,3.79Zm7,32.64-15-15,5.3-5.31,15,15ZM49.54,36.51c-.82.81-1.94.79-3.15.77s-2.44,0-3.32.85l-1,1L30.26,27.39l1-1c1.27-1.28,1.37-5.85,1.37-7.22,0-2.78.9-5.79,1.47-6.2s2.75-.77,4.15-1l.87-.13c1.56-.23,2.29-.06,3.1.76l8.45,8.45a3.83,3.83,0,0,1-5.66.08l-3.24-3.23h0a.82.82,0,0,0-1.16,1.16h0c2.61,2.61,2.22,7.94-.81,11a.83.83,0,0,0,0,1.17.83.83,0,0,0,1.17,0,10,10,0,0,0,1.59-2.1l7.57,6.79Zm9.22-1.57a2.29,2.29,0,0,1-.19,3.19,2.77,2.77,0,0,1-1.69.88,1.85,1.85,0,0,1-1.47-.44L52,35.29h0l0,0-8.59-7.71a10.64,10.64,0,0,0,.61-5.18,5.58,5.58,0,0,0,3.12,1.55l3.3,3.27a1.92,1.92,0,0,0,.38.25,2,2,0,0,0-.16.77,2,2,0,0,0,.58,1.38L53.59,32A1.94,1.94,0,0,0,55,32.6a2,2,0,0,0,.82-.2Zm2.1-9.75-5.58,5.58s0,0-.05.05l0,0h0a.31.31,0,0,1-.45,0l-2.43-2.43a.31.31,0,0,1,0-.44l.81-.81h0l5.07-5.07,2.66,2.65A.32.32,0,0,1,60.86,25.19Z"/><path class="cls-2" d="M38,43.82a.82.82,0,0,0,1.16-1.16L37.5,41a.82.82,0,0,0-1.16,0,.83.83,0,0,0,0,1.17Z"/><path class="cls-2" d="M55.46,37.28l.36.36a1.85,1.85,0,0,0,1.33.58,1.57,1.57,0,0,0,1.6-1.58,1.85,1.85,0,0,0-.53-1.32L57.87,35a1.78,1.78,0,0,0-2.45-.13A1.74,1.74,0,0,0,55.46,37.28Zm1.69-.71v0l-.47-.47Z"/></g></g></svg>