<svg xmlns="http://www.w3.org/2000/svg" viewBox="0 0 99.13 77.92"><defs><style>.cls-1,.cls-2{fill:#0097d6;}.cls-2{stroke:#fff;stroke-miterlimit:10;stroke-width:0.5px;}</style></defs><title>woodpaper</title><g id="Layer_2" data-name="Layer 2"><g id="Layer_1-2" data-name="Layer 1"><path class="cls-1" d="M3.32,70.72l.2,1.49h0l.27-1.5,2-7.43H7.35l2,7.43.27,1.52h0l.21-1.52,1.62-7.43H13.2L10.45,74.67H9.08L6.8,66.78l-.17-1h0l-.17,1-2.3,7.89H2.74L0,63.29H1.66Z"/><path class="cls-1" d="M14,70.36a4.64,4.64,0,0,1,1-3.09,3.38,3.38,0,0,1,2.75-1.21,3.43,3.43,0,0,1,2.78,1.21,4.64,4.64,0,0,1,1,3.09v.17a4.63,4.63,0,0,1-1,3.1,3.41,3.41,0,0,1-2.76,1.2A3.42,3.42,0,0,1,15,73.62a4.61,4.61,0,0,1-1-3.09Zm1.54.17a4,4,0,0,0,.57,2.22,1.85,1.85,0,0,0,1.68.88,1.86,1.86,0,0,0,1.67-.88A4,4,0,0,0,20,70.53v-.17a4,4,0,0,0-.57-2.21,1.89,1.89,0,0,0-1.69-.88,1.83,1.83,0,0,0-1.66.88,4,4,0,0,0-.57,2.21Z"/><path class="cls-1" d="M23.09,70.36a4.64,4.64,0,0,1,1-3.09,3.41,3.41,0,0,1,2.76-1.21,3.42,3.42,0,0,1,2.77,1.21,4.64,4.64,0,0,1,1,3.09v.17a4.68,4.68,0,0,1-1,3.1,3.44,3.44,0,0,1-2.77,1.2,3.42,3.42,0,0,1-2.77-1.21,4.61,4.61,0,0,1-1-3.09Zm1.54.17a4,4,0,0,0,.57,2.22,2,2,0,0,0,3.35,0,4,4,0,0,0,.58-2.22v-.17a4,4,0,0,0-.58-2.21,2,2,0,0,0-3.35,0,4,4,0,0,0-.57,2.21Z"/><path class="cls-1" d="M32.2,70.6a5.57,5.57,0,0,1,.87-3.29,2.78,2.78,0,0,1,2.44-1.25,3,3,0,0,1,1.31.27,2.61,2.61,0,0,1,1,.8V62.48h1.54V74.67H38.16l-.23-1.07a2.88,2.88,0,0,1-1,.92,3.06,3.06,0,0,1-1.42.31,2.89,2.89,0,0,1-2.42-1.12,4.68,4.68,0,0,1-.87-2.95Zm1.53.16a3.58,3.58,0,0,0,.53,2,1.83,1.83,0,0,0,1.62.77A2,2,0,0,0,37,73.27a2.27,2.27,0,0,0,.76-.88V68.45a2.26,2.26,0,0,0-.76-.83,2,2,0,0,0-1.14-.31,1.76,1.76,0,0,0-1.64.91,4.74,4.74,0,0,0-.53,2.38Z"/><path class="cls-1" d="M45,71.6a2.61,2.61,0,0,1,.55-1.66A6.56,6.56,0,0,1,47.2,68.5a7.53,7.53,0,0,1-.91-1.38,2.73,2.73,0,0,1-.3-1.24,2.7,2.7,0,0,1,.76-2,3,3,0,0,1,2.1-.71,2.84,2.84,0,0,1,2,.71,2.21,2.21,0,0,1,.77,1.71,2.12,2.12,0,0,1-.41,1.32A5.4,5.4,0,0,1,50,68l-.85.62,2.65,3.2a4.13,4.13,0,0,0,.5-1.13,4.59,4.59,0,0,0,.18-1.3h1.38a5.53,5.53,0,0,1-.31,1.9,5.1,5.1,0,0,1-.88,1.58l1.45,1.74,0,0H52.32l-.66-.8a4.69,4.69,0,0,1-1.39.71,4.87,4.87,0,0,1-1.57.25,3.9,3.9,0,0,1-2.7-.9A3,3,0,0,1,45,71.6Zm3.7,2a3.5,3.5,0,0,0,1.11-.19,3.79,3.79,0,0,0,1-.55L48,69.49l-.31.22a3.07,3.07,0,0,0-.94,1,2.09,2.09,0,0,0-.23.87,2,2,0,0,0,.55,1.46A2.15,2.15,0,0,0,48.7,73.63Zm-1.17-7.77a2,2,0,0,0,.21.86,4.94,4.94,0,0,0,.64,1L49.45,67a1.6,1.6,0,0,0,.61-.64,1.93,1.93,0,0,0,.16-.77,1.13,1.13,0,0,0-.38-.84,1.34,1.34,0,0,0-1-.37,1.15,1.15,0,0,0-1,.44A1.63,1.63,0,0,0,47.53,65.86Z"/><path class="cls-1" d="M66.77,70.76a4.69,4.69,0,0,1-.88,2.95,2.88,2.88,0,0,1-2.41,1.12,3.42,3.42,0,0,1-1.37-.26,2.68,2.68,0,0,1-1-.79v4.14H59.56V66.21h1.18l.24,1.1a2.72,2.72,0,0,1,1-.93,3,3,0,0,1,1.43-.32,2.8,2.8,0,0,1,2.44,1.24,5.65,5.65,0,0,1,.88,3.3Zm-1.54-.16a4.47,4.47,0,0,0-.57-2.37A1.84,1.84,0,0,0,63,67.31a2,2,0,0,0-1.13.3,2.23,2.23,0,0,0-.76.82v4.09a2.12,2.12,0,0,0,.76.81,2.07,2.07,0,0,0,1.15.3,1.88,1.88,0,0,0,1.65-.8,3.51,3.51,0,0,0,.57-2.07Z"/><path class="cls-1" d="M73.85,74.67c0-.26-.09-.48-.12-.68a3.81,3.81,0,0,1,0-.59,3.55,3.55,0,0,1-1.12,1,2.91,2.91,0,0,1-1.49.41,2.72,2.72,0,0,1-2-.68,2.48,2.48,0,0,1-.69-1.86,2.15,2.15,0,0,1,1-1.89A4.54,4.54,0,0,1,72,69.71h1.67v-.83a1.56,1.56,0,0,0-.45-1.18A1.79,1.79,0,0,0,72,67.27a1.89,1.89,0,0,0-1.22.37,1.15,1.15,0,0,0-.46.9l-1.46,0v0a2,2,0,0,1,.86-1.69A3.57,3.57,0,0,1,72,66.06a3.46,3.46,0,0,1,2.31.73,2.56,2.56,0,0,1,.88,2.1V73a6.22,6.22,0,0,0,0,.88,4,4,0,0,0,.17.83ZM71.3,73.54a2.68,2.68,0,0,0,1.5-.43,2,2,0,0,0,.88-1V70.75H72a2.27,2.27,0,0,0-1.49.47,1.4,1.4,0,0,0-.55,1.1,1.13,1.13,0,0,0,.35.89A1.46,1.46,0,0,0,71.3,73.54Z"/><path class="cls-1" d="M84.66,70.76a4.69,4.69,0,0,1-.88,2.95,2.88,2.88,0,0,1-2.41,1.12A3.42,3.42,0,0,1,80,74.57a2.68,2.68,0,0,1-1-.79v4.14H77.45V66.21h1.18l.25,1.1a2.62,2.62,0,0,1,1-.93,3,3,0,0,1,1.43-.32,2.83,2.83,0,0,1,2.45,1.24,5.65,5.65,0,0,1,.87,3.3Zm-1.54-.16a4.47,4.47,0,0,0-.57-2.37,1.84,1.84,0,0,0-1.67-.92,2,2,0,0,0-1.13.3,2.23,2.23,0,0,0-.76.82v4.09a2.12,2.12,0,0,0,.76.81,2.09,2.09,0,0,0,1.15.3,1.88,1.88,0,0,0,1.65-.8,3.51,3.51,0,0,0,.57-2.07Z"/><path class="cls-1" d="M90.05,74.83a3.58,3.58,0,0,1-2.84-1.16,4.5,4.5,0,0,1-1-3.07v-.34a4.38,4.38,0,0,1,1-3,3.26,3.26,0,0,1,2.56-1.19,3.09,3.09,0,0,1,2.55,1,4.38,4.38,0,0,1,.85,2.81v.81H87.79l0,0a3.42,3.42,0,0,0,.56,2.06,2,2,0,0,0,1.72.8,3.86,3.86,0,0,0,1.37-.23,2.94,2.94,0,0,0,1-.61l.6,1a3.72,3.72,0,0,1-1.19.74A4.83,4.83,0,0,1,90.05,74.83Zm-.25-7.56a1.66,1.66,0,0,0-1.33.62,2.94,2.94,0,0,0-.64,1.59v0h3.82v-.13a2.47,2.47,0,0,0-.46-1.52A1.64,1.64,0,0,0,89.8,67.27Z"/><path class="cls-1" d="M98.92,67.57l-.79,0a1.75,1.75,0,0,0-1,.28,1.91,1.91,0,0,0-.65.82v6H94.92V66.21H96.3l.15,1.24a2.89,2.89,0,0,1,.88-1,2.11,2.11,0,0,1,1.22-.36l.33,0,.25.06Z"/><path class="cls-2" d="M49.56.29,25.93,14V41.27L49.56,54.93,73.18,41.27V14ZM71.21,40.14,49.56,52.66,27.9,40.14V15.08L49.56,2.56,71.21,15.08Z"/><path class="cls-2" d="M39.69,20.37h0a6.49,6.49,0,0,0-2.17,4.9,6.43,6.43,0,0,0,.14,1.32l-4.19,4.18a.08.08,0,0,0,0,0l-.07.06h0a6.48,6.48,0,1,0,10.22,7.83,6.48,6.48,0,0,0,11.07,0L65.31,25.6l.07,0A5.63,5.63,0,0,0,60.59,17a5.84,5.84,0,0,0-.73,0,5.65,5.65,0,0,0-9.46-5.43Zm4.32.28a4.62,4.62,0,1,1-4.63,4.62A4.63,4.63,0,0,1,44,20.65Zm-5.62,7.84a5.08,5.08,0,0,0,.27.43l-.62,0H38Zm4,7.16A4.39,4.39,0,0,1,37.88,40a4.56,4.56,0,0,1-4.55-4.62,4.61,4.61,0,0,1,1.36-3.23l.08-.06a4.3,4.3,0,0,1,3.1-1.33,4.4,4.4,0,0,1,4.47,4.33Zm10.41,2.58a4.63,4.63,0,0,1-8.24-2.58c0-.09,0-.19,0-.29s0-.19,0-.29a4.63,4.63,0,0,1,9.25.29,4.54,4.54,0,0,1-.62,2.29ZM58.5,19.49a3.8,3.8,0,0,1,5.89,3.16,3.86,3.86,0,0,1-.34,1.57L55.58,34.65a6.4,6.4,0,0,0-.35-1.45l5.6-6.43-1.4-1.22-5.14,5.9A6.52,6.52,0,0,0,50.19,29l8-9.26.16-.12ZM57.12,13l-5.73,6.14,1.36,1.26,5.32-5.69a3.93,3.93,0,0,1,.12.92,3.83,3.83,0,0,1-.53,1.9l-.69.79a3,3,0,0,0-.33.38l-6.17,7.12a4.93,4.93,0,0,0,0-.55,6.48,6.48,0,0,0-6-6.45L52,12.72l0,0a3.8,3.8,0,0,1,5.13.31Z"/><path class="cls-2" d="M44.31,28.81V27c-1.31,0-2-.62-2-1.93H40.45A4,4,0,0,0,44.31,28.81Z"/><path class="cls-2" d="M48.9,37.76v-.71a1.82,1.82,0,0,1-1.47-1.54H45.57a3.24,3.24,0,0,0,3.33,3.4V37.76Z"/><path class="cls-2" d="M37.75,37.69v-.64a1.74,1.74,0,0,1-1.41-1.54H34.48a3.19,3.19,0,0,0,3.27,3.4V37.69Z"/></g></g></svg>