<svg xmlns="http://www.w3.org/2000/svg" viewBox="0 0 56.99 65.98"><defs><style>.cls-1,.cls-2{fill:#fff;}.cls-2{stroke:#0097d6;stroke-miterlimit:10;stroke-width:0.75px;}</style></defs><title>cookers_hover</title><g id="Layer_2" data-name="Layer 2"><g id="Layer_1-2" data-name="Layer 1"><path class="cls-1" d="M8.52,62.17l0,0A3.43,3.43,0,0,1,7.41,64.9a4.27,4.27,0,0,1-3,1.08,4,4,0,0,1-3.15-1.37A5,5,0,0,1,0,61.14v-2a5.07,5.07,0,0,1,1.21-3.48,4,4,0,0,1,3.15-1.37,4.45,4.45,0,0,1,3.07,1A3.4,3.4,0,0,1,8.54,58l0,0H7.05a2.53,2.53,0,0,0-.71-1.89,2.7,2.7,0,0,0-2-.7,2.44,2.44,0,0,0-2.06,1,4.26,4.26,0,0,0-.76,2.58v2a4.23,4.23,0,0,0,.76,2.59,2.41,2.41,0,0,0,2.06,1,2.7,2.7,0,0,0,2-.69,2.56,2.56,0,0,0,.71-1.91Z"/><path class="cls-1" d="M10,61.51a4.69,4.69,0,0,1,1-3.09,3.42,3.42,0,0,1,2.76-1.22,3.47,3.47,0,0,1,2.78,1.21,4.65,4.65,0,0,1,1,3.1v.17a4.61,4.61,0,0,1-1,3.09A3.4,3.4,0,0,1,13.76,66,3.45,3.45,0,0,1,11,64.77a4.64,4.64,0,0,1-1-3.09Zm1.54.17a4.08,4.08,0,0,0,.56,2.22,1.89,1.89,0,0,0,1.69.87,1.87,1.87,0,0,0,1.67-.87A4,4,0,0,0,16,61.68v-.17a4,4,0,0,0-.57-2.21,1.9,1.9,0,0,0-1.69-.89,1.87,1.87,0,0,0-1.67.89,4,4,0,0,0-.56,2.21Z"/><path class="cls-1" d="M19.06,61.51a4.64,4.64,0,0,1,1-3.09,3.39,3.39,0,0,1,2.76-1.22,3.45,3.45,0,0,1,2.77,1.21,4.65,4.65,0,0,1,1,3.1v.17a4.65,4.65,0,0,1-1,3.09A3.42,3.42,0,0,1,22.85,66a3.45,3.45,0,0,1-2.77-1.21,4.64,4.64,0,0,1-1-3.09Zm1.54.17a4,4,0,0,0,.57,2.22,2,2,0,0,0,3.35,0,4,4,0,0,0,.57-2.22v-.17a4,4,0,0,0-.57-2.21,1.89,1.89,0,0,0-1.68-.89,1.85,1.85,0,0,0-1.67.89,4,4,0,0,0-.57,2.21Z"/><path class="cls-1" d="M30.85,61.91h-.79v3.9H28.52V53.62h1.54v7.07h.78l2.54-3.33h1.84l-3.07,3.9,3.33,4.55H33.66Z"/><path class="cls-1" d="M40.06,66a3.57,3.57,0,0,1-2.84-1.17,4.47,4.47,0,0,1-1-3.06v-.34a4.41,4.41,0,0,1,1-3,3.31,3.31,0,0,1,2.57-1.19,3,3,0,0,1,2.54,1.06,4.31,4.31,0,0,1,.85,2.8v.81H37.8l0,0A3.54,3.54,0,0,0,38.34,64a2,2,0,0,0,1.72.79,3.82,3.82,0,0,0,1.37-.22,3.15,3.15,0,0,0,1-.61l.6,1a3.76,3.76,0,0,1-1.2.73A4.55,4.55,0,0,1,40.06,66Zm-.24-7.57a1.67,1.67,0,0,0-1.33.62,3,3,0,0,0-.65,1.59l0,0h3.81v-.12A2.5,2.5,0,0,0,41.22,59,1.64,1.64,0,0,0,39.82,58.41Z"/><path class="cls-1" d="M48.94,58.72l-.79,0a1.7,1.7,0,0,0-1.67,1.1v6H44.94V57.36h1.37l.15,1.23a3,3,0,0,1,.89-1,2.09,2.09,0,0,1,1.21-.37,1.69,1.69,0,0,1,.33,0l.26.06Z"/><path class="cls-1" d="M55.45,63.54a1,1,0,0,0-.38-.83,3.81,3.81,0,0,0-1.47-.56,6.34,6.34,0,0,1-2.29-.9,1.81,1.81,0,0,1-.8-1.55,2.21,2.21,0,0,1,.88-1.76A3.86,3.86,0,0,1,56,58a2.22,2.22,0,0,1,.85,1.82v.05H55.36a1.34,1.34,0,0,0-.48-1,1.72,1.72,0,0,0-1.22-.45,1.77,1.77,0,0,0-1.21.37,1.15,1.15,0,0,0-.4.88.92.92,0,0,0,.34.77,3.93,3.93,0,0,0,1.44.5,6.16,6.16,0,0,1,2.36.93,1.88,1.88,0,0,1,.8,1.57,2.2,2.2,0,0,1-.91,1.83,4.32,4.32,0,0,1-4.92-.1,2.37,2.37,0,0,1-.89-1.92l0-.05h1.47a1.4,1.4,0,0,0,.61,1.2,2.28,2.28,0,0,0,1.33.38A2.06,2.06,0,0,0,55,64.42,1,1,0,0,0,55.45,63.54Z"/><path class="cls-2" d="M32.48,4.41a4,4,0,0,0-8.09,0H11.28a1,1,0,1,0,0,2h34.3a1,1,0,0,0,0-2Zm-4-2a2.07,2.07,0,0,1,2,2h-4A2.06,2.06,0,0,1,28.43,2.42Z"/><path class="cls-2" d="M49.62,14.62h-2.8v-5a1.34,1.34,0,0,0-1.24-1.15H11.28a1.34,1.34,0,0,0-1.23,1.15v5H7.25a2.91,2.91,0,0,0-2.82,3.09v8.07a3,3,0,0,0,2.82,3.14h2.8v6.95a3.43,3.43,0,0,0,3.25,3.26H43.56a3.44,3.44,0,0,0,3.26-3.26V28.92h2.8a3,3,0,0,0,2.81-3.14V17.71A2.91,2.91,0,0,0,49.62,14.62ZM7.25,26.88c-.55,0-.77-.55-.77-1.1V17.71c0-.55.22-1.05.77-1.05h2.8V26.88Zm37.52,9a1.41,1.41,0,0,1-1.21,1.22H13.3a1.41,1.41,0,0,1-1.21-1.22V10.54H44.77Zm5.62-10.09c0,.55-.22,1.1-.77,1.1h-2.8V16.66h2.8c.55,0,.77.5.77,1.05Z"/><path class="cls-2" d="M15.16,18.71a1,1,0,0,0-1,1V33.85a1,1,0,1,0,2,0V19.73A1,1,0,0,0,15.16,18.71Z"/></g></g></svg>