<svg xmlns="http://www.w3.org/2000/svg" viewBox="0 0 44.74 69.43"><defs><style>.cls-1,.cls-2{fill:#fff;}.cls-2{stroke:#0097d6;stroke-miterlimit:10;stroke-width:0.25px;}</style></defs><title>dryers_hover</title><g id="Layer_2" data-name="Layer 2"><g id="Layer_1-2" data-name="Layer 1"><path class="cls-1" d="M0,66V54.64H3.58A4.82,4.82,0,0,1,7.16,56a4.84,4.84,0,0,1,1.36,3.54v1.56a4.83,4.83,0,0,1-1.36,3.54A4.82,4.82,0,0,1,3.58,66ZM1.54,55.85v9h2a3.13,3.13,0,0,0,2.49-1A3.92,3.92,0,0,0,7,61.11V59.54a3.91,3.91,0,0,0-.91-2.65,3.16,3.16,0,0,0-2.49-1Z"/><path class="cls-1" d="M14.63,58.92l-.79-.05a1.79,1.79,0,0,0-1,.29,1.91,1.91,0,0,0-.65.82v6H10.63V57.56H12l.15,1.24a2.91,2.91,0,0,1,.89-1,2.08,2.08,0,0,1,1.21-.36l.33,0,.26.06Z"/><path class="cls-1" d="M19,62.88l.28,1.06h0l2.08-6.38h1.71l-3.55,9.75a4.55,4.55,0,0,1-.92,1.49,2.12,2.12,0,0,1-1.61.63c-.13,0-.29,0-.48,0l-.45-.09.16-1.21.28,0,.41,0a.93.93,0,0,0,.8-.44,4.46,4.46,0,0,0,.53-1l.36-.89-3.14-8.28h1.72Z"/><path class="cls-1" d="M27.81,66.18A3.57,3.57,0,0,1,25,65,4.45,4.45,0,0,1,24,62v-.34a4.38,4.38,0,0,1,1.05-3,3.28,3.28,0,0,1,2.57-1.19,3.06,3.06,0,0,1,2.54,1.05,4.31,4.31,0,0,1,.85,2.8v.82H25.55l0,0a3.51,3.51,0,0,0,.56,2.06,2,2,0,0,0,1.72.8,3.82,3.82,0,0,0,1.37-.23,3.15,3.15,0,0,0,1-.61l.6,1a3.78,3.78,0,0,1-1.2.74A4.75,4.75,0,0,1,27.81,66.18Zm-.24-7.56a1.64,1.64,0,0,0-1.33.62,2.94,2.94,0,0,0-.65,1.59l0,0h3.81v-.13A2.47,2.47,0,0,0,29,59.22,1.64,1.64,0,0,0,27.57,58.62Z"/><path class="cls-1" d="M36.69,58.92l-.79-.05a1.79,1.79,0,0,0-1,.29,1.89,1.89,0,0,0-.64.82v6H32.69V57.56h1.37l.15,1.24a3,3,0,0,1,.89-1,2.08,2.08,0,0,1,1.21-.36l.33,0,.26.06Z"/><path class="cls-1" d="M43.2,63.74a1.05,1.05,0,0,0-.38-.83,3.81,3.81,0,0,0-1.47-.56,6,6,0,0,1-2.29-.9,1.79,1.79,0,0,1-.8-1.54,2.22,2.22,0,0,1,.88-1.77,3.88,3.88,0,0,1,4.6,0A2.2,2.2,0,0,1,44.59,60v0H43.11a1.34,1.34,0,0,0-.48-1,1.71,1.71,0,0,0-1.22-.44A1.77,1.77,0,0,0,40.2,59a1.15,1.15,0,0,0-.4.88.92.92,0,0,0,.34.77,3.93,3.93,0,0,0,1.44.5,6.16,6.16,0,0,1,2.36.93,1.89,1.89,0,0,1,.8,1.57,2.23,2.23,0,0,1-.91,1.84,3.79,3.79,0,0,1-2.38.71,3.7,3.7,0,0,1-2.54-.82A2.37,2.37,0,0,1,38,63.44l0,0h1.47a1.43,1.43,0,0,0,.61,1.2,2.36,2.36,0,0,0,1.33.38,2.13,2.13,0,0,0,1.29-.35A1.06,1.06,0,0,0,43.2,63.74Z"/><path class="cls-2" d="M38.5.13H5.7a4,4,0,0,0-4.1,4.1V37a4.12,4.12,0,0,0,4.1,4.11H38.5A4.11,4.11,0,0,0,42.6,37V4.23A4,4,0,0,0,38.5.13ZM41,37a2.47,2.47,0,0,1-2.46,2.47H5.7A2.47,2.47,0,0,1,3.24,37V10.5H41ZM41,8.86H3.24V4.23A2.47,2.47,0,0,1,5.7,1.76H38.5A2.47,2.47,0,0,1,41,4.23Z"/><path class="cls-2" d="M12.55,35.92H31.7a4.11,4.11,0,0,0,4.1-4.1V18.17a4.22,4.22,0,0,0-4.1-4.1H12.55a4,4,0,0,0-4.1,4.1V31.82A4.17,4.17,0,0,0,12.55,35.92ZM10.75,16.4a2.61,2.61,0,0,1,1.76-.7H31.66a2.47,2.47,0,0,1,2.46,2.47V31.82a2.8,2.8,0,0,1-.7,1.76,2.89,2.89,0,0,1-1.76.7H12.55a2.47,2.47,0,0,1-2.46-2.46V18.17A2.79,2.79,0,0,1,10.75,16.4Z"/><rect class="cls-2" x="18.7" y="4.76" width="6.85" height="1.64"/><rect class="cls-2" x="29.61" y="4.76" width="6.85" height="1.64"/><path class="cls-2" d="M11,1.89a3.37,3.37,0,0,0-3.4,3.4,3.41,3.41,0,1,0,6.81,0A3.51,3.51,0,0,0,11,1.89ZM11,7.1A1.81,1.81,0,0,1,9.27,5.33a1.77,1.77,0,0,1,3.53,0A1.81,1.81,0,0,1,11,7.1Z"/></g></g></svg>