<svg xmlns="http://www.w3.org/2000/svg" viewBox="0 0 84.27 71.76"><defs><style>.cls-1,.cls-2{fill:#0097d6;}.cls-2{stroke:#fff;stroke-miterlimit:10;stroke-width:0.5px;}</style></defs><title>evaporators</title><g id="Layer_2" data-name="Layer 2"><g id="Layer_1-2" data-name="Layer 1"><path class="cls-1" d="M6.21,63.23H1.54V67.3H7v1.21H0V57.13H6.92v1.21H1.54V62H6.21Z"/><path class="cls-1" d="M11.23,66l.14.59h0l.15-.59,1.95-6h1.57L12,68.51H10.8L7.66,60.05H9.23Z"/><path class="cls-1" d="M21.54,68.51c-.05-.26-.09-.48-.12-.68a3.81,3.81,0,0,1-.05-.59,3.55,3.55,0,0,1-1.12,1,2.81,2.81,0,0,1-1.49.41,2.76,2.76,0,0,1-2-.67,2.51,2.51,0,0,1-.7-1.87,2.17,2.17,0,0,1,1-1.89,4.52,4.52,0,0,1,2.66-.69h1.67v-.83a1.57,1.57,0,0,0-.46-1.18,1.77,1.77,0,0,0-1.28-.43,1.86,1.86,0,0,0-1.21.37,1.12,1.12,0,0,0-.46.9l-1.46,0,0,0a2,2,0,0,1,.87-1.69,3.57,3.57,0,0,1,2.37-.76,3.46,3.46,0,0,1,2.31.73,2.6,2.6,0,0,1,.88,2.1V66.8a8.26,8.26,0,0,0,0,.88,4,4,0,0,0,.18.83ZM19,67.38A2.72,2.72,0,0,0,20.49,67a2,2,0,0,0,.88-1V64.59H19.64a2.25,2.25,0,0,0-1.49.47,1.41,1.41,0,0,0-.56,1.1,1.12,1.12,0,0,0,.36.89A1.45,1.45,0,0,0,19,67.38Z"/><path class="cls-1" d="M32.34,64.6a4.68,4.68,0,0,1-.87,3,2.9,2.9,0,0,1-2.42,1.12,3.45,3.45,0,0,1-1.37-.26,2.62,2.62,0,0,1-1-.79v4.14H25.14V60.05h1.18l.24,1.1a2.77,2.77,0,0,1,1-.93A3.12,3.12,0,0,1,29,59.9a2.8,2.8,0,0,1,2.44,1.24,5.67,5.67,0,0,1,.87,3.3Zm-1.54-.16a4.47,4.47,0,0,0-.56-2.37,1.86,1.86,0,0,0-1.67-.92,2,2,0,0,0-1.13.3,2.23,2.23,0,0,0-.76.82v4.09a2.23,2.23,0,0,0,.76.82,2.16,2.16,0,0,0,1.15.29,1.9,1.9,0,0,0,1.65-.8,3.49,3.49,0,0,0,.56-2.07Z"/><path class="cls-1" d="M33.88,64.2a4.64,4.64,0,0,1,1-3.09,3.78,3.78,0,0,1,5.54,0,4.64,4.64,0,0,1,1,3.09v.17a4.61,4.61,0,0,1-1,3.1,3.79,3.79,0,0,1-5.54,0,4.6,4.6,0,0,1-1-3.09Zm1.53.17A4,4,0,0,0,36,66.59a2,2,0,0,0,3.36,0,4.06,4.06,0,0,0,.57-2.22V64.2A4,4,0,0,0,39.33,62,2,2,0,0,0,36,62a4,4,0,0,0-.57,2.21Z"/><path class="cls-1" d="M47.33,61.41l-.79,0a1.71,1.71,0,0,0-1,.29,1.8,1.8,0,0,0-.64.81v6H43.33V60.05H44.7l.15,1.24a2.88,2.88,0,0,1,.89-1A2,2,0,0,1,47,59.9a1.69,1.69,0,0,1,.33,0l.26,0Z"/><path class="cls-1" d="M54.13,68.51c-.06-.26-.1-.48-.13-.68a5.63,5.63,0,0,1,0-.59,3.45,3.45,0,0,1-1.12,1,2.79,2.79,0,0,1-1.49.41,2.76,2.76,0,0,1-2-.67,2.51,2.51,0,0,1-.69-1.87,2.19,2.19,0,0,1,1-1.89,4.54,4.54,0,0,1,2.66-.69H54v-.83a1.56,1.56,0,0,0-.45-1.18,1.77,1.77,0,0,0-1.28-.43,1.84,1.84,0,0,0-1.21.37,1.12,1.12,0,0,0-.46.9l-1.46,0,0,0a2,2,0,0,1,.86-1.69,3.59,3.59,0,0,1,2.37-.76,3.5,3.5,0,0,1,2.32.73,2.6,2.6,0,0,1,.87,2.1V66.8a8.18,8.18,0,0,0,0,.88,4.7,4.7,0,0,0,.17.83Zm-2.56-1.13A2.72,2.72,0,0,0,53.08,67,2,2,0,0,0,54,66V64.59H52.23a2.25,2.25,0,0,0-1.49.47,1.41,1.41,0,0,0-.56,1.1,1.15,1.15,0,0,0,.35.89A1.48,1.48,0,0,0,51.57,67.38Z"/><path class="cls-1" d="M59.87,58v2h1.6V61.2h-1.6v5.13a1.16,1.16,0,0,0,.24.83.87.87,0,0,0,.66.25,1.81,1.81,0,0,0,.29,0l.28-.07.21,1a1.35,1.35,0,0,1-.51.23,2.61,2.61,0,0,1-.66.09,2,2,0,0,1-1.5-.56,2.47,2.47,0,0,1-.55-1.78V61.2H57V60.05h1.35V58Z"/><path class="cls-1" d="M62.76,64.2a4.69,4.69,0,0,1,1-3.09,3.78,3.78,0,0,1,5.54,0,4.64,4.64,0,0,1,1,3.09v.17a4.61,4.61,0,0,1-1,3.1,3.77,3.77,0,0,1-5.53,0,4.61,4.61,0,0,1-1-3.09Zm1.54.17a4,4,0,0,0,.56,2.22,2,2,0,0,0,3.36,0,4,4,0,0,0,.57-2.22V64.2A3.93,3.93,0,0,0,68.21,62a2,2,0,0,0-3.35,0,4,4,0,0,0-.56,2.21Z"/><path class="cls-1" d="M76.21,61.41l-.79,0a1.74,1.74,0,0,0-1,.29,1.87,1.87,0,0,0-.64.81v6H72.21V60.05h1.38l.14,1.24a2.88,2.88,0,0,1,.89-1,2,2,0,0,1,1.22-.37,1.66,1.66,0,0,1,.32,0,1.33,1.33,0,0,1,.26,0Z"/><path class="cls-1" d="M82.73,66.23a1,1,0,0,0-.39-.82,3.79,3.79,0,0,0-1.46-.57,6.23,6.23,0,0,1-2.3-.89,1.84,1.84,0,0,1-.8-1.55,2.22,2.22,0,0,1,.88-1.77,3.9,3.9,0,0,1,4.61,0,2.27,2.27,0,0,1,.85,1.82l0,0H82.63a1.34,1.34,0,0,0-.48-1,2,2,0,0,0-2.43-.07,1.12,1.12,0,0,0-.4.87.92.92,0,0,0,.35.77,3.69,3.69,0,0,0,1.43.5,6.1,6.1,0,0,1,2.36.93,1.89,1.89,0,0,1,.81,1.57A2.25,2.25,0,0,1,83.36,68a4.36,4.36,0,0,1-4.93-.11,2.34,2.34,0,0,1-.88-1.91v0H79a1.43,1.43,0,0,0,.61,1.2,2.37,2.37,0,0,0,1.34.38,2.11,2.11,0,0,0,1.28-.35A1.07,1.07,0,0,0,82.73,66.23Z"/><path class="cls-2" d="M22.67.25a4.8,4.8,0,0,0-4.8,4.8v19.2a1,1,0,1,0,1.92,0V5.05a2.9,2.9,0,0,1,2.88-2.88h38.4A2.91,2.91,0,0,1,64,5.05v19.2a1,1,0,1,0,1.92,0V5.05a4.8,4.8,0,0,0-4.8-4.8Zm5.72,9.6a.45.45,0,0,0-.23,0h-.08s-.11,0-.15,0,0,0-.08,0-.08,0-.11.07l0,0-.12.12,0,0-2.68,3.84a1,1,0,1,0,1.57,1.12l1-1.35v6.57a8.54,8.54,0,0,1-8.56,8.64,1,1,0,0,0,0,1.92A10.56,10.56,0,0,0,29.39,20.41V13.84l1,1.35a1,1,0,0,0,.8.42.73.73,0,0,0,.54-.19,1,1,0,0,0,.23-1.35l-2.69-3.84,0,0-.11-.12,0,0S29,10,28.93,10s0,0-.08,0-.08,0-.15,0h-.08C28.54,9.89,28.47,9.85,28.39,9.85Zm8.83,0a.47.47,0,0,0-.23,0h-.08s-.11,0-.15,0,0,0-.08,0-.07,0-.11.07l0,0-.12.12,0,0-2.69,3.84a1,1,0,0,0,.23,1.35,1,1,0,0,0,1.34-.23l1-1.35V24.25a12.39,12.39,0,0,1-12.4,12.48,1,1,0,0,0,0,1.92,14.4,14.4,0,0,0,14.4-14.4V13.84l1,1.35a1,1,0,0,0,.8.42.72.72,0,0,0,.54-.19,1,1,0,0,0,.23-1.35l-2.69-3.84,0,0-.12-.12,0,0s-.07,0-.11-.07,0,0-.08,0-.08,0-.15,0h-.08C37.37,9.89,37.3,9.85,37.22,9.85Zm9.22,0a.45.45,0,0,0-.23,0h0A.36.36,0,0,0,46,10h0a.41.41,0,0,0-.16.11,2.59,2.59,0,0,0-.19.23L43,14.11a1,1,0,1,0,1.57,1.12l.92-1.35V24.25a14.41,14.41,0,0,0,14.4,14.4,1,1,0,0,0,0-1.92A12.51,12.51,0,0,1,47.43,24.25V13.84l1,1.35a1,1,0,0,0,.77.42.73.73,0,0,0,.54-.19,1,1,0,0,0,.23-1.35l-2.69-3.84s0-.07-.07-.07l0,0s-.08,0-.08-.08,0,0-.08,0-.07,0-.11,0-.08,0-.12,0a.1.1,0,0,1-.07,0c-.08,0-.12,0-.2,0Zm8.83,0a.45.45,0,0,0-.23,0h0a.36.36,0,0,0-.19.08h0a.31.31,0,0,0-.15.11,1.57,1.57,0,0,0-.2.23l-2.57,3.8a1,1,0,1,0,1.57,1.12l.93-1.35v6.53A10.55,10.55,0,0,0,64.91,31a1,1,0,0,0,0-1.92,8.66,8.66,0,0,1-8.64-8.64V13.84l1,1.35a1,1,0,0,0,.76.42.72.72,0,0,0,.54-.19,1,1,0,0,0,.23-1.35l-2.69-3.84s0-.07-.07-.07l0,0s-.08,0-.08-.08,0,0-.07,0l-.12,0s-.08,0-.11,0a.14.14,0,0,1-.08,0c-.08,0-.12,0-.19,0Z"/></g></g></svg>