<svg xmlns="http://www.w3.org/2000/svg" viewBox="0 0 44 71.4"><defs><style>.cls-1{fill:#0097d6;}.cls-2{fill:none;stroke:#0097d6;stroke-linecap:round;stroke-linejoin:round;stroke-width:1.5px;}</style></defs><title>fryers</title><g id="Layer_2" data-name="Layer 2"><g id="Layer_1-2" data-name="Layer 1"><path class="cls-1" d="M7.34,63H2.54v5H1V56.61H8.13v1.22H2.54v3.92h4.8Z"/><path class="cls-1" d="M13.41,60.9l-.78,0a1.79,1.79,0,0,0-1,.29A1.82,1.82,0,0,0,11,62v6H9.41V59.54h1.38l.15,1.23a2.86,2.86,0,0,1,.88-1A2.07,2.07,0,0,1,13,59.38l.33,0,.26.06Z"/><path class="cls-1" d="M17.74,64.86,18,65.92h0l2.08-6.38h1.71L18.3,69.29a4.51,4.51,0,0,1-.92,1.48,2.12,2.12,0,0,1-1.61.63,3.08,3.08,0,0,1-.48,0l-.45-.08L15,70.07h.28l.41,0a1,1,0,0,0,.8-.44,4.53,4.53,0,0,0,.53-1l.36-.88-3.14-8.28H16Z"/><path class="cls-1" d="M26.6,68.15A3.57,3.57,0,0,1,23.76,67a4.49,4.49,0,0,1-1-3.06v-.35a4.4,4.4,0,0,1,1.05-3,3.31,3.31,0,0,1,2.57-1.19,3.06,3.06,0,0,1,2.54,1,4.34,4.34,0,0,1,.85,2.81v.81H24.34l0,0a3.54,3.54,0,0,0,.56,2.07A2,2,0,0,0,26.6,67,3.82,3.82,0,0,0,28,66.73a3,3,0,0,0,1-.62l.61,1a3.61,3.61,0,0,1-1.2.74A4.75,4.75,0,0,1,26.6,68.15Zm-.24-7.56a1.67,1.67,0,0,0-1.33.62,3,3,0,0,0-.65,1.59l0,0h3.81v-.12a2.48,2.48,0,0,0-.45-1.53A1.64,1.64,0,0,0,26.36,60.59Z"/><path class="cls-1" d="M35.48,60.9l-.79,0A1.7,1.7,0,0,0,33,62v6H31.48V59.54h1.37L33,60.77a2.88,2.88,0,0,1,.89-1,2,2,0,0,1,1.21-.37,1.76,1.76,0,0,1,.33,0l.26.06Z"/><path class="cls-1" d="M42,65.72a1,1,0,0,0-.38-.83,3.65,3.65,0,0,0-1.47-.56,6.34,6.34,0,0,1-2.29-.9,1.81,1.81,0,0,1-.8-1.55,2.22,2.22,0,0,1,.88-1.77,3.88,3.88,0,0,1,4.6,0A2.21,2.21,0,0,1,43.38,62V62H41.9a1.31,1.31,0,0,0-.48-1A2,2,0,0,0,39,61a1.13,1.13,0,0,0-.4.87.94.94,0,0,0,.34.78,3.86,3.86,0,0,0,1.44.5,6.16,6.16,0,0,1,2.36.93,1.88,1.88,0,0,1,.8,1.57,2.2,2.2,0,0,1-.91,1.83,3.73,3.73,0,0,1-2.38.71,3.66,3.66,0,0,1-2.54-.82,2.31,2.31,0,0,1-.89-1.91l0,0H38.3a1.4,1.4,0,0,0,.61,1.2,2.36,2.36,0,0,0,1.33.38,2.13,2.13,0,0,0,1.29-.35A1,1,0,0,0,42,65.72Z"/><path class="cls-2" d="M24.05,14.29c6.5-.44,11.14-1.58,11.14-2.9"/><path class="cls-2" d="M.75,11.39c0,1.71,7.69,3.1,17.18,3.1H19"/><path class="cls-2" d="M.77,33A10.17,10.17,0,0,0,10.93,43.11H25.05A10.17,10.17,0,0,0,35.21,33V10.88A10.17,10.17,0,0,0,25.05.75H10.93A10.17,10.17,0,0,0,.77,10.88Z"/><line class="cls-2" x1="11.42" y1="14.84" x2="11.42" y2="43.04"/><ellipse class="cls-2" cx="22.74" cy="36.14" rx="3.23" ry="3.22"/><polyline class="cls-2" points="35.87 12.19 43.25 12.19 43.25 33.49 35.87 33.49"/><rect class="cls-2" x="19.1" y="8.74" width="4.76" height="17.04"/></g></g></svg>