<svg xmlns="http://www.w3.org/2000/svg" viewBox="0 0 39.05 72.32"><defs><style>.cls-1,.cls-2{fill:#fff;}.cls-2{stroke:#0097d6;stroke-miterlimit:10;stroke-width:0.25px;}</style></defs><title>grills_hover</title><g id="Layer_2" data-name="Layer 2"><g id="Layer_1-2" data-name="Layer 1"><path class="cls-1" d="M10.58,70.62a3.72,3.72,0,0,1-1.41,1.17,5.61,5.61,0,0,1-2.6.53A4.4,4.4,0,0,1,3.31,71,4.58,4.58,0,0,1,2,67.64V65.29a4.72,4.72,0,0,1,1.24-3.37,4.24,4.24,0,0,1,3.21-1.31,4.3,4.3,0,0,1,3,1,3.29,3.29,0,0,1,1.07,2.58l0,0H9.05a2.37,2.37,0,0,0-.68-1.73,2.5,2.5,0,0,0-1.9-.7,2.58,2.58,0,0,0-2.1,1,3.75,3.75,0,0,0-.8,2.48v2.36a3.68,3.68,0,0,0,.84,2.49,2.69,2.69,0,0,0,2.16,1,4,4,0,0,0,1.6-.26,2.33,2.33,0,0,0,.88-.62V67.67H6.47V66.46h4.11Z"/><path class="cls-1" d="M17,65.06l-.79,0a1.7,1.7,0,0,0-1.67,1.1v6H13V63.7H14.4l.15,1.23a3.07,3.07,0,0,1,.89-1,2.11,2.11,0,0,1,1.21-.37,1.69,1.69,0,0,1,.33,0l.26.06Z"/><path class="cls-1" d="M20.3,61.54H18.76V60H20.3Zm0,10.61H18.76V63.7H20.3Z"/><path class="cls-1" d="M24.33,72.15H22.79V60h1.54Z"/><path class="cls-1" d="M28.36,72.15H26.82V60h1.54Z"/><path class="cls-1" d="M35.64,69.88a1,1,0,0,0-.39-.83,3.75,3.75,0,0,0-1.46-.56,6.06,6.06,0,0,1-2.3-.9,1.82,1.82,0,0,1-.8-1.55,2.25,2.25,0,0,1,.88-1.76,3.88,3.88,0,0,1,4.61,0A2.28,2.28,0,0,1,37,66.14l0,0H35.55a1.35,1.35,0,0,0-.49-1,1.69,1.69,0,0,0-1.21-.45,1.8,1.8,0,0,0-1.22.37,1.19,1.19,0,0,0-.4.88.93.93,0,0,0,.35.77,3.86,3.86,0,0,0,1.43.5,6,6,0,0,1,2.36.93,1.86,1.86,0,0,1,.81,1.57,2.26,2.26,0,0,1-.91,1.84,3.79,3.79,0,0,1-2.38.71,3.75,3.75,0,0,1-2.55-.82,2.35,2.35,0,0,1-.88-1.92v0h1.47a1.42,1.42,0,0,0,.61,1.19,2.32,2.32,0,0,0,1.34.38,2.09,2.09,0,0,0,1.28-.34A1.08,1.08,0,0,0,35.64,69.88Z"/><path class="cls-2" d="M37.83,26.2H1a.9.9,0,0,0-.9.9,1,1,0,0,0,.9,1h.6A18.56,18.56,0,0,0,7,38a.91.91,0,0,0,.7.3H9.82L5.72,50.8a.95.95,0,0,0,1.8.6l4.3-13h6.81v9.9a.9.9,0,0,0,1.8,0V38.4h6.79l4.3,13a.95.95,0,0,0,1.8-.6l-4.1-12.5h2.1A1.08,1.08,0,0,0,32,38a20.24,20.24,0,0,0,5.41-9.9H38a.9.9,0,0,0,.91-.9A1.18,1.18,0,0,0,37.83,26.2Zm-7,10.2H8a17.8,17.8,0,0,1-4.5-8.3h31.8A17,17,0,0,1,30.83,36.4Z"/><path class="cls-2" d="M1.43,25.2l34.2-13.5a.92.92,0,0,0-.7-1.7l-.5.2a18.45,18.45,0,0,0-21.3-7.8L12.43.7A.92.92,0,0,0,11.22.2a.91.91,0,0,0-.5,1.2l.6,1.7A18.45,18.45,0,0,0,1.23,23.3l-.5.2a.88.88,0,0,0-.5,1.2A.85.85,0,0,0,1.43,25.2ZM12.93,4.5a16.31,16.31,0,0,1,19.59,6.4L3,22.6A16.34,16.34,0,0,1,12.93,4.5Z"/></g></g></svg>