<svg xmlns="http://www.w3.org/2000/svg" viewBox="0 0 46 67.03"><defs><style>.cls-1{fill:#fff;}</style></defs><title>ovens_hover</title><g id="Layer_2" data-name="Layer 2"><g id="Layer_1-2" data-name="Layer 1"><path class="cls-1" d="M10.67,62.2a4.86,4.86,0,0,1-1.29,3.46A4.38,4.38,0,0,1,6,67a4.15,4.15,0,0,1-3.23-1.37A4.92,4.92,0,0,1,1.54,62.2v-2a5,5,0,0,1,1.25-3.47A4.15,4.15,0,0,1,6,55.33a4.39,4.39,0,0,1,3.36,1.38,4.87,4.87,0,0,1,1.29,3.47Zm-1.54-2a3.83,3.83,0,0,0-.84-2.56A2.81,2.81,0,0,0,6,56.6a2.59,2.59,0,0,0-2.14,1,3.92,3.92,0,0,0-.8,2.56v2a4,4,0,0,0,.8,2.58,2.62,2.62,0,0,0,2.14,1,2.79,2.79,0,0,0,2.27-1,3.85,3.85,0,0,0,.84-2.58Z"/><path class="cls-1" d="M15.5,64.38l.13.59h0l.15-.59,1.94-6h1.57l-3.11,8.45H15.07l-3.15-8.45H13.5Z"/><path class="cls-1" d="M24.13,67a3.55,3.55,0,0,1-2.84-1.16,4.47,4.47,0,0,1-1-3.06v-.35a4.4,4.4,0,0,1,1.05-3,3.29,3.29,0,0,1,2.56-1.19,3.07,3.07,0,0,1,2.55,1.06,4.35,4.35,0,0,1,.84,2.8v.81h-5.4l0,0A3.47,3.47,0,0,0,22.41,65a2,2,0,0,0,1.72.79,3.86,3.86,0,0,0,1.37-.22,3.1,3.1,0,0,0,1-.61l.6,1a3.65,3.65,0,0,1-1.2.73A4.73,4.73,0,0,1,24.13,67Zm-.25-7.56a1.69,1.69,0,0,0-1.33.62,2.92,2.92,0,0,0-.64,1.59v0h3.81V61.6a2.5,2.5,0,0,0-.45-1.53A1.64,1.64,0,0,0,23.88,59.47Z"/><path class="cls-1" d="M30.38,58.42l.1,1.26a3.22,3.22,0,0,1,1.06-1A2.92,2.92,0,0,1,33,58.26a2.78,2.78,0,0,1,2.12.8,3.53,3.53,0,0,1,.75,2.47v5.34H34.32v-5.3A2.31,2.31,0,0,0,33.88,60a1.78,1.78,0,0,0-1.35-.47,2.41,2.41,0,0,0-1.21.29,2,2,0,0,0-.78.8v6.27H29V58.42Z"/><path class="cls-1" d="M43,64.6a1,1,0,0,0-.39-.83,3.75,3.75,0,0,0-1.46-.56,6.4,6.4,0,0,1-2.3-.9,1.83,1.83,0,0,1-.8-1.55A2.23,2.23,0,0,1,38.94,59a3.88,3.88,0,0,1,4.61,0,2.27,2.27,0,0,1,.85,1.82l0,0H42.91a1.32,1.32,0,0,0-.48-1,1.69,1.69,0,0,0-1.21-.45,1.8,1.8,0,0,0-1.22.37,1.13,1.13,0,0,0-.4.87.93.93,0,0,0,.35.78,3.86,3.86,0,0,0,1.43.5,6,6,0,0,1,2.36.93,1.86,1.86,0,0,1,.81,1.57,2.23,2.23,0,0,1-.91,1.83,4.36,4.36,0,0,1-4.93-.11,2.32,2.32,0,0,1-.88-1.91v0h1.47a1.43,1.43,0,0,0,.61,1.2,2.32,2.32,0,0,0,1.34.38,2,2,0,0,0,1.28-.35A1.05,1.05,0,0,0,43,64.6Z"/><path class="cls-1" d="M38.61,0H34.69L7.07,0C2.72,0,0,2.72,0,7.06Q0,17.44,0,27.8c0,4.33,2.3,6.87,6.46,7.17h0v1.24a.77.77,0,0,0,1.54,0V35L14,35H27.38S36.5,35,37.86,35V36.2a.77.77,0,0,0,1.54,0V35h0C43.65,34.69,46,32.1,46,27.69V7.47C46,2.58,43.44,0,38.61,0Zm5.85,27.69c0,3.61-1.67,5.49-5.08,5.74H6.57c-3.37-.25-5-2.09-5-5.63q0-10.36,0-20.74c0-3.49,2-5.5,5.53-5.5l27.61,0h3.92c4,0,5.85,1.89,5.85,5.93v2.89C44.46,16.14,44.47,21.92,44.46,27.69Z"/><path class="cls-1" d="M38.14,22a4.1,4.1,0,0,0-4.06,4,4.06,4.06,0,0,0,4.05,4.1h0a4.07,4.07,0,0,0,0-8.13Zm0,6.38h0a2.29,2.29,0,0,1-1.64-.69,2.27,2.27,0,0,1-.67-1.64,2.32,2.32,0,0,1,2.31-2.3,2.3,2.3,0,0,1,1.64.67,2.32,2.32,0,0,1,.68,1.65A2.28,2.28,0,0,1,38.15,28.4Z"/><path class="cls-1" d="M41.5,5.53H34.8a.77.77,0,0,0,0,1.54h6.7a.77.77,0,0,0,0-1.54Z"/><path class="cls-1" d="M41.42,11a.78.78,0,0,0,0-1.55H34.88a.78.78,0,0,0,0,1.55Z"/><path class="cls-1" d="M34.88,15h6.54a.77.77,0,0,0,0-1.54H34.88a.77.77,0,1,0,0,1.54Z"/><path class="cls-1" d="M34.88,18.92h6.54a.77.77,0,1,0,0-1.54H34.88a.77.77,0,1,0,0,1.54Z"/><path class="cls-1" d="M26.83,5.63c-1.14,0-2.28,0-3.41,0H9.67c-3.42,0-5.4,2-5.43,5.35q0,6.6,0,13.21a5,5,0,0,0,5.21,5.23c2.92,0,5.84,0,8.75,0s5.83,0,8.74,0a5,5,0,0,0,5.2-5.28c0-4.69,0-9,0-13.21A5,5,0,0,0,26.83,5.63Zm3.78,18.49a3.48,3.48,0,0,1-3.67,3.74q-8.73.09-17.46,0a3.46,3.46,0,0,1-3.69-3.7c0-4.4,0-8.79,0-13.19,0-2.5,1.33-3.79,3.9-3.81l3.28,0H23.42l3.39,0a3.48,3.48,0,0,1,3.79,3.77C30.65,15.13,30.65,19.44,30.61,24.12Z"/><path class="cls-1" d="M13.11,8.24l-5.7,5.7a.77.77,0,0,0,0,1.09.78.78,0,0,0,.55.23A.73.73,0,0,0,8.5,15l5.71-5.7a.77.77,0,0,0,0-1.09A.78.78,0,0,0,13.11,8.24Z"/><path class="cls-1" d="M7.82,11.64l2.31-2.32A.77.77,0,0,0,9,8.24l-2.3,2.31a.77.77,0,0,0,0,1.09.75.75,0,0,0,.54.22A.77.77,0,0,0,7.82,11.64Z"/><circle class="cls-1" cx="38.15" cy="26.08" r="1.28"/></g></g></svg>