<svg xmlns="http://www.w3.org/2000/svg" viewBox="0 0 66.99 67.22"><defs><style>.cls-1{fill:#fff;}</style></defs><title>steamers_hover</title><g id="Layer_2" data-name="Layer 2"><g id="Layer_1-2" data-name="Layer 1"><path class="cls-1" d="M6.5,64.19A1.71,1.71,0,0,0,6,62.89,4.66,4.66,0,0,0,4,62a6.47,6.47,0,0,1-2.7-1.26,2.66,2.66,0,0,1-1-2.1,2.8,2.8,0,0,1,1.05-2.23,4.07,4.07,0,0,1,2.72-.89,4,4,0,0,1,2.86,1,3.1,3.1,0,0,1,1,2.38l0,0H6.49a2.11,2.11,0,0,0-.68-1.6,2.44,2.44,0,0,0-1.73-.63,2.35,2.35,0,0,0-1.65.52,1.75,1.75,0,0,0-.58,1.36,1.51,1.51,0,0,0,.63,1.24,5.83,5.83,0,0,0,2,.87A5.91,5.91,0,0,1,7.14,62,2.87,2.87,0,0,1,8,64.17,2.67,2.67,0,0,1,7,66.39a4.55,4.55,0,0,1-2.83.83,4.76,4.76,0,0,1-2.91-.92A2.8,2.8,0,0,1,0,63.83l0,0H1.49a1.92,1.92,0,0,0,.81,1.66A3,3,0,0,0,4.13,66a2.8,2.8,0,0,0,1.73-.49A1.6,1.6,0,0,0,6.5,64.19Z"/><path class="cls-1" d="M12.15,56.57v2h1.6v1.15h-1.6v5.13a1.11,1.11,0,0,0,.25.83.85.85,0,0,0,.65.25,1.77,1.77,0,0,0,.3,0l.27-.07.21,1.05a1.35,1.35,0,0,1-.51.23,2.5,2.5,0,0,1-.66.09,2,2,0,0,1-1.49-.56,2.42,2.42,0,0,1-.56-1.78V59.75H9.27V58.6h1.34v-2Z"/><path class="cls-1" d="M18.9,67.22a3.58,3.58,0,0,1-2.84-1.16A4.49,4.49,0,0,1,15,63v-.35a4.38,4.38,0,0,1,1.05-3,3.31,3.31,0,0,1,2.57-1.19,3.07,3.07,0,0,1,2.54,1,4.4,4.4,0,0,1,.85,2.81v.81H16.64l0,0a3.54,3.54,0,0,0,.56,2.07A2,2,0,0,0,18.9,66a4.06,4.06,0,0,0,1.37-.22,3.12,3.12,0,0,0,1-.62l.6,1a3.72,3.72,0,0,1-1.19.74A4.79,4.79,0,0,1,18.9,67.22Zm-.24-7.56a1.67,1.67,0,0,0-1.33.62,2.87,2.87,0,0,0-.65,1.59l0,0h3.81v-.13a2.47,2.47,0,0,0-.45-1.52A1.65,1.65,0,0,0,18.66,59.66Z"/><path class="cls-1" d="M29,67.06c0-.26-.09-.48-.12-.68a3.81,3.81,0,0,1-.05-.59,3.55,3.55,0,0,1-1.12,1,2.81,2.81,0,0,1-1.49.41,2.76,2.76,0,0,1-2-.67,2.51,2.51,0,0,1-.69-1.87,2.16,2.16,0,0,1,1-1.89,4.54,4.54,0,0,1,2.66-.69H28.8v-.83a1.56,1.56,0,0,0-.45-1.18,1.81,1.81,0,0,0-1.29-.43,1.86,1.86,0,0,0-1.21.37,1.12,1.12,0,0,0-.46.9l-1.46,0V60.9a2,2,0,0,1,.86-1.69,3.57,3.57,0,0,1,2.37-.76,3.46,3.46,0,0,1,2.31.73,2.6,2.6,0,0,1,.88,2.1v4.07a8.26,8.26,0,0,0,0,.88,4.73,4.73,0,0,0,.18.83Zm-2.55-1.13a2.71,2.71,0,0,0,1.5-.43,2,2,0,0,0,.88-1V63.14H27.07a2.25,2.25,0,0,0-1.49.47,1.41,1.41,0,0,0-.56,1.1,1.12,1.12,0,0,0,.36.89A1.46,1.46,0,0,0,26.42,65.93Z"/><path class="cls-1" d="M34,58.6l.11,1.11a2.77,2.77,0,0,1,1-.93,3.14,3.14,0,0,1,1.48-.33,2.64,2.64,0,0,1,1.45.39A2.42,2.42,0,0,1,39,60,3.15,3.15,0,0,1,40,58.87a2.73,2.73,0,0,1,1.52-.42,2.51,2.51,0,0,1,2,.89A4,4,0,0,1,44.32,62v5.06H42.78V62a2.76,2.76,0,0,0-.43-1.77,1.54,1.54,0,0,0-1.28-.52,1.62,1.62,0,0,0-1.28.55,2.4,2.4,0,0,0-.57,1.38v5.43H37.67V62a2.82,2.82,0,0,0-.44-1.74A1.52,1.52,0,0,0,36,59.7a2,2,0,0,0-1.15.29,1.79,1.79,0,0,0-.7.81v6.26H32.57V58.6Z"/><path class="cls-1" d="M50.06,67.22a3.58,3.58,0,0,1-2.84-1.16,4.49,4.49,0,0,1-1-3.06v-.35a4.38,4.38,0,0,1,1-3,3.29,3.29,0,0,1,2.56-1.19,3.09,3.09,0,0,1,2.55,1,4.39,4.39,0,0,1,.84,2.81v.81H47.8l0,0a3.47,3.47,0,0,0,.57,2.07,2,2,0,0,0,1.72.79,4.1,4.1,0,0,0,1.37-.22,3.12,3.12,0,0,0,1-.62l.6,1a3.72,3.72,0,0,1-1.19.74A4.83,4.83,0,0,1,50.06,67.22Zm-.25-7.56a1.69,1.69,0,0,0-1.33.62,2.94,2.94,0,0,0-.64,1.59v0h3.82v-.13a2.47,2.47,0,0,0-.46-1.52A1.64,1.64,0,0,0,49.81,59.66Z"/><path class="cls-1" d="M58.93,60l-.79,0a1.74,1.74,0,0,0-1,.29,1.87,1.87,0,0,0-.64.81v6H54.93V58.6h1.38l.14,1.24a2.88,2.88,0,0,1,.89-1,2,2,0,0,1,1.22-.37,1.66,1.66,0,0,1,.32,0,1.33,1.33,0,0,1,.26.05Z"/><path class="cls-1" d="M65.45,64.78a1,1,0,0,0-.39-.82,3.79,3.79,0,0,0-1.46-.57,6.23,6.23,0,0,1-2.3-.89A1.84,1.84,0,0,1,60.5,61a2.22,2.22,0,0,1,.88-1.77,3.9,3.9,0,0,1,4.61,0,2.27,2.27,0,0,1,.85,1.82l0,.05H65.35a1.34,1.34,0,0,0-.48-1A2,2,0,0,0,62.44,60a1.12,1.12,0,0,0-.4.87.92.92,0,0,0,.35.77,3.69,3.69,0,0,0,1.43.5,6.1,6.1,0,0,1,2.36.93A1.89,1.89,0,0,1,67,64.67a2.25,2.25,0,0,1-.91,1.84,4.36,4.36,0,0,1-4.93-.11,2.34,2.34,0,0,1-.88-1.91v0h1.47a1.43,1.43,0,0,0,.61,1.2A2.37,2.37,0,0,0,63.7,66,2.11,2.11,0,0,0,65,65.67,1.07,1.07,0,0,0,65.45,64.78Z"/><path class="cls-1" d="M52.26,12.6h.09a2.1,2.1,0,0,0,2.1-2.1V9.1a.7.7,0,0,0-.7-.7h-1.4V7.7a3.51,3.51,0,0,0-3.5-3.5h-9.1V3.5A3.51,3.51,0,0,0,36.25,0h-5.6a3.5,3.5,0,0,0-3.5,3.5v.7h-9.1a3.5,3.5,0,0,0-3.5,3.5v.7h-1.4a.7.7,0,0,0-.7.7v1.4a2.1,2.1,0,0,0,2.1,2.1h.08L15,15.13a3.41,3.41,0,0,0,.68,1.67H13.15a.7.7,0,0,0-.7.7v1.4a2.1,2.1,0,0,0,2.1,2.1h.08L15,23.53a3.33,3.33,0,0,0,.72,1.73.7.7,0,0,0-.41.49L13,36.54a2.12,2.12,0,0,0,2,2.66h1.66v.7a2.1,2.1,0,0,0,2.1,2.1h1.4a2.1,2.1,0,0,0,2.1-2.1v-.7h22.4v.7a2.1,2.1,0,0,0,2.1,2.1h1.4a2.1,2.1,0,0,0,2.1-2.1v-.7H51.9a2.12,2.12,0,0,0,1.68-.83,2.09,2.09,0,0,0,.36-1.79L51.63,25.75a.7.7,0,0,0-.41-.49A3.43,3.43,0,0,0,52,23.53L52.26,21h.09a2.1,2.1,0,0,0,2.1-2.1V17.5a.7.7,0,0,0-.7-.7H51.26A3.53,3.53,0,0,0,52,15.13ZM28.55,3.5a2.1,2.1,0,0,1,2.1-2.1h5.6a2.1,2.1,0,0,1,2.1,2.1v.7h-9.8ZM16,7.7a2.1,2.1,0,0,1,2.1-2.1h30.8A2.1,2.1,0,0,1,51,7.7v.7H16Zm4.9,32.2a.7.7,0,0,1-.7.7h-1.4a.7.7,0,0,1-.7-.7v-.7h2.8Zm28,0a.7.7,0,0,1-.7.7h-1.4a.7.7,0,0,1-.7-.7v-.7h2.8Zm3.73-3a.7.7,0,0,1-.49.86.58.58,0,0,1-.19,0H15a.69.69,0,0,1-.56-.28.72.72,0,0,1-.11-.65L16.51,26.6H50.38Zm.47-18a.7.7,0,0,1-.7.7h-.7a.7.7,0,0,0-.7.61l-.39,3.15a2.11,2.11,0,0,1-2.09,1.84h-30a2.11,2.11,0,0,1-2.09-1.84l-.39-3.15a.69.69,0,0,0-.69-.61h-.7a.7.7,0,0,1-.7-.7v-.7h39.2ZM51,11.81,50.56,15a2.11,2.11,0,0,1-2.09,1.84h-30A2.11,2.11,0,0,1,16.33,15l-.39-3.15a.69.69,0,0,0-.69-.61h-.7a.7.7,0,0,1-.7-.7V9.8h39.2v.7a.7.7,0,0,1-.7.7h-.7A.7.7,0,0,0,51,11.81Z"/><rect class="cls-1" x="18.75" y="31.5" width="2.8" height="1.4"/><rect class="cls-1" x="23.65" y="31.5" width="2.8" height="1.4"/><rect class="cls-1" x="28.55" y="31.5" width="2.8" height="1.4"/><path class="cls-1" d="M46.05,28A2.1,2.1,0,0,0,44,30.1v4.2a2.1,2.1,0,0,0,4.2,0V30.1A2.1,2.1,0,0,0,46.05,28Zm0,1.4a.7.7,0,0,1,.7.7v2.1h-1.4V30.1A.7.7,0,0,1,46.05,29.4Zm0,5.6a.7.7,0,0,1-.7-.7v-.7h1.4v.7A.7.7,0,0,1,46.05,35Z"/><path class="cls-1" d="M37.65,28a4.2,4.2,0,1,0,4.2,4.2A4.2,4.2,0,0,0,37.65,28Zm0,7a2.8,2.8,0,1,1,2.8-2.8A2.8,2.8,0,0,1,37.65,35Z"/><rect class="cls-1" x="35.67" y="31.5" width="3.96" height="1.4" transform="translate(-11.74 36.05) rotate(-45)"/></g></g></svg>