<svg xmlns="http://www.w3.org/2000/svg" viewBox="0 0 77.71 71.95"><defs><style>.cls-1,.cls-2{fill:#0097d6;}.cls-1{stroke:#fff;stroke-miterlimit:10;stroke-width:0.75px;}</style></defs><title>agriculture</title><g id="Layer_2" data-name="Layer 2"><g id="Layer_1-2" data-name="Layer 1"><path class="cls-1" d="M24,44.58a13,13,0,1,1,13-13A13.06,13.06,0,0,1,24,44.58Zm0-24.13A11.09,11.09,0,1,0,35.11,31.54,11.11,11.11,0,0,0,24,20.45Z"/><path class="cls-1" d="M24,39.47A7.93,7.93,0,1,1,32,31.54,7.94,7.94,0,0,1,24,39.47Zm0-13.9a6,6,0,1,0,6,6A6,6,0,0,0,24,25.57Z"/><path class="cls-1" d="M55.78,40.55A3.51,3.51,0,1,1,59.29,37,3.51,3.51,0,0,1,55.78,40.55Zm0-5.07A1.56,1.56,0,1,0,57.34,37,1.56,1.56,0,0,0,55.78,35.48Z"/><path class="cls-1" d="M49.45,36.33H37.89l.3-1.21A14.79,14.79,0,0,0,23.87,16.79V14.84a16.73,16.73,0,0,1,16.71,16.7,16.92,16.92,0,0,1-.24,2.84h9.11v1.95Z"/><path class="cls-1" d="M55.78,44.58A7.55,7.55,0,1,1,63.32,37,7.55,7.55,0,0,1,55.78,44.58Zm0-13.13A5.59,5.59,0,1,0,61.36,37,5.59,5.59,0,0,0,55.78,31.45Z"/><polygon class="cls-1" points="45.22 20.92 42.18 7.48 26.99 7.48 26.99 15.81 25.04 15.81 25.04 5.52 43.74 5.52 47.12 20.48 45.22 20.92"/><path class="cls-1" d="M42.81,7.48H27.39a2.36,2.36,0,0,1,0-4.71H42.81a2.36,2.36,0,0,1,0,4.71ZM27.39,4.73a.4.4,0,1,0,0,.79H42.81a.4.4,0,1,0,0-.79Z"/><polygon class="cls-1" points="66.99 36.33 62.81 36.33 62.81 34.38 65.04 34.38 65.04 24.59 47.14 21.84 47.14 32.52 40.51 32.52 40.51 30.56 45.19 30.56 45.19 19.56 66.99 22.92 66.99 36.33"/><path class="cls-1" d="M54.24,22.93l-6-.93V9.49h6Zm-4.05-2.6,2.1.32v-9.2h-2.1Z"/><polygon class="cls-1" points="52.22 10.47 50.26 10.47 50.26 4.77 53.82 0.53 55.31 1.78 52.22 5.48 52.22 10.47"/><polygon class="cls-1" points="65.64 32.93 61.37 31.11 61.37 25.86 66.02 25.86 66.02 27.81 63.32 27.81 63.32 29.82 66.4 31.14 65.64 32.93"/><path class="cls-2" d="M6.87,65.6H2.59l-1,2.93H0L4.1,57.16H5.42l4,11.37H7.87ZM3,64.32h3.4L4.77,59.43h0Z"/><path class="cls-2" d="M10.63,64.46a5.66,5.66,0,0,1,.87-3.29,2.8,2.8,0,0,1,2.43-1.25,2.88,2.88,0,0,1,1.41.33,3,3,0,0,1,1,.93l.18-1.1h1.23v8.5a3.24,3.24,0,0,1-.94,2.5,3.89,3.89,0,0,1-2.73.87,5.83,5.83,0,0,1-1.32-.17,4.77,4.77,0,0,1-1.24-.46l.23-1.19a5,5,0,0,0,1.08.38,5.8,5.8,0,0,0,1.23.14,2.25,2.25,0,0,0,1.64-.51,2.12,2.12,0,0,0,.51-1.56v-1a2.72,2.72,0,0,1-1,.8,3,3,0,0,1-1.34.28,2.89,2.89,0,0,1-2.41-1.12,4.68,4.68,0,0,1-.87-3Zm1.53.17a3.55,3.55,0,0,0,.53,2,1.81,1.81,0,0,0,1.61.78,2,2,0,0,0,1.17-.32,2.41,2.41,0,0,0,.77-.89V62.35a2.38,2.38,0,0,0-.77-.86,2,2,0,0,0-1.15-.32,1.76,1.76,0,0,0-1.63.92,4.73,4.73,0,0,0-.53,2.37Z"/><path class="cls-2" d="M24,61.44l-.79,0a1.75,1.75,0,0,0-1,.29,1.91,1.91,0,0,0-.65.82v6H20V60.08h1.38l.15,1.24a2.89,2.89,0,0,1,.88-1,2.12,2.12,0,0,1,1.22-.37A1.84,1.84,0,0,1,24,60l.25.06Z"/><path class="cls-2" d="M27.26,57.92H25.72V56.35h1.54Zm0,10.61H25.72V60.08h1.54Z"/><path class="cls-2" d="M33,67.5A1.81,1.81,0,0,0,34.23,67a1.5,1.5,0,0,0,.53-1.16h1.39l0,0a2.41,2.41,0,0,1-.94,1.94A3.27,3.27,0,0,1,33,68.7a3.35,3.35,0,0,1-2.75-1.21,4.73,4.73,0,0,1-1-3v-.33a4.64,4.64,0,0,1,1-3A3.31,3.31,0,0,1,33,59.92a3.2,3.2,0,0,1,2.32.88A2.78,2.78,0,0,1,36.17,63v0h-1.4a1.85,1.85,0,0,0-.51-1.32A1.66,1.66,0,0,0,33,61.14a1.79,1.79,0,0,0-1.65.87,4.2,4.2,0,0,0-.52,2.13v.33a4.2,4.2,0,0,0,.51,2.15A1.8,1.8,0,0,0,33,67.5Z"/><path class="cls-2" d="M43.37,67.28a2.81,2.81,0,0,1-1,1,2.71,2.71,0,0,1-1.44.37,2.76,2.76,0,0,1-2.16-.88A4.14,4.14,0,0,1,38,65.07v-5h1.54v5a3.12,3.12,0,0,0,.4,1.86,1.47,1.47,0,0,0,1.24.51,2.5,2.5,0,0,0,1.35-.33,2,2,0,0,0,.81-1V60.08h1.54v8.45H43.47Z"/><path class="cls-2" d="M48.76,68.53H47.22V56.35h1.54Z"/><path class="cls-2" d="M53.27,58v2h1.6v1.14h-1.6v5.13a1.17,1.17,0,0,0,.24.84.9.9,0,0,0,.65.24l.3,0,.27-.08L55,68.38a1.52,1.52,0,0,1-.51.23,2.63,2.63,0,0,1-.67.09,2,2,0,0,1-1.49-.57,2.47,2.47,0,0,1-.55-1.78V61.22H50.38V60.08h1.35V58Z"/><path class="cls-2" d="M61.88,67.28a2.71,2.71,0,0,1-1,1,2.77,2.77,0,0,1-1.45.37,2.72,2.72,0,0,1-2.15-.88,4.09,4.09,0,0,1-.78-2.75v-5H58v5a3.2,3.2,0,0,0,.4,1.86,1.48,1.48,0,0,0,1.24.51A2.56,2.56,0,0,0,61,67.12a2,2,0,0,0,.81-1V60.08h1.54v8.45H62Z"/><path class="cls-2" d="M69.61,61.44l-.79,0a1.79,1.79,0,0,0-1,.29,1.89,1.89,0,0,0-.64.82v6H65.61V60.08H67l.15,1.24a3,3,0,0,1,.89-1,2.11,2.11,0,0,1,1.21-.37,1.69,1.69,0,0,1,.33,0l.26.06Z"/><path class="cls-2" d="M74.56,68.7a3.57,3.57,0,0,1-2.84-1.17,4.45,4.45,0,0,1-1-3.06v-.34a4.36,4.36,0,0,1,1-3,3.29,3.29,0,0,1,2.57-1.2A3.07,3.07,0,0,1,76.86,61a4.31,4.31,0,0,1,.85,2.8v.82H72.3l0,0a3.53,3.53,0,0,0,.56,2.06,2,2,0,0,0,1.72.8,3.82,3.82,0,0,0,1.37-.23,3.15,3.15,0,0,0,1-.61l.6,1a3.78,3.78,0,0,1-1.2.74A4.75,4.75,0,0,1,74.56,68.7Zm-.24-7.56a1.64,1.64,0,0,0-1.33.62,2.94,2.94,0,0,0-.65,1.59l0,0h3.81v-.13a2.47,2.47,0,0,0-.45-1.52A1.64,1.64,0,0,0,74.32,61.14Z"/></g></g></svg>