<svg xmlns="http://www.w3.org/2000/svg" viewBox="0 0 75.41 77.71"><defs><style>.cls-1,.cls-2{fill:#fff;}.cls-2{stroke:#0097d6;stroke-miterlimit:10;stroke-width:0.75px;}</style></defs><title>consulting_hover</title><g id="Layer_2" data-name="Layer 2"><g id="Layer_1-2" data-name="Layer 1"><path class="cls-1" d="M8.52,70.66l0,0a3.43,3.43,0,0,1-1.13,2.68,4.27,4.27,0,0,1-3,1.08,4,4,0,0,1-3.15-1.37A5,5,0,0,1,0,69.62v-2a5,5,0,0,1,1.21-3.47,4,4,0,0,1,3.15-1.37,4.39,4.39,0,0,1,3.07,1,3.39,3.39,0,0,1,1.11,2.72l0,0H7.05a2.56,2.56,0,0,0-.71-1.89,2.7,2.7,0,0,0-2-.69A2.44,2.44,0,0,0,2.3,65a4.22,4.22,0,0,0-.76,2.58v2a4.26,4.26,0,0,0,.76,2.6,2.44,2.44,0,0,0,2.06,1,2.7,2.7,0,0,0,2-.69,2.56,2.56,0,0,0,.71-1.91Z"/><path class="cls-1" d="M10,70a4.69,4.69,0,0,1,1-3.09,3.41,3.41,0,0,1,2.76-1.21,3.44,3.44,0,0,1,2.78,1.21,4.64,4.64,0,0,1,1,3.09v.17a4.63,4.63,0,0,1-1,3.1,3.42,3.42,0,0,1-2.76,1.2A3.42,3.42,0,0,1,11,73.25a4.61,4.61,0,0,1-1-3.09Zm1.54.17a4.06,4.06,0,0,0,.56,2.22,1.87,1.87,0,0,0,1.69.88,1.86,1.86,0,0,0,1.67-.88A4,4,0,0,0,16,70.16V70a4,4,0,0,0-.57-2.21,1.89,1.89,0,0,0-1.69-.88,1.86,1.86,0,0,0-1.67.88A4.1,4.1,0,0,0,11.51,70Z"/><path class="cls-1" d="M20.8,65.84l.11,1.26a3.07,3.07,0,0,1,1.05-1,2.82,2.82,0,0,1,1.45-.37,2.73,2.73,0,0,1,2.12.8A3.51,3.51,0,0,1,26.28,69V74.3H24.74V69a2.3,2.3,0,0,0-.44-1.58A1.73,1.73,0,0,0,23,66.94a2.37,2.37,0,0,0-1.2.28A2.09,2.09,0,0,0,21,68V74.3H19.42V65.84Z"/><path class="cls-1" d="M33.43,72A1,1,0,0,0,33,71.2a3.51,3.51,0,0,0-1.46-.57,5.93,5.93,0,0,1-2.29-.9,1.8,1.8,0,0,1-.81-1.54,2.25,2.25,0,0,1,.88-1.77,3.45,3.45,0,0,1,2.28-.73,3.4,3.4,0,0,1,2.33.78,2.24,2.24,0,0,1,.85,1.82l0,0H33.34a1.34,1.34,0,0,0-.48-1,1.76,1.76,0,0,0-1.22-.44,1.7,1.7,0,0,0-1.21.37,1.13,1.13,0,0,0-.41.87.93.93,0,0,0,.35.77,3.69,3.69,0,0,0,1.43.5,6,6,0,0,1,2.36.93A1.89,1.89,0,0,1,35,71.91a2.22,2.22,0,0,1-.91,1.84,3.79,3.79,0,0,1-2.38.71,3.71,3.71,0,0,1-2.55-.82,2.34,2.34,0,0,1-.88-1.91l0,0h1.46a1.43,1.43,0,0,0,.61,1.2,2.39,2.39,0,0,0,1.34.38A2.09,2.09,0,0,0,33,72.91,1.07,1.07,0,0,0,33.43,72Z"/><path class="cls-1" d="M42.25,73.05a2.91,2.91,0,0,1-1,1,2.77,2.77,0,0,1-1.45.37,2.69,2.69,0,0,1-2.15-.88,4.09,4.09,0,0,1-.78-2.75v-5h1.54v5a3.1,3.1,0,0,0,.4,1.86,1.47,1.47,0,0,0,1.24.51,2.56,2.56,0,0,0,1.36-.33,2.19,2.19,0,0,0,.81-.94v-6.1h1.53V74.3H42.35Z"/><path class="cls-1" d="M47.64,74.3H46.1V62.11h1.54Z"/><path class="cls-1" d="M52.15,63.8v2h1.6V67h-1.6v5.14a1.16,1.16,0,0,0,.24.83.93.93,0,0,0,.66.25,1.81,1.81,0,0,0,.29,0l.28-.07.21,1a1.52,1.52,0,0,1-.51.23,2.5,2.5,0,0,1-.66.09,2,2,0,0,1-1.5-.57,2.44,2.44,0,0,1-.55-1.77V67H49.27V65.84h1.34v-2Z"/><path class="cls-1" d="M57.06,63.68H55.52V62.11h1.54Zm0,10.62H55.52V65.84h1.54Z"/><path class="cls-1" d="M60.8,65.84l.11,1.26a3.19,3.19,0,0,1,1.06-1,2.82,2.82,0,0,1,1.45-.37,2.75,2.75,0,0,1,2.12.8A3.51,3.51,0,0,1,66.29,69V74.3H64.75V69a2.3,2.3,0,0,0-.44-1.58A1.76,1.76,0,0,0,63,66.94a2.41,2.41,0,0,0-1.21.28A2.07,2.07,0,0,0,61,68V74.3H59.43V65.84Z"/><path class="cls-1" d="M68.25,70.23a5.64,5.64,0,0,1,.87-3.29,2.78,2.78,0,0,1,2.43-1.25A3.06,3.06,0,0,1,73,66,2.78,2.78,0,0,1,74,67l.19-1.11h1.23v8.5a3.23,3.23,0,0,1-1,2.5,3.89,3.89,0,0,1-2.73.87,5.82,5.82,0,0,1-1.31-.17,5.24,5.24,0,0,1-1.25-.45l.24-1.2a4.29,4.29,0,0,0,1.07.38,5.3,5.3,0,0,0,1.24.14,2.27,2.27,0,0,0,1.64-.51,2.12,2.12,0,0,0,.51-1.56v-1a2.73,2.73,0,0,1-1,.81,3.18,3.18,0,0,1-1.34.27,2.89,2.89,0,0,1-2.42-1.12,4.68,4.68,0,0,1-.87-3Zm1.54.16a3.6,3.6,0,0,0,.52,2,1.83,1.83,0,0,0,1.62.77,2,2,0,0,0,1.16-.32,2.35,2.35,0,0,0,.78-.89V68.11a2.4,2.4,0,0,0-.78-.86A2,2,0,0,0,72,66.94a1.74,1.74,0,0,0-1.63.91,4.64,4.64,0,0,0-.53,2.38Z"/><path class="cls-2" d="M11.15,56.1a1,1,0,0,0,1-1V51.17H24v2a3,3,0,0,0,3,3h2a1,1,0,0,0,1-1V45.25A3.94,3.94,0,0,0,26,41.31H23v-2H29.9a3.94,3.94,0,0,0,3,3.81v12a1,1,0,0,0,1,1h7.89a1,1,0,0,0,1-1v-12a4,4,0,0,0,3-3.81h6.91v2h-3a3.94,3.94,0,0,0-4,3.94v9.87a1,1,0,0,0,1,1h2a3,3,0,0,0,3-3v-2H63.44v3.95a1,1,0,0,0,2,0V34.4a3.93,3.93,0,0,0-3.94-3.94h0a6.68,6.68,0,0,0-1.91-4.55A5.56,5.56,0,0,0,58.38,25a3.92,3.92,0,0,0,2.1-3.46v-2a3.95,3.95,0,1,0-7.89,0v2A3.9,3.9,0,0,0,54.69,25a6.48,6.48,0,0,0-3,4.43H50.61a3,3,0,0,0-3,3v1h-2A7.91,7.91,0,0,0,40,25.84a3.92,3.92,0,0,0,1.75-3.28v-2a3.95,3.95,0,0,0-7.89,0v2a4,4,0,0,0,1.75,3.28,7.9,7.9,0,0,0-5.69,7.58h-2v-1a3,3,0,0,0-3-3H23.88a6.46,6.46,0,0,0-3-4.43A3.92,3.92,0,0,0,23,21.58v-2a3.95,3.95,0,1,0-7.89,0v2A3.9,3.9,0,0,0,17.2,25a5.56,5.56,0,0,0-1.17.87,6.68,6.68,0,0,0-1.91,4.55h0a3.94,3.94,0,0,0-3.95,3.94V55.12A1,1,0,0,0,11.15,56.1ZM31.87,39.33h1V41A2,2,0,0,1,31.87,39.33Zm8.88,14.8H34.83V39.33h5.92Zm2-13.1v-1.7h1A2,2,0,0,1,42.72,41ZM63.44,34.4V49.2H51.6v-2h4.93a5,5,0,0,0,4.94-4.94V32.43A2,2,0,0,1,63.44,34.4ZM54.56,19.61a2,2,0,1,1,3.95,0v2a2,2,0,0,1-3.95,0ZM49.63,32.43a1,1,0,0,1,1-1h2a1,1,0,0,0,1-1,4.49,4.49,0,0,1,2.27-3.8,2,2,0,0,1,2.32.66,4.69,4.69,0,0,1,1.33,3.35V42.29a3,3,0,0,1-3,3H50.61a1,1,0,0,0-1,1v6.9a1,1,0,0,1-1,1h-1V45.25a2,2,0,0,1,2-2h3.94a1,1,0,0,0,1-1V34.4a1,1,0,0,0-1-1H49.63Zm-1,3h4v2H23v-2ZM35.82,20.59a2,2,0,1,1,3.94,0v2a2,2,0,1,1-3.94,0Zm2,6.91a5.93,5.93,0,0,1,5.92,5.92H31.87A5.92,5.92,0,0,1,37.79,27.5ZM17.07,19.61a2,2,0,1,1,3.95,0v2a2,2,0,0,1-3.95,0Zm-1,11.06a4.66,4.66,0,0,1,1.34-3.35A2.32,2.32,0,0,1,19,26.51a1.62,1.62,0,0,1,.69.15A4.44,4.44,0,0,1,22,30.46a1,1,0,0,0,1,1h2a1,1,0,0,1,1,1v1H22a1,1,0,0,0-1,1v7.89a1,1,0,0,0,1,1H26a2,2,0,0,1,2,2v8.88h-1a1,1,0,0,1-1-1v-6.9a1,1,0,0,0-1-1H19a3,3,0,0,1-3-3ZM12.14,34.4a2,2,0,0,1,2-2v9.86A4.94,4.94,0,0,0,19,47.23H24v2H12.14Z"/><path class="cls-2" d="M42.39,5.55a4.64,4.64,0,0,0-9.21-1.08,4.87,4.87,0,0,0,0,1.08.85.85,0,0,0,0,.17l1.65,5.33a1,1,0,0,0,1,.69h3.94a1,1,0,0,0,.94-.69l1.66-5.33A.86.86,0,0,0,42.39,5.55Zm-2-.32L39,9.77h-2.5L35.13,5.23a2.66,2.66,0,0,1,5.31-.41A1.41,1.41,0,0,1,40.44,5.23Z"/><path class="cls-2" d="M39.76,12.73H35.82a1,1,0,1,0,0,2h3.94a1,1,0,1,0,0-2Z"/><rect class="cls-2" x="19.04" y="11.71" width="1.97" height="1.97"/><rect class="cls-2" x="19.04" y="7.77" width="1.97" height="1.97"/><rect class="cls-2" x="22.99" y="7.77" width="1.97" height="1.97"/><rect class="cls-2" x="26.94" y="7.77" width="1.97" height="1.97"/><rect class="cls-2" x="54.56" y="11.71" width="1.97" height="1.97"/><rect class="cls-2" x="54.56" y="7.77" width="1.97" height="1.97"/><rect class="cls-2" x="50.61" y="7.77" width="1.97" height="1.97"/><rect class="cls-2" x="46.67" y="7.77" width="1.97" height="1.97"/></g></g></svg>