<svg xmlns="http://www.w3.org/2000/svg" viewBox="0 0 90.72 72.63"><defs><style>.cls-1,.cls-2{fill:#fff;}.cls-2{stroke:#0097d6;stroke-miterlimit:10;stroke-width:0.75px;}</style></defs><title>construction_hover</title><g id="Layer_2" data-name="Layer 2"><g id="Layer_1-2" data-name="Layer 1"><path class="cls-1" d="M8.52,68.83l0,0a3.44,3.44,0,0,1-1.13,2.68,4.27,4.27,0,0,1-3,1.07,4,4,0,0,1-3.15-1.36A5,5,0,0,1,0,67.8v-2A5.05,5.05,0,0,1,1.21,62.3a4,4,0,0,1,3.15-1.37,4.39,4.39,0,0,1,3.07,1,3.39,3.39,0,0,1,1.11,2.72l0,0H7.05a2.53,2.53,0,0,0-.71-1.89,2.66,2.66,0,0,0-2-.7,2.44,2.44,0,0,0-2.06,1,4.22,4.22,0,0,0-.76,2.58v2a4.23,4.23,0,0,0,.76,2.59,2.41,2.41,0,0,0,2.06,1,2.7,2.7,0,0,0,2-.69,2.56,2.56,0,0,0,.71-1.91Z"/><path class="cls-1" d="M10,68.17a4.69,4.69,0,0,1,1-3.09,3.42,3.42,0,0,1,2.76-1.22,3.47,3.47,0,0,1,2.78,1.21,4.65,4.65,0,0,1,1,3.1v.17a4.61,4.61,0,0,1-1,3.09,3.42,3.42,0,0,1-2.76,1.2A3.44,3.44,0,0,1,11,71.43a4.64,4.64,0,0,1-1-3.09Zm1.54.17a4.11,4.11,0,0,0,.56,2.22,1.89,1.89,0,0,0,1.69.87,1.87,1.87,0,0,0,1.67-.87A4,4,0,0,0,16,68.34v-.17A4,4,0,0,0,15.43,66a1.92,1.92,0,0,0-1.69-.88,1.88,1.88,0,0,0-1.67.88,4.11,4.11,0,0,0-.56,2.22Z"/><path class="cls-1" d="M20.8,64l.11,1.26a3.1,3.1,0,0,1,1.05-1,2.92,2.92,0,0,1,1.45-.37,2.77,2.77,0,0,1,2.12.8,3.53,3.53,0,0,1,.75,2.47v5.34H24.74v-5.3a2.31,2.31,0,0,0-.44-1.59A1.77,1.77,0,0,0,23,65.11a2.37,2.37,0,0,0-1.2.29,2,2,0,0,0-.79.8v6.27H19.42V64Z"/><path class="cls-1" d="M33.43,70.2a1,1,0,0,0-.39-.83,3.68,3.68,0,0,0-1.46-.56,6.27,6.27,0,0,1-2.29-.9,1.81,1.81,0,0,1-.81-1.55,2.23,2.23,0,0,1,.88-1.76,3.45,3.45,0,0,1,2.28-.74,3.4,3.4,0,0,1,2.33.78,2.24,2.24,0,0,1,.85,1.82l0,.05H33.34a1.32,1.32,0,0,0-.48-1,2,2,0,0,0-2.43-.08,1.14,1.14,0,0,0-.41.87.93.93,0,0,0,.35.78,3.86,3.86,0,0,0,1.43.5,6,6,0,0,1,2.36.93A1.86,1.86,0,0,1,35,70.09a2.2,2.2,0,0,1-.91,1.83,3.73,3.73,0,0,1-2.38.71,3.71,3.71,0,0,1-2.55-.82,2.32,2.32,0,0,1-.88-1.91l0-.05h1.46a1.43,1.43,0,0,0,.61,1.2,2.32,2.32,0,0,0,1.34.38A2,2,0,0,0,33,71.08,1.05,1.05,0,0,0,33.43,70.2Z"/><path class="cls-1" d="M39,62v2h1.61v1.14H39v5.13a1.17,1.17,0,0,0,.25.84.88.88,0,0,0,.65.24,1.13,1.13,0,0,0,.3,0,1.31,1.31,0,0,0,.27-.07l.21,1a1.23,1.23,0,0,1-.5.23,2.63,2.63,0,0,1-.67.09A2,2,0,0,1,38,72.07a2.47,2.47,0,0,1-.56-1.78V65.16H36.14V64h1.34V62Z"/><path class="cls-1" d="M46.27,65.38l-.79,0a1.78,1.78,0,0,0-1,.29,1.82,1.82,0,0,0-.65.81v6H42.27V64h1.38l.15,1.23a2.86,2.86,0,0,1,.88-1,2.07,2.07,0,0,1,1.22-.37,1.84,1.84,0,0,1,.33,0l.25.06Z"/><path class="cls-1" d="M53.24,71.22a2.94,2.94,0,0,1-1,1,2.86,2.86,0,0,1-1.45.36,2.69,2.69,0,0,1-2.15-.88A4.07,4.07,0,0,1,47.84,69V64h1.54v5a3.2,3.2,0,0,0,.4,1.86,1.48,1.48,0,0,0,1.24.5,2.56,2.56,0,0,0,1.36-.33,2.08,2.08,0,0,0,.81-.94V64h1.54v8.45H53.34Z"/><path class="cls-1" d="M60.33,71.43A1.83,1.83,0,0,0,61.57,71a1.51,1.51,0,0,0,.53-1.16h1.39l0,0a2.45,2.45,0,0,1-.94,1.94,3.35,3.35,0,0,1-2.25.84,3.3,3.3,0,0,1-2.75-1.21,4.63,4.63,0,0,1-1-3v-.33a4.64,4.64,0,0,1,1-3,3.33,3.33,0,0,1,2.75-1.22,3.15,3.15,0,0,1,2.31.88,2.75,2.75,0,0,1,.88,2.14l0,.05H62.1a1.88,1.88,0,0,0-.5-1.31,1.64,1.64,0,0,0-1.27-.55,1.77,1.77,0,0,0-1.65.88,4.1,4.1,0,0,0-.52,2.13v.33a4.22,4.22,0,0,0,.51,2.15A1.77,1.77,0,0,0,60.33,71.43Z"/><path class="cls-1" d="M67.48,62v2h1.61v1.14H67.48v5.13a1.17,1.17,0,0,0,.25.84.88.88,0,0,0,.65.24,1.13,1.13,0,0,0,.3,0,1.31,1.31,0,0,0,.27-.07l.21,1a1.23,1.23,0,0,1-.5.23,2.63,2.63,0,0,1-.67.09,2,2,0,0,1-1.49-.56A2.47,2.47,0,0,1,66,70.29V65.16H64.6V64H66V62Z"/><path class="cls-1" d="M72.4,61.85H70.86V60.28H72.4Zm0,10.62H70.86V64H72.4Z"/><path class="cls-1" d="M74.41,68.17a4.64,4.64,0,0,1,1-3.09,3.42,3.42,0,0,1,2.76-1.22A3.47,3.47,0,0,1,81,65.07a4.65,4.65,0,0,1,1,3.1v.17a4.61,4.61,0,0,1-1,3.09,3.79,3.79,0,0,1-5.53,0,4.64,4.64,0,0,1-1-3.09Zm1.54.17a4,4,0,0,0,.56,2.22,2.06,2.06,0,0,0,3.36,0,4,4,0,0,0,.57-2.22v-.17A3.94,3.94,0,0,0,79.86,66a2,2,0,0,0-3.35,0A4,4,0,0,0,76,68.17Z"/><path class="cls-1" d="M85.23,64l.11,1.26a3.22,3.22,0,0,1,1.06-1,2.92,2.92,0,0,1,1.45-.37,2.78,2.78,0,0,1,2.12.8,3.53,3.53,0,0,1,.75,2.47v5.34H89.18v-5.3a2.31,2.31,0,0,0-.44-1.59,1.8,1.8,0,0,0-1.35-.47,2.41,2.41,0,0,0-1.21.29,2,2,0,0,0-.78.8v6.27H83.86V64Z"/><path class="cls-2" d="M71.29,50.77V33.71h0V5.41H69.61V23.89H62.33v-9H60.65V32.85H53.37V28.37H51.69v5.34h0v8.1H44.41v-8.4H42.73v8.4h0v9H41.05V46.29H35.43V12.13H51.69v2.8H50.57v1.68h1.12v2.74h0a1.82,1.82,0,0,1-3.63-.18,1.79,1.79,0,0,1,.29-1l-1.41-.91a3.43,3.43,0,0,0-.56,1.89,3.5,3.5,0,0,0,7,.34l-1-.1h1v-2.8H54.5V14.93H53.37v-2.8h.56V10.45H53L35.43,4.53V.38h-9.5V4.29h-.78L17.6,10.45h-.07v.06h0v1.61h8.4V46.29h-5.6v4.48h-2.8v1.68h56V50.77ZM27.61,13.33l5.86,5.86-5.86,5.86Zm0-7.36h6.14v4.48H27.61Zm6.14,25.4-5-5,5-5Zm0-14.28-5-5h5ZM27.61,27.61l5.55,5.54L27.61,38.7Zm6.14,7.32V45l-5-5Zm14-24.48H35.43V6.3ZM27.61,2.05h6.14V4.29H27.61Zm-7.35,8.4L25.75,6h.18v4.48Zm7.35,30.81,5,5h-5ZM22,48H39.37v2.8H22Zm47.6,2.8H62.33V43.49h7.28Zm0-9H62.33V34.53h7.28ZM62.33,25.57h7.28v7.28H62.33Zm-9,9h7.28v7.28H53.37Zm-9,16.24V43.49h7.28v7.28Zm9-7.28h7.28v7.28H53.37Z"/></g></g></svg>