<svg xmlns="http://www.w3.org/2000/svg" viewBox="0 0 69.2 55.93"><defs><style>.cls-1,.cls-2{fill:#0097d6;}.cls-2{stroke:#fff;stroke-miterlimit:10;}</style></defs><title>education</title><g id="Layer_2" data-name="Layer 2"><g id="Layer_1-2" data-name="Layer 1"><path class="cls-1" d="M6.21,50.49H1.54v4.07H7v1.21H0V44.39H6.92V45.6H1.54v3.68H6.21Z"/><path class="cls-1" d="M8.12,51.7A5.64,5.64,0,0,1,9,48.41a2.78,2.78,0,0,1,2.44-1.25,3.11,3.11,0,0,1,1.32.27,2.69,2.69,0,0,1,1,.8V43.58h1.54V55.77H14.09l-.24-1.07a2.8,2.8,0,0,1-1,.92,3.06,3.06,0,0,1-1.42.31A2.9,2.9,0,0,1,9,54.81a4.68,4.68,0,0,1-.87-3Zm1.54.16a3.58,3.58,0,0,0,.52,2,1.83,1.83,0,0,0,1.62.77A2,2,0,0,0,13,54.37a2.37,2.37,0,0,0,.77-.88V49.55a2.37,2.37,0,0,0-.77-.83,2,2,0,0,0-1.14-.31,1.77,1.77,0,0,0-1.64.91,4.74,4.74,0,0,0-.52,2.38Z"/><path class="cls-1" d="M22.93,54.52a2.91,2.91,0,0,1-1,1,2.77,2.77,0,0,1-1.45.37,2.73,2.73,0,0,1-2.16-.88,4.14,4.14,0,0,1-.77-2.75v-5h1.54v5a3.12,3.12,0,0,0,.4,1.86,1.47,1.47,0,0,0,1.24.51,2.56,2.56,0,0,0,1.36-.33,2.19,2.19,0,0,0,.81-.94v-6.1h1.53v8.46H23Z"/><path class="cls-1" d="M30,54.73a1.81,1.81,0,0,0,1.24-.48,1.5,1.5,0,0,0,.53-1.16h1.39l0,0a2.43,2.43,0,0,1-.93,1.94,3.58,3.58,0,0,1-5-.36,4.66,4.66,0,0,1-1-3v-.32a4.65,4.65,0,0,1,1-3A3.31,3.31,0,0,1,30,47.16a3.19,3.19,0,0,1,2.31.87,2.78,2.78,0,0,1,.87,2.15v0h-1.4a1.89,1.89,0,0,0-.5-1.32A1.67,1.67,0,0,0,30,48.37a1.78,1.78,0,0,0-1.66.88,4.15,4.15,0,0,0-.52,2.13v.32a4.1,4.1,0,0,0,.52,2.15A1.76,1.76,0,0,0,30,54.73Z"/><path class="cls-1" d="M40.23,55.77a5.46,5.46,0,0,1-.12-.68,5.9,5.9,0,0,1-.06-.59,3.45,3.45,0,0,1-1.12,1,2.87,2.87,0,0,1-1.48.41,2.77,2.77,0,0,1-2-.68,2.48,2.48,0,0,1-.69-1.86,2.17,2.17,0,0,1,1-1.89,4.56,4.56,0,0,1,2.66-.69h1.67V50a1.56,1.56,0,0,0-.45-1.18,1.77,1.77,0,0,0-1.28-.43,1.86,1.86,0,0,0-1.21.37,1.12,1.12,0,0,0-.46.9l-1.46,0,0,0A2,2,0,0,1,36,47.92a3.57,3.57,0,0,1,2.37-.76,3.49,3.49,0,0,1,2.31.73,2.58,2.58,0,0,1,.87,2.1v4.07a8.33,8.33,0,0,0,0,.88,4.7,4.7,0,0,0,.17.83Zm-2.56-1.13a2.72,2.72,0,0,0,1.51-.43,2,2,0,0,0,.87-1V51.85H38.33a2.25,2.25,0,0,0-1.49.47,1.41,1.41,0,0,0-.56,1.1,1.17,1.17,0,0,0,.35.89A1.48,1.48,0,0,0,37.67,54.64Z"/><path class="cls-1" d="M46,45.27v2h1.6v1.14H46v5.14a1.16,1.16,0,0,0,.24.83.92.92,0,0,0,.66.24l.29,0a1.58,1.58,0,0,0,.28-.08l.21,1.06a1.52,1.52,0,0,1-.51.23,2.5,2.5,0,0,1-.66.09,2,2,0,0,1-1.5-.57,2.44,2.44,0,0,1-.55-1.77V48.45H43.09V47.31h1.34v-2Z"/><path class="cls-1" d="M50.88,45.15H49.34V43.58h1.54Zm0,10.62H49.34V47.31h1.54Z"/><path class="cls-1" d="M52.89,51.46a4.64,4.64,0,0,1,1-3.09,3.38,3.38,0,0,1,2.75-1.21,3.43,3.43,0,0,1,2.78,1.21,4.62,4.62,0,0,1,1,3.09v.17a4.7,4.7,0,0,1-1,3.1,3.79,3.79,0,0,1-5.54,0,4.61,4.61,0,0,1-1-3.09Zm1.54.17A4,4,0,0,0,55,53.85a2,2,0,0,0,3.35,0,4,4,0,0,0,.57-2.22v-.17a4,4,0,0,0-.57-2.21,1.89,1.89,0,0,0-1.69-.88,1.83,1.83,0,0,0-1.66.88,4,4,0,0,0-.57,2.21Z"/><path class="cls-1" d="M63.72,47.31l.11,1.26a3,3,0,0,1,1.06-1,2.77,2.77,0,0,1,1.45-.37,2.72,2.72,0,0,1,2.11.8,3.51,3.51,0,0,1,.75,2.47v5.34H67.66V50.46a2.25,2.25,0,0,0-.44-1.58,1.72,1.72,0,0,0-1.34-.47,2.38,2.38,0,0,0-1.21.28,2.17,2.17,0,0,0-.79.8v6.28H62.34V47.31Z"/><path class="cls-2" d="M61.25,9.58,34.87.59a.83.83,0,0,0-.75,0l-26.38,9a1.19,1.19,0,0,0-.87,1.11,1.25,1.25,0,0,0,.81,1.17l7.57,3v12a1.15,1.15,0,0,0,.68,1.05l14.59,7.45a9,9,0,0,0,8,0l14.59-7.45a1.15,1.15,0,0,0,.68-1.05v-12l5.28-2V24.43a1.24,1.24,0,0,0,2.48,0V11.8a1.37,1.37,0,0,0,.62-1.11A1.19,1.19,0,0,0,61.25,9.58ZM51.26,26,37.35,33.11a6.19,6.19,0,0,1-5.71,0L17.73,26V15.8l16.33,6.29h.87L51.26,15.8ZM34.5,19.62l-22.79-8.8L34.5,3.06l22.78,7.76Z"/></g></g></svg>