<svg xmlns="http://www.w3.org/2000/svg" viewBox="0 0 54.66 70.6"><defs><style>.cls-1,.cls-2{fill:#0097d6;}.cls-2{stroke:#fff;stroke-miterlimit:10;stroke-width:0.75px;}</style></defs><title>finance</title><g id="Layer_2" data-name="Layer 2"><g id="Layer_1-2" data-name="Layer 1"><path class="cls-1" d="M6.34,65.4H1.54v5H0V59.06H7.13v1.21H1.54v3.92h4.8Z"/><path class="cls-1" d="M10.28,59.82H8.74V58.25h1.54Zm0,10.61H8.74V62h1.54Z"/><path class="cls-1" d="M14,62l.11,1.26a3.13,3.13,0,0,1,1.06-1.05,2.92,2.92,0,0,1,1.45-.37,2.78,2.78,0,0,1,2.12.8,3.54,3.54,0,0,1,.75,2.48v5.33H18v-5.3a2.31,2.31,0,0,0-.44-1.59,1.8,1.8,0,0,0-1.35-.47,2.41,2.41,0,0,0-1.21.29,2.07,2.07,0,0,0-.78.8v6.27H12.65V62Z"/><path class="cls-1" d="M26.94,70.43a5.34,5.34,0,0,1-.12-.67,3.92,3.92,0,0,1-.05-.59,3.72,3.72,0,0,1-1.13,1,2.87,2.87,0,0,1-1.48.41,2.8,2.8,0,0,1-2-.68,2.48,2.48,0,0,1-.69-1.86,2.2,2.2,0,0,1,1-1.9,4.64,4.64,0,0,1,2.66-.68h1.68v-.84a1.56,1.56,0,0,0-.46-1.17A1.77,1.77,0,0,0,25,63a1.86,1.86,0,0,0-1.21.38,1.12,1.12,0,0,0-.46.9H21.9l0,0a2,2,0,0,1,.87-1.69,3.57,3.57,0,0,1,2.37-.77,3.51,3.51,0,0,1,2.31.73,2.6,2.6,0,0,1,.87,2.11v4.07a8.14,8.14,0,0,0,.05.87,4.52,4.52,0,0,0,.17.83Zm-2.56-1.12a2.8,2.8,0,0,0,1.51-.43,2.09,2.09,0,0,0,.88-1V66.52H25a2.2,2.2,0,0,0-1.49.47,1.41,1.41,0,0,0-.56,1.1,1.18,1.18,0,0,0,.35.89A1.48,1.48,0,0,0,24.38,69.31Z"/><path class="cls-1" d="M31.91,62,32,63.24a3.13,3.13,0,0,1,1.06-1.05,2.92,2.92,0,0,1,1.45-.37,2.78,2.78,0,0,1,2.12.8,3.54,3.54,0,0,1,.75,2.48v5.33H35.86v-5.3a2.31,2.31,0,0,0-.44-1.59,1.8,1.8,0,0,0-1.35-.47,2.41,2.41,0,0,0-1.21.29,2.07,2.07,0,0,0-.78.8v6.27H30.54V62Z"/><path class="cls-1" d="M43,69.39a1.76,1.76,0,0,0,1.24-.47,1.47,1.47,0,0,0,.54-1.16h1.39l0,0a2.42,2.42,0,0,1-.94,1.94,3.58,3.58,0,0,1-5-.36,4.73,4.73,0,0,1-1-3V66a4.64,4.64,0,0,1,1-3A3.3,3.3,0,0,1,43,61.82a3.22,3.22,0,0,1,2.32.88,2.78,2.78,0,0,1,.87,2.15l0,0H44.77a1.84,1.84,0,0,0-.51-1.31A1.66,1.66,0,0,0,43,63a1.79,1.79,0,0,0-1.65.88A4.1,4.1,0,0,0,40.82,66v.33a4.2,4.2,0,0,0,.51,2.15A1.78,1.78,0,0,0,43,69.39Z"/><path class="cls-1" d="M51.51,70.6a3.56,3.56,0,0,1-2.84-1.17,4.45,4.45,0,0,1-1-3.06V66a4.41,4.41,0,0,1,1.05-3,3.3,3.3,0,0,1,2.57-1.19,3.05,3.05,0,0,1,2.54,1.06,4.37,4.37,0,0,1,.85,2.8v.82H49.25l0,0a3.47,3.47,0,0,0,.56,2.07,2,2,0,0,0,1.72.79,3.82,3.82,0,0,0,1.37-.22,3.1,3.1,0,0,0,1-.61l.6,1a3.72,3.72,0,0,1-1.19.74A4.79,4.79,0,0,1,51.51,70.6ZM51.27,63a1.69,1.69,0,0,0-1.34.63,2.94,2.94,0,0,0-.64,1.59v0h3.82v-.12a2.39,2.39,0,0,0-.46-1.52A1.6,1.6,0,0,0,51.27,63Z"/><path class="cls-2" d="M50,18.38H4a1,1,0,0,1-1-1v-4a1,1,0,0,1,.54-.89l23-12a1,1,0,0,1,.93,0l23,12a1,1,0,0,1,.54.89v4A1,1,0,0,1,50,18.38Zm-45-2H49V14L27,2.5,5,14Z"/><path class="cls-2" d="M50,48.38H4a1,1,0,0,1-1-1v-4a1,1,0,0,1,1-1H50a1,1,0,0,1,1,1v4A1,1,0,0,1,50,48.38Zm-45-2H49v-2H5Z"/><path class="cls-2" d="M12,44.38a1,1,0,0,1-1-1v-26a1,1,0,0,1,2,0v26A1,1,0,0,1,12,44.38Z"/><path class="cls-2" d="M6,44.38a1,1,0,0,1-1-1v-26a1,1,0,0,1,2,0v26A1,1,0,0,1,6,44.38Z"/><path class="cls-2" d="M48,44.38a1,1,0,0,1-1-1v-26a1,1,0,1,1,2,0v26A1,1,0,0,1,48,44.38Z"/><path class="cls-2" d="M42,44.38a1,1,0,0,1-1-1v-26a1,1,0,1,1,2,0v26A1,1,0,0,1,42,44.38Z"/><path class="cls-2" d="M27,38.88a4.89,4.89,0,0,1-5-4.75,1,1,0,0,1,2,0,3,3,0,1,0,3-2.75,4.89,4.89,0,0,1-5-4.75,5,5,0,0,1,10,0,1,1,0,0,1-2,0,3,3,0,0,0-6,0,2.89,2.89,0,0,0,3,2.75,4.76,4.76,0,1,1,0,9.5Z"/><path class="cls-2" d="M27,40.38a1,1,0,0,1-1-1v-18a1,1,0,1,1,2,0v18A1,1,0,0,1,27,40.38Z"/></g></g></svg>