<svg xmlns="http://www.w3.org/2000/svg" viewBox="0 0 115.26 89.48"><defs><style>.cls-1{fill:#fff;}.cls-2,.cls-3{fill:none;stroke:#fff;stroke-width:1.5px;}.cls-2{stroke-miterlimit:10;}.cls-3{stroke-linejoin:round;}</style></defs><title>food_accommodation_hover</title><g id="Layer_2" data-name="Layer 2"><g id="Layer_1-2" data-name="Layer 1"><path class="cls-1" d="M38.5,65.09H33.71v5H32.17V58.74H39.3V60H33.71v3.92H38.5Z"/><path class="cls-1" d="M40.26,65.81a4.64,4.64,0,0,1,1-3.09,3.76,3.76,0,0,1,5.53,0,4.64,4.64,0,0,1,1,3.09V66a4.65,4.65,0,0,1-1,3.09,3.8,3.8,0,0,1-5.54,0,4.64,4.64,0,0,1-1-3.09ZM41.8,66a4,4,0,0,0,.57,2.22,2,2,0,0,0,3.35,0A4,4,0,0,0,46.29,66v-.18a4,4,0,0,0-.57-2.21A1.9,1.9,0,0,0,44,62.72a1.86,1.86,0,0,0-1.67.88,4,4,0,0,0-.57,2.21Z"/><path class="cls-1" d="M49.36,65.81a4.64,4.64,0,0,1,1-3.09,3.78,3.78,0,0,1,5.54,0,4.64,4.64,0,0,1,1,3.09V66a4.61,4.61,0,0,1-1,3.09,3.79,3.79,0,0,1-5.53,0,4.64,4.64,0,0,1-1-3.09Zm1.53.18a4,4,0,0,0,.57,2.22,2.06,2.06,0,0,0,3.36,0A4,4,0,0,0,55.39,66v-.18a3.93,3.93,0,0,0-.58-2.21,2,2,0,0,0-3.35,0,4,4,0,0,0-.57,2.21Z"/><path class="cls-1" d="M58.46,66.05a5.64,5.64,0,0,1,.87-3.29,2.81,2.81,0,0,1,2.44-1.25,3.11,3.11,0,0,1,1.32.27,2.88,2.88,0,0,1,1,.8V57.93h1.54V70.12H64.43l-.24-1.07a2.71,2.71,0,0,1-1,.92,3.06,3.06,0,0,1-1.42.31,2.9,2.9,0,0,1-2.42-1.12,4.66,4.66,0,0,1-.87-3Zm1.54.16a3.56,3.56,0,0,0,.52,2.05,1.81,1.81,0,0,0,1.62.77,2,2,0,0,0,1.16-.31,2.42,2.42,0,0,0,.77-.87V63.9a2.37,2.37,0,0,0-.77-.83,2,2,0,0,0-1.14-.31,1.77,1.77,0,0,0-1.64.91A4.77,4.77,0,0,0,60,66.05Z"/><path class="cls-1" d="M71.26,67.06a2.7,2.7,0,0,1,.55-1.67A6.52,6.52,0,0,1,73.46,64a8.28,8.28,0,0,1-.91-1.38,2.8,2.8,0,0,1-.3-1.25,2.67,2.67,0,0,1,.77-2,2.94,2.94,0,0,1,2.09-.71,2.85,2.85,0,0,1,2,.71A2.24,2.24,0,0,1,77.89,61a2.17,2.17,0,0,1-.41,1.33,5.38,5.38,0,0,1-1.21,1.14l-.85.63,2.65,3.19a4.21,4.21,0,0,0,.5-1.12,4.71,4.71,0,0,0,.18-1.31h1.38a5.63,5.63,0,0,1-.31,1.91,5,5,0,0,1-.88,1.57l1.45,1.74,0,0H78.58l-.66-.8a5,5,0,0,1-1.38.72,5.22,5.22,0,0,1-1.58.24,3.85,3.85,0,0,1-2.69-.9A3,3,0,0,1,71.26,67.06Zm3.7,2a3.24,3.24,0,0,0,1.11-.19,4,4,0,0,0,1-.55l-2.82-3.4-.32.23a3,3,0,0,0-.94,1,2.13,2.13,0,0,0-.23.88,2,2,0,0,0,.56,1.45A2.11,2.11,0,0,0,75,69.08Zm-1.17-7.77a2.05,2.05,0,0,0,.21.87,5.39,5.39,0,0,0,.64,1l1.07-.74a1.68,1.68,0,0,0,.61-.65,1.77,1.77,0,0,0,.16-.77,1.13,1.13,0,0,0-.38-.84,1.34,1.34,0,0,0-1-.37,1.17,1.17,0,0,0-1,.44A1.73,1.73,0,0,0,73.79,61.31Z"/><path class="cls-1" d="M5.48,89.32c-.05-.26-.09-.48-.12-.68a5.63,5.63,0,0,1-.05-.59,3.45,3.45,0,0,1-1.12,1,2.81,2.81,0,0,1-1.49.41,2.76,2.76,0,0,1-2-.67A2.49,2.49,0,0,1,0,86.94a2.2,2.2,0,0,1,1-1.89,4.54,4.54,0,0,1,2.66-.68H5.31v-.84a1.57,1.57,0,0,0-.45-1.18,1.82,1.82,0,0,0-1.28-.43,1.84,1.84,0,0,0-1.21.38,1.11,1.11,0,0,0-.46.89l-1.46,0,0,0a2,2,0,0,1,.86-1.68,3.59,3.59,0,0,1,2.37-.77A3.5,3.5,0,0,1,6,81.44a2.6,2.6,0,0,1,.87,2.11v4.07a8.14,8.14,0,0,0,.05.87,4.7,4.7,0,0,0,.17.83ZM2.93,88.19a2.72,2.72,0,0,0,1.51-.43,2,2,0,0,0,.87-1V85.41H3.59a2.25,2.25,0,0,0-1.49.46A1.4,1.4,0,0,0,1.54,87a1.18,1.18,0,0,0,.35.89A1.52,1.52,0,0,0,2.93,88.19Z"/><path class="cls-1" d="M12.45,88.28a1.84,1.84,0,0,0,1.24-.47,1.51,1.51,0,0,0,.53-1.16h1.39l0,0a2.46,2.46,0,0,1-.93,2,3.35,3.35,0,0,1-2.25.84A3.3,3.3,0,0,1,9.7,88.27a4.63,4.63,0,0,1-1-3v-.33a4.67,4.67,0,0,1,1-3,3.34,3.34,0,0,1,2.75-1.21,3.19,3.19,0,0,1,2.31.87,2.79,2.79,0,0,1,.87,2.15v0h-1.4a1.87,1.87,0,0,0-.51-1.32,1.63,1.63,0,0,0-1.26-.54,1.78,1.78,0,0,0-1.66.88,4.2,4.2,0,0,0-.52,2.13v.33a4.13,4.13,0,0,0,.52,2.15A1.77,1.77,0,0,0,12.45,88.28Z"/><path class="cls-1" d="M20.82,88.28a1.83,1.83,0,0,0,1.24-.47,1.48,1.48,0,0,0,.53-1.16H24l0,0a2.44,2.44,0,0,1-.94,2,3.35,3.35,0,0,1-2.25.84,3.31,3.31,0,0,1-2.75-1.21,4.63,4.63,0,0,1-1-3v-.33a4.72,4.72,0,0,1,1-3,3.35,3.35,0,0,1,2.75-1.21,3.21,3.21,0,0,1,2.32.87A2.79,2.79,0,0,1,24,83.73l0,0h-1.4a1.86,1.86,0,0,0-.5-1.32,1.67,1.67,0,0,0-1.27-.54,1.76,1.76,0,0,0-1.65.88,4.1,4.1,0,0,0-.52,2.13v.33a4.22,4.22,0,0,0,.51,2.15A1.77,1.77,0,0,0,20.82,88.28Z"/><path class="cls-1" d="M25.48,85a4.64,4.64,0,0,1,1-3.09,3.44,3.44,0,0,1,2.76-1.21A3.44,3.44,0,0,1,32,81.92a4.64,4.64,0,0,1,1,3.09v.18a4.61,4.61,0,0,1-1,3.09,3.43,3.43,0,0,1-2.76,1.2,3.44,3.44,0,0,1-2.77-1.2,4.64,4.64,0,0,1-1-3.09Zm1.54.18a4,4,0,0,0,.56,2.22,2.06,2.06,0,0,0,3.36,0,4,4,0,0,0,.57-2.22V85a3.93,3.93,0,0,0-.58-2.21,2,2,0,0,0-3.35,0A4,4,0,0,0,27,85Z"/><path class="cls-1" d="M36.3,80.87,36.41,82A2.86,2.86,0,0,1,37.46,81,3.21,3.21,0,0,1,39,80.71a2.58,2.58,0,0,1,1.44.39,2.31,2.31,0,0,1,.91,1.17,3.33,3.33,0,0,1,1.06-1.14,2.79,2.79,0,0,1,1.53-.42,2.54,2.54,0,0,1,2,.89,4,4,0,0,1,.75,2.66v5.06H45.14V84.25a2.8,2.8,0,0,0-.43-1.77A1.56,1.56,0,0,0,43.43,82a1.62,1.62,0,0,0-1.28.55,2.34,2.34,0,0,0-.57,1.38v5.43H40V84.25a2.82,2.82,0,0,0-.44-1.74A1.53,1.53,0,0,0,38.32,82a2.17,2.17,0,0,0-1.16.29,1.83,1.83,0,0,0-.69.81v6.26H34.93V80.87Z"/><path class="cls-1" d="M50.29,80.87,50.4,82A2.71,2.71,0,0,1,51.45,81a3.17,3.17,0,0,1,1.48-.33,2.64,2.64,0,0,1,1.45.39,2.36,2.36,0,0,1,.91,1.17,3.15,3.15,0,0,1,1.06-1.14,2.74,2.74,0,0,1,1.53-.42,2.53,2.53,0,0,1,2,.89,4,4,0,0,1,.75,2.66v5.06H59.13V84.25a2.87,2.87,0,0,0-.43-1.77A1.58,1.58,0,0,0,57.41,82a1.6,1.6,0,0,0-1.27.55,2.35,2.35,0,0,0-.58,1.38v5.43H54V84.25a2.75,2.75,0,0,0-.45-1.74A1.51,1.51,0,0,0,52.3,82a2.13,2.13,0,0,0-1.15.29,1.85,1.85,0,0,0-.7.81v6.26H48.91V80.87Z"/><path class="cls-1" d="M62.54,85a4.69,4.69,0,0,1,1-3.09,3.78,3.78,0,0,1,5.54,0,4.64,4.64,0,0,1,1,3.09v.18a4.61,4.61,0,0,1-1,3.09,3.79,3.79,0,0,1-5.53,0,4.64,4.64,0,0,1-1-3.09Zm1.54.18a4.11,4.11,0,0,0,.56,2.22,2.06,2.06,0,0,0,3.36,0,4,4,0,0,0,.57-2.22V85A4,4,0,0,0,68,82.8a1.92,1.92,0,0,0-1.69-.88,1.88,1.88,0,0,0-1.67.88A4.1,4.1,0,0,0,64.08,85Z"/><path class="cls-1" d="M71.64,85.25A5.64,5.64,0,0,1,72.51,82,2.82,2.82,0,0,1,75,80.71a3.05,3.05,0,0,1,1.32.27,2.79,2.79,0,0,1,1,.8V77.13h1.54V89.32H77.61l-.23-1.07a2.74,2.74,0,0,1-1,.92,3,3,0,0,1-1.41.31,2.89,2.89,0,0,1-2.42-1.12,4.61,4.61,0,0,1-.88-3Zm1.54.16a3.56,3.56,0,0,0,.52,2,1.82,1.82,0,0,0,1.63.77,2,2,0,0,0,1.15-.31,2.33,2.33,0,0,0,.77-.87v-4a2.37,2.37,0,0,0-.77-.83A2,2,0,0,0,75.34,82a1.74,1.74,0,0,0-1.63.91,4.77,4.77,0,0,0-.53,2.38Z"/><path class="cls-1" d="M86.28,89.32c0-.26-.09-.48-.12-.68a3.81,3.81,0,0,1,0-.59,3.55,3.55,0,0,1-1.12,1,2.81,2.81,0,0,1-1.49.41,2.76,2.76,0,0,1-2-.67,2.49,2.49,0,0,1-.69-1.87,2.17,2.17,0,0,1,1-1.89,4.54,4.54,0,0,1,2.66-.68h1.67v-.84a1.57,1.57,0,0,0-.45-1.18,1.83,1.83,0,0,0-1.28-.43,1.89,1.89,0,0,0-1.22.38,1.14,1.14,0,0,0-.46.89l-1.46,0v0a2,2,0,0,1,.86-1.68,3.57,3.57,0,0,1,2.37-.77,3.46,3.46,0,0,1,2.31.73,2.58,2.58,0,0,1,.88,2.11v4.07a6.17,6.17,0,0,0,0,.87,4,4,0,0,0,.17.83Zm-2.55-1.13a2.68,2.68,0,0,0,1.5-.43,2,2,0,0,0,.88-1V85.41H84.38a2.27,2.27,0,0,0-1.49.46A1.41,1.41,0,0,0,82.34,87a1.15,1.15,0,0,0,.35.89A1.5,1.5,0,0,0,83.73,88.19Z"/><path class="cls-1" d="M92,78.83v2h1.61V82H92v5.13a1.19,1.19,0,0,0,.25.84.88.88,0,0,0,.65.24,1.13,1.13,0,0,0,.3,0l.27-.07.21,1a1.23,1.23,0,0,1-.5.23,2.63,2.63,0,0,1-.67.09A2,2,0,0,1,91,88.92a2.47,2.47,0,0,1-.56-1.78V82H89.14V80.87h1.34v-2Z"/><path class="cls-1" d="M96.94,78.7H95.4V77.13h1.54Zm0,10.62H95.4V80.87h1.54Z"/><path class="cls-1" d="M99,85a4.64,4.64,0,0,1,1-3.09,3.78,3.78,0,0,1,5.54,0,4.64,4.64,0,0,1,1,3.09v.18a4.61,4.61,0,0,1-1,3.09,3.8,3.8,0,0,1-5.54,0,4.69,4.69,0,0,1-1-3.09Zm1.53.18a4,4,0,0,0,.57,2.22,2.06,2.06,0,0,0,3.36,0,4,4,0,0,0,.57-2.22V85a3.93,3.93,0,0,0-.58-2.21,2,2,0,0,0-3.35,0,4,4,0,0,0-.57,2.21Z"/><path class="cls-1" d="M109.77,80.87l.11,1.25a3.19,3.19,0,0,1,1.06-1,2.82,2.82,0,0,1,1.45-.37,2.78,2.78,0,0,1,2.12.8,3.51,3.51,0,0,1,.75,2.47v5.34h-1.54V84a2.3,2.3,0,0,0-.44-1.58,1.8,1.8,0,0,0-1.35-.47,2.41,2.41,0,0,0-1.21.29,2,2,0,0,0-.78.8v6.27H108.4V80.87Z"/><path class="cls-2" d="M46.7,29.93a4.84,4.84,0,1,0-4.15-5.42,4.36,4.36,0,0,0,0,1.25A4.82,4.82,0,0,0,46.7,29.93ZM72.42,20H58.53a2.86,2.86,0,0,0-2.85,2.87v9a2.83,2.83,0,0,1-2.82,2.83H41.8a2.85,2.85,0,0,1-2.88-2.82v-14a2.09,2.09,0,0,0-2-2.17h0a2.11,2.11,0,0,0-2.1,2.11V45.26a2.1,2.1,0,0,0,2.1,2.11h0a2.1,2.1,0,0,0,2.05-2.11V43.38A2.35,2.35,0,0,1,41.26,41h33a2.35,2.35,0,0,1,2.34,2.36v1.83a2.1,2.1,0,0,0,2,2.15h.06a2.09,2.09,0,0,0,2.09-2.11h0V28.4A8.39,8.39,0,0,0,72.42,20Z"/><path class="cls-3" d="M66.5,1l1.78,3.64a.37.37,0,0,0,.3.21l4,.59a.4.4,0,0,1,.35.43.42.42,0,0,1-.12.25L69.9,8.9a.4.4,0,0,0-.12.36l.68,4a.38.38,0,0,1-.31.45.32.32,0,0,1-.25,0l-3.57-1.88a.38.38,0,0,0-.36,0L62.4,13.67a.38.38,0,0,1-.52-.16.42.42,0,0,1,0-.25l.68-4a.4.4,0,0,0-.12-.36L59.52,6.07a.38.38,0,0,1,0-.55.36.36,0,0,1,.24-.13l4-.59a.37.37,0,0,0,.3-.21L65.82,1A.37.37,0,0,1,66.34.8.39.39,0,0,1,66.5,1Z"/><ellipse class="cls-2" cx="54.22" cy="6.03" rx="1.45" ry="1.46"/><rect class="cls-2" x="39.5" y="4.56" width="11.96" height="2.93" rx="1.45" ry="1.45"/><ellipse class="cls-2" cx="54.22" cy="10.98" rx="1.45" ry="1.46"/><rect class="cls-2" x="45.73" y="9.5" width="5.72" height="2.93" rx="1.45" ry="1.45"/></g></g></svg>