<svg xmlns="http://www.w3.org/2000/svg" viewBox="0 0 76.01 66.66"><defs><style>.cls-1,.cls-2{fill:#fff;}.cls-2{stroke:#0097d6;stroke-miterlimit:10;stroke-width:0.5px;}</style></defs><title>healthcare_hover</title><g id="Layer_2" data-name="Layer 2"><g id="Layer_1-2" data-name="Layer 1"><path class="cls-1" d="M8.6,66.49H7.06v-5H1.54v5H0V55.12H1.54v5.14H7.06V55.12H8.6Z"/><path class="cls-1" d="M14.55,66.66a3.56,3.56,0,0,1-2.84-1.17,4.45,4.45,0,0,1-1-3.06v-.34a4.41,4.41,0,0,1,1.05-3,3.29,3.29,0,0,1,2.56-1.19,3.07,3.07,0,0,1,2.55,1.06,4.37,4.37,0,0,1,.85,2.8v.81H12.29l0,0a3.47,3.47,0,0,0,.56,2.07,2,2,0,0,0,1.72.79,3.86,3.86,0,0,0,1.37-.22,3.1,3.1,0,0,0,1-.61l.6,1a3.72,3.72,0,0,1-1.19.74A4.83,4.83,0,0,1,14.55,66.66Zm-.25-7.57a1.69,1.69,0,0,0-1.33.62,3,3,0,0,0-.64,1.59v0h3.82v-.12a2.45,2.45,0,0,0-.46-1.52A1.62,1.62,0,0,0,14.3,59.09Z"/><path class="cls-1" d="M24.62,66.49a5.34,5.34,0,0,1-.12-.67,4,4,0,0,1-.05-.59,3.72,3.72,0,0,1-1.13,1,2.87,2.87,0,0,1-1.48.41,2.8,2.8,0,0,1-2-.68,2.48,2.48,0,0,1-.69-1.86,2.2,2.2,0,0,1,1-1.9,4.64,4.64,0,0,1,2.66-.68h1.68V60.7A1.56,1.56,0,0,0,24,59.53a1.77,1.77,0,0,0-1.28-.44,1.86,1.86,0,0,0-1.21.38,1.12,1.12,0,0,0-.46.9H19.58l0,0a2,2,0,0,1,.87-1.69,3.57,3.57,0,0,1,2.37-.77,3.53,3.53,0,0,1,2.31.73A2.6,2.6,0,0,1,26,60.72v4.07a8.14,8.14,0,0,0,.05.87,4.52,4.52,0,0,0,.17.83Zm-2.56-1.12a2.8,2.8,0,0,0,1.51-.43,2.09,2.09,0,0,0,.88-1V62.58H22.72a2.2,2.2,0,0,0-1.49.47,1.41,1.41,0,0,0-.56,1.1A1.18,1.18,0,0,0,21,65,1.48,1.48,0,0,0,22.06,65.37Z"/><path class="cls-1" d="M29.88,66.49H28.34V54.3h1.54Z"/><path class="cls-1" d="M34.39,56v2H36v1.14h-1.6v5.13a1.13,1.13,0,0,0,.25.84.88.88,0,0,0,.65.24l.3,0,.27-.08.21,1.06a1.35,1.35,0,0,1-.51.23,2.5,2.5,0,0,1-.66.09,2,2,0,0,1-1.49-.57,2.47,2.47,0,0,1-.56-1.78V59.18H31.51V58h1.34V56Z"/><path class="cls-1" d="M39.18,59.17a3.24,3.24,0,0,1,1.07-1,3.06,3.06,0,0,1,1.41-.34,2.71,2.71,0,0,1,2.11.82,3.58,3.58,0,0,1,.75,2.5v5.29H43V61.18a2.33,2.33,0,0,0-.44-1.55,1.73,1.73,0,0,0-1.34-.5,2.53,2.53,0,0,0-1.2.27,2.14,2.14,0,0,0-.82.76v6.33H37.64V54.3h1.54Z"/><path class="cls-1" d="M50.09,65.45A1.8,1.8,0,0,0,51.34,65a1.5,1.5,0,0,0,.53-1.16h1.39l0,0a2.42,2.42,0,0,1-.94,1.94,3.32,3.32,0,0,1-2.25.85,3.35,3.35,0,0,1-2.75-1.21,4.73,4.73,0,0,1-1-3V62.1a4.64,4.64,0,0,1,1-3,3.31,3.31,0,0,1,2.74-1.22,3.16,3.16,0,0,1,2.32.88,2.78,2.78,0,0,1,.87,2.15v0h-1.4a1.84,1.84,0,0,0-.51-1.31,1.63,1.63,0,0,0-1.27-.55,1.79,1.79,0,0,0-1.65.88,4.1,4.1,0,0,0-.52,2.13v.33a4.22,4.22,0,0,0,.51,2.15A1.78,1.78,0,0,0,50.09,65.45Z"/><path class="cls-1" d="M60.3,66.49c0-.25-.09-.48-.12-.67s0-.4,0-.59a3.68,3.68,0,0,1-1.12,1,2.91,2.91,0,0,1-1.49.41,2.76,2.76,0,0,1-2-.68,2.48,2.48,0,0,1-.69-1.86,2.2,2.2,0,0,1,1-1.9,4.61,4.61,0,0,1,2.66-.68h1.67V60.7a1.55,1.55,0,0,0-.45-1.17,1.77,1.77,0,0,0-1.28-.44,1.84,1.84,0,0,0-1.21.38,1.12,1.12,0,0,0-.46.9H55.27l0,0a2,2,0,0,1,.86-1.69,4,4,0,0,1,4.69,0,2.6,2.6,0,0,1,.87,2.11v4.07a8.14,8.14,0,0,0,0,.87,4.52,4.52,0,0,0,.17.83Zm-2.55-1.12a2.8,2.8,0,0,0,1.51-.43,2,2,0,0,0,.87-1V62.58H58.41a2.2,2.2,0,0,0-1.49.47,1.38,1.38,0,0,0-.56,1.1,1.18,1.18,0,0,0,.35.89A1.48,1.48,0,0,0,57.75,65.37Z"/><path class="cls-1" d="M67.91,59.4l-.79,0a1.7,1.7,0,0,0-1.67,1.1v6H63.91V58h1.37l.15,1.23a2.87,2.87,0,0,1,.89-1,2.09,2.09,0,0,1,1.21-.37,1.76,1.76,0,0,1,.33,0l.26.06Z"/><path class="cls-1" d="M72.86,66.66A3.57,3.57,0,0,1,70,65.49a4.45,4.45,0,0,1-1-3.06v-.34a4.41,4.41,0,0,1,1-3,3.31,3.31,0,0,1,2.57-1.19,3.05,3.05,0,0,1,2.54,1.06,4.37,4.37,0,0,1,.85,2.8v.81H70.6l0,0a3.54,3.54,0,0,0,.56,2.07,2,2,0,0,0,1.72.79,3.82,3.82,0,0,0,1.37-.22,3.1,3.1,0,0,0,1-.61l.6,1a3.72,3.72,0,0,1-1.19.74A4.79,4.79,0,0,1,72.86,66.66Zm-.24-7.57a1.67,1.67,0,0,0-1.33.62,2.93,2.93,0,0,0-.65,1.59l0,0h3.81v-.12A2.45,2.45,0,0,0,74,59.7,1.63,1.63,0,0,0,72.62,59.09Z"/><path class="cls-2" d="M59.64,12A17.54,17.54,0,0,1,57,20.44a54.16,54.16,0,0,1-8.12,10.41c-2.32,2.41-4.8,4.72-7.28,6.84-.87.75-1.68,1.41-2.41,2-.43.35-.75.59-.92.72a1,1,0,0,1-1.21,0c-.17-.13-.49-.37-.92-.72-.73-.59-1.54-1.25-2.41-2-2.48-2.12-5-4.43-7.29-6.84a54.08,54.08,0,0,1-8.11-10.41A17.56,17.56,0,0,1,15.64,12c0-12.21,12.08-15.56,22-6.88C47.56-3.57,59.64-.22,59.64,12ZM37.92,38.13c.71-.57,1.5-1.23,2.36-2,2.43-2.08,4.87-4.35,7.14-6.71a52.33,52.33,0,0,0,7.82-10A15.57,15.57,0,0,0,57.64,12c0-10.52-10.42-13.17-19.31-4.8a1,1,0,0,1-1.37,0C28.07-1.18,17.64,1.47,17.64,12A15.68,15.68,0,0,0,20,19.45a52.74,52.74,0,0,0,7.82,10c2.28,2.36,4.71,4.63,7.15,6.71.86.73,1.65,1.39,2.36,2l.27.22Z"/><path class="cls-2" d="M28.8,12.28l3.26,6.15a1,1,0,0,0,1.75,0l2-3.5,2.32,3.55A1,1,0,0,0,39,19h2.53l2,7.63a1,1,0,0,0,1.91.06L48.09,19H60.64a1,1,0,0,0,0-2H47.38a1,1,0,0,0-1,.68l-1.81,5.27L43.23,17.7a1,1,0,0,0-1-.74H39.5L36.58,12.5a1,1,0,0,0-1.71.05L33,15.89,29.59,9.5a1,1,0,0,0-1.81.07L24.62,17h-10a1,1,0,0,0,0,2H25.28a1,1,0,0,0,.92-.6Z"/></g></g></svg>