<svg xmlns="http://www.w3.org/2000/svg" viewBox="0 0 78.12 70.2"><defs><style>.cls-1,.cls-2{fill:#0097d6;}.cls-2{stroke:#fff;stroke-miterlimit:10;stroke-width:0.5px;}</style></defs><title>realestate</title><g id="Layer_2" data-name="Layer 2"><g id="Layer_1-2" data-name="Layer 1"><path class="cls-1" d="M1.54,65.11V70H0V58.67H3.89a4.32,4.32,0,0,1,2.85.83,3,3,0,0,1,1,2.4,2.63,2.63,0,0,1-.46,1.53,3.2,3.2,0,0,1-1.33,1,2.35,2.35,0,0,1,1.35,1,3.25,3.25,0,0,1,.41,1.69v1.07a3.49,3.49,0,0,0,.11,1,1.5,1.5,0,0,0,.41.69V70H6.63a1.32,1.32,0,0,1-.39-.79,6.08,6.08,0,0,1-.08-1.06v-1a2,2,0,0,0-.54-1.48,1.89,1.89,0,0,0-1.45-.56Zm0-1.21H3.73a2.86,2.86,0,0,0,1.88-.5,1.87,1.87,0,0,0,.58-1.51,2,2,0,0,0-.56-1.49,2.46,2.46,0,0,0-1.74-.53H1.54Z"/><path class="cls-1" d="M13.47,70.2A3.58,3.58,0,0,1,10.63,69a4.5,4.5,0,0,1-1-3.07v-.34a4.38,4.38,0,0,1,1.05-3,3.28,3.28,0,0,1,2.57-1.19,3.07,3.07,0,0,1,2.54,1,4.38,4.38,0,0,1,.85,2.81v.81H11.21l0,0a3.49,3.49,0,0,0,.56,2.06,2,2,0,0,0,1.72.8,3.82,3.82,0,0,0,1.37-.23,2.94,2.94,0,0,0,1-.61l.6,1a3.72,3.72,0,0,1-1.19.74A4.79,4.79,0,0,1,13.47,70.2Zm-.24-7.56a1.68,1.68,0,0,0-1.34.62,2.94,2.94,0,0,0-.64,1.59l0,0h3.81v-.13a2.47,2.47,0,0,0-.45-1.52A1.65,1.65,0,0,0,13.23,62.64Z"/><path class="cls-1" d="M23.54,70c-.05-.26-.09-.48-.12-.68a3.92,3.92,0,0,1-.05-.59,3.55,3.55,0,0,1-1.12,1,2.91,2.91,0,0,1-1.49.41,2.72,2.72,0,0,1-2-.68,2.49,2.49,0,0,1-.7-1.86,2.16,2.16,0,0,1,1-1.89,4.54,4.54,0,0,1,2.66-.69h1.67v-.83a1.53,1.53,0,0,0-.46-1.18,1.77,1.77,0,0,0-1.28-.43,1.86,1.86,0,0,0-1.21.37,1.12,1.12,0,0,0-.46.9l-1.46,0,0,0a2.06,2.06,0,0,1,.87-1.69,3.57,3.57,0,0,1,2.37-.76,3.46,3.46,0,0,1,2.31.73,2.59,2.59,0,0,1,.88,2.1v4.07a8.26,8.26,0,0,0,0,.88,4,4,0,0,0,.18.83ZM21,68.91a2.72,2.72,0,0,0,1.51-.43,2,2,0,0,0,.88-1V66.12H21.64a2.25,2.25,0,0,0-1.49.47,1.41,1.41,0,0,0-.56,1.1,1.14,1.14,0,0,0,.36.89A1.45,1.45,0,0,0,21,68.91Z"/><path class="cls-1" d="M28.8,70H27.27V57.85H28.8Z"/><path class="cls-1" d="M38.65,70.2A3.58,3.58,0,0,1,35.81,69a4.5,4.5,0,0,1-1-3.07v-.34a4.38,4.38,0,0,1,1.05-3,3.28,3.28,0,0,1,2.57-1.19,3.07,3.07,0,0,1,2.54,1,4.38,4.38,0,0,1,.85,2.81v.81H36.39l0,0a3.42,3.42,0,0,0,.56,2.06,2,2,0,0,0,1.72.8A3.82,3.82,0,0,0,40,68.77a2.94,2.94,0,0,0,1-.61l.6,1a3.72,3.72,0,0,1-1.19.74A4.79,4.79,0,0,1,38.65,70.2Zm-.24-7.56a1.68,1.68,0,0,0-1.34.62,2.94,2.94,0,0,0-.64,1.59l0,0h3.81v-.13a2.41,2.41,0,0,0-.46-1.52A1.62,1.62,0,0,0,38.41,62.64Z"/><path class="cls-1" d="M48.44,67.76a1,1,0,0,0-.39-.83,3.82,3.82,0,0,0-1.46-.56,6.06,6.06,0,0,1-2.3-.9,1.81,1.81,0,0,1-.8-1.54,2.25,2.25,0,0,1,.88-1.77,3.9,3.9,0,0,1,4.61.05A2.27,2.27,0,0,1,49.83,64l0,0H48.34a1.34,1.34,0,0,0-.48-1,1.73,1.73,0,0,0-1.21-.44,1.8,1.8,0,0,0-1.22.36,1.19,1.19,0,0,0-.4.88.93.93,0,0,0,.35.77,3.69,3.69,0,0,0,1.43.5,6.1,6.1,0,0,1,2.36.93A1.87,1.87,0,0,1,50,67.65a2.25,2.25,0,0,1-.91,1.84,3.79,3.79,0,0,1-2.38.71,3.71,3.71,0,0,1-2.55-.82,2.34,2.34,0,0,1-.88-1.91v0h1.47a1.43,1.43,0,0,0,.61,1.2,2.39,2.39,0,0,0,1.34.38A2.11,2.11,0,0,0,48,68.65,1.07,1.07,0,0,0,48.44,67.76Z"/><path class="cls-1" d="M54,59.54v2h1.6v1.14H54v5.14a1.11,1.11,0,0,0,.25.83.88.88,0,0,0,.65.24l.3,0,.27-.07.21,1a1.35,1.35,0,0,1-.51.23,2.5,2.5,0,0,1-.66.09,2,2,0,0,1-1.49-.57,2.44,2.44,0,0,1-.56-1.77V62.72H51.15V61.58h1.34v-2Z"/><path class="cls-1" d="M62.48,70a5.46,5.46,0,0,1-.12-.68,5.9,5.9,0,0,1-.06-.59,3.45,3.45,0,0,1-1.12,1,2.87,2.87,0,0,1-1.48.41,2.73,2.73,0,0,1-2-.68A2.48,2.48,0,0,1,57,67.66a2.17,2.17,0,0,1,1-1.89,4.56,4.56,0,0,1,2.66-.69H62.3v-.83a1.56,1.56,0,0,0-.45-1.18,1.77,1.77,0,0,0-1.28-.43,1.86,1.86,0,0,0-1.21.37,1.12,1.12,0,0,0-.46.9l-1.46,0,0,0a2,2,0,0,1,.87-1.69,3.57,3.57,0,0,1,2.37-.76,3.49,3.49,0,0,1,2.31.73,2.58,2.58,0,0,1,.87,2.1v4.07a8.18,8.18,0,0,0,0,.88,4.7,4.7,0,0,0,.17.83Zm-2.56-1.13a2.72,2.72,0,0,0,1.51-.43,2,2,0,0,0,.87-1V66.12H60.58a2.25,2.25,0,0,0-1.49.47,1.41,1.41,0,0,0-.56,1.1,1.17,1.17,0,0,0,.35.89A1.48,1.48,0,0,0,59.92,68.91Z"/><path class="cls-1" d="M68.22,59.54v2h1.6v1.14h-1.6v5.14a1.16,1.16,0,0,0,.24.83.92.92,0,0,0,.66.24l.29,0,.28-.07.21,1a1.52,1.52,0,0,1-.51.23,2.5,2.5,0,0,1-.66.09,2,2,0,0,1-1.5-.57,2.44,2.44,0,0,1-.55-1.77V62.72H65.34V61.58h1.34v-2Z"/><path class="cls-1" d="M75,70.2A3.58,3.58,0,0,1,72.13,69a4.5,4.5,0,0,1-1-3.07v-.34a4.38,4.38,0,0,1,1-3,3.28,3.28,0,0,1,2.57-1.19,3.07,3.07,0,0,1,2.54,1,4.38,4.38,0,0,1,.85,2.81v.81H72.71l0,0a3.49,3.49,0,0,0,.56,2.06A2,2,0,0,0,75,69a3.82,3.82,0,0,0,1.37-.23,2.94,2.94,0,0,0,1-.61l.6,1a3.72,3.72,0,0,1-1.19.74A4.79,4.79,0,0,1,75,70.2Zm-.24-7.56a1.68,1.68,0,0,0-1.34.62,2.94,2.94,0,0,0-.64,1.59l0,0h3.81v-.13a2.47,2.47,0,0,0-.45-1.52A1.65,1.65,0,0,0,74.73,62.64Z"/><polygon class="cls-2" points="57.3 47.71 17.46 47.71 17.46 22.45 13.63 22.45 13.63 20.53 28.56 9.73 29.46 10.97 15.71 20.92 19 20.92 19 46.18 55.77 46.18 55.77 20.92 59.06 20.92 45.31 10.97 46.21 9.73 61.13 20.53 61.13 22.45 57.3 22.45 57.3 47.71"/><rect class="cls-2" x="18.23" y="20.92" width="38.31" height="1.53"/><path class="cls-2" d="M45.81,46.94H44.28V34.69a6.9,6.9,0,0,0-13.79,0V46.94H29V34.69a8.43,8.43,0,0,1,16.86,0Z"/><path class="cls-2" d="M38.53,14h-2.3a2.68,2.68,0,0,1-2.68-2.68V11h1.53v.38a1.16,1.16,0,0,0,1.15,1.15h2.3a1.15,1.15,0,0,0,0-2.3h-2.3a2.68,2.68,0,0,1,0-5.36h2.3a2.68,2.68,0,0,1,2.68,2.68V7.9H39.68V7.52a1.15,1.15,0,0,0-1.15-1.15h-2.3a1.15,1.15,0,1,0,0,2.3h2.3a2.68,2.68,0,0,1,0,5.36Z"/><rect class="cls-2" x="36.62" y="3.31" width="1.53" height="2.3"/><rect class="cls-2" x="36.62" y="13.26" width="1.53" height="2.3"/><rect class="cls-2" x="26.66" y="14.79" width="21.45" height="1.53"/><path class="cls-2" d="M43.68,16.12l-1-1.12A7.54,7.54,0,0,0,45,9.44a7.66,7.66,0,1,0-15.32,0A7.55,7.55,0,0,0,32.14,15l-1.06,1.12a9.2,9.2,0,1,1,12.6,0Z"/></g></g></svg>