<svg xmlns="http://www.w3.org/2000/svg" viewBox="0 0 55.75 71.59"><defs><style>.cls-1,.cls-2{fill:#fff;}.cls-2{stroke:#0097d6;stroke-miterlimit:10;stroke-width:0.5px;}</style></defs><title>sports_hover</title><g id="Layer_2" data-name="Layer 2"><g id="Layer_1-2" data-name="Layer 1"><path class="cls-1" d="M11.54,65.47a1.72,1.72,0,0,0-.56-1.3,4.67,4.67,0,0,0-2-.89A6.51,6.51,0,0,1,6.32,62a2.66,2.66,0,0,1-1-2.11A2.78,2.78,0,0,1,6.4,57.69a4,4,0,0,1,2.71-.89,4,4,0,0,1,2.87,1,3.09,3.09,0,0,1,1,2.38l0,0H11.52a2.11,2.11,0,0,0-.68-1.6A2.42,2.42,0,0,0,9.11,58a2.37,2.37,0,0,0-1.65.52,1.76,1.76,0,0,0-.57,1.36,1.51,1.51,0,0,0,.63,1.24,5.83,5.83,0,0,0,2,.87,5.86,5.86,0,0,1,2.62,1.31,2.88,2.88,0,0,1,.89,2.14A2.64,2.64,0,0,1,12,67.66a4.46,4.46,0,0,1-2.82.84,4.83,4.83,0,0,1-2.91-.92A2.81,2.81,0,0,1,5,65.11v0H6.52a1.89,1.89,0,0,0,.81,1.65,3.08,3.08,0,0,0,1.84.59,2.76,2.76,0,0,0,1.73-.5A1.59,1.59,0,0,0,11.54,65.47Z"/><path class="cls-1" d="M22.25,64.43a4.69,4.69,0,0,1-.88,2.95A2.88,2.88,0,0,1,19,68.5a3.42,3.42,0,0,1-1.37-.26,2.68,2.68,0,0,1-1-.79v4.14H15V59.88h1.18l.25,1.1a2.62,2.62,0,0,1,1-.93,3,3,0,0,1,1.43-.32A2.83,2.83,0,0,1,21.38,61a5.65,5.65,0,0,1,.87,3.3Zm-1.54-.16a4.47,4.47,0,0,0-.57-2.37A1.84,1.84,0,0,0,18.47,61a2,2,0,0,0-1.13.3,2.23,2.23,0,0,0-.76.82v4.09a2.12,2.12,0,0,0,.76.81,2.09,2.09,0,0,0,1.15.3,1.91,1.91,0,0,0,1.66-.8,3.59,3.59,0,0,0,.56-2.07Z"/><path class="cls-1" d="M23.78,64a4.69,4.69,0,0,1,1-3.09,3.41,3.41,0,0,1,2.76-1.21,3.44,3.44,0,0,1,2.78,1.21,4.64,4.64,0,0,1,1,3.09v.17a4.63,4.63,0,0,1-1,3.1,3.43,3.43,0,0,1-2.76,1.2,3.42,3.42,0,0,1-2.77-1.21,4.61,4.61,0,0,1-1-3.09Zm1.54.17a4.06,4.06,0,0,0,.56,2.22,2,2,0,0,0,3.36,0,4,4,0,0,0,.57-2.22V64a3.93,3.93,0,0,0-.58-2.21,2,2,0,0,0-3.35,0A4.1,4.1,0,0,0,25.32,64Z"/><path class="cls-1" d="M37.23,61.24l-.79,0a1.8,1.8,0,0,0-1,.28,2,2,0,0,0-.64.82v6H33.23V59.88h1.38l.14,1.24a3,3,0,0,1,.89-1,2.11,2.11,0,0,1,1.22-.36l.32,0,.26.06Z"/><path class="cls-1" d="M41.11,57.84v2h1.6V61h-1.6v5.14a1.16,1.16,0,0,0,.24.83.9.9,0,0,0,.65.24l.3,0a1.25,1.25,0,0,0,.27-.08l.22,1.06a1.52,1.52,0,0,1-.51.23,2.63,2.63,0,0,1-.67.09,2,2,0,0,1-1.49-.57,2.44,2.44,0,0,1-.55-1.77V61H38.22V59.88h1.35v-2Z"/><path class="cls-1" d="M49.27,66.06a1,1,0,0,0-.39-.83,3.68,3.68,0,0,0-1.46-.56,5.93,5.93,0,0,1-2.29-.9,1.8,1.8,0,0,1-.81-1.54,2.25,2.25,0,0,1,.88-1.77,3.45,3.45,0,0,1,2.28-.73,3.4,3.4,0,0,1,2.33.78,2.24,2.24,0,0,1,.85,1.82v0H49.18a1.34,1.34,0,0,0-.48-1,2,2,0,0,0-2.43-.08,1.16,1.16,0,0,0-.41.88.93.93,0,0,0,.35.77,3.68,3.68,0,0,0,1.44.5,6,6,0,0,1,2.35.93A1.87,1.87,0,0,1,50.81,66a2.22,2.22,0,0,1-.91,1.84,3.79,3.79,0,0,1-2.38.71A3.71,3.71,0,0,1,45,67.68a2.34,2.34,0,0,1-.88-1.91l0,0h1.46a1.43,1.43,0,0,0,.61,1.2,2.39,2.39,0,0,0,1.34.38A2.15,2.15,0,0,0,48.81,67,1.09,1.09,0,0,0,49.27,66.06Z"/><path class="cls-2" d="M38.37,30.69,32.69,28l-3,6.47H27.63a3.15,3.15,0,1,0,0,6.29h3.7a3.71,3.71,0,0,0,3.37-2.15ZM33.31,38a2.19,2.19,0,0,1-2,1.26H27.63a1.63,1.63,0,1,1,0-3.25h2.68a.55.55,0,0,0,.49-.32L33.42,30l2.93,1.37L34.23,36Z"/><path class="cls-2" d="M48.22,10.12a4.94,4.94,0,1,0-5-4.93h0A5,5,0,0,0,48.22,10.12Zm0-8.29a3.36,3.36,0,1,1-3.39,3.36,3.37,3.37,0,0,1,3.39-3.36h0Z"/><path class="cls-2" d="M30.71,21.69h0a3,3,0,0,0,2.44-1.21l.1-.14L35,16.52h2.93l-3,6.52a3.73,3.73,0,0,0,1.75,4.9l8.83,4.28v9a3.15,3.15,0,0,0,6.3,0v-11A3.31,3.31,0,0,0,50,27.25l-6.22-3,2-4.37,1.06,1.07A3.66,3.66,0,0,0,49.42,22h2.89a3.17,3.17,0,0,0,3.19-3,3.21,3.21,0,0,0-.87-2.34,3.12,3.12,0,0,0-2.32-.95H50.47L47.72,13a2.14,2.14,0,0,0-.58-.4l-4.59-2.17a2.16,2.16,0,0,0-.87-.19H32.37a2.13,2.13,0,0,0-1.93,1.21l-3.05,6.68A2,2,0,0,0,27.57,20,3.9,3.9,0,0,0,30.71,21.69Zm-1.93-2.94,3.06-6.67a.6.6,0,0,1,.54-.36h9.31a.46.46,0,0,1,.23.06l4.59,2.16a.83.83,0,0,1,.15.11l3.06,3a.52.52,0,0,0,.37.16h2.22a1.63,1.63,0,0,1,1.62,1.64V19a1.67,1.67,0,0,1-1.65,1.52H49.42a2.18,2.18,0,0,1-1.53-.61l-2-2.06a.54.54,0,0,0-.76,0A.61.61,0,0,0,45,18l-3,6.52a.54.54,0,0,0,.26.72l7.08,3.44a1.72,1.72,0,0,1,1,1.55v11a1.63,1.63,0,0,1-1.62,1.64h0A1.64,1.64,0,0,1,47,41.18h0V31.6a.53.53,0,0,0-.3-.49L40.33,28l-3-1.47a2.2,2.2,0,0,1-1-2.89l.51-1.1,3.12-6.81a.53.53,0,0,0-.32-.7l-.15,0h-5.1a.55.55,0,0,0-.49.32l-2,4.25c-1.07,1.39-3.5-.1-3.16-.85Z"/><polygon class="cls-2" points="0.25 29.09 0.25 30.61 4.53 30.61 11.66 30.61 16.75 30.61 19.8 30.61 19.8 29.09 0.25 29.09"/><polygon class="cls-2" points="3.92 32.73 3.92 34.25 7.39 34.25 13.19 34.25 17.32 34.25 19.8 34.25 19.8 32.73 3.92 32.73"/><polygon class="cls-2" points="8.8 36.38 8.8 37.89 11.21 37.89 15.22 37.89 18.09 37.89 19.8 37.89 19.8 36.38 8.8 36.38"/></g></g></svg>