<svg xmlns="http://www.w3.org/2000/svg" viewBox="0 0 105.16 63.26"><defs><style>.cls-1,.cls-2{fill:#0097d6;}.cls-2{stroke:#fff;stroke-miterlimit:10;}</style></defs><title>transportation</title><g id="Layer_2" data-name="Layer 2"><g id="Layer_1-2" data-name="Layer 1"><path class="cls-1" d="M9,49.85H5.24V60H3.7V49.85H0V48.64H9Z"/><path class="cls-1" d="M13.81,52.92,13,52.87a1.75,1.75,0,0,0-1,.29,1.88,1.88,0,0,0-.65.81v6H9.81V51.56h1.38l.15,1.23a3,3,0,0,1,.88-1,2.12,2.12,0,0,1,1.22-.37,1.84,1.84,0,0,1,.33,0l.25.06Z"/><path class="cls-1" d="M20.61,60c-.05-.25-.09-.48-.12-.67a3.92,3.92,0,0,1,0-.59,3.8,3.8,0,0,1-1.12,1,2.91,2.91,0,0,1-1.49.41,2.76,2.76,0,0,1-2-.68,2.48,2.48,0,0,1-.69-1.86,2.18,2.18,0,0,1,1-1.9,4.61,4.61,0,0,1,2.66-.68h1.67v-.84A1.52,1.52,0,0,0,20,53.05a1.77,1.77,0,0,0-1.28-.43,1.86,1.86,0,0,0-1.21.37,1.12,1.12,0,0,0-.46.9H15.57l0,0a2.05,2.05,0,0,1,.87-1.69,3.57,3.57,0,0,1,2.37-.77,3.51,3.51,0,0,1,2.31.73A2.61,2.61,0,0,1,22,54.24v4.07a8.51,8.51,0,0,0,0,.88,3.88,3.88,0,0,0,.18.82Zm-2.56-1.12a2.72,2.72,0,0,0,1.51-.43,2.09,2.09,0,0,0,.88-1V56.1H18.71a2.25,2.25,0,0,0-1.49.47,1.41,1.41,0,0,0-.56,1.1,1.15,1.15,0,0,0,.36.89A1.45,1.45,0,0,0,18.05,58.89Z"/><path class="cls-1" d="M25.59,51.56l.11,1.26a3,3,0,0,1,1.05-1,2.83,2.83,0,0,1,1.45-.38,2.78,2.78,0,0,1,2.12.8,3.54,3.54,0,0,1,.75,2.48V60H29.53v-5.3a2.32,2.32,0,0,0-.44-1.59,1.78,1.78,0,0,0-1.35-.47,2.37,2.37,0,0,0-1.2.29,2,2,0,0,0-.79.8V60H24.21V51.56Z"/><path class="cls-1" d="M38.22,57.74a1,1,0,0,0-.39-.83,3.75,3.75,0,0,0-1.46-.56,6.06,6.06,0,0,1-2.3-.9,1.82,1.82,0,0,1-.8-1.55,2.25,2.25,0,0,1,.88-1.76,3.45,3.45,0,0,1,2.28-.74,3.37,3.37,0,0,1,2.33.79A2.25,2.25,0,0,1,39.61,54l0,0H38.13a1.35,1.35,0,0,0-.49-1,1.69,1.69,0,0,0-1.21-.44,1.8,1.8,0,0,0-1.22.36,1.19,1.19,0,0,0-.4.88.93.93,0,0,0,.35.77,3.86,3.86,0,0,0,1.43.5,6,6,0,0,1,2.36.93,1.87,1.87,0,0,1,.81,1.57,2.26,2.26,0,0,1-.91,1.84,3.79,3.79,0,0,1-2.38.71,3.75,3.75,0,0,1-2.55-.82A2.35,2.35,0,0,1,33,57.44v0h1.47a1.46,1.46,0,0,0,.61,1.2,2.39,2.39,0,0,0,1.34.37,2.09,2.09,0,0,0,1.28-.34A1.07,1.07,0,0,0,38.22,57.74Z"/><path class="cls-1" d="M48.88,56.11a4.69,4.69,0,0,1-.88,3,2.91,2.91,0,0,1-2.41,1.12,3.47,3.47,0,0,1-1.38-.26,2.72,2.72,0,0,1-1-.79v4.13H41.67V51.56h1.18l.24,1.09a2.89,2.89,0,0,1,1-.93,3.11,3.11,0,0,1,1.43-.32A2.81,2.81,0,0,1,48,52.65a5.64,5.64,0,0,1,.88,3.29Zm-1.54-.17a4.46,4.46,0,0,0-.57-2.36,1.83,1.83,0,0,0-1.67-.93A2,2,0,0,0,44,53a2.34,2.34,0,0,0-.76.83v4.09a2.2,2.2,0,0,0,.76.81,2.07,2.07,0,0,0,1.15.29,1.86,1.86,0,0,0,1.65-.8,3.46,3.46,0,0,0,.57-2.06Z"/><path class="cls-1" d="M50.41,55.71a4.64,4.64,0,0,1,1-3.09,3.75,3.75,0,0,1,5.54,0,4.61,4.61,0,0,1,1,3.09v.17A4.61,4.61,0,0,1,57,59a3.76,3.76,0,0,1-5.53,0,4.61,4.61,0,0,1-1-3.09Zm1.54.17a4,4,0,0,0,.56,2.22,2.06,2.06,0,0,0,3.36,0,4,4,0,0,0,.57-2.22v-.17a3.91,3.91,0,0,0-.58-2.21,2,2,0,0,0-3.35,0A4,4,0,0,0,52,55.71Z"/><path class="cls-1" d="M63.86,52.92l-.79-.05a1.79,1.79,0,0,0-1,.29,1.86,1.86,0,0,0-.64.81v6H59.86V51.56h1.37l.15,1.23a3.07,3.07,0,0,1,.89-1,2.11,2.11,0,0,1,1.21-.37,1.69,1.69,0,0,1,.33,0l.26.06Z"/><path class="cls-1" d="M67.73,49.52v2h1.61V52.7H67.73v5.13a1.17,1.17,0,0,0,.25.84.88.88,0,0,0,.65.24l.3,0,.27-.08.21,1.06a1.37,1.37,0,0,1-.5.23,2.63,2.63,0,0,1-.67.09,2,2,0,0,1-1.49-.57,2.47,2.47,0,0,1-.55-1.78V52.7H64.85V51.56H66.2v-2Z"/><path class="cls-1" d="M76.18,60c-.05-.25-.09-.48-.12-.67a3.92,3.92,0,0,1,0-.59,3.8,3.8,0,0,1-1.12,1,2.91,2.91,0,0,1-1.49.41,2.76,2.76,0,0,1-2-.68,2.48,2.48,0,0,1-.69-1.86,2.18,2.18,0,0,1,1-1.9,4.61,4.61,0,0,1,2.66-.68H76v-.84a1.52,1.52,0,0,0-.46-1.17,1.75,1.75,0,0,0-1.28-.43,1.86,1.86,0,0,0-1.21.37,1.12,1.12,0,0,0-.46.9H71.14v0A2,2,0,0,1,72,52.17a3.57,3.57,0,0,1,2.37-.77,3.51,3.51,0,0,1,2.31.73,2.61,2.61,0,0,1,.88,2.11v4.07a8.51,8.51,0,0,0,0,.88,4.62,4.62,0,0,0,.18.82Zm-2.55-1.12a2.71,2.71,0,0,0,1.5-.43,2.09,2.09,0,0,0,.88-1V56.1H74.28a2.27,2.27,0,0,0-1.49.47,1.41,1.41,0,0,0-.56,1.1,1.15,1.15,0,0,0,.36.89A1.46,1.46,0,0,0,73.63,58.89Z"/><path class="cls-1" d="M81.92,49.52v2h1.6V52.7h-1.6v5.13a1.13,1.13,0,0,0,.25.84.88.88,0,0,0,.65.24l.3,0,.27-.08.21,1.06a1.35,1.35,0,0,1-.51.23,2.5,2.5,0,0,1-.66.09,2,2,0,0,1-1.49-.57,2.47,2.47,0,0,1-.56-1.78V52.7H79V51.56h1.34v-2Z"/><path class="cls-1" d="M86.84,49.4H85.3V47.83h1.54Zm0,10.61H85.3V51.56h1.54Z"/><path class="cls-1" d="M88.84,55.71a4.64,4.64,0,0,1,1-3.09,3.74,3.74,0,0,1,5.53,0,4.61,4.61,0,0,1,1,3.09v.17a4.6,4.6,0,0,1-1,3.09,3.78,3.78,0,0,1-5.54,0,4.61,4.61,0,0,1-1-3.09Zm1.54.17A4,4,0,0,0,91,58.1a2,2,0,0,0,3.35,0,4,4,0,0,0,.58-2.22v-.17a4,4,0,0,0-.58-2.21,2,2,0,0,0-3.35,0,4,4,0,0,0-.57,2.21Z"/><path class="cls-1" d="M99.67,51.56l.11,1.26a3,3,0,0,1,1.06-1,3.11,3.11,0,0,1,3.57.42,3.54,3.54,0,0,1,.75,2.48V60h-1.54v-5.3a2.32,2.32,0,0,0-.44-1.59,1.8,1.8,0,0,0-1.35-.47,2.38,2.38,0,0,0-1.21.29,2.07,2.07,0,0,0-.78.8V60H98.3V51.56Z"/><path class="cls-2" d="M43.86,14.14a1.2,1.2,0,1,0,0-2.4h-14a1.2,1.2,0,1,0,0,2.4Z"/><path class="cls-2" d="M25,18.53a1.2,1.2,0,0,0,1.2,1.2h5.95V25.5a3.61,3.61,0,0,0,3.61,3.6h.48a5.59,5.59,0,0,0,5.47,4.45,5.52,5.52,0,0,0,5.4-4.45H66a5.55,5.55,0,0,0,10.88,0H78a3,3,0,0,0,3-3V17.62a3.06,3.06,0,0,0-2.7-3l-3-5.47a4.87,4.87,0,0,0-4.2-2.46H63.93V4.11A3.61,3.61,0,0,0,60.32.5H35.75a3.61,3.61,0,0,0-3.61,3.61v2.1H26.19a1.2,1.2,0,0,0,0,2.4h14a1.2,1.2,0,1,0,0-2.4H34.55V4.11a1.2,1.2,0,0,1,1.2-1.21H60.32a1.2,1.2,0,0,1,1.2,1.21V26.7H47a5.52,5.52,0,0,0-10.75,0h-.54a1.2,1.2,0,0,1-1.2-1.2V19.73h5.64a1.21,1.21,0,1,0,0-2.41h-14A1.21,1.21,0,0,0,25,18.53ZM71.44,31.14a3.18,3.18,0,1,1,3.12-3.24V28a3.12,3.12,0,0,1-3.12,3.12Zm-.36-22a2.42,2.42,0,0,1,2.1,1.26l2.34,4.27H63.93V9.09ZM63.93,17H78a.55.55,0,0,1,.6.48v8.6a.6.6,0,0,1-.6.6h-1.2A5.52,5.52,0,0,0,66,26.7h-2.1ZM41.7,24.83A3.19,3.19,0,1,1,38.51,28a3.19,3.19,0,0,1,3.19-3.19Z"/></g></g></svg>