<svg xmlns="http://www.w3.org/2000/svg" viewBox="0 0 116.06 73.47"><defs><style>.cls-1{fill:#0097d6;}</style></defs><title>bakeryproducts</title><g id="Layer_2" data-name="Layer 2"><g id="Layer_1-2" data-name="Layer 1"><path class="cls-1" d="M0,70.06V58.68H3.71a4.51,4.51,0,0,1,2.79.77,2.75,2.75,0,0,1,1,2.31,2.06,2.06,0,0,1-.46,1.32,2.77,2.77,0,0,1-1.2.88,2.66,2.66,0,0,1,1.77,1,3,3,0,0,1,.65,1.92,2.9,2.9,0,0,1-1,2.38,4.25,4.25,0,0,1-2.75.83Zm1.54-6.54H4a2.08,2.08,0,0,0,1.4-.47,1.91,1.91,0,0,0,0-2.7,2.71,2.71,0,0,0-1.68-.46H1.54Zm0,1.2v4.13h3a2.38,2.38,0,0,0,1.63-.51,1.88,1.88,0,0,0,.59-1.48,2,2,0,0,0-.6-1.52,2.32,2.32,0,0,0-1.6-.62h-3Z"/><path class="cls-1" d="M15.16,70.06a5.46,5.46,0,0,1-.12-.68,5.61,5.61,0,0,1-.06-.59,3.45,3.45,0,0,1-1.12,1,2.78,2.78,0,0,1-1.48.41,2.77,2.77,0,0,1-2-.67,2.51,2.51,0,0,1-.69-1.87,2.19,2.19,0,0,1,1-1.89,4.54,4.54,0,0,1,2.66-.69H15v-.83a1.56,1.56,0,0,0-.45-1.18,1.77,1.77,0,0,0-1.28-.43A1.86,1.86,0,0,0,12,63a1.12,1.12,0,0,0-.46.9l-1.46,0,0-.05A2,2,0,0,1,11,62.21a3.61,3.61,0,0,1,2.38-.76,3.49,3.49,0,0,1,2.31.73,2.6,2.6,0,0,1,.87,2.1v4.07a8.18,8.18,0,0,0,.05.88,4.7,4.7,0,0,0,.17.83ZM12.6,68.93a2.72,2.72,0,0,0,1.51-.43,2,2,0,0,0,.87-1V66.14H13.26a2.25,2.25,0,0,0-1.49.47,1.41,1.41,0,0,0-.56,1.1,1.15,1.15,0,0,0,.35.89A1.48,1.48,0,0,0,12.6,68.93Z"/><path class="cls-1" d="M21.09,66.16H20.3v3.9H18.77V57.87H20.3v7.06h.78l2.54-3.33h1.84l-3.07,3.9,3.34,4.56H23.91Z"/><path class="cls-1" d="M30.3,70.22a3.6,3.6,0,0,1-2.84-1.16,4.53,4.53,0,0,1-1-3.06v-.35a4.33,4.33,0,0,1,1.05-3,3.29,3.29,0,0,1,2.56-1.19,3.09,3.09,0,0,1,2.55,1,4.39,4.39,0,0,1,.84,2.81v.81h-5.4l0,0a3.47,3.47,0,0,0,.57,2.07A2,2,0,0,0,30.3,69a4.16,4.16,0,0,0,1.38-.22,3.12,3.12,0,0,0,1-.62l.6,1a3.67,3.67,0,0,1-1.2.74A4.75,4.75,0,0,1,30.3,70.22Zm-.24-7.56a1.69,1.69,0,0,0-1.33.62,2.86,2.86,0,0,0-.64,1.59v0h3.81v-.13a2.47,2.47,0,0,0-.45-1.52A1.64,1.64,0,0,0,30.06,62.66Z"/><path class="cls-1" d="M39.18,63l-.79,0a1.71,1.71,0,0,0-1,.29,1.8,1.8,0,0,0-.64.81v6H35.18V61.6h1.37l.15,1.24a2.88,2.88,0,0,1,.89-1,2,2,0,0,1,1.21-.37,1.69,1.69,0,0,1,.33,0,1.33,1.33,0,0,1,.26.05Z"/><path class="cls-1" d="M43.51,66.92,43.78,68h0l2.08-6.39h1.71l-3.56,9.75a4.3,4.3,0,0,1-.92,1.49,2.09,2.09,0,0,1-1.61.63,3.28,3.28,0,0,1-.48,0l-.44-.08.16-1.21H41l.41,0a1,1,0,0,0,.81-.43,5,5,0,0,0,.52-1l.37-.88L40,61.6h1.72Z"/><path class="cls-1" d="M54.7,65.5v4.56H53.16V58.68h4.35a4,4,0,0,1,2.83.94,3.54,3.54,0,0,1,0,4.95,4,4,0,0,1-2.83.93Zm0-1.21h2.81A2.06,2.06,0,0,0,59.8,62.1a2.25,2.25,0,0,0-.57-1.57,2.18,2.18,0,0,0-1.72-.64H54.7Z"/><path class="cls-1" d="M67.12,63l-.79,0a1.71,1.71,0,0,0-1,.29,1.8,1.8,0,0,0-.64.81v6H63.12V61.6h1.37l.15,1.24a2.88,2.88,0,0,1,.89-1,2,2,0,0,1,1.21-.37,1.76,1.76,0,0,1,.33,0l.26.05Z"/><path class="cls-1" d="M68.2,65.75a4.64,4.64,0,0,1,1-3.09,3.76,3.76,0,0,1,5.53,0,4.64,4.64,0,0,1,1,3.09v.17a4.66,4.66,0,0,1-1,3.1,3.79,3.79,0,0,1-5.54,0,4.61,4.61,0,0,1-1-3.09Zm1.54.17a4,4,0,0,0,.57,2.22,2,2,0,0,0,3.35,0,4,4,0,0,0,.57-2.22v-.17a4,4,0,0,0-.57-2.21A1.88,1.88,0,0,0,72,62.66a1.85,1.85,0,0,0-1.67.88,4,4,0,0,0-.57,2.21Z"/><path class="cls-1" d="M77.3,66a5.57,5.57,0,0,1,.88-3.29,2.81,2.81,0,0,1,2.44-1.25,3,3,0,0,1,1.31.27,2.61,2.61,0,0,1,1,.8V57.87h1.54V70.06H83.27L83,69a2.88,2.88,0,0,1-1,.92,3.06,3.06,0,0,1-1.42.31,2.89,2.89,0,0,1-2.42-1.12,4.69,4.69,0,0,1-.88-2.95Zm1.54.16a3.56,3.56,0,0,0,.53,2A1.8,1.8,0,0,0,81,69a2,2,0,0,0,1.16-.31,2.35,2.35,0,0,0,.76-.88V63.84a2.28,2.28,0,0,0-.77-.83A2,2,0,0,0,81,62.7a1.76,1.76,0,0,0-1.64.91A4.74,4.74,0,0,0,78.84,66Z"/><path class="cls-1" d="M92.12,68.81a2.85,2.85,0,0,1-1,1,3.05,3.05,0,0,1-3.6-.51,4.14,4.14,0,0,1-.77-2.75v-5h1.54v5a3.08,3.08,0,0,0,.4,1.86A1.47,1.47,0,0,0,89.9,69a2.5,2.5,0,0,0,1.35-.33,2.07,2.07,0,0,0,.81-.94V61.6H93.6v8.46H92.22Z"/><path class="cls-1" d="M99.2,69a1.85,1.85,0,0,0,1.25-.47,1.53,1.53,0,0,0,.53-1.16h1.39l0,0a2.41,2.41,0,0,1-.94,1.94,3.27,3.27,0,0,1-2.25.85A3.33,3.33,0,0,1,96.45,69a4.7,4.7,0,0,1-1-3v-.33a4.65,4.65,0,0,1,1-3,3.31,3.31,0,0,1,2.74-1.21,3.21,3.21,0,0,1,2.32.87,2.79,2.79,0,0,1,.87,2.15v0H101a1.85,1.85,0,0,0-.51-1.32,1.66,1.66,0,0,0-1.27-.54,1.78,1.78,0,0,0-1.65.88A4.05,4.05,0,0,0,97,65.67V66a4.19,4.19,0,0,0,.51,2.14A1.77,1.77,0,0,0,99.2,69Z"/><path class="cls-1" d="M106.36,59.57v2H108v1.15h-1.6v5.13a1.11,1.11,0,0,0,.25.83.85.85,0,0,0,.65.25,1.55,1.55,0,0,0,.29,0l.28-.07L108,69.9a1.35,1.35,0,0,1-.51.23,2.5,2.5,0,0,1-.66.09,2,2,0,0,1-1.49-.56,2.42,2.42,0,0,1-.56-1.78V62.75h-1.34V61.6h1.34v-2Z"/><path class="cls-1" d="M114.52,67.78a1,1,0,0,0-.38-.82,3.79,3.79,0,0,0-1.47-.57,6.17,6.17,0,0,1-2.29-.89,1.82,1.82,0,0,1-.8-1.55,2.22,2.22,0,0,1,.88-1.77,3.88,3.88,0,0,1,4.6,0,2.21,2.21,0,0,1,.85,1.82v0h-1.47a1.34,1.34,0,0,0-.48-1,1.76,1.76,0,0,0-1.22-.44,1.72,1.72,0,0,0-1.21.37,1.12,1.12,0,0,0-.4.87.91.91,0,0,0,.34.77,3.75,3.75,0,0,0,1.44.5,6.16,6.16,0,0,1,2.36.93,1.9,1.9,0,0,1,.8,1.57,2.22,2.22,0,0,1-.91,1.84,4.34,4.34,0,0,1-4.92-.11,2.35,2.35,0,0,1-.89-1.91l0,0h1.47a1.4,1.4,0,0,0,.61,1.2,2.36,2.36,0,0,0,1.33.38,2.13,2.13,0,0,0,1.29-.35A1.06,1.06,0,0,0,114.52,67.78Z"/><path class="cls-1" d="M81.17,42.45H78.92A3.7,3.7,0,0,0,80,39.85v-.21a1.7,1.7,0,0,0-.2-.78,1.82,1.82,0,0,0,0-3.07A1.7,1.7,0,0,0,80,35v-.08A3.83,3.83,0,0,0,78.6,32c-.11-.09-.24-.17-.36-.25a3.27,3.27,0,0,0,.48-.35A3.68,3.68,0,0,0,80,28.59v-.21a1.7,1.7,0,0,0-.2-.78,1.81,1.81,0,0,0,0-3.06,1.74,1.74,0,0,0,.2-.79v-.07a3.83,3.83,0,0,0-3.84-3.84H66.68A3.7,3.7,0,0,0,63,23.54v.21a1.66,1.66,0,0,0,.21.79,1.8,1.8,0,0,0,0,3.06,1.6,1.6,0,0,0-.21.78v.08a3.83,3.83,0,0,0,1.39,2.95,3.9,3.9,0,0,0,.36.25,5.34,5.34,0,0,0-.48.35A3.72,3.72,0,0,0,63,34.8V35a1.6,1.6,0,0,0,.21.78,1.81,1.81,0,0,0,0,3.07,1.6,1.6,0,0,0-.21.78v.08a3.84,3.84,0,0,0,1.15,2.73H59.9a2,2,0,0,0-1.33-2.8,7.16,7.16,0,0,0-1.07-3.79h.62a2,2,0,0,0,.41-3.92A6.75,6.75,0,0,0,57.59,28h.53a2,2,0,1,0,0-4H56.76A4.6,4.6,0,0,0,54.41,16,3.86,3.86,0,0,0,55,14c0-1.89-1.36-3.29-3.74-3.87-2.72-.65-2.85-2.66-2.85-2.89a.61.61,0,0,0-.6-.59,3.89,3.89,0,0,0-3.84,4.68,4,4,0,0,0-3.8,4,4.13,4.13,0,0,0,.39,1.73,4.14,4.14,0,0,0-2.07,7h-1a2,2,0,0,0,0,4h.08a6.5,6.5,0,0,0-.91,4,2,2,0,0,0,.83,3.78h.17a7,7,0,0,0-1,4,2,2,0,0,0-.89,2.64H34.37a.6.6,0,0,0-.6.6V47.4a.6.6,0,0,0,.6.6h46.8a.6.6,0,0,0,.6-.6V43.05A.6.6,0,0,0,81.17,42.45Zm-17-2.81a.51.51,0,0,1,.5-.5H78.29a.5.5,0,0,1,.5.5v.21a2.51,2.51,0,0,1-2.5,2.51H66.81a2.65,2.65,0,0,1-2.64-2.64v-.08Zm0-1.7a.61.61,0,0,1-.62-.61.62.62,0,0,1,.62-.62H78.82a.62.62,0,1,1,0,1.23H64.15Zm0-11.25a.62.62,0,0,1,0-1.24H78.82a.62.62,0,1,1,0,1.24H64.15Zm0-3.15A2.51,2.51,0,0,1,66.68,21h9.47a2.64,2.64,0,0,1,2.64,2.64v.07a.5.5,0,0,1-.5.5H64.67a.5.5,0,0,1-.5-.5v-.21Zm0,4.92v-.08a.51.51,0,0,1,.5-.5H78.29a.5.5,0,0,1,.5.5v.21a2.51,2.51,0,0,1-2.5,2.51H66.81a2.65,2.65,0,0,1-1.68-.61A2.62,2.62,0,0,1,64.17,28.46Zm0,6.34a2.49,2.49,0,0,1,2.51-2.5h9.47a2.62,2.62,0,0,1,2.64,2.64V35a.5.5,0,0,1-.5.5H64.67a.51.51,0,0,1-.5-.5V34.8Zm-5.26,6.78a.78.78,0,0,1-.79.78H37.47a.78.78,0,0,1,0-1.56H58.12A.78.78,0,0,1,58.91,41.58Zm-20.3-5a4.14,4.14,0,0,0,2,.84,6.6,6.6,0,0,1,.85.21,2.54,2.54,0,0,1,1.84,2H37.77A6.38,6.38,0,0,1,38.61,36.55Zm8.85-.26a3.49,3.49,0,0,0,1.26,1.21,3.13,3.13,0,0,1,1.43,2.1H44.77a3.09,3.09,0,0,1,1.43-2.1A3.57,3.57,0,0,0,47.46,36.29Zm9.91,3.31H51.8a2.53,2.53,0,0,1,1.84-2,6.6,6.6,0,0,1,.85-.21,4.14,4.14,0,0,0,2-.84A6.38,6.38,0,0,1,57.37,39.6Zm-3.12-3.39a7.9,7.9,0,0,0-1,.26A3.94,3.94,0,0,0,51,38.31a4.87,4.87,0,0,0-1.6-1.8l0,0a2.7,2.7,0,0,1-.73-.61h6.81A4.13,4.13,0,0,1,54.25,36.21ZM37.83,31.89c-.29-.84.35-2.57.78-3.33a4.07,4.07,0,0,0,2,.85,6.6,6.6,0,0,1,.85.21,2.49,2.49,0,0,1,1.87,2.27Zm9.63-3.39a3.59,3.59,0,0,0,1.26,1.21,3.05,3.05,0,0,1,1.44,2.18h-5.4a3,3,0,0,1,1.43-2.18A3.59,3.59,0,0,0,47.46,28.5Zm4.31,3.39a2.49,2.49,0,0,1,1.87-2.27,6.6,6.6,0,0,1,.85-.21,4.07,4.07,0,0,0,2-.85c.43.76,1.07,2.49.78,3.33Zm2.48-3.66a7.9,7.9,0,0,0-1,.26,3.88,3.88,0,0,0-2.3,1.94,4.81,4.81,0,0,0-1.55-1.72l0,0a2.87,2.87,0,0,1-.76-.65h6.5A7.79,7.79,0,0,1,54.25,28.23ZM38.42,21.11a2.94,2.94,0,0,1,2.94-2.94h.18a.6.6,0,0,0,.49-1,2.81,2.81,0,0,1,2.11-4.66,3.15,3.15,0,0,1,.52.05.58.58,0,0,0,.59-.22.61.61,0,0,0,.07-.62,2.63,2.63,0,0,1-.27-1.16,2.72,2.72,0,0,1,2.2-2.67,4.5,4.5,0,0,0,3.69,3.4c1.05.26,2.82.94,2.82,2.7a2.67,2.67,0,0,1-1,2.13.59.59,0,0,0,.46,1.06,3.65,3.65,0,0,1,.55,0,3.46,3.46,0,0,1,3.46,3.45,3.57,3.57,0,0,1-3.58,3.46H41.36A3,3,0,0,1,38.42,21.11ZM36.69,26a.78.78,0,0,1,.78-.78H58.12a.79.79,0,1,1,0,1.57H37.47A.78.78,0,0,1,36.69,26Zm9.64,2a2.69,2.69,0,0,1-.75.65l0,0a4.9,4.9,0,0,0-1.44,1.51,4,4,0,0,0-2.19-1.73,7.9,7.9,0,0,0-1-.26,7.79,7.79,0,0,1-.83-.2Zm-9.64,5.85a.79.79,0,0,1,.78-.79H58.12a.79.79,0,0,1,.79.79.78.78,0,0,1-.79.78H37.47A.78.78,0,0,1,36.69,33.88Zm9.61,2a2.54,2.54,0,0,1-.72.61l0,0a4.89,4.89,0,0,0-1.5,1.6,4,4,0,0,0-2.13-1.64,7.9,7.9,0,0,0-1-.26,4.31,4.31,0,0,1-1.18-.35ZM80.57,46.8H35V43.65h45.6Z"/><path class="cls-1" d="M81.17,0H34.37a.6.6,0,0,0-.6.6V5a.6.6,0,0,0,.6.6H64.94V15.1a.6.6,0,0,0,.6.6H77.42a.6.6,0,0,0,.6-.6V5.55h3.15a.6.6,0,0,0,.6-.6V.6A.6.6,0,0,0,81.17,0ZM76.82,14.5H66.14V5.55H76.82ZM80.57,4.35H35V1.2h45.6Z"/><path class="cls-1" d="M68.57,9.08H74.4a.6.6,0,1,0,0-1.2H68.57a.6.6,0,0,0,0,1.2Z"/><path class="cls-1" d="M74.4,11.14H68.57a.6.6,0,0,0,0,1.2H74.4a.6.6,0,1,0,0-1.2Z"/><path class="cls-1" d="M54.59,20.49a.6.6,0,1,0,1.2,0,1.79,1.79,0,0,0-.58-1.34,2.76,2.76,0,0,0-2.17-.6.6.6,0,0,0-.55.65.6.6,0,0,0,.64.55A1.77,1.77,0,0,1,54.4,20,.59.59,0,0,1,54.59,20.49Z"/><path class="cls-1" d="M50.27,12.51A3.47,3.47,0,0,1,48,11.12a.61.61,0,0,0-.53-.31.6.6,0,0,0-.6.6.61.61,0,0,0,.08.3,4.62,4.62,0,0,0,3,2c.41.1.9.32.9.76a.6.6,0,0,0,.6.6.6.6,0,0,0,.6-.6A2.06,2.06,0,0,0,50.27,12.51Z"/></g></g></svg>