<svg xmlns="http://www.w3.org/2000/svg" viewBox="0 0 98.77 92.8"><defs><style>.cls-1,.cls-2{fill:#0097d6;}.cls-2{stroke:#fff;stroke-miterlimit:10;stroke-width:0.25px;}</style></defs><title>candy_confectionery</title><g id="Layer_2" data-name="Layer 2"><g id="Layer_1-2" data-name="Layer 1"><path class="cls-1" d="M26.94,66.54l0,0a3.43,3.43,0,0,1-1.13,2.68,4.29,4.29,0,0,1-3,1.08A4,4,0,0,1,19.63,69a5,5,0,0,1-1.21-3.47v-2A5.07,5.07,0,0,1,19.63,60a4,4,0,0,1,3.15-1.37,4.45,4.45,0,0,1,3.07,1A3.4,3.4,0,0,1,27,62.39l0,0H25.46a2.52,2.52,0,0,0-.7-1.89,2.72,2.72,0,0,0-2-.7,2.44,2.44,0,0,0-2.06,1A4.26,4.26,0,0,0,20,63.47v2a4.23,4.23,0,0,0,.76,2.59,2.41,2.41,0,0,0,2.06,1,2.71,2.71,0,0,0,2-.69,2.55,2.55,0,0,0,.7-1.91Z"/><path class="cls-1" d="M33.94,70.18c0-.25-.09-.48-.12-.67a3.92,3.92,0,0,1,0-.59,3.8,3.8,0,0,1-1.12,1,2.91,2.91,0,0,1-1.49.41,2.76,2.76,0,0,1-2-.68,2.48,2.48,0,0,1-.69-1.86,2.18,2.18,0,0,1,1-1.9,4.61,4.61,0,0,1,2.66-.68h1.67v-.84a1.55,1.55,0,0,0-.45-1.17A1.79,1.79,0,0,0,32,62.78a1.89,1.89,0,0,0-1.22.38,1.15,1.15,0,0,0-.46.9H28.9v0a2,2,0,0,1,.86-1.69,3.57,3.57,0,0,1,2.37-.77,3.51,3.51,0,0,1,2.31.73,2.58,2.58,0,0,1,.88,2.11v4.07a6.17,6.17,0,0,0,0,.87,3.82,3.82,0,0,0,.17.83Zm-2.55-1.12a2.68,2.68,0,0,0,1.5-.43,2.09,2.09,0,0,0,.88-1V66.27H32a2.22,2.22,0,0,0-1.49.47,1.4,1.4,0,0,0-.55,1.1,1.15,1.15,0,0,0,.35.89A1.46,1.46,0,0,0,31.39,69.06Z"/><path class="cls-1" d="M38.92,61.73,39,63a3,3,0,0,1,1.06-1.05,2.87,2.87,0,0,1,1.45-.37,2.76,2.76,0,0,1,2.11.8,3.54,3.54,0,0,1,.75,2.48v5.33H42.86v-5.3a2.31,2.31,0,0,0-.44-1.59,1.77,1.77,0,0,0-1.35-.47,2.37,2.37,0,0,0-1.2.29,2.09,2.09,0,0,0-.79.8v6.27H37.54V61.73Z"/><path class="cls-1" d="M46.29,66.11a5.59,5.59,0,0,1,.87-3.29,2.81,2.81,0,0,1,2.44-1.25,3,3,0,0,1,1.31.28,2.58,2.58,0,0,1,1,.79V58h1.54V70.18H52.25L52,69.11A2.7,2.7,0,0,1,51,70a3.06,3.06,0,0,1-1.42.32,2.91,2.91,0,0,1-2.42-1.12,4.68,4.68,0,0,1-.87-3Zm1.53.17a3.6,3.6,0,0,0,.53,2A1.83,1.83,0,0,0,50,69.1a2,2,0,0,0,1.16-.32,2.24,2.24,0,0,0,.76-.87V64a2.43,2.43,0,0,0-.76-.83A2.11,2.11,0,0,0,50,62.82a1.77,1.77,0,0,0-1.64.92,4.73,4.73,0,0,0-.53,2.37Z"/><path class="cls-1" d="M58.32,67.05l.27,1.06h0l2.07-6.38h1.72l-3.56,9.75A4.25,4.25,0,0,1,58,73a2.08,2.08,0,0,1-1.61.64,3.26,3.26,0,0,1-.48,0,2.52,2.52,0,0,1-.44-.08l.15-1.21.28,0,.41,0a1,1,0,0,0,.81-.44,4.71,4.71,0,0,0,.52-1L58,70l-3.14-8.28h1.72Z"/><path class="cls-1" d="M67.14,67.12a2.66,2.66,0,0,1,.55-1.67A6.68,6.68,0,0,1,69.33,64a8.14,8.14,0,0,1-.9-1.38,2.77,2.77,0,0,1-.3-1.25,2.64,2.64,0,0,1,.76-2,2.94,2.94,0,0,1,2.1-.72,2.89,2.89,0,0,1,2,.71,2.28,2.28,0,0,1,.77,1.72,2.18,2.18,0,0,1-.41,1.32,5.46,5.46,0,0,1-1.22,1.14l-.85.63L74,67.35a4.39,4.39,0,0,0,.5-1.12,4.66,4.66,0,0,0,.18-1.31H76a5.84,5.84,0,0,1-.3,1.91,4.94,4.94,0,0,1-.88,1.57l1.44,1.74v0H74.46l-.67-.79a4.63,4.63,0,0,1-1.38.71,5.21,5.21,0,0,1-1.57.25,3.9,3.9,0,0,1-2.7-.9A3,3,0,0,1,67.14,67.12Zm3.7,2A3.32,3.32,0,0,0,72,69a3.67,3.67,0,0,0,1-.55L70.16,65l-.31.23a2.8,2.8,0,0,0-.94,1,2,2,0,0,0-.23.87,2,2,0,0,0,.55,1.45A2.15,2.15,0,0,0,70.84,69.14Zm-1.17-7.76a2,2,0,0,0,.21.86,5,5,0,0,0,.63,1l1.08-.74a1.66,1.66,0,0,0,.61-.64,2,2,0,0,0,.16-.77,1.17,1.17,0,0,0-.38-.85,1.41,1.41,0,0,0-1-.37,1.17,1.17,0,0,0-1,.45A1.68,1.68,0,0,0,69.67,61.38Z"/><path class="cls-1" d="M8.52,85.74l0,.05a3.43,3.43,0,0,1-1.13,2.68,4.27,4.27,0,0,1-3,1.08,4,4,0,0,1-3.15-1.37A5,5,0,0,1,0,84.71v-2a5.07,5.07,0,0,1,1.21-3.48,4,4,0,0,1,3.15-1.37,4.45,4.45,0,0,1,3.07,1,3.4,3.4,0,0,1,1.11,2.72l0,0H7.05a2.53,2.53,0,0,0-.71-1.89,2.7,2.7,0,0,0-2-.7,2.44,2.44,0,0,0-2.06,1,4.26,4.26,0,0,0-.76,2.58v2A4.23,4.23,0,0,0,2.3,87.3a2.41,2.41,0,0,0,2.06,1,2.7,2.7,0,0,0,2-.69,2.56,2.56,0,0,0,.71-1.91Z"/><path class="cls-1" d="M10,85.08A4.69,4.69,0,0,1,11,82a3.42,3.42,0,0,1,2.76-1.22A3.47,3.47,0,0,1,16.52,82a4.65,4.65,0,0,1,1,3.1v.17a4.61,4.61,0,0,1-1,3.09,3.4,3.4,0,0,1-2.76,1.21A3.45,3.45,0,0,1,11,88.34a4.61,4.61,0,0,1-1-3.09Zm1.54.17a4.06,4.06,0,0,0,.56,2.22,1.89,1.89,0,0,0,1.69.87,1.87,1.87,0,0,0,1.67-.87A4,4,0,0,0,16,85.25v-.17a4,4,0,0,0-.57-2.21A1.9,1.9,0,0,0,13.74,82a1.87,1.87,0,0,0-1.67.89,4.07,4.07,0,0,0-.56,2.21Z"/><path class="cls-1" d="M20.8,80.93l.11,1.26a3.1,3.1,0,0,1,1.05-1,2.92,2.92,0,0,1,1.45-.37,2.78,2.78,0,0,1,2.12.8,3.54,3.54,0,0,1,.75,2.48v5.33H24.74v-5.3a2.31,2.31,0,0,0-.44-1.59A1.77,1.77,0,0,0,23,82a2.37,2.37,0,0,0-1.2.29,2,2,0,0,0-.79.8v6.27H19.42V80.93Z"/><path class="cls-1" d="M29.16,89.38V82.07H27.84V80.93h1.32V79.86a2.9,2.9,0,0,1,.7-2.09,2.62,2.62,0,0,1,2-.74,4.91,4.91,0,0,1,.53,0,6,6,0,0,1,.6.13l-.19,1.17-.34-.06-.42,0a1.21,1.21,0,0,0-1,.4,1.81,1.81,0,0,0-.32,1.17v1.07h1.53v1.14H30.7v7.31Z"/><path class="cls-1" d="M37.09,89.55a3.57,3.57,0,0,1-2.84-1.17,4.45,4.45,0,0,1-1-3.06V85a4.37,4.37,0,0,1,1.06-3,3.28,3.28,0,0,1,2.56-1.19,3.07,3.07,0,0,1,2.54,1.06,4.31,4.31,0,0,1,.85,2.8v.82h-5.4l0,0a3.47,3.47,0,0,0,.57,2.07,1.94,1.94,0,0,0,1.71.79,3.82,3.82,0,0,0,1.37-.22,3,3,0,0,0,1-.61l.6,1a3.67,3.67,0,0,1-1.2.74A4.75,4.75,0,0,1,37.09,89.55ZM36.85,82a1.65,1.65,0,0,0-1.33.63,2.86,2.86,0,0,0-.64,1.59v0H38.7v-.12a2.47,2.47,0,0,0-.45-1.52A1.65,1.65,0,0,0,36.85,82Z"/><path class="cls-1" d="M45.33,88.34a1.8,1.8,0,0,0,1.24-.47,1.5,1.5,0,0,0,.53-1.16h1.39l0,.05a2.45,2.45,0,0,1-.94,1.94,3.58,3.58,0,0,1-5-.36,4.67,4.67,0,0,1-1-3V85a4.64,4.64,0,0,1,1-3,3.32,3.32,0,0,1,2.75-1.22,3.19,3.19,0,0,1,2.31.88,2.75,2.75,0,0,1,.88,2.15l0,0H47.1a1.88,1.88,0,0,0-.5-1.31A1.68,1.68,0,0,0,45.33,82a1.77,1.77,0,0,0-1.65.88A4.1,4.1,0,0,0,43.16,85v.33a4.2,4.2,0,0,0,.51,2.15A1.77,1.77,0,0,0,45.33,88.34Z"/><path class="cls-1" d="M52.48,78.89v2h1.61v1.14H52.48V87.2a1.17,1.17,0,0,0,.25.84.88.88,0,0,0,.65.24l.3,0,.27-.08.21,1.06a1.37,1.37,0,0,1-.5.23,2.63,2.63,0,0,1-.67.09A2,2,0,0,1,51.5,89,2.47,2.47,0,0,1,51,87.2V82.07H49.6V80.93H51v-2Z"/><path class="cls-1" d="M57.4,78.77H55.86V77.2H57.4Zm0,10.61H55.86V80.93H57.4Z"/><path class="cls-1" d="M59.41,85.08a4.64,4.64,0,0,1,1-3.09,3.42,3.42,0,0,1,2.76-1.22A3.47,3.47,0,0,1,66,82a4.65,4.65,0,0,1,1,3.1v.17a4.61,4.61,0,0,1-1,3.09,3.41,3.41,0,0,1-2.76,1.21,3.45,3.45,0,0,1-2.77-1.21,4.61,4.61,0,0,1-1-3.09Zm1.54.17a4,4,0,0,0,.56,2.22,2.06,2.06,0,0,0,3.36,0,4,4,0,0,0,.57-2.22v-.17a3.91,3.91,0,0,0-.58-2.21,2,2,0,0,0-3.35,0A4,4,0,0,0,61,85.08Z"/><path class="cls-1" d="M70.23,80.93l.11,1.26a3.22,3.22,0,0,1,1.06-1,2.92,2.92,0,0,1,1.45-.37,2.78,2.78,0,0,1,2.12.8,3.54,3.54,0,0,1,.75,2.48v5.33H74.18v-5.3a2.31,2.31,0,0,0-.44-1.59A1.8,1.8,0,0,0,72.39,82a2.41,2.41,0,0,0-1.21.29,2.07,2.07,0,0,0-.78.8v6.27H68.86V80.93Z"/><path class="cls-1" d="M81.45,89.55a3.57,3.57,0,0,1-2.84-1.17,4.45,4.45,0,0,1-1-3.06V85a4.41,4.41,0,0,1,1-3,3.31,3.31,0,0,1,2.57-1.19,3.07,3.07,0,0,1,2.54,1.06,4.31,4.31,0,0,1,.85,2.8v.82H79.2l0,0a3.54,3.54,0,0,0,.56,2.07,2,2,0,0,0,1.72.79,3.82,3.82,0,0,0,1.37-.22,3.15,3.15,0,0,0,1-.61l.6,1a3.78,3.78,0,0,1-1.2.74A4.75,4.75,0,0,1,81.45,89.55ZM81.21,82a1.65,1.65,0,0,0-1.33.63,2.94,2.94,0,0,0-.65,1.59l0,0h3.81v-.12a2.47,2.47,0,0,0-.45-1.52A1.65,1.65,0,0,0,81.21,82Z"/><path class="cls-1" d="M90.33,82.29l-.79-.05a1.79,1.79,0,0,0-1,.29,1.86,1.86,0,0,0-.64.81v6H86.33V80.93H87.7l.15,1.23a3.07,3.07,0,0,1,.89-1A2.09,2.09,0,0,1,90,80.77a1.69,1.69,0,0,1,.33,0l.26.06Z"/><path class="cls-1" d="M94.66,86.25l.27,1.06h0l2.07-6.38h1.72l-3.56,9.75a4.25,4.25,0,0,1-.92,1.48,2.08,2.08,0,0,1-1.61.64,3.26,3.26,0,0,1-.48,0,2.52,2.52,0,0,1-.44-.08l.15-1.21.28,0,.41,0a1,1,0,0,0,.81-.44,4.71,4.71,0,0,0,.52-1l.37-.88-3.14-8.28h1.72Z"/><path class="cls-2" d="M72.36,7.37a2.31,2.31,0,0,0,0-3.28L69.08.8a2.34,2.34,0,0,0-3.29,0l-16,16V12.51a12.39,12.39,0,0,0-24.77,0v3.87a3.87,3.87,0,1,0,7.74,0V12.51a4.65,4.65,0,0,1,9.29,0v12L25.72,40.88a2.32,2.32,0,0,0,0,3.28L29,47.44a2.31,2.31,0,0,0,3.29,0l9.78-9.78v6.59a3.87,3.87,0,1,0,7.74,0V29.92ZM66.89,1.9A.77.77,0,0,1,68,1.9l3.28,3.28a.77.77,0,0,1,0,1.1L64.74,12.8a5.09,5.09,0,0,1-.67-1.24l-1.45.56a6.93,6.93,0,0,0,1,1.79L56.52,21c-2-2.74-1-7.15-.72-8l6.29-6.29a13.91,13.91,0,0,0,0,3.35l1.53-.21A13.87,13.87,0,0,1,64,4.77Zm-13,13c-.24,2.1-.15,5,1.55,7.22l-5.61,5.6V19ZM43.62,16.7l4.62-4.62c0,.15,0,.29,0,.43v9.75L43.62,26.9Zm-12.39-.32a2.32,2.32,0,1,1-4.64,0V12.51h4.64ZM31.44,11H26.71a10.82,10.82,0,0,1,5-7.63l2.32,4A6.16,6.16,0,0,0,31.44,11Zm3.95-4.3L33.05,2.61a10.76,10.76,0,0,1,8.75,0L39.46,6.67a6.09,6.09,0,0,0-4.07,0Zm5.46.69,2.32-4A10.83,10.83,0,0,1,48,10.14l-4.37,4.38v-2A6.17,6.17,0,0,0,40.85,7.36Zm-9.66,39a.79.79,0,0,1-1.09,0l-3.29-3.28a.82.82,0,0,1-.22-.55.8.8,0,0,1,.22-.55l6.52-6.51c-.24,2.09-.16,5,1.54,7.21ZM36,41.57c-2-2.74-.95-7.14-.71-8l6.81-6.82v8.76Zm10,5a2.33,2.33,0,0,1-2.32-2.33V41.48l2.09-2.1-1.09-1.09-1,1V29.09l4.64-4.64V34.64L45.87,37l1.1,1.1,1.29-1.3v7.42A2.33,2.33,0,0,1,45.94,46.58Z"/><path class="cls-2" d="M73,23.74A1.94,1.94,0,0,0,71.1,21.8H61a1.94,1.94,0,0,0-1.55,3.1l1.73,2.3a4.66,4.66,0,0,0-2.12,3.89v7.75a4.64,4.64,0,0,0,2.12,3.89L59.49,45A1.94,1.94,0,0,0,61,48.13H71.1A1.94,1.94,0,0,0,72.65,45l-1.73-2.3A4.66,4.66,0,0,0,73,38.84V31.09a4.66,4.66,0,0,0-2.12-3.89l1.73-2.3A2,2,0,0,0,73,23.74ZM71.41,46a.38.38,0,0,1,.08.23.4.4,0,0,1-.39.39H61a.39.39,0,0,1-.39-.39.38.38,0,0,1,.08-.23l2-2.61a4.68,4.68,0,0,0,1.07.13h4.64a4.75,4.75,0,0,0,1.07-.13Zm.08-7.12a3.1,3.1,0,0,1-3.1,3.09H63.75a3.1,3.1,0,0,1-3.1-3.09V31.09A3.1,3.1,0,0,1,63.75,28h4.64a3.1,3.1,0,0,1,3.1,3.09ZM71.41,24l-2,2.61a4.75,4.75,0,0,0-1.07-.13H63.75a4.68,4.68,0,0,0-1.07.13l-2-2.61a.4.4,0,0,1-.08-.23.39.39,0,0,1,.39-.39H71.1a.39.39,0,0,1,.31.62Z"/><path class="cls-2" d="M62.2,31.87v4.64h1.55V31.87a.77.77,0,0,1,.77-.78h.78V29.55h-.78A2.32,2.32,0,0,0,62.2,31.87Z"/><rect class="cls-2" x="62.2" y="38.06" width="1.55" height="1.55"/></g></g></svg>