<svg xmlns="http://www.w3.org/2000/svg" viewBox="0 0 76.96 97.24"><defs><style>.cls-1{fill:#fff;}</style></defs><title>cannedspecialties_hover</title><g id="Layer_2" data-name="Layer 2"><g id="Layer_1-2" data-name="Layer 1"><path class="cls-1" d="M20.59,71.15v0a3.42,3.42,0,0,1-1.12,2.68A4.3,4.3,0,0,1,16.42,75a4,4,0,0,1-3.14-1.37,5,5,0,0,1-1.22-3.47v-2a5,5,0,0,1,1.22-3.47,4,4,0,0,1,3.14-1.37,4.43,4.43,0,0,1,3.07,1A3.42,3.42,0,0,1,20.6,67v0H19.11a2.55,2.55,0,0,0-.7-1.89,2.72,2.72,0,0,0-2-.69,2.4,2.4,0,0,0-2.05,1,4.21,4.21,0,0,0-.77,2.57v2a4.29,4.29,0,0,0,.77,2.6,2.42,2.42,0,0,0,2.05,1,2.68,2.68,0,0,0,2-.7,2.54,2.54,0,0,0,.7-1.91Z"/><path class="cls-1" d="M27.59,74.79a5.34,5.34,0,0,1-.12-.67,3.92,3.92,0,0,1,0-.59,3.48,3.48,0,0,1-1.13,1,2.87,2.87,0,0,1-1.48.41,2.8,2.8,0,0,1-2-.68,2.48,2.48,0,0,1-.69-1.86,2.17,2.17,0,0,1,1-1.89,4.56,4.56,0,0,1,2.66-.69h1.68V69A1.57,1.57,0,0,0,27,67.83a1.77,1.77,0,0,0-1.28-.43,1.86,1.86,0,0,0-1.21.37,1.12,1.12,0,0,0-.46.9l-1.46,0,0,0A2,2,0,0,1,23.4,67a3.57,3.57,0,0,1,2.37-.76,3.48,3.48,0,0,1,2.31.73A2.58,2.58,0,0,1,29,69v4.07A8.33,8.33,0,0,0,29,74a4.59,4.59,0,0,0,.17.82ZM25,73.67a2.72,2.72,0,0,0,1.51-.43,2.08,2.08,0,0,0,.88-1V70.88H25.69a2.25,2.25,0,0,0-1.49.47,1.41,1.41,0,0,0-.56,1.1,1.17,1.17,0,0,0,.35.89A1.48,1.48,0,0,0,25,73.67Z"/><path class="cls-1" d="M32.56,66.34l.11,1.26a3,3,0,0,1,1.06-1,2.82,2.82,0,0,1,1.45-.37,2.75,2.75,0,0,1,2.12.8,3.49,3.49,0,0,1,.75,2.47v5.33H36.51v-5.3a2.34,2.34,0,0,0-.44-1.59,1.8,1.8,0,0,0-1.35-.46,2.41,2.41,0,0,0-1.21.28,2.07,2.07,0,0,0-.78.8v6.27H31.19V66.34Z"/><path class="cls-1" d="M41.66,66.34l.11,1.26a2.93,2.93,0,0,1,1.06-1,3.12,3.12,0,0,1,3.56.43,3.49,3.49,0,0,1,.75,2.47v5.33H45.6v-5.3a2.34,2.34,0,0,0-.44-1.59,1.77,1.77,0,0,0-1.35-.46,2.37,2.37,0,0,0-1.2.28,2,2,0,0,0-.79.8v6.27H40.28V66.34Z"/><path class="cls-1" d="M52.88,75A3.56,3.56,0,0,1,50,73.79a4.45,4.45,0,0,1-1-3.06v-.34a4.38,4.38,0,0,1,1-3,3.26,3.26,0,0,1,2.56-1.19,3.09,3.09,0,0,1,2.55,1A4.37,4.37,0,0,1,56,70v.82h-5.4l0,0A3.44,3.44,0,0,0,51.16,73a2,2,0,0,0,1.72.8,3.86,3.86,0,0,0,1.37-.23,3.1,3.1,0,0,0,1-.61l.6,1a3.72,3.72,0,0,1-1.19.74A4.83,4.83,0,0,1,52.88,75Zm-.25-7.56A1.66,1.66,0,0,0,51.3,68a2.94,2.94,0,0,0-.64,1.59v0h3.82v-.13A2.47,2.47,0,0,0,54,68,1.64,1.64,0,0,0,52.63,67.4Z"/><path class="cls-1" d="M57.4,70.72a5.63,5.63,0,0,1,.87-3.28,2.8,2.8,0,0,1,2.44-1.25,3.05,3.05,0,0,1,1.32.27,2.69,2.69,0,0,1,1,.8V62.61h1.54V74.79H63.37l-.24-1.07a2.67,2.67,0,0,1-1,.93A3.18,3.18,0,0,1,60.7,75a2.92,2.92,0,0,1-2.43-1.12,4.68,4.68,0,0,1-.87-3Zm1.54.17a3.58,3.58,0,0,0,.52,2,1.84,1.84,0,0,0,1.63.77,2,2,0,0,0,1.15-.31,2.29,2.29,0,0,0,.77-.88V68.58a2.5,2.5,0,0,0-.77-.84,2.11,2.11,0,0,0-1.14-.3,1.74,1.74,0,0,0-1.63.91,4.62,4.62,0,0,0-.53,2.37Z"/><path class="cls-1" d="M6.5,91.13A1.71,1.71,0,0,0,6,89.83a4.66,4.66,0,0,0-2-.89,6.47,6.47,0,0,1-2.7-1.27,2.63,2.63,0,0,1-1-2.1,2.78,2.78,0,0,1,1.05-2.22,4,4,0,0,1,2.72-.89,4,4,0,0,1,2.86,1,3.09,3.09,0,0,1,1,2.37l0,.05H6.49a2.11,2.11,0,0,0-.68-1.6,2.44,2.44,0,0,0-1.73-.63,2.35,2.35,0,0,0-1.65.52,1.73,1.73,0,0,0-.58,1.36,1.53,1.53,0,0,0,.63,1.24,5.83,5.83,0,0,0,2,.87A5.81,5.81,0,0,1,7.14,89,2.85,2.85,0,0,1,8,91.11,2.64,2.64,0,0,1,7,93.32a4.49,4.49,0,0,1-2.83.84,4.83,4.83,0,0,1-2.91-.92A2.81,2.81,0,0,1,0,90.77l0,0H1.49a1.89,1.89,0,0,0,.81,1.65A3.05,3.05,0,0,0,4.13,93a2.74,2.74,0,0,0,1.73-.5A1.57,1.57,0,0,0,6.5,91.13Z"/><path class="cls-1" d="M17.21,90.09a4.68,4.68,0,0,1-.87,3,2.9,2.9,0,0,1-2.42,1.12,3.42,3.42,0,0,1-1.37-.26,2.64,2.64,0,0,1-1-.79v4.13H10V85.54h1.18l.24,1.1a2.77,2.77,0,0,1,1-.93,3,3,0,0,1,1.44-.32,2.8,2.8,0,0,1,2.44,1.24,5.64,5.64,0,0,1,.87,3.29Zm-1.54-.17a4.55,4.55,0,0,0-.56-2.36,1.84,1.84,0,0,0-1.67-.92,2,2,0,0,0-1.13.3,2.15,2.15,0,0,0-.76.82v4.09A2.07,2.07,0,0,0,13.45,93a1.9,1.9,0,0,0,1.66-.8,3.51,3.51,0,0,0,.56-2.07Z"/><path class="cls-1" d="M22.6,94.16A3.57,3.57,0,0,1,19.76,93a4.45,4.45,0,0,1-1-3.06v-.34a4.38,4.38,0,0,1,1.05-3,3.28,3.28,0,0,1,2.57-1.19,3.06,3.06,0,0,1,2.54,1,4.31,4.31,0,0,1,.85,2.8v.82h-5.4l0,0a3.51,3.51,0,0,0,.56,2.06,2,2,0,0,0,1.72.8A3.82,3.82,0,0,0,24,92.73a3.15,3.15,0,0,0,1-.61l.6,1a3.78,3.78,0,0,1-1.2.74A4.75,4.75,0,0,1,22.6,94.16Zm-.24-7.56a1.64,1.64,0,0,0-1.33.62,2.94,2.94,0,0,0-.65,1.59l0,0h3.81v-.13a2.47,2.47,0,0,0-.45-1.52A1.64,1.64,0,0,0,22.36,86.6Z"/><path class="cls-1" d="M30.84,93a1.81,1.81,0,0,0,1.24-.48,1.5,1.5,0,0,0,.53-1.16H34l0,.05a2.43,2.43,0,0,1-.93,1.94,3.58,3.58,0,0,1-5-.36,4.66,4.66,0,0,1-1-3V89.6a4.64,4.64,0,0,1,1-3,3.31,3.31,0,0,1,2.75-1.21,3.19,3.19,0,0,1,2.31.87A2.75,2.75,0,0,1,34,88.41v0h-1.4a1.89,1.89,0,0,0-.5-1.32,1.67,1.67,0,0,0-1.27-.54,1.78,1.78,0,0,0-1.66.88,4.13,4.13,0,0,0-.51,2.12v.33a4.2,4.2,0,0,0,.51,2.15A1.78,1.78,0,0,0,30.84,93Z"/><path class="cls-1" d="M37.52,83.38H36V81.81h1.54Zm0,10.61H36V85.54h1.54Z"/><path class="cls-1" d="M45.08,94c0-.25-.09-.48-.12-.67a3.92,3.92,0,0,1-.05-.59,3.55,3.55,0,0,1-1.12,1,2.91,2.91,0,0,1-1.49.41,2.76,2.76,0,0,1-2-.68,2.48,2.48,0,0,1-.69-1.86,2.15,2.15,0,0,1,1-1.89A4.52,4.52,0,0,1,43.24,89h1.67v-.83A1.53,1.53,0,0,0,44.45,87a1.77,1.77,0,0,0-1.28-.43A1.86,1.86,0,0,0,42,87a1.12,1.12,0,0,0-.46.9l-1.46,0,0,0a2,2,0,0,1,.87-1.69,3.57,3.57,0,0,1,2.37-.76,3.46,3.46,0,0,1,2.31.73,2.59,2.59,0,0,1,.88,2.1v4.07a8.38,8.38,0,0,0,0,.88,3.88,3.88,0,0,0,.18.82Zm-2.56-1.12A2.72,2.72,0,0,0,44,92.44a2.08,2.08,0,0,0,.88-1V90.08H43.18a2.25,2.25,0,0,0-1.49.47,1.41,1.41,0,0,0-.56,1.1,1.14,1.14,0,0,0,.36.89A1.45,1.45,0,0,0,42.52,92.87Z"/><path class="cls-1" d="M50.35,94H48.81V81.81h1.54Z"/><path class="cls-1" d="M54.85,83.5v2h1.6v1.14h-1.6v5.14a1.11,1.11,0,0,0,.25.83.88.88,0,0,0,.65.24l.3,0,.27-.08.21,1.06a1.35,1.35,0,0,1-.51.23,2.5,2.5,0,0,1-.66.09,2,2,0,0,1-1.49-.57,2.44,2.44,0,0,1-.56-1.77V86.68H52V85.54h1.34v-2Z"/><path class="cls-1" d="M59.77,83.38H58.23V81.81h1.54Zm0,10.61H58.23V85.54h1.54Z"/><path class="cls-1" d="M65.63,94.16A3.57,3.57,0,0,1,62.79,93a4.45,4.45,0,0,1-1-3.06v-.34a4.34,4.34,0,0,1,1.06-3,3.25,3.25,0,0,1,2.56-1.19,3.06,3.06,0,0,1,2.54,1,4.31,4.31,0,0,1,.85,2.8v.82h-5.4l0,0a3.44,3.44,0,0,0,.57,2.06,2,2,0,0,0,1.71.8A3.91,3.91,0,0,0,67,92.73a3.1,3.1,0,0,0,1-.61l.6,1a3.67,3.67,0,0,1-1.2.74A4.75,4.75,0,0,1,65.63,94.16Zm-.24-7.56a1.64,1.64,0,0,0-1.33.62,2.86,2.86,0,0,0-.64,1.59v0h3.81v-.13a2.47,2.47,0,0,0-.45-1.52A1.64,1.64,0,0,0,65.39,86.6Z"/><path class="cls-1" d="M75.42,91.72a1.05,1.05,0,0,0-.38-.83,3.81,3.81,0,0,0-1.47-.56,6,6,0,0,1-2.29-.9,1.79,1.79,0,0,1-.8-1.54,2.22,2.22,0,0,1,.88-1.77,3.88,3.88,0,0,1,4.6,0A2.2,2.2,0,0,1,76.81,88v0H75.33a1.34,1.34,0,0,0-.48-1,1.71,1.71,0,0,0-1.22-.44,1.77,1.77,0,0,0-1.21.36,1.15,1.15,0,0,0-.4.88.92.92,0,0,0,.34.77,3.93,3.93,0,0,0,1.44.5,6.16,6.16,0,0,1,2.36.93,1.89,1.89,0,0,1,.8,1.57,2.23,2.23,0,0,1-.91,1.84,3.79,3.79,0,0,1-2.38.71,3.7,3.7,0,0,1-2.54-.82,2.37,2.37,0,0,1-.89-1.92l0,0h1.47a1.42,1.42,0,0,0,.61,1.2,2.36,2.36,0,0,0,1.33.38A2.13,2.13,0,0,0,75,92.61,1.06,1.06,0,0,0,75.42,91.72Z"/><path class="cls-1" d="M63.29,41.1V30.94C64,27,61.65,20.05,57.19,13.11a43.39,43.39,0,0,0-9-10.41C44.92.16,42.17-.62,40.42.5A3.39,3.39,0,0,0,39.16,2h0L39,2.55c-1.13,3.73,1.26,11.14,6,18.44.62,1,1.26,1.9,1.92,2.8-.57-.05-1.15-.1-1.75-.13-1.54-.1-3.14-.15-4.75-.15-11.11,0-22.93,2.53-22.93,7.22V50.59c0,4.47,11.82,6.88,22.93,6.88s22.94-2.41,22.94-6.88v-8H61.83v4.24a.41.41,0,0,1,0,.11v0a1.51,1.51,0,0,1-.15.47,3.57,3.57,0,0,1-1.15,1.21l-.19.14-.06,0a15.13,15.13,0,0,1-3.58,1.62l-.11,0a55.92,55.92,0,0,1-16.23,2.1A69.61,69.61,0,0,1,32,52.13V45.87H30.52v6.07a43.38,43.38,0,0,1-5.66-1.2c-3.74-1.09-6-2.55-6-3.89V33.41c3.49,3,12.7,4.55,21.47,4.55a57.8,57.8,0,0,0,16.57-2.14l.11,0a17.78,17.78,0,0,0,3.85-1.7l.2-.13.23-.16a2.82,2.82,0,0,0,.38-.21l.14-.09v2.91a5.49,5.49,0,0,1-.62.52l-.2.14-.06,0a13.17,13.17,0,0,1-2.2,1.12c-.43.17-.89.33-1.37.49l-.11,0A56.32,56.32,0,0,1,41,40.86a67.55,67.55,0,0,1-9.68-.66l-.84-.12v3.65H32v-2a70.86,70.86,0,0,0,9.06.56,57.9,57.9,0,0,0,16.57-2.14l.11,0c.56-.18,1.09-.37,1.58-.57a14.54,14.54,0,0,0,2.27-1.13l.19-.13.07,0V41.1Zm-22.94,13a57.83,57.83,0,0,0,16.57-2.13l.11,0a16.86,16.86,0,0,0,3.85-1.7l.2-.12.29-.21a4.27,4.27,0,0,0,.46-.35v1.07c0,1-1.57,2.43-6,3.65A61,61,0,0,1,40.35,56a60.94,60.94,0,0,1-15.5-1.77c-4.4-1.22-6-2.69-6-3.65V49.52C22.37,52.5,31.58,54.07,40.35,54.07ZM56,13.9c4.23,6.58,6.6,13.34,5.88,16.83h0v.12a3,3,0,0,1-.14.45,16,16,0,0,0-.44-3.45A42.61,42.61,0,0,0,55.45,15C50.57,7.45,44.79,2.32,40.94,1.94a1.39,1.39,0,0,1,.27-.21C43.52.24,50.15,4.87,56,13.9ZM40.26,3.39c2.77-.28,8.66,4.19,14,12.43a41,41,0,0,1,5.59,12.36,11.15,11.15,0,0,1,.3,4.45c-2.45.27-6.91-3.08-11.09-8.4-1-1.26-2-2.61-2.87-4C41.93,13.62,39.56,6.84,40.26,3.39ZM54.87,32.08l.33.23a57.15,57.15,0,0,1-14.58,1.57,64.68,64.68,0,0,1-12.85-1.14C23.84,31.9,23,30.94,23,30.67s.88-1.24,4.81-2.08a64.68,64.68,0,0,1,12.85-1.14,74.83,74.83,0,0,1,9.75.61A28.72,28.72,0,0,0,54.87,32.08Zm1.82,2.28-.11,0a56.27,56.27,0,0,1-16.23,2.1,57.51,57.51,0,0,1-15.49-1.88c-3.74-1.09-6-2.55-6-3.89s2.24-2.79,6-3.89A57.54,57.54,0,0,1,40.35,25c1.58,0,3.15.05,4.66.14,1.06.07,2.08.16,3.05.27l.85,1A77.36,77.36,0,0,0,40.62,26C34,26,21.5,27,21.5,30.67S34,35.34,40.62,35.34s12.91-.78,16.26-2.05a9.13,9.13,0,0,0,1.3.53C57.72,34,57.23,34.19,56.69,34.36Z"/></g></g></svg>