<svg xmlns="http://www.w3.org/2000/svg" viewBox="0 0 103.2 93"><defs><style>.cls-1{fill:#0097d6;}</style></defs><title>cheesemanufacturing</title><g id="Layer_2" data-name="Layer 2"><g id="Layer_1-2" data-name="Layer 1"><path class="cls-1" d="M32.58,66.74l0,.05a3.43,3.43,0,0,1-1.13,2.68,4.29,4.29,0,0,1-3,1.08,4,4,0,0,1-3.15-1.37,5,5,0,0,1-1.21-3.47v-2a5.07,5.07,0,0,1,1.21-3.48,4,4,0,0,1,3.15-1.37,4.4,4.4,0,0,1,3.07,1,3.4,3.4,0,0,1,1.11,2.72l0,0H31.11a2.53,2.53,0,0,0-.71-1.89,2.72,2.72,0,0,0-2-.7,2.44,2.44,0,0,0-2.06,1,4.24,4.24,0,0,0-.76,2.58v2a4.23,4.23,0,0,0,.76,2.59,2.41,2.41,0,0,0,2.06,1,2.71,2.71,0,0,0,2-.69,2.56,2.56,0,0,0,.71-1.91Z"/><path class="cls-1" d="M35.93,63.06a3.13,3.13,0,0,1,1.07-1,3,3,0,0,1,1.41-.34,2.76,2.76,0,0,1,2.11.81,3.61,3.61,0,0,1,.75,2.5v5.3H39.73V65.07a2.28,2.28,0,0,0-.45-1.55,1.71,1.71,0,0,0-1.34-.5,2.46,2.46,0,0,0-1.19.27,2.07,2.07,0,0,0-.82.76v6.33H34.39V58.19h1.54Z"/><path class="cls-1" d="M47,70.55a3.57,3.57,0,0,1-2.84-1.17,4.47,4.47,0,0,1-1-3.06V66a4.41,4.41,0,0,1,1.05-3,3.31,3.31,0,0,1,2.57-1.19,3,3,0,0,1,2.54,1.06,4.31,4.31,0,0,1,.85,2.8v.81H44.72l0,0a3.54,3.54,0,0,0,.56,2.07,2,2,0,0,0,1.72.79,3.82,3.82,0,0,0,1.37-.22,3.1,3.1,0,0,0,1-.61l.6,1a3.71,3.71,0,0,1-1.19.73A4.78,4.78,0,0,1,47,70.55ZM46.74,63a1.67,1.67,0,0,0-1.33.62,2.93,2.93,0,0,0-.65,1.59l0,0h3.81v-.12a2.5,2.5,0,0,0-.45-1.53A1.65,1.65,0,0,0,46.74,63Z"/><path class="cls-1" d="M55.36,70.55a3.56,3.56,0,0,1-2.84-1.17,4.47,4.47,0,0,1-1-3.06V66a4.41,4.41,0,0,1,1-3,3.29,3.29,0,0,1,2.56-1.19,3.07,3.07,0,0,1,2.55,1.06,4.37,4.37,0,0,1,.84,2.8v.81H53.1l0,0a3.47,3.47,0,0,0,.57,2.07,2,2,0,0,0,1.72.79,3.86,3.86,0,0,0,1.37-.22,3.1,3.1,0,0,0,1-.61l.6,1a3.65,3.65,0,0,1-1.2.73A4.73,4.73,0,0,1,55.36,70.55ZM55.11,63a1.69,1.69,0,0,0-1.33.62,2.92,2.92,0,0,0-.64,1.59v0H57v-.12a2.5,2.5,0,0,0-.45-1.53A1.64,1.64,0,0,0,55.11,63Z"/><path class="cls-1" d="M65.14,68.11a1,1,0,0,0-.38-.83,3.81,3.81,0,0,0-1.47-.56,6.34,6.34,0,0,1-2.29-.9,1.83,1.83,0,0,1-.8-1.55,2.21,2.21,0,0,1,.88-1.76,3.86,3.86,0,0,1,4.6,0,2.25,2.25,0,0,1,.86,1.82l0,0H65.05a1.34,1.34,0,0,0-.48-1A1.71,1.71,0,0,0,63.36,63a1.78,1.78,0,0,0-1.22.37,1.15,1.15,0,0,0-.4.88.9.9,0,0,0,.35.77,3.79,3.79,0,0,0,1.43.5,6.1,6.1,0,0,1,2.36.93,1.85,1.85,0,0,1,.8,1.57,2.2,2.2,0,0,1-.91,1.83,4.32,4.32,0,0,1-4.92-.1A2.37,2.37,0,0,1,60,67.81l0,0h1.47a1.4,1.4,0,0,0,.61,1.2,2.28,2.28,0,0,0,1.33.38A2.06,2.06,0,0,0,64.68,69,1,1,0,0,0,65.14,68.11Z"/><path class="cls-1" d="M72.1,70.55a3.56,3.56,0,0,1-2.84-1.17,4.47,4.47,0,0,1-1-3.06V66a4.41,4.41,0,0,1,1.05-3,3.3,3.3,0,0,1,2.57-1.19,3.05,3.05,0,0,1,2.54,1.06,4.37,4.37,0,0,1,.85,2.8v.81H69.84l0,0a3.47,3.47,0,0,0,.56,2.07,2,2,0,0,0,1.72.79,3.82,3.82,0,0,0,1.37-.22,3.1,3.1,0,0,0,1-.61l.6,1a3.71,3.71,0,0,1-1.19.73A4.82,4.82,0,0,1,72.1,70.55ZM71.86,63a1.71,1.71,0,0,0-1.34.62,3,3,0,0,0-.64,1.59v0h3.82v-.12a2.44,2.44,0,0,0-.46-1.53A1.62,1.62,0,0,0,71.86,63Z"/><path class="cls-1" d="M5.64,87.45h.05l3.63-9.24h1.91V89.58H9.7V81.06h0L6.2,89.58H5.13L1.59,80.77H1.54v8.8H0V78.21H2Z"/><path class="cls-1" d="M18.88,89.58c-.05-.25-.09-.48-.12-.67s0-.4-.05-.59a3.8,3.8,0,0,1-1.12,1,2.91,2.91,0,0,1-1.49.41,2.76,2.76,0,0,1-2-.68,2.48,2.48,0,0,1-.69-1.86,2.18,2.18,0,0,1,1-1.9A4.61,4.61,0,0,1,17,84.63h1.67v-.84a1.55,1.55,0,0,0-.45-1.17A1.77,1.77,0,0,0,17,82.18a1.84,1.84,0,0,0-1.21.38,1.13,1.13,0,0,0-.47.9H13.84v0a2,2,0,0,1,.86-1.69A3.57,3.57,0,0,1,17.06,81a3.56,3.56,0,0,1,2.32.73,2.6,2.6,0,0,1,.87,2.11v4.07a8.14,8.14,0,0,0,.05.87,4,4,0,0,0,.17.83Zm-2.55-1.12A2.82,2.82,0,0,0,17.84,88a2.07,2.07,0,0,0,.87-1V85.67H17a2.17,2.17,0,0,0-1.48.47,1.38,1.38,0,0,0-.56,1.1,1.15,1.15,0,0,0,.35.89A1.46,1.46,0,0,0,16.33,88.46Z"/><path class="cls-1" d="M23.86,81.13,24,82.39a3,3,0,0,1,1.06-1A2.87,2.87,0,0,1,26.48,81a2.76,2.76,0,0,1,2.11.8,3.54,3.54,0,0,1,.75,2.48v5.33H27.8v-5.3a2.26,2.26,0,0,0-.44-1.59A1.76,1.76,0,0,0,26,82.22a2.38,2.38,0,0,0-1.21.29,2.09,2.09,0,0,0-.79.8v6.27H22.48V81.13Z"/><path class="cls-1" d="M37,88.33a3,3,0,0,1-1,1,2.86,2.86,0,0,1-1.44.37,2.72,2.72,0,0,1-2.16-.89,4.07,4.07,0,0,1-.77-2.75v-5h1.54v5A3.21,3.21,0,0,0,33.48,88a1.49,1.49,0,0,0,1.25.51,2.46,2.46,0,0,0,1.35-.34,2,2,0,0,0,.81-.94V81.13h1.54v8.45H37.05Z"/><path class="cls-1" d="M41.31,89.58V82.27H40V81.13h1.32V80.06A2.91,2.91,0,0,1,42,78a2.61,2.61,0,0,1,2-.74,3.27,3.27,0,0,1,.54,0l.6.12-.19,1.18-.34-.06-.42,0a1.21,1.21,0,0,0-1,.4,1.81,1.81,0,0,0-.33,1.17v1.07h1.53v1.14H42.85v7.31Z"/><path class="cls-1" d="M51.13,89.58c-.05-.25-.09-.48-.12-.67s0-.4,0-.59a3.8,3.8,0,0,1-1.12,1,2.91,2.91,0,0,1-1.49.41,2.76,2.76,0,0,1-2-.68,2.48,2.48,0,0,1-.69-1.86,2.18,2.18,0,0,1,1-1.9,4.61,4.61,0,0,1,2.66-.68H51v-.84a1.55,1.55,0,0,0-.45-1.17,1.77,1.77,0,0,0-1.28-.44,1.84,1.84,0,0,0-1.21.38,1.13,1.13,0,0,0-.47.9H46.09v0a2,2,0,0,1,.86-1.69,4,4,0,0,1,4.69,0,2.6,2.6,0,0,1,.87,2.11v4.07a8.14,8.14,0,0,0,0,.87,4,4,0,0,0,.17.83Zm-2.55-1.12A2.82,2.82,0,0,0,50.09,88,2.07,2.07,0,0,0,51,87V85.67H49.23a2.17,2.17,0,0,0-1.48.47,1.38,1.38,0,0,0-.56,1.1,1.15,1.15,0,0,0,.35.89A1.46,1.46,0,0,0,48.58,88.46Z"/><path class="cls-1" d="M58.09,88.54a1.8,1.8,0,0,0,1.25-.47,1.5,1.5,0,0,0,.53-1.16h1.39l0,0a2.42,2.42,0,0,1-.94,1.94,3.57,3.57,0,0,1-5-.37,4.68,4.68,0,0,1-1-3v-.33a4.64,4.64,0,0,1,1-3A3.31,3.31,0,0,1,58.09,81a3.16,3.16,0,0,1,2.32.88A2.78,2.78,0,0,1,61.28,84v0h-1.4a1.84,1.84,0,0,0-.51-1.31,1.63,1.63,0,0,0-1.27-.55,1.79,1.79,0,0,0-1.65.88,4.1,4.1,0,0,0-.52,2.13v.33a4.22,4.22,0,0,0,.51,2.15A1.78,1.78,0,0,0,58.09,88.54Z"/><path class="cls-1" d="M65.25,79.09v2h1.6v1.14h-1.6V87.4a1.13,1.13,0,0,0,.25.84.88.88,0,0,0,.65.24,1.13,1.13,0,0,0,.3,0,1.5,1.5,0,0,0,.27-.07l.21,1.06a1.43,1.43,0,0,1-.51.23,2.5,2.5,0,0,1-.66.09,2,2,0,0,1-1.49-.57,2.47,2.47,0,0,1-.56-1.78V82.27H62.37V81.13h1.34v-2Z"/><path class="cls-1" d="M73.87,88.33a3,3,0,0,1-1,1,2.8,2.8,0,0,1-1.44.37,2.73,2.73,0,0,1-2.16-.89,4.12,4.12,0,0,1-.77-2.75v-5H70v5a3.12,3.12,0,0,0,.4,1.86,1.47,1.47,0,0,0,1.24.51A2.41,2.41,0,0,0,73,88.16a2,2,0,0,0,.81-.94V81.13h1.54v8.45H74Z"/><path class="cls-1" d="M81.59,82.49l-.79,0a1.78,1.78,0,0,0-1,.29,1.82,1.82,0,0,0-.65.81v6H77.59V81.13H79l.15,1.23a3,3,0,0,1,.88-1A2.14,2.14,0,0,1,81.22,81a1.84,1.84,0,0,1,.33,0l.25.06Z"/><path class="cls-1" d="M84.86,79H83.32V77.39h1.54Zm0,10.62H83.32V81.13h1.54Z"/><path class="cls-1" d="M88.6,81.13l.11,1.26a3,3,0,0,1,1.06-1A2.89,2.89,0,0,1,91.22,81a2.78,2.78,0,0,1,2.12.8,3.54,3.54,0,0,1,.75,2.48v5.33H92.55v-5.3a2.31,2.31,0,0,0-.44-1.59,1.8,1.8,0,0,0-1.35-.47,2.38,2.38,0,0,0-1.21.29,2,2,0,0,0-.78.8v6.27H87.23V81.13Z"/><path class="cls-1" d="M96.05,85.51a5.66,5.66,0,0,1,.87-3.29A2.8,2.8,0,0,1,99.35,81a3,3,0,0,1,1.42.33,2.82,2.82,0,0,1,1,.93l.19-1.1h1.22v8.5a3.21,3.21,0,0,1-.94,2.49,3.85,3.85,0,0,1-2.73.88,6,6,0,0,1-1.32-.17A5.16,5.16,0,0,1,97,92.37l.23-1.19a4.54,4.54,0,0,0,1.08.37,5.32,5.32,0,0,0,1.24.15,2.23,2.23,0,0,0,1.63-.51,2.12,2.12,0,0,0,.51-1.56v-1a2.64,2.64,0,0,1-1,.8,3.1,3.1,0,0,1-1.33.28,2.88,2.88,0,0,1-2.42-1.13,4.65,4.65,0,0,1-.87-2.94Zm1.54.17a3.57,3.57,0,0,0,.52,2,1.82,1.82,0,0,0,1.62.78,2,2,0,0,0,1.16-.32,2.36,2.36,0,0,0,.77-.9V83.39a2.26,2.26,0,0,0-.77-.85,2,2,0,0,0-1.15-.32,1.76,1.76,0,0,0-1.63.92,4.73,4.73,0,0,0-.52,2.37Z"/><path class="cls-1" d="M28.48,22a1,1,0,0,1-1-.75A1,1,0,0,1,28.23,20l46-12A1,1,0,0,1,74.74,10l-46,12A1.15,1.15,0,0,1,28.48,22Z"/><path class="cls-1" d="M28.48,48a1,1,0,0,1-.61-.21,1,1,0,0,1-.39-.79V37a1,1,0,0,1,1-1,3,3,0,1,0,0-6,1,1,0,0,1-1-1V21a1,1,0,0,1,.39-.79c.21-.17,21.06-16.3,26-20a1,1,0,0,1,.6-.2c18.3,0,20.86,8.37,21,8.73a.84.84,0,0,1,0,.27V35a1,1,0,0,1-.75,1l-46,12A1.15,1.15,0,0,1,28.48,48Zm1-10.1v7.8l44-11.47V9.17C73.13,8.31,70.07,2.09,54.82,2c-5,3.74-22.5,17.29-25.34,19.49V28.1a5,5,0,0,1,0,9.8Zm21-1.9a3,3,0,1,1,3-3A3,3,0,0,1,50.48,36Zm0-4a1,1,0,1,0,1,1A1,1,0,0,0,50.48,32Zm13,0a4,4,0,1,1,4-4A4,4,0,0,1,63.48,32Zm0-6a2,2,0,1,0,2,2A2,2,0,0,0,63.48,26Zm-23,6a5,5,0,1,1,5-5A5,5,0,0,1,40.48,32Zm0-8a3,3,0,1,0,3,3A3,3,0,0,0,40.48,24Zm14,0a3,3,0,1,1,3-3A3,3,0,0,1,54.48,24Zm0-4a1,1,0,1,0,1,1A1,1,0,0,0,54.48,20Z"/></g></g></svg>