<svg xmlns="http://www.w3.org/2000/svg" viewBox="0 0 85.06 102.17"><defs><style>.cls-1{fill:#0097d6;}</style></defs><title>chocolate_cocoa</title><g id="Layer_2" data-name="Layer 2"><g id="Layer_1-2" data-name="Layer 1"><path class="cls-1" d="M8.52,79.17l0,0a3.43,3.43,0,0,1-1.13,2.68,4.27,4.27,0,0,1-3,1.08A4,4,0,0,1,1.21,81.6,5,5,0,0,1,0,78.13v-2a5,5,0,0,1,1.21-3.47,4,4,0,0,1,3.15-1.37,4.45,4.45,0,0,1,3.07,1A3.42,3.42,0,0,1,8.54,75l0,0H7.05a2.56,2.56,0,0,0-.71-1.89,2.7,2.7,0,0,0-2-.69,2.41,2.41,0,0,0-2.06,1,4.21,4.21,0,0,0-.76,2.57v2a4.26,4.26,0,0,0,.76,2.6,2.44,2.44,0,0,0,2.06,1,2.7,2.7,0,0,0,2-.69,2.57,2.57,0,0,0,.71-1.91Z"/><path class="cls-1" d="M11.87,75.49a3,3,0,0,1,1.07-.95,2.94,2.94,0,0,1,1.41-.34,2.76,2.76,0,0,1,2.11.81,3.58,3.58,0,0,1,.75,2.5v5.3H15.67V77.49A2.25,2.25,0,0,0,15.22,76a1.68,1.68,0,0,0-1.34-.5,2.49,2.49,0,0,0-1.19.27,2.12,2.12,0,0,0-.82.75v6.34H10.33V70.62h1.54Z"/><path class="cls-1" d="M19.06,78.5a4.64,4.64,0,0,1,1-3.09,3.39,3.39,0,0,1,2.76-1.21,3.42,3.42,0,0,1,2.77,1.21,4.62,4.62,0,0,1,1,3.09v.17a4.7,4.7,0,0,1-1,3.1A3.44,3.44,0,0,1,22.85,83a3.42,3.42,0,0,1-2.77-1.21,4.61,4.61,0,0,1-1-3.09Zm1.54.17a4,4,0,0,0,.57,2.22,2,2,0,0,0,3.35,0,4,4,0,0,0,.57-2.22V78.5a4,4,0,0,0-.57-2.21,1.88,1.88,0,0,0-1.68-.88,1.84,1.84,0,0,0-1.67.88,4,4,0,0,0-.57,2.21Z"/><path class="cls-1" d="M31.88,81.77a1.81,1.81,0,0,0,1.24-.48,1.5,1.5,0,0,0,.53-1.16H35l0,.05a2.43,2.43,0,0,1-.93,1.94,3.58,3.58,0,0,1-5-.36,4.66,4.66,0,0,1-1-3v-.32a4.65,4.65,0,0,1,1-3,3.31,3.31,0,0,1,2.75-1.21,3.19,3.19,0,0,1,2.31.87,2.79,2.79,0,0,1,.87,2.15v0h-1.4A1.85,1.85,0,0,0,33.14,76a1.65,1.65,0,0,0-1.26-.54,1.78,1.78,0,0,0-1.66.88,4.15,4.15,0,0,0-.52,2.13v.32a4.2,4.2,0,0,0,.51,2.15A1.78,1.78,0,0,0,31.88,81.77Z"/><path class="cls-1" d="M36.53,78.5a4.64,4.64,0,0,1,1-3.09A3.38,3.38,0,0,1,40.3,74.2a3.43,3.43,0,0,1,2.78,1.21,4.62,4.62,0,0,1,1,3.09v.17a4.7,4.7,0,0,1-1,3.1,3.79,3.79,0,0,1-5.54,0,4.61,4.61,0,0,1-1-3.09Zm1.54.17a4,4,0,0,0,.57,2.22,2,2,0,0,0,3.35,0,4,4,0,0,0,.57-2.22V78.5A4,4,0,0,0,42,76.29a1.88,1.88,0,0,0-1.69-.88,1.83,1.83,0,0,0-1.66.88,4,4,0,0,0-.57,2.21Z"/><path class="cls-1" d="M47.65,82.81H46.11V70.62h1.54Z"/><path class="cls-1" d="M55.21,82.81c-.05-.26-.09-.48-.12-.68a3.92,3.92,0,0,1-.05-.59,3.55,3.55,0,0,1-1.12,1,2.91,2.91,0,0,1-1.49.41,2.72,2.72,0,0,1-2-.68,2.48,2.48,0,0,1-.69-1.86,2.15,2.15,0,0,1,1-1.89,4.54,4.54,0,0,1,2.66-.69H55V77a1.56,1.56,0,0,0-.45-1.18,1.8,1.8,0,0,0-1.29-.43,1.86,1.86,0,0,0-1.21.37,1.15,1.15,0,0,0-.46.9l-1.46,0v0A2,2,0,0,1,51,75a3.57,3.57,0,0,1,2.37-.76,3.46,3.46,0,0,1,2.31.73,2.56,2.56,0,0,1,.88,2.1V81.1a6.22,6.22,0,0,0,.05.88,4,4,0,0,0,.17.83Zm-2.55-1.13a2.71,2.71,0,0,0,1.5-.43,2.08,2.08,0,0,0,.88-1V78.89H53.31a2.27,2.27,0,0,0-1.49.47,1.4,1.4,0,0,0-.55,1.1,1.13,1.13,0,0,0,.35.89A1.46,1.46,0,0,0,52.66,81.68Z"/><path class="cls-1" d="M61,72.31v2h1.6v1.14H61v5.14a1.16,1.16,0,0,0,.25.83.88.88,0,0,0,.65.24l.3,0a1.25,1.25,0,0,0,.27-.08l.21,1.06a1.37,1.37,0,0,1-.5.23,2.63,2.63,0,0,1-.67.09A2,2,0,0,1,60,82.4a2.44,2.44,0,0,1-.56-1.77V75.49H58.07V74.35h1.34v-2Z"/><path class="cls-1" d="M67.7,83a3.6,3.6,0,0,1-2.84-1.16,4.5,4.5,0,0,1-1-3.07V78.4a4.38,4.38,0,0,1,1-3,3.28,3.28,0,0,1,2.57-1.19,3.06,3.06,0,0,1,2.54,1,4.32,4.32,0,0,1,.85,2.81v.81h-5.4l0,0A3.49,3.49,0,0,0,66,81a2,2,0,0,0,1.72.8,3.82,3.82,0,0,0,1.37-.23,3,3,0,0,0,1-.61l.6,1a3.78,3.78,0,0,1-1.2.74A4.75,4.75,0,0,1,67.7,83Zm-.24-7.56a1.64,1.64,0,0,0-1.33.62,2.94,2.94,0,0,0-.65,1.59l0,0h3.81v-.13A2.47,2.47,0,0,0,68.86,76,1.64,1.64,0,0,0,67.46,75.41Z"/><path class="cls-1" d="M75.94,79.74a2.61,2.61,0,0,1,.55-1.66,6.67,6.67,0,0,1,1.64-1.44,7.42,7.42,0,0,1-.9-1.38,2.76,2.76,0,0,1-.3-1.24,2.66,2.66,0,0,1,.76-2,2.94,2.94,0,0,1,2.1-.71,2.84,2.84,0,0,1,2,.71,2.24,2.24,0,0,1,.77,1.71A2.18,2.18,0,0,1,82.16,75,5.4,5.4,0,0,1,81,76.16l-.86.62L82.75,80a4.58,4.58,0,0,0,.68-2.43H84.8a5.78,5.78,0,0,1-.3,1.9A4.94,4.94,0,0,1,83.62,81l1.44,1.75v0H83.26l-.67-.8a4.63,4.63,0,0,1-1.38.71,4.87,4.87,0,0,1-1.57.25,3.9,3.9,0,0,1-2.7-.9A3,3,0,0,1,75.94,79.74Zm3.7,2a3.55,3.55,0,0,0,1.11-.19,4,4,0,0,0,1-.56L79,77.63l-.31.22a3,3,0,0,0-.94,1,2,2,0,0,0-.23.87A2,2,0,0,0,78,81.2,2.15,2.15,0,0,0,79.64,81.77ZM78.47,74a2,2,0,0,0,.21.86,5,5,0,0,0,.63,1l1.08-.74a1.6,1.6,0,0,0,.61-.64,1.93,1.93,0,0,0,.16-.77,1.17,1.17,0,0,0-.38-.85,1.39,1.39,0,0,0-1-.36,1.19,1.19,0,0,0-1,.44A1.68,1.68,0,0,0,78.47,74Z"/><path class="cls-1" d="M28.94,98.37l0,0a3.43,3.43,0,0,1-1.13,2.68,4.29,4.29,0,0,1-3,1.08,4,4,0,0,1-3.15-1.37,5,5,0,0,1-1.21-3.47v-2a5,5,0,0,1,1.21-3.47,4,4,0,0,1,3.15-1.37,4.45,4.45,0,0,1,3.07,1A3.42,3.42,0,0,1,29,94.22l0,0H27.46a2.55,2.55,0,0,0-.7-1.89,2.71,2.71,0,0,0-2-.69,2.41,2.41,0,0,0-2.06,1A4.21,4.21,0,0,0,22,95.29v2a4.26,4.26,0,0,0,.76,2.6,2.44,2.44,0,0,0,2.06,1,2.71,2.71,0,0,0,2-.69,2.57,2.57,0,0,0,.7-1.91Z"/><path class="cls-1" d="M30.39,97.7a4.64,4.64,0,0,1,1-3.09,3.78,3.78,0,0,1,5.54,0,4.64,4.64,0,0,1,1,3.09v.17a4.63,4.63,0,0,1-1,3.1,3.77,3.77,0,0,1-5.53,0,4.61,4.61,0,0,1-1-3.09Zm1.54.17a4,4,0,0,0,.56,2.22,2,2,0,0,0,3.36,0,4,4,0,0,0,.57-2.22V97.7a3.93,3.93,0,0,0-.58-2.21,2,2,0,0,0-3.35,0,4,4,0,0,0-.56,2.21Z"/><path class="cls-1" d="M43.2,101a1.79,1.79,0,0,0,1.24-.48A1.5,1.5,0,0,0,45,99.33h1.39l0,0a2.44,2.44,0,0,1-.94,1.94,3.58,3.58,0,0,1-5-.36,4.66,4.66,0,0,1-1-3v-.32a4.65,4.65,0,0,1,1-3A3.33,3.33,0,0,1,43.2,93.4a3.23,3.23,0,0,1,2.32.87,2.79,2.79,0,0,1,.87,2.15l0,0H45a1.89,1.89,0,0,0-.5-1.32,1.67,1.67,0,0,0-1.27-.54,1.76,1.76,0,0,0-1.65.88A4.05,4.05,0,0,0,41,97.62v.32a4.2,4.2,0,0,0,.51,2.15A1.76,1.76,0,0,0,43.2,101Z"/><path class="cls-1" d="M47.86,97.7a4.64,4.64,0,0,1,1-3.09,3.78,3.78,0,0,1,5.54,0,4.64,4.64,0,0,1,1,3.09v.17a4.63,4.63,0,0,1-1,3.1,3.44,3.44,0,0,1-2.77,1.2A3.4,3.4,0,0,1,48.88,101a4.61,4.61,0,0,1-1-3.09Zm1.53.17a4,4,0,0,0,.57,2.22,2,2,0,0,0,3.36,0,4,4,0,0,0,.57-2.22V97.7a3.93,3.93,0,0,0-.58-2.21,2,2,0,0,0-3.35,0,4,4,0,0,0-.57,2.21Z"/><path class="cls-1" d="M62.5,102c0-.26-.09-.48-.12-.68a5.87,5.87,0,0,1-.05-.59,3.55,3.55,0,0,1-1.12,1,2.91,2.91,0,0,1-1.49.41,2.72,2.72,0,0,1-2-.68A2.48,2.48,0,0,1,57,99.63a2.17,2.17,0,0,1,1-1.89,4.54,4.54,0,0,1,2.66-.69h1.67v-.83A1.56,1.56,0,0,0,61.88,95a1.77,1.77,0,0,0-1.28-.43,1.84,1.84,0,0,0-1.21.37,1.12,1.12,0,0,0-.46.9l-1.47,0v-.05a2,2,0,0,1,.86-1.69,3.57,3.57,0,0,1,2.37-.76,3.5,3.5,0,0,1,2.32.73,2.58,2.58,0,0,1,.87,2.1v4.07a8.18,8.18,0,0,0,.05.88,4.7,4.7,0,0,0,.17.83ZM60,100.88a2.72,2.72,0,0,0,1.51-.43,2,2,0,0,0,.87-1V98.09H60.61a2.24,2.24,0,0,0-1.49.47,1.38,1.38,0,0,0-.56,1.1,1.17,1.17,0,0,0,.35.89A1.46,1.46,0,0,0,60,100.88Z"/><path class="cls-1" d="M21.75,41a.72.72,0,0,0-.2.09h0a.7.7,0,0,0-.26.37.32.32,0,0,0,0,.14s0,0,0,0v8.21a.68.68,0,0,0,.57.67L44,60.77a.68.68,0,0,0,.56,0L66.66,50.56a.68.68,0,0,0,.57-.67V41.68a.59.59,0,0,0,0-.23s0,0,0-.05a.76.76,0,0,0-.12-.19l0,0-.09-.08h0L66.73,41l-.07,0L44.51,30.81a.61.61,0,0,0-.56,0L21.76,41Zm44.13,8.39-21.65,10-21.65-10V42.74L44,52.59a.68.68,0,0,0,.56,0l21.37-9.85ZM44.23,32.17,64.91,41.7,44.23,51.23,23.55,41.7Z"/><path class="cls-1" d="M42.07,42a.71.71,0,0,0,.31-.58.69.69,0,0,0-.31-.57l-.18-.08L35,37.6a.68.68,0,0,0-.56,0l-6.95,3.2-.16.08a.68.68,0,0,0,0,1.14.71.71,0,0,0,.18.08l6.93,3.19a.59.59,0,0,0,.56,0l6.95-3.2Zm-7.39,1.91-5.4-2.48L34.68,39l5.4,2.49Z"/><path class="cls-1" d="M36.94,37.68l.18.08L44.05,41a.68.68,0,0,0,.56,0l7-3.2.16-.08a.68.68,0,0,0,0-1.14.71.71,0,0,0-.18-.08l-6.93-3.19a.61.61,0,0,0-.56,0l-6.95,3.2-.16.07a.71.71,0,0,0-.31.58A.69.69,0,0,0,36.94,37.68Zm7.39-3.06,5.4,2.48-5.4,2.49-5.4-2.49Z"/><path class="cls-1" d="M51.36,46.43l.16-.07a.71.71,0,0,0,.31-.58.69.69,0,0,0-.31-.57l-.18-.08-6.93-3.19a.68.68,0,0,0-.56,0l-7,3.2a.8.8,0,0,0-.16.08.68.68,0,0,0,0,1.14.71.71,0,0,0,.18.08l6.93,3.2a.68.68,0,0,0,.56,0Zm-12.63-.64,5.4-2.49,5.4,2.49-5.4,2.49Z"/><path class="cls-1" d="M46.32,40.88a.67.67,0,0,0,0,1.14.53.53,0,0,0,.17.08l6.93,3.19a.62.62,0,0,0,.57,0l6.95-3.2.15-.07a.71.71,0,0,0,.31-.58.69.69,0,0,0-.31-.57l-.18-.08L54,37.6a.71.71,0,0,0-.57,0l-7,3.2ZM53.7,39l5.4,2.49-5.4,2.48-5.39-2.48Z"/><path class="cls-1" d="M31.12,31.42a.68.68,0,1,0,1.35,0,5.37,5.37,0,0,1,1.32-3.62,7,7,0,0,0,0-8.81,5.37,5.37,0,0,1-1.32-3.62,5.37,5.37,0,0,1,1.32-3.62,6.75,6.75,0,0,0,1.57-4.4.68.68,0,1,0-1.35,0A5.34,5.34,0,0,1,32.69,11a6.75,6.75,0,0,0-1.57,4.41,6.75,6.75,0,0,0,1.57,4.41,5.61,5.61,0,0,1,0,7.23A6.75,6.75,0,0,0,31.12,31.42Z"/><path class="cls-1" d="M42.21,24.75a.68.68,0,1,0,1.35,0,5.37,5.37,0,0,1,1.32-3.62,6.7,6.7,0,0,0,1.57-4.41,6.75,6.75,0,0,0-1.57-4.41A5.34,5.34,0,0,1,43.56,8.7a5.37,5.37,0,0,1,1.32-3.62A6.69,6.69,0,0,0,46.45.68a.68.68,0,1,0-1.35,0,5.36,5.36,0,0,1-1.32,3.61A6.7,6.7,0,0,0,42.21,8.7a6.69,6.69,0,0,0,1.57,4.4,5.39,5.39,0,0,1,1.32,3.62,5.37,5.37,0,0,1-1.32,3.62A6.7,6.7,0,0,0,42.21,24.75Z"/><path class="cls-1" d="M53.26,31.42a.68.68,0,0,0,1.36,0,5.41,5.41,0,0,1,1.31-3.62,7,7,0,0,0,0-8.81,5.41,5.41,0,0,1-1.31-3.62,5.41,5.41,0,0,1,1.31-3.62,6.69,6.69,0,0,0,1.57-4.4.68.68,0,1,0-1.35,0A5.34,5.34,0,0,1,54.83,11a7,7,0,0,0,0,8.82,5.61,5.61,0,0,1,0,7.23A6.8,6.8,0,0,0,53.26,31.42Z"/></g></g></svg>