<svg xmlns="http://www.w3.org/2000/svg" viewBox="0 0 107.58 93.68"><defs><style>.cls-1{fill:#0097d6;}</style></defs><title>coffeeroastedmanufacturing</title><g id="Layer_2" data-name="Layer 2"><g id="Layer_1-2" data-name="Layer 1"><path class="cls-1" d="M8.52,67.42l0,0a3.43,3.43,0,0,1-1.13,2.68,4.27,4.27,0,0,1-3,1.08,4,4,0,0,1-3.15-1.37A5,5,0,0,1,0,66.39v-2A5,5,0,0,1,1.21,60.9a4,4,0,0,1,3.15-1.38,4.43,4.43,0,0,1,3.07,1,3.4,3.4,0,0,1,1.11,2.72l0,0H7.05a2.53,2.53,0,0,0-.71-1.89,2.7,2.7,0,0,0-2-.69,2.43,2.43,0,0,0-2.06,1,4.26,4.26,0,0,0-.76,2.58v2A4.28,4.28,0,0,0,2.3,69a2.43,2.43,0,0,0,2.06,1,2.7,2.7,0,0,0,2-.69,2.54,2.54,0,0,0,.71-1.91Z"/><path class="cls-1" d="M10,66.76a4.69,4.69,0,0,1,1-3.09,3.42,3.42,0,0,1,2.76-1.22,3.45,3.45,0,0,1,2.78,1.22,4.61,4.61,0,0,1,1,3.09v.17a4.61,4.61,0,0,1-1,3.09,3.4,3.4,0,0,1-2.76,1.21A3.42,3.42,0,0,1,11,70a4.61,4.61,0,0,1-1-3.09Zm1.54.17a4.06,4.06,0,0,0,.56,2.22,1.89,1.89,0,0,0,1.69.87,1.87,1.87,0,0,0,1.67-.87A4,4,0,0,0,16,66.93v-.17a4,4,0,0,0-.57-2.21,1.89,1.89,0,0,0-1.69-.88,1.86,1.86,0,0,0-1.67.88,4.07,4.07,0,0,0-.56,2.21Z"/><path class="cls-1" d="M20.06,71.06V63.75H18.74V62.61h1.32V61.54a2.91,2.91,0,0,1,.71-2.09,2.61,2.61,0,0,1,2-.74,3.29,3.29,0,0,1,.54,0,4,4,0,0,1,.6.12l-.19,1.17L23.35,60l-.42,0a1.21,1.21,0,0,0-1,.4,1.81,1.81,0,0,0-.33,1.17v1.07h1.53v1.14H21.6v7.31Z"/><path class="cls-1" d="M25.33,71.06V63.75H24V62.61h1.32V61.54A2.86,2.86,0,0,1,26,59.45a2.59,2.59,0,0,1,2-.74,3.27,3.27,0,0,1,.53,0,4,4,0,0,1,.6.12L29,60.05,28.61,60l-.41,0a1.19,1.19,0,0,0-1,.4,1.81,1.81,0,0,0-.33,1.17v1.07H28.4v1.14H26.87v7.31Z"/><path class="cls-1" d="M33.27,71.23a3.56,3.56,0,0,1-2.84-1.17,4.45,4.45,0,0,1-1-3.06v-.34a4.36,4.36,0,0,1,1.05-3A3.27,3.27,0,0,1,33,62.45a3.1,3.1,0,0,1,2.55,1.06,4.37,4.37,0,0,1,.84,2.8v.82H31l0,0a3.46,3.46,0,0,0,.57,2.06,2,2,0,0,0,1.72.79,3.86,3.86,0,0,0,1.37-.22,3.1,3.1,0,0,0,1-.61l.6,1a3.67,3.67,0,0,1-1.2.74A4.73,4.73,0,0,1,33.27,71.23ZM33,63.67a1.66,1.66,0,0,0-1.33.62,2.94,2.94,0,0,0-.64,1.59v0h3.82v-.13a2.47,2.47,0,0,0-.46-1.52A1.64,1.64,0,0,0,33,63.67Z"/><path class="cls-1" d="M41.64,71.23a3.57,3.57,0,0,1-2.84-1.17,4.45,4.45,0,0,1-1-3.06v-.34a4.36,4.36,0,0,1,1-3,3.29,3.29,0,0,1,2.57-1.2,3.07,3.07,0,0,1,2.54,1.06,4.31,4.31,0,0,1,.85,2.8v.82H39.38l0,0a3.53,3.53,0,0,0,.56,2.06,2,2,0,0,0,1.72.79A3.82,3.82,0,0,0,43,69.8a3.1,3.1,0,0,0,1-.61l.61,1a3.89,3.89,0,0,1-1.2.74A4.79,4.79,0,0,1,41.64,71.23Zm-.24-7.56a1.64,1.64,0,0,0-1.33.62,2.87,2.87,0,0,0-.65,1.59l0,0h3.81v-.13a2.47,2.47,0,0,0-.45-1.52A1.65,1.65,0,0,0,41.4,63.67Z"/><path class="cls-1" d="M52.24,66.13v4.93H50.7V59.7h3.89a4.35,4.35,0,0,1,2.86.82,3,3,0,0,1,1,2.41A2.53,2.53,0,0,1,58,64.45a3.08,3.08,0,0,1-1.33,1,2.34,2.34,0,0,1,1.35,1,3.29,3.29,0,0,1,.41,1.7v1.07a3.48,3.48,0,0,0,.12,1,1.41,1.41,0,0,0,.4.69v.18H57.34a1.17,1.17,0,0,1-.39-.78,6.06,6.06,0,0,1-.09-1.06v-1a2,2,0,0,0-.54-1.48,1.89,1.89,0,0,0-1.44-.57Zm0-1.21h2.2a2.88,2.88,0,0,0,1.88-.49,1.9,1.9,0,0,0,.57-1.51,2,2,0,0,0-.56-1.49,2.46,2.46,0,0,0-1.74-.53H52.24Z"/><path class="cls-1" d="M60.31,66.76a4.64,4.64,0,0,1,1-3.09,3.74,3.74,0,0,1,5.53,0,4.61,4.61,0,0,1,1,3.09v.17a4.65,4.65,0,0,1-1,3.09,3.78,3.78,0,0,1-5.54,0,4.61,4.61,0,0,1-1-3.09Zm1.54.17a4,4,0,0,0,.57,2.22,2,2,0,0,0,3.35,0,4,4,0,0,0,.57-2.22v-.17a4,4,0,0,0-.57-2.21,1.87,1.87,0,0,0-1.68-.88,1.84,1.84,0,0,0-1.67.88,4,4,0,0,0-.57,2.21Z"/><path class="cls-1" d="M75,71.06c0-.25-.09-.48-.12-.67a3.92,3.92,0,0,1,0-.59,3.8,3.8,0,0,1-1.12,1,2.91,2.91,0,0,1-1.49.41,2.76,2.76,0,0,1-2-.68,2.48,2.48,0,0,1-.69-1.86,2.18,2.18,0,0,1,1-1.9,4.61,4.61,0,0,1,2.66-.68h1.67v-.84a1.55,1.55,0,0,0-.45-1.17,1.8,1.8,0,0,0-1.29-.43,1.86,1.86,0,0,0-1.21.37,1.15,1.15,0,0,0-.46.9H69.92v0a2,2,0,0,1,.86-1.69,3.57,3.57,0,0,1,2.37-.77,3.51,3.51,0,0,1,2.31.73,2.58,2.58,0,0,1,.88,2.11v4.07a6.4,6.4,0,0,0,0,.88,3.86,3.86,0,0,0,.17.82Zm-2.55-1.12a2.68,2.68,0,0,0,1.5-.43,2.09,2.09,0,0,0,.88-1V67.15H73.06a2.27,2.27,0,0,0-1.49.47,1.4,1.4,0,0,0-.55,1.1,1.15,1.15,0,0,0,.35.89A1.46,1.46,0,0,0,72.41,69.94Z"/><path class="cls-1" d="M83.48,68.79a1,1,0,0,0-.39-.83,3.82,3.82,0,0,0-1.46-.56,6.06,6.06,0,0,1-2.3-.9,1.82,1.82,0,0,1-.8-1.55,2.22,2.22,0,0,1,.88-1.76,3.86,3.86,0,0,1,4.61.05,2.25,2.25,0,0,1,.85,1.82l0,0H83.38a1.34,1.34,0,0,0-.48-1,1.69,1.69,0,0,0-1.21-.44,1.8,1.8,0,0,0-1.22.36,1.15,1.15,0,0,0-.4.88.93.93,0,0,0,.35.77,3.86,3.86,0,0,0,1.43.5,6.1,6.1,0,0,1,2.36.93A1.87,1.87,0,0,1,85,68.68a2.26,2.26,0,0,1-.91,1.84,4.36,4.36,0,0,1-4.93-.11,2.35,2.35,0,0,1-.88-1.92v0h1.47a1.46,1.46,0,0,0,.61,1.2,2.39,2.39,0,0,0,1.34.37A2.11,2.11,0,0,0,83,69.68,1.07,1.07,0,0,0,83.48,68.79Z"/><path class="cls-1" d="M89.07,60.57v2h1.6v1.14h-1.6v5.13a1.13,1.13,0,0,0,.25.84A.88.88,0,0,0,90,70l.3,0,.27-.08.21,1.06a1.43,1.43,0,0,1-.51.23,2.5,2.5,0,0,1-.66.09,2,2,0,0,1-1.49-.57,2.47,2.47,0,0,1-.56-1.78V63.75H86.19V62.61h1.34v-2Z"/><path class="cls-1" d="M95.82,71.23A3.57,3.57,0,0,1,93,70.06,4.45,4.45,0,0,1,92,67v-.34a4.36,4.36,0,0,1,1.05-3,3.29,3.29,0,0,1,2.57-1.2,3.07,3.07,0,0,1,2.54,1.06,4.31,4.31,0,0,1,.85,2.8v.82H93.56l0,0a3.53,3.53,0,0,0,.56,2.06,2,2,0,0,0,1.72.79,3.82,3.82,0,0,0,1.37-.22,3.1,3.1,0,0,0,1-.61l.6,1a3.72,3.72,0,0,1-1.19.74A4.79,4.79,0,0,1,95.82,71.23Zm-.24-7.56a1.64,1.64,0,0,0-1.33.62,2.87,2.87,0,0,0-.65,1.59l0,0h3.81v-.13A2.47,2.47,0,0,0,97,64.27,1.65,1.65,0,0,0,95.58,63.67Z"/><path class="cls-1" d="M100.34,67a5.66,5.66,0,0,1,.87-3.29,2.82,2.82,0,0,1,2.45-1.25,3,3,0,0,1,1.31.28,2.68,2.68,0,0,1,1,.79V58.88h1.54V71.06h-1.18L106.08,70a2.77,2.77,0,0,1-1,.93,3.12,3.12,0,0,1-1.41.31,2.91,2.91,0,0,1-2.42-1.12,4.63,4.63,0,0,1-.88-3Zm1.54.17a3.58,3.58,0,0,0,.53,2A1.82,1.82,0,0,0,104,70a2.11,2.11,0,0,0,1.16-.31,2.35,2.35,0,0,0,.76-.88v-4a2.46,2.46,0,0,0-.77-.83,2.05,2.05,0,0,0-1.13-.31,1.77,1.77,0,0,0-1.64.92,4.73,4.73,0,0,0-.53,2.37Z"/><path class="cls-1" d="M10,88.13h.05l3.63-9.24h1.91V90.26H14.07V81.74h0l-3.45,8.53H9.51L6,81.45h0v8.8H4.38V78.89h2Z"/><path class="cls-1" d="M23.26,90.26c-.05-.25-.09-.48-.12-.67a3.92,3.92,0,0,1-.05-.59A3.8,3.8,0,0,1,22,90a2.91,2.91,0,0,1-1.49.41,2.76,2.76,0,0,1-2-.68,2.48,2.48,0,0,1-.69-1.86,2.18,2.18,0,0,1,1-1.9,4.61,4.61,0,0,1,2.66-.68h1.67v-.84a1.55,1.55,0,0,0-.45-1.17,1.79,1.79,0,0,0-1.28-.43,1.89,1.89,0,0,0-1.22.37,1.15,1.15,0,0,0-.46.9H18.22v0a2,2,0,0,1,.86-1.69,3.57,3.57,0,0,1,2.37-.77,3.51,3.51,0,0,1,2.31.73,2.58,2.58,0,0,1,.88,2.11v4.07a6.4,6.4,0,0,0,.05.88,3.86,3.86,0,0,0,.17.82Zm-2.55-1.12a2.68,2.68,0,0,0,1.5-.43,2.09,2.09,0,0,0,.88-1V86.35H21.36a2.23,2.23,0,0,0-1.48.47,1.38,1.38,0,0,0-.56,1.1,1.13,1.13,0,0,0,.35.89A1.46,1.46,0,0,0,20.71,89.14Z"/><path class="cls-1" d="M28.24,81.81l.11,1.26a2.93,2.93,0,0,1,1.06-1,2.77,2.77,0,0,1,1.45-.38,2.73,2.73,0,0,1,2.11.81,3.49,3.49,0,0,1,.75,2.47v5.33H32.18V85a2.29,2.29,0,0,0-.44-1.59,1.77,1.77,0,0,0-1.35-.47,2.37,2.37,0,0,0-1.2.29,2.09,2.09,0,0,0-.79.8v6.27H26.86V81.81Z"/><path class="cls-1" d="M41.32,89a2.71,2.71,0,0,1-1,1,2.76,2.76,0,0,1-1.44.37,2.73,2.73,0,0,1-2.16-.88,4.09,4.09,0,0,1-.77-2.75v-5h1.53v5a3.2,3.2,0,0,0,.4,1.86,1.49,1.49,0,0,0,1.25.51,2.55,2.55,0,0,0,1.35-.33,2,2,0,0,0,.81-.95V81.81h1.54v8.45H41.43Z"/><path class="cls-1" d="M45.69,90.26V83H44.37V81.81h1.32V80.74a2.91,2.91,0,0,1,.71-2.09,2.61,2.61,0,0,1,2-.74,3.29,3.29,0,0,1,.54,0,3.64,3.64,0,0,1,.59.12l-.18,1.17L49,79.19l-.42,0a1.21,1.21,0,0,0-1,.4,1.81,1.81,0,0,0-.33,1.17v1.07h1.53V83H47.23v7.31Z"/><path class="cls-1" d="M55.51,90.26c0-.25-.09-.48-.12-.67a3.92,3.92,0,0,1,0-.59,3.8,3.8,0,0,1-1.12,1,2.91,2.91,0,0,1-1.49.41,2.76,2.76,0,0,1-2-.68A2.48,2.48,0,0,1,50,87.89,2.18,2.18,0,0,1,51,86a4.61,4.61,0,0,1,2.66-.68h1.67v-.84a1.55,1.55,0,0,0-.45-1.17,1.79,1.79,0,0,0-1.28-.43,1.89,1.89,0,0,0-1.22.37,1.15,1.15,0,0,0-.46.9H50.47v0a2,2,0,0,1,.86-1.69,3.57,3.57,0,0,1,2.37-.77,3.51,3.51,0,0,1,2.31.73,2.58,2.58,0,0,1,.88,2.11v4.07a6.4,6.4,0,0,0,0,.88,3.86,3.86,0,0,0,.17.82ZM53,89.14a2.68,2.68,0,0,0,1.5-.43,2.09,2.09,0,0,0,.88-1V86.35H53.61a2.23,2.23,0,0,0-1.48.47,1.38,1.38,0,0,0-.56,1.1,1.13,1.13,0,0,0,.35.89A1.46,1.46,0,0,0,53,89.14Z"/><path class="cls-1" d="M62.47,89.22a1.76,1.76,0,0,0,1.24-.47,1.47,1.47,0,0,0,.54-1.16h1.39l0,0a2.41,2.41,0,0,1-.94,1.94,3.27,3.27,0,0,1-2.25.85,3.35,3.35,0,0,1-2.75-1.21,4.73,4.73,0,0,1-1-3v-.33a4.64,4.64,0,0,1,1-3,3.31,3.31,0,0,1,2.74-1.22,3.2,3.2,0,0,1,2.32.88,2.78,2.78,0,0,1,.87,2.15l0,0H64.25a1.84,1.84,0,0,0-.51-1.31,1.66,1.66,0,0,0-1.27-.54,1.79,1.79,0,0,0-1.65.87,4.1,4.1,0,0,0-.52,2.13v.33a4.2,4.2,0,0,0,.51,2.15A1.78,1.78,0,0,0,62.47,89.22Z"/><path class="cls-1" d="M69.63,79.77v2h1.6V83h-1.6v5.13a1.13,1.13,0,0,0,.25.84.88.88,0,0,0,.65.24l.29,0,.28-.08.21,1.06a1.52,1.52,0,0,1-.51.23,2.5,2.5,0,0,1-.66.09,2,2,0,0,1-1.5-.57,2.47,2.47,0,0,1-.55-1.78V83H66.75V81.81h1.34v-2Z"/><path class="cls-1" d="M78.25,89a2.81,2.81,0,0,1-1,1,3.05,3.05,0,0,1-3.6-.51,4.14,4.14,0,0,1-.77-2.75v-5h1.54v5a3.12,3.12,0,0,0,.4,1.86,1.46,1.46,0,0,0,1.24.51,2.52,2.52,0,0,0,1.35-.33,2,2,0,0,0,.81-.95V81.81h1.54v8.45H78.35Z"/><path class="cls-1" d="M86,83.17l-.79,0a1.75,1.75,0,0,0-1,.29,1.94,1.94,0,0,0-.65.81v6H82V81.81h1.38l.15,1.24a3,3,0,0,1,.88-1,2.12,2.12,0,0,1,1.22-.37,1.84,1.84,0,0,1,.33,0l.25.06Z"/><path class="cls-1" d="M89.24,79.65H87.7V78.08h1.54Zm0,10.61H87.7V81.81h1.54Z"/><path class="cls-1" d="M93,81.81l.11,1.26a2.93,2.93,0,0,1,1.06-1,2.8,2.8,0,0,1,1.45-.38,2.73,2.73,0,0,1,2.11.81,3.49,3.49,0,0,1,.75,2.47v5.33H96.93V85a2.29,2.29,0,0,0-.45-1.59,1.76,1.76,0,0,0-1.34-.47,2.38,2.38,0,0,0-1.21.29,2.17,2.17,0,0,0-.79.8v6.27H91.61V81.81Z"/><path class="cls-1" d="M100.43,86.19a5.66,5.66,0,0,1,.87-3.29,2.8,2.8,0,0,1,2.43-1.25,2.88,2.88,0,0,1,1.41.33,3,3,0,0,1,1,.93l.19-1.1h1.22v8.5a3.24,3.24,0,0,1-.94,2.5,3.89,3.89,0,0,1-2.73.87,5.83,5.83,0,0,1-1.32-.17,4.77,4.77,0,0,1-1.24-.46l.23-1.19a5,5,0,0,0,1.08.38,5.88,5.88,0,0,0,1.23.14,2.25,2.25,0,0,0,1.64-.51,2.12,2.12,0,0,0,.51-1.56v-1a2.64,2.64,0,0,1-1,.8,3,3,0,0,1-1.34.28,2.89,2.89,0,0,1-2.41-1.12,4.68,4.68,0,0,1-.87-3Zm1.53.17a3.55,3.55,0,0,0,.53,2,1.82,1.82,0,0,0,1.62.78,2,2,0,0,0,1.16-.32A2.41,2.41,0,0,0,106,88V84.08a2.38,2.38,0,0,0-.77-.86,2,2,0,0,0-1.15-.32,1.76,1.76,0,0,0-1.63.92,4.73,4.73,0,0,0-.53,2.37Z"/><rect class="cls-1" x="51.18" y="34.38" width="1.56" height="1.56"/><rect class="cls-1" x="55.08" y="31.25" width="1.56" height="1.56"/><rect class="cls-1" x="55.08" y="18.75" width="1.56" height="1.56"/><rect class="cls-1" x="48.05" y="18.75" width="1.56" height="1.56"/><rect class="cls-1" x="62.11" y="18.75" width="1.56" height="1.56"/><rect class="cls-1" x="51.18" y="17.19" width="1.56" height="1.56"/><rect class="cls-1" x="58.99" y="17.19" width="1.56" height="1.56"/><rect class="cls-1" x="55.08" y="22.66" width="1.56" height="1.56"/><rect class="cls-1" x="46.49" y="22.66" width="1.56" height="1.56"/><rect class="cls-1" x="48.05" y="26.56" width="1.56" height="1.56"/><rect class="cls-1" x="62.11" y="25.78" width="1.56" height="1.56"/><rect class="cls-1" x="63.68" y="22.66" width="1.56" height="1.56"/><rect class="cls-1" x="51.18" y="21.09" width="1.56" height="1.56"/><rect class="cls-1" x="51.18" y="24.22" width="1.56" height="1.56"/><rect class="cls-1" x="38.68" y="29.69" width="1.56" height="1.56"/><rect class="cls-1" x="41.8" y="25.78" width="1.56" height="1.56"/><rect class="cls-1" x="44.14" y="29.69" width="1.56" height="1.56"/><rect class="cls-1" x="41.8" y="34.38" width="1.56" height="1.56"/><rect class="cls-1" x="71.49" y="29.69" width="1.56" height="1.56"/><rect class="cls-1" x="68.36" y="25.78" width="1.56" height="1.56"/><rect class="cls-1" x="66.02" y="29.69" width="1.56" height="1.56"/><rect class="cls-1" x="68.36" y="34.38" width="1.56" height="1.56"/><rect class="cls-1" x="58.99" y="21.09" width="1.56" height="1.56"/><rect class="cls-1" x="58.99" y="24.22" width="1.56" height="1.56"/><rect class="cls-1" x="58.21" y="34.38" width="1.56" height="1.56"/><rect class="cls-1" x="55.08" y="37.5" width="1.56" height="1.56"/><rect class="cls-1" x="48.05" y="40.63" width="1.56" height="1.56"/><rect class="cls-1" x="51.18" y="40.63" width="1.56" height="1.56"/><rect class="cls-1" x="49.61" y="43.75" width="1.56" height="1.56"/><rect class="cls-1" x="44.93" y="45.31" width="1.56" height="1.56"/><rect class="cls-1" x="65.24" y="45.31" width="1.56" height="1.56"/><rect class="cls-1" x="54.3" y="43.75" width="1.56" height="1.56"/><rect class="cls-1" x="63.68" y="40.63" width="1.56" height="1.56"/><rect class="cls-1" x="60.55" y="40.63" width="1.56" height="1.56"/><rect class="cls-1" x="62.11" y="43.75" width="1.56" height="1.56"/><rect class="cls-1" x="57.43" y="42.19" width="1.56" height="1.56"/><path class="cls-1" d="M48.56,16.2a13.7,13.7,0,0,1-.51-3.7c0-5.78,3.59-10.85,7.71-10.94,0,0,0,0,0,0-.17.34-.35.66-.55,1a8.58,8.58,0,0,0-1.48,5,8.57,8.57,0,0,0,1.48,5,6.87,6.87,0,0,1,1.26,4.15H58a8.5,8.5,0,0,0-1.48-5,6.93,6.93,0,0,1-1.25-4.15,6.94,6.94,0,0,1,1.25-4.16c.12-.21.25-.42.37-.64l.11-.2c.11-.21.23-.44.33-.68a.43.43,0,0,1,0-.07c3.52,1.05,6.3,5.67,6.3,10.7a14.11,14.11,0,0,1-.51,3.7l1.5.41a15.1,15.1,0,0,0,.57-4.11C65.24,6.35,61.63.91,57,.11A7.07,7.07,0,0,0,55.86,0c-5,0-9.37,5.84-9.37,12.5a15.56,15.56,0,0,0,.56,4.12Z"/><path class="cls-1" d="M75,48.44,60.35,28.51a5.47,5.47,0,0,0-9,0l-14.67,20H30.86V50h50V48.44Zm-36.35,0,14-19a3.91,3.91,0,0,1,6.42,0l14,19Z"/></g></g></svg>