<svg xmlns="http://www.w3.org/2000/svg" viewBox="0 0 67.75 88.97"><defs><style>.cls-1{fill:#0097d6;}.cls-2{fill:none;stroke:#0097d6;stroke-miterlimit:10;stroke-width:1.5px;}</style></defs><title>creamerybutter</title><g id="Layer_2" data-name="Layer 2"><g id="Layer_1-2" data-name="Layer 1"><path class="cls-1" d="M8.52,66l0,.05a3.43,3.43,0,0,1-1.13,2.68,4.27,4.27,0,0,1-3,1.07A4,4,0,0,1,1.21,68.4,5,5,0,0,1,0,64.93v-2a5.07,5.07,0,0,1,1.21-3.48,4,4,0,0,1,3.15-1.37,4.4,4.4,0,0,1,3.07,1,3.39,3.39,0,0,1,1.11,2.72l0,0H7.05A2.53,2.53,0,0,0,6.34,60a2.7,2.7,0,0,0-2-.7,2.44,2.44,0,0,0-2.06,1,4.24,4.24,0,0,0-.76,2.58v2a4.23,4.23,0,0,0,.76,2.59,2.41,2.41,0,0,0,2.06,1,2.7,2.7,0,0,0,2-.69A2.56,2.56,0,0,0,7.05,66Z"/><path class="cls-1" d="M14.33,62.51l-.79,0a1.7,1.7,0,0,0-1.67,1.1v6H10.33V61.15H11.7l.15,1.23a2.88,2.88,0,0,1,.89-1A2,2,0,0,1,14,61a1.69,1.69,0,0,1,.33,0l.26.06Z"/><path class="cls-1" d="M19.28,69.76a3.57,3.57,0,0,1-2.84-1.16,4.47,4.47,0,0,1-1-3.06v-.35a4.4,4.4,0,0,1,1-3A3.31,3.31,0,0,1,19,61a3,3,0,0,1,2.54,1.06,4.29,4.29,0,0,1,.85,2.8v.81H17l0,0a3.54,3.54,0,0,0,.56,2.07,2,2,0,0,0,1.72.79,3.82,3.82,0,0,0,1.37-.22,3.1,3.1,0,0,0,1-.61l.61,1a3.88,3.88,0,0,1-1.2.73A4.79,4.79,0,0,1,19.28,69.76ZM19,62.2a1.67,1.67,0,0,0-1.33.62,3,3,0,0,0-.65,1.59l0,0h3.81v-.12a2.5,2.5,0,0,0-.45-1.53A1.65,1.65,0,0,0,19,62.2Z"/><path class="cls-1" d="M29.35,69.6c-.05-.25-.09-.48-.12-.67a4,4,0,0,1-.05-.59,3.64,3.64,0,0,1-1.12,1,2.81,2.81,0,0,1-1.49.41,2.76,2.76,0,0,1-2-.67,2.48,2.48,0,0,1-.69-1.86,2.18,2.18,0,0,1,1-1.9,4.61,4.61,0,0,1,2.66-.68h1.67v-.84a1.55,1.55,0,0,0-.45-1.17,1.79,1.79,0,0,0-1.28-.44,1.89,1.89,0,0,0-1.22.38,1.15,1.15,0,0,0-.46.9H24.31v-.05a2,2,0,0,1,.86-1.68A3.57,3.57,0,0,1,27.53,61a3.51,3.51,0,0,1,2.31.73,2.58,2.58,0,0,1,.88,2.11V67.9a6.17,6.17,0,0,0,.05.87,4,4,0,0,0,.17.83ZM26.8,68.48a2.77,2.77,0,0,0,1.5-.43,2.09,2.09,0,0,0,.88-1V65.69H27.45a2.22,2.22,0,0,0-1.49.47,1.4,1.4,0,0,0-.55,1.1,1.15,1.15,0,0,0,.35.89A1.46,1.46,0,0,0,26.8,68.48Z"/><path class="cls-1" d="M34.33,61.15l.11,1.11a2.88,2.88,0,0,1,1.05-.94A3.17,3.17,0,0,1,37,61a2.64,2.64,0,0,1,1.45.39,2.36,2.36,0,0,1,.91,1.17,3.15,3.15,0,0,1,1.06-1.14A2.73,2.73,0,0,1,41.91,61a2.54,2.54,0,0,1,2,.89,4.05,4.05,0,0,1,.75,2.67v5H43.16V64.53a2.8,2.8,0,0,0-.43-1.77,1.57,1.57,0,0,0-1.28-.52,1.6,1.6,0,0,0-1.27.55,2.35,2.35,0,0,0-.58,1.38V69.6H38.05V64.53a2.75,2.75,0,0,0-.44-1.74,1.55,1.55,0,0,0-1.27-.55,2.13,2.13,0,0,0-1.15.29,1.79,1.79,0,0,0-.7.81V69.6H33V61.15Z"/><path class="cls-1" d="M50.44,69.76A3.55,3.55,0,0,1,47.6,68.6a4.47,4.47,0,0,1-1-3.06v-.35a4.4,4.4,0,0,1,1.05-3A3.3,3.3,0,0,1,50.2,61a3.06,3.06,0,0,1,2.54,1.06,4.35,4.35,0,0,1,.85,2.8v.81H48.18l0,0a3.47,3.47,0,0,0,.56,2.07,2,2,0,0,0,1.72.79,3.86,3.86,0,0,0,1.37-.22,3.1,3.1,0,0,0,1-.61l.6,1a3.71,3.71,0,0,1-1.19.73A4.83,4.83,0,0,1,50.44,69.76ZM50.2,62.2a1.69,1.69,0,0,0-1.34.62,3,3,0,0,0-.64,1.59v0h3.82v-.12a2.51,2.51,0,0,0-.46-1.53A1.63,1.63,0,0,0,50.2,62.2Z"/><path class="cls-1" d="M59.31,62.51l-.79,0a1.75,1.75,0,0,0-1,.29,1.82,1.82,0,0,0-.65.81v6H55.31V61.15h1.38l.15,1.23a2.77,2.77,0,0,1,.88-1A2,2,0,0,1,58.94,61a1.84,1.84,0,0,1,.33,0l.25.06Z"/><path class="cls-1" d="M63.64,66.47l.27,1.06H64L66,61.15h1.71L64.2,70.9a4.4,4.4,0,0,1-.92,1.48,2.13,2.13,0,0,1-1.62.63,3.06,3.06,0,0,1-.47,0,4.33,4.33,0,0,1-.45-.08l.16-1.21h.28l.41,0a1,1,0,0,0,.8-.44,4.28,4.28,0,0,0,.52-1l.37-.88-3.14-8.28h1.72Z"/><path class="cls-1" d="M12.85,88.8V77.43h3.71a4.45,4.45,0,0,1,2.79.77,2.72,2.72,0,0,1,1,2.3,2.12,2.12,0,0,1-.46,1.32,2.87,2.87,0,0,1-1.2.89,2.66,2.66,0,0,1,1.77,1,3,3,0,0,1,.65,1.91,2.92,2.92,0,0,1-1,2.39,4.25,4.25,0,0,1-2.75.82Zm1.54-6.54h2.49a2.08,2.08,0,0,0,1.4-.47,1.9,1.9,0,0,0-.05-2.7,2.66,2.66,0,0,0-1.67-.45H14.39Zm0,1.21V87.6h3A2.35,2.35,0,0,0,19,87.08a1.87,1.87,0,0,0,.58-1.47A2,2,0,0,0,19,84.08a2.33,2.33,0,0,0-1.6-.61h-3Z"/><path class="cls-1" d="M28.18,87.55a3,3,0,0,1-1,1,2.86,2.86,0,0,1-1.44.37,2.73,2.73,0,0,1-2.16-.89,4.12,4.12,0,0,1-.77-2.75v-5h1.54v5a3.21,3.21,0,0,0,.39,1.86,1.49,1.49,0,0,0,1.25.51,2.52,2.52,0,0,0,1.35-.34,2,2,0,0,0,.81-.94V80.35h1.54V88.8H28.28Z"/><path class="cls-1" d="M34,78.31v2h1.6v1.14H34v5.13a1.17,1.17,0,0,0,.25.84.88.88,0,0,0,.65.24,1.13,1.13,0,0,0,.3,0,1.31,1.31,0,0,0,.27-.07l.21,1a1.21,1.21,0,0,1-.51.24,3,3,0,0,1-.66.09,2,2,0,0,1-1.49-.57,2.47,2.47,0,0,1-.56-1.78V81.49H31.16V80.35H32.5v-2Z"/><path class="cls-1" d="M39.43,78.31v2H41v1.14H39.43v5.13a1.17,1.17,0,0,0,.25.84.88.88,0,0,0,.65.24,1.13,1.13,0,0,0,.3,0,1.31,1.31,0,0,0,.27-.07l.21,1a1.23,1.23,0,0,1-.5.24,3.17,3.17,0,0,1-.67.09,2,2,0,0,1-1.49-.57,2.47,2.47,0,0,1-.56-1.78V81.49H36.55V80.35h1.34v-2Z"/><path class="cls-1" d="M46.18,89a3.57,3.57,0,0,1-2.84-1.17,4.47,4.47,0,0,1-1-3.06v-.35a4.36,4.36,0,0,1,1.06-3,3.28,3.28,0,0,1,2.56-1.19,3,3,0,0,1,2.54,1.06,4.31,4.31,0,0,1,.85,2.8v.81h-5.4l0,0A3.54,3.54,0,0,0,44.46,87a2,2,0,0,0,1.72.79,3.82,3.82,0,0,0,1.37-.22,3,3,0,0,0,1-.61l.6,1a3.65,3.65,0,0,1-1.2.73A4.74,4.74,0,0,1,46.18,89Zm-.24-7.57a1.67,1.67,0,0,0-1.33.62A3,3,0,0,0,44,83.61l0,0h3.81v-.12A2.5,2.5,0,0,0,47.34,82,1.64,1.64,0,0,0,45.94,81.4Z"/><path class="cls-1" d="M55.06,81.71l-.79,0a1.7,1.7,0,0,0-1.67,1.1v6H51.06V80.35h1.37l.15,1.23a2.88,2.88,0,0,1,.89-1,2,2,0,0,1,1.21-.37,1.69,1.69,0,0,1,.33,0l.26.06Z"/><rect class="cls-2" x="19.66" y="40" width="31.72" height="0.05"/><line class="cls-2" x1="19.66" y1="43.19" x2="20.45" y2="43.19"/><line class="cls-2" x1="23.62" y1="43.19" x2="29.97" y2="43.19"/><path class="cls-2" d="M51.38,27.47V40H19.66V27.47A2.36,2.36,0,0,1,22,25.12H49a2.36,2.36,0,0,1,2.38,2.35Z"/><rect class="cls-2" x="19.66" y="40" width="31.72" height="0.05"/><path class="cls-2" d="M33.93,25.12v5.5a1.59,1.59,0,0,1-3.17,0v-5.5Z"/><path class="cls-2" d="M40.28,25.12v2.35a1.59,1.59,0,0,1-3.17,0V25.12Z"/><path class="cls-2" d="M37.11,25.12v8.64a1.59,1.59,0,0,1-3.18,0V25.12Z"/><line class="cls-2" x1="22.83" y1="28.26" x2="22.83" y2="28.26"/><path class="cls-2" d="M48.09,20l1.12-1.12a1.57,1.57,0,0,0,0-2.23L48.1,15.55l9.41-9.33a3.22,3.22,0,0,0,.32-4.32,3.18,3.18,0,0,0-4.47-.43l-.24.21-11.2,11.1a1.57,1.57,0,0,0,0,2.23l5,5A.8.8,0,0,0,48.09,20Z"/><line class="cls-2" x1="53.76" y1="5.49" x2="53.76" y2="5.49"/><path class="cls-2" d="M58.52,40.79v.83a1.58,1.58,0,0,1-1.59,1.57H55.51L53.21,46a.79.79,0,0,1-.62.3H18.45a.79.79,0,0,1-.62-.3l-2.3-2.85H14.11a1.58,1.58,0,0,1-1.59-1.57v-.83a.79.79,0,0,1,.79-.79h6.35v0H51.38v0h6.35A.79.79,0,0,1,58.52,40.79Z"/><polygon class="cls-2" points="25.54 40 25.49 40.05 19.66 40.05 19.66 40 25.54 40"/><polygon class="cls-2" points="46.4 19.46 40.66 25.11 30.53 25.11 41.36 14.45 41.92 15.01 46.4 19.46"/><line class="cls-2" x1="26" y1="28.26" x2="27.59" y2="28.26"/></g></g></svg>