<svg xmlns="http://www.w3.org/2000/svg" viewBox="0 0 104.34 70.56"><defs><style>.cls-1{fill:#fff;}</style></defs><title>dairyproducts_hover</title><g id="Layer_2" data-name="Layer 2"><g id="Layer_1-2" data-name="Layer 1"><path class="cls-1" d="M0,67.15V55.77H3.58a4.82,4.82,0,0,1,3.58,1.37,4.86,4.86,0,0,1,1.36,3.55v1.55a4.81,4.81,0,0,1-1.36,3.54,4.82,4.82,0,0,1-3.58,1.37ZM1.54,57v9h2a3.13,3.13,0,0,0,2.49-1A3.92,3.92,0,0,0,7,62.24V60.67A3.93,3.93,0,0,0,6.07,58a3.16,3.16,0,0,0-2.49-1Z"/><path class="cls-1" d="M15.82,67.15c-.05-.26-.09-.48-.12-.68a3.81,3.81,0,0,1,0-.59,3.55,3.55,0,0,1-1.12,1,2.91,2.91,0,0,1-1.49.41,2.76,2.76,0,0,1-2-.67,2.52,2.52,0,0,1-.69-1.87,2.16,2.16,0,0,1,1-1.89A4.54,4.54,0,0,1,14,62.19h1.67v-.83a1.56,1.56,0,0,0-.45-1.18,1.81,1.81,0,0,0-1.29-.43,1.86,1.86,0,0,0-1.21.37,1.12,1.12,0,0,0-.46.9l-1.46,0v0a2,2,0,0,1,.86-1.69A3.57,3.57,0,0,1,14,58.54a3.46,3.46,0,0,1,2.31.73,2.6,2.6,0,0,1,.88,2.1v4.07a8.26,8.26,0,0,0,0,.88,4.73,4.73,0,0,0,.18.83ZM13.27,66a2.71,2.71,0,0,0,1.5-.43,2,2,0,0,0,.88-1V63.23H13.92a2.25,2.25,0,0,0-1.49.47,1.4,1.4,0,0,0-.55,1.1,1.12,1.12,0,0,0,.35.89A1.46,1.46,0,0,0,13.27,66Z"/><path class="cls-1" d="M21.09,56.53H19.55V55h1.54Zm0,10.62H19.55V58.69h1.54Z"/><path class="cls-1" d="M27.45,60.05l-.79,0a1.68,1.68,0,0,0-1,.29,1.82,1.82,0,0,0-.65.81v6H23.45V58.69h1.38L25,59.93a2.89,2.89,0,0,1,.88-1,2.11,2.11,0,0,1,1.22-.36l.33,0,.25.06Z"/><path class="cls-1" d="M31.78,64l.27,1.07h.05l2.08-6.39h1.71l-3.55,9.75a4.45,4.45,0,0,1-.92,1.49,2.13,2.13,0,0,1-1.62.63,3.06,3.06,0,0,1-.47,0l-.45-.08L29,69.23h.28l.41,0a1,1,0,0,0,.8-.43,4.75,4.75,0,0,0,.52-1l.37-.88-3.14-8.29H30Z"/><path class="cls-1" d="M43,62.58v4.57H41.43V55.77h4.35a4,4,0,0,1,2.83.94,3.5,3.5,0,0,1,0,4.94,4,4,0,0,1-2.83.93Zm0-1.2h2.81a2.25,2.25,0,0,0,1.73-.62,2.43,2.43,0,0,0,0-3.14A2.17,2.17,0,0,0,45.78,57H43Z"/><path class="cls-1" d="M55.39,60.05l-.79,0a1.74,1.74,0,0,0-1,.29,1.8,1.8,0,0,0-.64.81v6H51.39V58.69h1.38l.14,1.24a3,3,0,0,1,.89-1A2.11,2.11,0,0,1,55,58.54l.32,0,.26.06Z"/><path class="cls-1" d="M56.48,62.84a4.64,4.64,0,0,1,1-3.09,3.78,3.78,0,0,1,5.54,0,4.64,4.64,0,0,1,1,3.09V63a4.63,4.63,0,0,1-1,3.1,3.77,3.77,0,0,1-5.53,0,4.61,4.61,0,0,1-1-3.09ZM58,63a4,4,0,0,0,.56,2.22,2,2,0,0,0,3.36,0A4,4,0,0,0,62.51,63v-.17a3.93,3.93,0,0,0-.58-2.21,2,2,0,0,0-3.35,0A4,4,0,0,0,58,62.84Z"/><path class="cls-1" d="M65.58,63.08a5.64,5.64,0,0,1,.87-3.29,2.78,2.78,0,0,1,2.44-1.25,3.11,3.11,0,0,1,1.32.27,2.69,2.69,0,0,1,1,.8V55h1.54V67.15H71.55l-.24-1.07a2.72,2.72,0,0,1-1,.92,3,3,0,0,1-1.41.31,2.91,2.91,0,0,1-2.43-1.12,4.68,4.68,0,0,1-.87-2.95Zm1.54.16a3.56,3.56,0,0,0,.52,2.05,1.82,1.82,0,0,0,1.63.77,2,2,0,0,0,1.15-.31,2.37,2.37,0,0,0,.77-.88V60.93a2.37,2.37,0,0,0-.77-.83,2,2,0,0,0-1.14-.31,1.77,1.77,0,0,0-1.64.91,4.74,4.74,0,0,0-.52,2.38Z"/><path class="cls-1" d="M80.39,65.9a2.83,2.83,0,0,1-1,1,2.77,2.77,0,0,1-1.45.37,2.69,2.69,0,0,1-2.15-.88A4.09,4.09,0,0,1,75,63.68v-5h1.54v5a3.08,3.08,0,0,0,.4,1.86,1.48,1.48,0,0,0,1.24.51,2.56,2.56,0,0,0,1.36-.33,2.19,2.19,0,0,0,.81-.94v-6.1h1.54v8.46H80.49Z"/><path class="cls-1" d="M87.48,66.11a1.84,1.84,0,0,0,1.24-.47,1.53,1.53,0,0,0,.53-1.16h1.39l0,0a2.43,2.43,0,0,1-.93,1.94,3.58,3.58,0,0,1-5-.36,4.66,4.66,0,0,1-1-3v-.32a4.65,4.65,0,0,1,1-3,3.31,3.31,0,0,1,2.75-1.21,3.19,3.19,0,0,1,2.31.87,2.79,2.79,0,0,1,.87,2.15v0h-1.4a1.89,1.89,0,0,0-.5-1.32,1.67,1.67,0,0,0-1.27-.54,1.78,1.78,0,0,0-1.66.88,4.15,4.15,0,0,0-.52,2.13v.32a4.1,4.1,0,0,0,.52,2.15A1.76,1.76,0,0,0,87.48,66.11Z"/><path class="cls-1" d="M94.63,56.65v2h1.6v1.14h-1.6V65a1.11,1.11,0,0,0,.25.83.85.85,0,0,0,.65.25,1.77,1.77,0,0,0,.3,0l.27-.07.21,1a1.35,1.35,0,0,1-.51.23,2.5,2.5,0,0,1-.66.09,2,2,0,0,1-1.49-.57A2.44,2.44,0,0,1,93.09,65V59.83H91.75V58.69h1.34v-2Z"/><path class="cls-1" d="M102.8,64.87a1,1,0,0,0-.39-.82,3.64,3.64,0,0,0-1.46-.57,6.06,6.06,0,0,1-2.3-.9,1.81,1.81,0,0,1-.8-1.54,2.22,2.22,0,0,1,.88-1.77,3.9,3.9,0,0,1,4.61,0,2.27,2.27,0,0,1,.85,1.82l0,0H102.7a1.34,1.34,0,0,0-.48-1,2,2,0,0,0-2.43-.07,1.12,1.12,0,0,0-.4.87.93.93,0,0,0,.35.77,3.69,3.69,0,0,0,1.43.5,6.1,6.1,0,0,1,2.36.93,1.89,1.89,0,0,1,.81,1.57,2.25,2.25,0,0,1-.91,1.84,3.79,3.79,0,0,1-2.38.71,3.71,3.71,0,0,1-2.55-.82,2.34,2.34,0,0,1-.88-1.91v0H99.1a1.43,1.43,0,0,0,.61,1.2,2.39,2.39,0,0,0,1.34.38,2.11,2.11,0,0,0,1.28-.35A1.07,1.07,0,0,0,102.8,64.87Z"/><path class="cls-1" d="M76.6,20.73a19.52,19.52,0,0,0-.88-1.82,10.6,10.6,0,0,1-1.39-4.13A1.82,1.82,0,0,0,75.69,13v-1a1.81,1.81,0,0,0-1.81-1.81H66.33a1.81,1.81,0,0,0-1.81,1.81v1a1.82,1.82,0,0,0,1.36,1.75,10.6,10.6,0,0,1-1.39,4.13,19.52,19.52,0,0,0-.88,1.82,16.25,16.25,0,0,0-1.29,6.42V38.38a3.76,3.76,0,0,0,.79,2.3H60.34v-29a1.69,1.69,0,0,1,.23-.85L62.85,7l1.49,2.44a.73.73,0,1,0,1.25-.76l-2-3.31V2.46A2.41,2.41,0,0,0,62.87.72,2.45,2.45,0,0,0,61.14,0h-13a2.45,2.45,0,0,0-2.45,2.45v3L43,9.76A4.36,4.36,0,0,0,42.39,12V40.71H35.9A2.77,2.77,0,0,1,33.13,38v-.31H39A1.64,1.64,0,0,0,40.61,36V31.27A1.63,1.63,0,0,0,39,29.64H33.13V26.51h7.59a.73.73,0,1,0,0-1.46H37.21l-1.44-7a2.59,2.59,0,0,0-3.37-1.92,2.59,2.59,0,0,0-1.46,3.59l2.66,5.31h-3a.73.73,0,0,0,0,1.46h1V38a4.24,4.24,0,0,0,4.24,4.23h7.23a.57.57,0,0,0,.18,0H74.12a3.77,3.77,0,0,0,3.77-3.77V27.15A16.08,16.08,0,0,0,76.6,20.73ZM35.22,25l-3-5.91a1.07,1.07,0,0,1,0-.91,1.1,1.1,0,0,1,.67-.63,1.12,1.12,0,0,1,.91.09,1.07,1.07,0,0,1,.53.74l1.38,6.68h-.47S35.23,25,35.22,25ZM39,31.11a.16.16,0,0,1,.16.16V36a.17.17,0,0,1-.16.17H33.13V31.11Zm27-19a.34.34,0,0,1,.34-.34h7.55a.34.34,0,0,1,.34.34v1a.34.34,0,0,1-.34.34H66.33A.34.34,0,0,1,66,13ZM63.81,26.51h7.94a.41.41,0,0,1,.41.42v8.64a.41.41,0,0,1-.41.41h-8V27.15C63.79,26.94,63.8,26.73,63.81,26.51ZM47.11,2.45a1,1,0,0,1,1-1h13a.94.94,0,0,1,.69.29.94.94,0,0,1,.29.69V4.88h-15Zm-.32,3.9H61.55L59.32,10a1.13,1.13,0,0,0-.11.22H44.43ZM43.86,12a2.11,2.11,0,0,1,0-.26h15v29h-15ZM76.42,38.38a2.3,2.3,0,0,1-2.3,2.3h-8a2.3,2.3,0,0,1-2.31-2.3v-.93h8a1.88,1.88,0,0,0,1.88-1.88V26.93a1.88,1.88,0,0,0-1.88-1.88H63.94a13.9,13.9,0,0,1,1-3.74c.27-.64.55-1.2.81-1.68a12,12,0,0,0,1.58-4.79h5.51a12,12,0,0,0,1.58,4.79c.26.48.54,1,.81,1.68a14.64,14.64,0,0,1,1.17,5.84Z"/></g></g></svg>