<svg xmlns="http://www.w3.org/2000/svg" viewBox="0 0 125.56 97.28"><defs><style>.cls-1{fill:#0097d6;}</style></defs><title>dried_dehydratedfruits</title><g id="Layer_2" data-name="Layer 2"><g id="Layer_1-2" data-name="Layer 1"><path class="cls-1" d="M35.91,74.67V63.29h3.58a4.68,4.68,0,0,1,4.94,4.92v1.55a4.68,4.68,0,0,1-4.94,4.91ZM37.45,64.5v9h2a3.15,3.15,0,0,0,2.49-1,3.9,3.9,0,0,0,.91-2.67V68.19A3.88,3.88,0,0,0,42,65.54a3.16,3.16,0,0,0-2.49-1Z"/><path class="cls-1" d="M50.54,67.57l-.79,0a1.71,1.71,0,0,0-1,.29,1.8,1.8,0,0,0-.64.81v6H46.54V66.21h1.37l.15,1.24a2.88,2.88,0,0,1,.89-1,2,2,0,0,1,1.21-.37,1.69,1.69,0,0,1,.33,0,1.33,1.33,0,0,1,.26,0Z"/><path class="cls-1" d="M53.8,64.05H52.27V62.48H53.8Zm0,10.62H52.27V66.21H53.8Z"/><path class="cls-1" d="M59.67,74.83a3.6,3.6,0,0,1-2.84-1.16,4.49,4.49,0,0,1-1-3.06v-.35a4.4,4.4,0,0,1,1-3,3.31,3.31,0,0,1,2.57-1.19,3.06,3.06,0,0,1,2.54,1,4.34,4.34,0,0,1,.85,2.81v.81H57.41l0,0A3.54,3.54,0,0,0,58,72.84a2,2,0,0,0,1.72.79A4.06,4.06,0,0,0,61,73.41a3,3,0,0,0,1-.62l.61,1a3.61,3.61,0,0,1-1.2.74A4.79,4.79,0,0,1,59.67,74.83Zm-.24-7.56a1.67,1.67,0,0,0-1.33.62,3,3,0,0,0-.65,1.59l0,0h3.81v-.13a2.47,2.47,0,0,0-.45-1.52A1.64,1.64,0,0,0,59.43,67.27Z"/><path class="cls-1" d="M64.2,70.6a5.57,5.57,0,0,1,.87-3.29,2.81,2.81,0,0,1,2.44-1.25,3,3,0,0,1,1.31.27,2.61,2.61,0,0,1,1,.8V62.48h1.54V74.67H70.16l-.23-1.07a2.88,2.88,0,0,1-1,.92,3.06,3.06,0,0,1-1.42.31,2.89,2.89,0,0,1-2.42-1.12,4.68,4.68,0,0,1-.87-2.95Zm1.53.16a3.56,3.56,0,0,0,.53,2,1.81,1.81,0,0,0,1.62.77A2,2,0,0,0,69,73.27a2.27,2.27,0,0,0,.76-.88V68.45a2.26,2.26,0,0,0-.76-.83,2,2,0,0,0-1.14-.31,1.76,1.76,0,0,0-1.64.91,4.74,4.74,0,0,0-.53,2.38Z"/><path class="cls-1" d="M77,71.61a2.62,2.62,0,0,1,.55-1.67A6.56,6.56,0,0,1,79.2,68.5a7.86,7.86,0,0,1-.91-1.37,2.8,2.8,0,0,1-.3-1.25,2.7,2.7,0,0,1,.76-2,3,3,0,0,1,2.1-.71,2.89,2.89,0,0,1,2,.71,2.21,2.21,0,0,1,.77,1.71,2.17,2.17,0,0,1-.41,1.33A5.61,5.61,0,0,1,82,68l-.85.62,2.65,3.2a4.13,4.13,0,0,0,.5-1.13,4.59,4.59,0,0,0,.18-1.3h1.38a5.63,5.63,0,0,1-.31,1.91,5.16,5.16,0,0,1-.88,1.57l1.45,1.74,0,0H84.32l-.66-.8a5,5,0,0,1-1.39.72,5.15,5.15,0,0,1-1.57.24,3.9,3.9,0,0,1-2.7-.9A3,3,0,0,1,77,71.61Zm3.7,2a3.24,3.24,0,0,0,1.11-.19,3.79,3.79,0,0,0,1-.55L80,69.49l-.31.22a3.07,3.07,0,0,0-.94,1,2.13,2.13,0,0,0-.23.88,2,2,0,0,0,.55,1.45A2.15,2.15,0,0,0,80.7,73.63Zm-1.17-7.77a2.05,2.05,0,0,0,.21.87,4.9,4.9,0,0,0,.64,1L81.45,67a1.6,1.6,0,0,0,.61-.64,1.93,1.93,0,0,0,.16-.77,1.13,1.13,0,0,0-.38-.84,1.34,1.34,0,0,0-1-.37,1.15,1.15,0,0,0-1,.44A1.67,1.67,0,0,0,79.53,65.86Z"/><path class="cls-1" d="M0,93.87V82.49H3.58a4.82,4.82,0,0,1,3.58,1.37,4.86,4.86,0,0,1,1.36,3.55V89a4.83,4.83,0,0,1-1.36,3.55,4.86,4.86,0,0,1-3.58,1.36ZM1.54,83.7v9h2a3.16,3.16,0,0,0,2.49-1A4,4,0,0,0,7,89V87.39a3.93,3.93,0,0,0-.91-2.65,3.16,3.16,0,0,0-2.49-1Z"/><path class="cls-1" d="M14.13,94a3.57,3.57,0,0,1-2.84-1.16,4.49,4.49,0,0,1-1-3.06v-.35a4.4,4.4,0,0,1,1.05-3,3.29,3.29,0,0,1,2.56-1.19,3.09,3.09,0,0,1,2.55,1,4.39,4.39,0,0,1,.84,2.81v.81h-5.4l0,0A3.47,3.47,0,0,0,12.41,92a2,2,0,0,0,1.72.79,3.9,3.9,0,0,0,1.37-.22,3.12,3.12,0,0,0,1-.62l.6,1a3.51,3.51,0,0,1-1.2.74A4.73,4.73,0,0,1,14.13,94Zm-.25-7.56a1.69,1.69,0,0,0-1.33.62,2.92,2.92,0,0,0-.64,1.59v0h3.81v-.13a2.47,2.47,0,0,0-.45-1.52A1.64,1.64,0,0,0,13.88,86.47Z"/><path class="cls-1" d="M20.54,86.55a3.13,3.13,0,0,1,1.07-1A2.94,2.94,0,0,1,23,85.26a2.74,2.74,0,0,1,2.11.81,3.59,3.59,0,0,1,.75,2.5v5.3H24.34V88.56A2.26,2.26,0,0,0,23.89,87a1.71,1.71,0,0,0-1.34-.5,2.52,2.52,0,0,0-1.19.27,2.19,2.19,0,0,0-.82.75v6.34H19V81.68h1.54Z"/><path class="cls-1" d="M30.68,90.74,31,91.8H31l2.08-6.38h1.71l-3.56,9.75a4.48,4.48,0,0,1-.91,1.48,2.13,2.13,0,0,1-1.62.63,3.06,3.06,0,0,1-.47,0l-.45-.08L27.94,96h.27l.42,0a1,1,0,0,0,.8-.44,4.5,4.5,0,0,0,.52-1l.37-.88-3.14-8.28H28.9Z"/><path class="cls-1" d="M35.69,89.8a5.64,5.64,0,0,1,.87-3.29A2.81,2.81,0,0,1,39,85.26a3.11,3.11,0,0,1,1.32.27,2.69,2.69,0,0,1,1,.8V81.68h1.54V93.87H41.66l-.24-1.07a2.88,2.88,0,0,1-1,.92A3.06,3.06,0,0,1,39,94a2.89,2.89,0,0,1-2.42-1.12,4.68,4.68,0,0,1-.87-3Zm1.54.16A3.56,3.56,0,0,0,37.75,92a1.82,1.82,0,0,0,1.63.77,2,2,0,0,0,1.15-.31,2.37,2.37,0,0,0,.77-.88V87.65a2.37,2.37,0,0,0-.77-.83,2,2,0,0,0-1.14-.31,1.77,1.77,0,0,0-1.64.91,4.74,4.74,0,0,0-.52,2.38Z"/><path class="cls-1" d="M49.13,86.77l-.79,0a1.68,1.68,0,0,0-1,.29,1.82,1.82,0,0,0-.65.81v6H45.13V85.42h1.38l.15,1.23a2.77,2.77,0,0,1,.88-1,2,2,0,0,1,1.22-.37,1.84,1.84,0,0,1,.33,0,1.22,1.22,0,0,1,.25,0Z"/><path class="cls-1" d="M55.93,93.87c0-.26-.09-.48-.12-.68a3.81,3.81,0,0,1-.05-.59,3.55,3.55,0,0,1-1.12,1,2.81,2.81,0,0,1-1.49.41,2.76,2.76,0,0,1-2-.67,2.49,2.49,0,0,1-.69-1.87,2.16,2.16,0,0,1,1-1.89,4.52,4.52,0,0,1,2.66-.68h1.67v-.84a1.54,1.54,0,0,0-.46-1.18A1.77,1.77,0,0,0,54,86.47a1.86,1.86,0,0,0-1.21.37,1.12,1.12,0,0,0-.46.9l-1.46,0v-.05A2,2,0,0,1,51.74,86a3.57,3.57,0,0,1,2.37-.76,3.46,3.46,0,0,1,2.31.73,2.6,2.6,0,0,1,.88,2.1v4.08a8.19,8.19,0,0,0,0,.87,4.73,4.73,0,0,0,.18.83Zm-2.55-1.13a2.71,2.71,0,0,0,1.5-.43,2,2,0,0,0,.88-1V90H54a2.25,2.25,0,0,0-1.49.47,1.42,1.42,0,0,0-.56,1.1,1.16,1.16,0,0,0,.36.9A1.5,1.5,0,0,0,53.38,92.74Z"/><path class="cls-1" d="M61.67,83.38v2h1.6v1.14h-1.6v5.13a1.1,1.1,0,0,0,.25.83.85.85,0,0,0,.65.25,1.13,1.13,0,0,0,.3,0l.27-.07.21,1a1.21,1.21,0,0,1-.51.23,2.5,2.5,0,0,1-.66.09,2,2,0,0,1-1.49-.56,2.47,2.47,0,0,1-.56-1.78V86.56H58.79V85.42h1.34v-2Z"/><path class="cls-1" d="M68.42,94a3.6,3.6,0,0,1-2.84-1.16,4.49,4.49,0,0,1-1-3.06v-.35a4.4,4.4,0,0,1,1-3,3.31,3.31,0,0,1,2.57-1.19,3.06,3.06,0,0,1,2.54,1,4.34,4.34,0,0,1,.85,2.81v.81H66.16l0,0A3.54,3.54,0,0,0,66.7,92a2,2,0,0,0,1.72.79,3.82,3.82,0,0,0,1.37-.22,3,3,0,0,0,1-.62l.61,1a3.61,3.61,0,0,1-1.2.74A4.79,4.79,0,0,1,68.42,94Zm-.24-7.56a1.67,1.67,0,0,0-1.33.62,3,3,0,0,0-.65,1.59l0,0H70v-.13a2.47,2.47,0,0,0-.45-1.52A1.64,1.64,0,0,0,68.18,86.47Z"/><path class="cls-1" d="M73,89.8a5.57,5.57,0,0,1,.87-3.29,2.81,2.81,0,0,1,2.44-1.25,3,3,0,0,1,1.31.27,2.61,2.61,0,0,1,1,.8V81.68h1.54V93.87H78.91l-.23-1.07a2.88,2.88,0,0,1-1,.92,3.06,3.06,0,0,1-1.42.31,2.89,2.89,0,0,1-2.42-1.12A4.68,4.68,0,0,1,73,90Zm1.53.16A3.56,3.56,0,0,0,75,92a1.81,1.81,0,0,0,1.62.77,2,2,0,0,0,1.16-.31,2.27,2.27,0,0,0,.76-.88V87.65a2.26,2.26,0,0,0-.76-.83,2,2,0,0,0-1.14-.31,1.76,1.76,0,0,0-1.64.91,4.74,4.74,0,0,0-.53,2.38Z"/><path class="cls-1" d="M92.91,88.84H88.12v5H86.58V82.49h7.13V83.7H88.12v3.93h4.79Z"/><path class="cls-1" d="M99,86.77l-.79,0a1.68,1.68,0,0,0-1,.29,1.82,1.82,0,0,0-.65.81v6H95V85.42h1.38l.15,1.23a2.77,2.77,0,0,1,.88-1,2,2,0,0,1,1.22-.37,1.84,1.84,0,0,1,.33,0,1.37,1.37,0,0,1,.25,0Z"/><path class="cls-1" d="M106,92.62a2.94,2.94,0,0,1-1,1,2.86,2.86,0,0,1-1.45.36,2.69,2.69,0,0,1-2.15-.88,4.09,4.09,0,0,1-.78-2.75v-5h1.54v5a3.06,3.06,0,0,0,.4,1.85,1.48,1.48,0,0,0,1.24.51,2.56,2.56,0,0,0,1.36-.33,2.14,2.14,0,0,0,.81-.94V85.42h1.54v8.45h-1.39Z"/><path class="cls-1" d="M111.35,83.25h-1.54V81.68h1.54Zm0,10.62h-1.54V85.42h1.54Z"/><path class="cls-1" d="M115.86,83.38v2h1.6v1.14h-1.6v5.13a1.1,1.1,0,0,0,.25.83.85.85,0,0,0,.65.25,1,1,0,0,0,.29,0l.28-.07.21,1a1.35,1.35,0,0,1-.51.23,2.5,2.5,0,0,1-.66.09,2,2,0,0,1-1.49-.56,2.42,2.42,0,0,1-.56-1.78V86.56H113V85.42h1.34v-2Z"/><path class="cls-1" d="M124,91.59a1,1,0,0,0-.38-.82,3.79,3.79,0,0,0-1.47-.57,6.17,6.17,0,0,1-2.29-.89,1.81,1.81,0,0,1-.8-1.55A2.22,2.22,0,0,1,120,86a3.88,3.88,0,0,1,4.6.05,2.21,2.21,0,0,1,.85,1.82v0h-1.47a1.31,1.31,0,0,0-.48-1,2,2,0,0,0-2.43-.08,1.12,1.12,0,0,0-.4.87.94.94,0,0,0,.34.78,3.93,3.93,0,0,0,1.44.5,5.86,5.86,0,0,1,2.36.93,1.88,1.88,0,0,1,.8,1.57,2.2,2.2,0,0,1-.91,1.83,4.34,4.34,0,0,1-4.92-.11,2.33,2.33,0,0,1-.89-1.91l0,0h1.47a1.4,1.4,0,0,0,.61,1.2,2.36,2.36,0,0,0,1.33.38,2.13,2.13,0,0,0,1.29-.35A1.06,1.06,0,0,0,124,91.59Z"/><path class="cls-1" d="M57.24,13.38A2.37,2.37,0,0,0,58.51,13a2.46,2.46,0,0,0,.84-3.37.53.53,0,0,1,.17-.72.56.56,0,0,1,.27-.08.54.54,0,0,1,.46.26,2.45,2.45,0,1,0,4.2-2.54,5.44,5.44,0,1,0-9.31,5.62A2.48,2.48,0,0,0,57.24,13.38Zm.68-7.1a3.64,3.64,0,0,1,5,1.22.64.64,0,1,1-1.1.67,2.35,2.35,0,0,0-2-1.13,2.31,2.31,0,0,0-1.2.33,2.35,2.35,0,0,0-.8,3.22.64.64,0,0,1-.22.88.62.62,0,0,1-.32.09.63.63,0,0,1-.55-.31A3.61,3.61,0,0,1,57.92,6.28Z"/><path class="cls-1" d="M71.48,8.61a5.43,5.43,0,0,0,.57,0h0a5.42,5.42,0,0,0,5.4-4.87,2.45,2.45,0,0,0-2.18-2.7H75a2.46,2.46,0,0,0-2.45,2.2.52.52,0,0,1-.51.47H72a.53.53,0,0,1-.47-.58A2.41,2.41,0,0,0,71,1.34a2.44,2.44,0,0,0-1.65-.9h-.25a2.45,2.45,0,0,0-2.45,2.2,5.4,5.4,0,0,0,1.19,4A5.4,5.4,0,0,0,71.48,8.61Zm-3-5.79a.63.63,0,0,1,.63-.57h.07a.63.63,0,0,1,.43.23.61.61,0,0,1,.14.47A2.35,2.35,0,0,0,71.8,5.53H72a2.33,2.33,0,0,0,2.33-2.1.64.64,0,0,1,.71-.57.68.68,0,0,1,.43.23.65.65,0,0,1,.13.47,3.61,3.61,0,0,1-3.59,3.25l-.38,0a3.62,3.62,0,0,1-3.23-4Z"/><path class="cls-1" d="M51.79,8.3A5.45,5.45,0,0,0,47.16,0a5.28,5.28,0,0,0-1.25.15A2.46,2.46,0,0,0,46.47,5,2.78,2.78,0,0,0,47,4.93a.53.53,0,0,1,.63.39.55.55,0,0,1-.06.4.52.52,0,0,1-.33.23,2.45,2.45,0,0,0-1.53,1.1,2.46,2.46,0,0,0,2.09,3.75h0a2.76,2.76,0,0,0,.57-.06A5.45,5.45,0,0,0,51.79,8.3Zm-1.55-1A3.62,3.62,0,0,1,48,9h-.15a.64.64,0,0,1-.62-.49.65.65,0,0,1,.48-.77,2.28,2.28,0,0,0,1.45-1,2.34,2.34,0,0,0-2-3.57,2.48,2.48,0,0,0-.54.06l-.15,0a.64.64,0,0,1-.62-.49.65.65,0,0,1,.08-.49.61.61,0,0,1,.4-.28,3.31,3.31,0,0,1,.83-.1,3.6,3.6,0,0,1,3.52,2.79A3.54,3.54,0,0,1,50.24,7.34Z"/><path class="cls-1" d="M81,49h0V48.9l0-.08h0a41.57,41.57,0,0,1-.78-8.47V29.27a44.63,44.63,0,0,1,.75-8.5h0s0-.06,0-.09h0s0-.07,0-.1h0V15.28a.91.91,0,0,0-.91-.91H77.54a5.49,5.49,0,0,0-2.89-5,2.54,2.54,0,0,0-1.15-.28,2.46,2.46,0,0,0-1.15,4.63.53.53,0,0,1,.25.62H50a.9.9,0,0,0-.9.91v5.29h0v.1s0,0,0,0a.15.15,0,0,0,0,.07h0a40.68,40.68,0,0,1,.81,8.49V40.34a41.81,41.81,0,0,1-.78,8.47h0a.64.64,0,0,1,0,.07V49h0v5.29a.9.9,0,0,0,.9.91H80.11a.91.91,0,0,0,.91-.91V49h0Zm-21.94.91v3.48H55.89V49.93Zm1.82,0h3.19v3.48H60.89Zm5,0H69v3.48H65.9Zm4.88,0H74v3.48H70.78ZM51.1,48.11a46.48,46.48,0,0,0,.62-7.77V29.27a45.25,45.25,0,0,0-.64-7.79H79a50.08,50.08,0,0,0-.59,7.79V40.34A47.91,47.91,0,0,0,79,48.11ZM73.93,16.19v3.48H70.75V16.19Zm-5,3.48H65.87V16.19h3.06Zm-4.88,0H60.86V16.19h3.19Zm-5,0H55.86V16.19h3.19Zm20.12,0H75.75V16.19h3.42Zm-6.24-8.39a.65.65,0,0,1,.57-.34.63.63,0,0,1,.3.07,3.65,3.65,0,0,1,1.9,2.87H74.41a2.32,2.32,0,0,0-1.21-1.74A.64.64,0,0,1,72.93,11.28ZM50.88,16.19H54v3.48H50.88Zm0,33.74h3.16v3.48H50.91ZM79.2,53.41H75.78V49.93H79.2Z"/><path class="cls-1" d="M74.29,29.25h-2a.91.91,0,1,0,0,1.82h1.1v7.29H56.84V31.07H67.37a.91.91,0,0,0,0-1.82H55.93a.91.91,0,0,0-.91.91v9.11a.9.9,0,0,0,.91.91H74.29a.91.91,0,0,0,.91-.91V30.16A.91.91,0,0,0,74.29,29.25Z"/></g></g></svg>