<svg xmlns="http://www.w3.org/2000/svg" viewBox="0 0 121.48 97.8"><defs><style>.cls-1{fill:#fff;}</style></defs><title>flavoringsyrups_extracts_hover</title><g id="Layer_2" data-name="Layer 2"><g id="Layer_1-2" data-name="Layer 1"><path class="cls-1" d="M6.34,73.4H1.54v5H0V67.06H7.13v1.21H1.54v3.92h4.8Z"/><path class="cls-1" d="M10.28,78.43H8.74V66.25h1.54Z"/><path class="cls-1" d="M17.84,78.43c-.05-.25-.09-.48-.12-.67a5.87,5.87,0,0,1,0-.59,3.8,3.8,0,0,1-1.12,1,2.91,2.91,0,0,1-1.49.41,2.76,2.76,0,0,1-2-.68,2.48,2.48,0,0,1-.69-1.86,2.2,2.2,0,0,1,1-1.9A4.61,4.61,0,0,1,16,73.48h1.67v-.84a1.55,1.55,0,0,0-.45-1.17A1.77,1.77,0,0,0,15.94,71a1.84,1.84,0,0,0-1.21.37,1.12,1.12,0,0,0-.46.9H12.8v0a2,2,0,0,1,.86-1.69A3.57,3.57,0,0,1,16,69.82a3.56,3.56,0,0,1,2.32.73,2.6,2.6,0,0,1,.87,2.11v4.07a8.49,8.49,0,0,0,.05.88,4.59,4.59,0,0,0,.17.82Zm-2.55-1.12a2.72,2.72,0,0,0,1.51-.43,2.07,2.07,0,0,0,.87-1V74.52H16a2.24,2.24,0,0,0-1.49.47,1.38,1.38,0,0,0-.56,1.1,1.18,1.18,0,0,0,.35.89A1.46,1.46,0,0,0,15.29,77.31Z"/><path class="cls-1" d="M24.15,75.94l.13.6h0l.15-.6,1.94-6H28l-3.11,8.45H23.72L20.57,70h1.58Z"/><path class="cls-1" d="M28.9,74.13a4.69,4.69,0,0,1,1-3.09,3.75,3.75,0,0,1,5.54,0,4.61,4.61,0,0,1,1,3.09v.17a4.61,4.61,0,0,1-1,3.09,3.76,3.76,0,0,1-5.53,0,4.61,4.61,0,0,1-1-3.09Zm1.54.17A4.06,4.06,0,0,0,31,76.52a2.06,2.06,0,0,0,3.36,0,4,4,0,0,0,.57-2.22v-.17a4,4,0,0,0-.57-2.21A1.89,1.89,0,0,0,32.67,71a1.86,1.86,0,0,0-1.67.88,4.07,4.07,0,0,0-.56,2.21Z"/><path class="cls-1" d="M42.35,71.34l-.79,0a1.75,1.75,0,0,0-1,.29,1.88,1.88,0,0,0-.65.81v6H38.35V70h1.38l.15,1.23a2.94,2.94,0,0,1,.88-1A2.12,2.12,0,0,1,42,69.82a1.66,1.66,0,0,1,.32,0l.26.06Z"/><path class="cls-1" d="M45.62,67.82H44.08V66.25h1.54Zm0,10.61H44.08V70h1.54Z"/><path class="cls-1" d="M49.36,70l.11,1.26a2.93,2.93,0,0,1,1.06-1A2.77,2.77,0,0,1,52,69.82a2.73,2.73,0,0,1,2.11.81,3.49,3.49,0,0,1,.75,2.47v5.33H53.3v-5.3a2.27,2.27,0,0,0-.44-1.59,1.76,1.76,0,0,0-1.34-.47,2.38,2.38,0,0,0-1.21.29,2.09,2.09,0,0,0-.79.8v6.27H48V70Z"/><path class="cls-1" d="M56.8,74.36a5.59,5.59,0,0,1,.88-3.29,2.8,2.8,0,0,1,2.43-1.25,2.91,2.91,0,0,1,1.41.33,2.86,2.86,0,0,1,1,.93l.18-1.1H64v8.5A3.27,3.27,0,0,1,63,81a3.91,3.91,0,0,1-2.73.87A5.83,5.83,0,0,1,59,81.68a4.77,4.77,0,0,1-1.24-.46L58,80a5,5,0,0,0,1.08.38,5.8,5.8,0,0,0,1.23.14A2.25,2.25,0,0,0,61.91,80a2.12,2.12,0,0,0,.51-1.56v-1a2.8,2.8,0,0,1-1,.8,3,3,0,0,1-1.34.28,2.89,2.89,0,0,1-2.41-1.12,4.63,4.63,0,0,1-.88-3Zm1.54.17a3.55,3.55,0,0,0,.53,2,1.79,1.79,0,0,0,1.61.78A2,2,0,0,0,61.65,77a2.41,2.41,0,0,0,.77-.89V72.25a2.47,2.47,0,0,0-.77-.86,2,2,0,0,0-1.15-.32,1.76,1.76,0,0,0-1.63.92,4.73,4.73,0,0,0-.53,2.37Z"/><path class="cls-1" d="M76.42,75.57a1.71,1.71,0,0,0-.55-1.3,4.54,4.54,0,0,0-2-.89,6.53,6.53,0,0,1-2.7-1.27,2.63,2.63,0,0,1-1-2.1,2.78,2.78,0,0,1,1-2.22,4,4,0,0,1,2.72-.9,4,4,0,0,1,2.86,1,3.11,3.11,0,0,1,1,2.38l0,0H76.41a2.09,2.09,0,0,0-.68-1.6A2.44,2.44,0,0,0,74,68.11a2.35,2.35,0,0,0-1.65.52A1.73,1.73,0,0,0,71.77,70a1.53,1.53,0,0,0,.63,1.24,5.81,5.81,0,0,0,2,.87,5.72,5.72,0,0,1,2.61,1.31,2.85,2.85,0,0,1,.9,2.14,2.66,2.66,0,0,1-1.08,2.21,4.49,4.49,0,0,1-2.83.84,4.85,4.85,0,0,1-2.91-.92,2.81,2.81,0,0,1-1.22-2.47l0,0h1.47a1.92,1.92,0,0,0,.81,1.65,3,3,0,0,0,1.83.58,2.79,2.79,0,0,0,1.74-.49A1.6,1.6,0,0,0,76.42,75.57Z"/><path class="cls-1" d="M82.52,75.3l.27,1.06h0L84.91,70h1.72l-3.56,9.75a4.25,4.25,0,0,1-.92,1.48,2.09,2.09,0,0,1-1.61.64,3.26,3.26,0,0,1-.48,0,2.52,2.52,0,0,1-.44-.08l.15-1.21.28,0,.41,0a.94.94,0,0,0,.81-.44,4.71,4.71,0,0,0,.52-1l.37-.88L79,70h1.71Z"/><path class="cls-1" d="M92,71.34l-.79,0a1.79,1.79,0,0,0-1,.29,1.86,1.86,0,0,0-.64.81v6H88V70h1.37l.15,1.23a3.07,3.07,0,0,1,.89-1,2.09,2.09,0,0,1,1.21-.37,1.84,1.84,0,0,1,.33,0l.26.06Z"/><path class="cls-1" d="M99,77.18a2.81,2.81,0,0,1-1,1,2.76,2.76,0,0,1-1.44.37,2.72,2.72,0,0,1-2.16-.89A4.05,4.05,0,0,1,93.55,75V70h1.54v5a3.21,3.21,0,0,0,.39,1.86,1.49,1.49,0,0,0,1.25.51A2.55,2.55,0,0,0,98.08,77a2.09,2.09,0,0,0,.81-1V70h1.54v8.45H99.05Z"/><path class="cls-1" d="M109.88,74.53a4.69,4.69,0,0,1-.88,3,2.91,2.91,0,0,1-2.41,1.12,3.47,3.47,0,0,1-1.38-.26,2.72,2.72,0,0,1-1-.79v4.13h-1.54V70h1.18l.24,1.09a2.89,2.89,0,0,1,1-.93,3.11,3.11,0,0,1,1.43-.32A2.81,2.81,0,0,1,109,71.07a5.64,5.64,0,0,1,.88,3.29Zm-1.54-.17a4.46,4.46,0,0,0-.57-2.36,1.83,1.83,0,0,0-1.67-.93,2,2,0,0,0-1.13.31,2.23,2.23,0,0,0-.76.82v4.09a2.2,2.2,0,0,0,.76.81,2.07,2.07,0,0,0,1.15.29,1.86,1.86,0,0,0,1.65-.8,3.46,3.46,0,0,0,.57-2.06Z"/><path class="cls-1" d="M116.68,76.16a1,1,0,0,0-.39-.83,3.68,3.68,0,0,0-1.46-.56,5.93,5.93,0,0,1-2.29-.9,1.8,1.8,0,0,1-.81-1.55,2.25,2.25,0,0,1,.88-1.76,3.45,3.45,0,0,1,2.28-.74,3.36,3.36,0,0,1,2.33.79,2.23,2.23,0,0,1,.85,1.82l0,0h-1.46a1.34,1.34,0,0,0-.48-1,1.71,1.71,0,0,0-1.22-.44,1.75,1.75,0,0,0-1.21.36,1.16,1.16,0,0,0-.41.88.93.93,0,0,0,.35.77,3.86,3.86,0,0,0,1.43.5,6,6,0,0,1,2.36.93,1.87,1.87,0,0,1,.81,1.57,2.26,2.26,0,0,1-.91,1.84,4.36,4.36,0,0,1-4.93-.11,2.35,2.35,0,0,1-.88-1.92l0,0H113a1.46,1.46,0,0,0,.61,1.2,2.39,2.39,0,0,0,1.34.37,2.09,2.09,0,0,0,1.28-.34A1.07,1.07,0,0,0,116.68,76.16Z"/><path class="cls-1" d="M121.48,78.06l-1.18,2.39h-.91l.55-2.47V76.71h1.54Z"/><path class="cls-1" d="M36.57,92.36H31.9v4.07h5.47v1.2h-7V86.26h6.93v1.21H31.9v3.68h4.67Z"/><path class="cls-1" d="M41.85,92.3l1.79-3.12h1.8L42.7,93.36l2.82,4.27H43.75l-1.87-3.19L40,97.63H38.22L41,93.36,38.3,89.18h1.77Z"/><path class="cls-1" d="M49.17,87.14v2h1.6v1.14h-1.6v5.13a1.17,1.17,0,0,0,.24.84.91.91,0,0,0,.66.24l.29,0,.28-.08.21,1.06a1.52,1.52,0,0,1-.51.23,2.56,2.56,0,0,1-.66.09,2,2,0,0,1-1.5-.57,2.47,2.47,0,0,1-.55-1.78V90.32H46.29V89.18h1.34v-2Z"/><path class="cls-1" d="M56.42,90.54l-.79-.05a1.79,1.79,0,0,0-1,.29,1.92,1.92,0,0,0-.64.81v6H52.42V89.18h1.37l.15,1.24a3,3,0,0,1,.89-1A2.09,2.09,0,0,1,56,89a1.69,1.69,0,0,1,.33,0l.26.06Z"/><path class="cls-1" d="M63.21,97.63c-.05-.25-.09-.48-.12-.67a5.87,5.87,0,0,1-.05-.59,3.68,3.68,0,0,1-1.12,1,2.91,2.91,0,0,1-1.49.41,2.76,2.76,0,0,1-2-.68,2.48,2.48,0,0,1-.69-1.86,2.2,2.2,0,0,1,1-1.9,4.61,4.61,0,0,1,2.66-.68H63v-.84a1.55,1.55,0,0,0-.45-1.17,1.77,1.77,0,0,0-1.28-.43,1.84,1.84,0,0,0-1.21.37,1.12,1.12,0,0,0-.46.9H58.18l0,0A2,2,0,0,1,59,89.79a4,4,0,0,1,4.69,0,2.6,2.6,0,0,1,.87,2.11v4.07a8.49,8.49,0,0,0,0,.88,4.59,4.59,0,0,0,.17.82Zm-2.55-1.12a2.72,2.72,0,0,0,1.51-.43,2,2,0,0,0,.87-1V93.72H61.32a2.25,2.25,0,0,0-1.49.47,1.41,1.41,0,0,0-.56,1.1,1.17,1.17,0,0,0,.35.89A1.48,1.48,0,0,0,60.66,96.51Z"/><path class="cls-1" d="M70.18,96.59a1.8,1.8,0,0,0,1.24-.47A1.5,1.5,0,0,0,72,95h1.39l0,.05A2.43,2.43,0,0,1,72.43,97a3.58,3.58,0,0,1-5-.36,4.67,4.67,0,0,1-1-3v-.33a4.64,4.64,0,0,1,1-3A3.32,3.32,0,0,1,70.18,89a3.19,3.19,0,0,1,2.31.88,2.78,2.78,0,0,1,.87,2.15v0H72a1.88,1.88,0,0,0-.5-1.31,1.67,1.67,0,0,0-1.27-.54,1.79,1.79,0,0,0-1.66.87A4.2,4.2,0,0,0,68,93.24v.33a4.1,4.1,0,0,0,.52,2.15A1.77,1.77,0,0,0,70.18,96.59Z"/><path class="cls-1" d="M77.33,87.14v2h1.6v1.14h-1.6v5.13a1.13,1.13,0,0,0,.25.84.88.88,0,0,0,.65.24l.3,0,.27-.08L79,97.48a1.35,1.35,0,0,1-.51.23,2.5,2.5,0,0,1-.66.09,2,2,0,0,1-1.49-.57,2.47,2.47,0,0,1-.56-1.78V90.32H74.45V89.18h1.34v-2Z"/><path class="cls-1" d="M85.5,95.36a1,1,0,0,0-.39-.83A3.81,3.81,0,0,0,83.64,94a6,6,0,0,1-2.29-.9,1.82,1.82,0,0,1-.8-1.55,2.22,2.22,0,0,1,.88-1.76,3.86,3.86,0,0,1,4.61,0,2.25,2.25,0,0,1,.85,1.82l0,0H85.4a1.34,1.34,0,0,0-.48-1,1.69,1.69,0,0,0-1.21-.44,1.78,1.78,0,0,0-1.22.36,1.15,1.15,0,0,0-.4.88.93.93,0,0,0,.35.77,3.86,3.86,0,0,0,1.43.5,6.1,6.1,0,0,1,2.36.93A1.87,1.87,0,0,1,87,95.25a2.26,2.26,0,0,1-.91,1.84,3.81,3.81,0,0,1-2.38.71A3.75,3.75,0,0,1,81.2,97a2.35,2.35,0,0,1-.88-1.92v0H81.8a1.46,1.46,0,0,0,.61,1.2,2.36,2.36,0,0,0,1.34.37A2.11,2.11,0,0,0,85,96.25,1.07,1.07,0,0,0,85.5,95.36Z"/><path class="cls-1" d="M76.42,41.38a15.41,15.41,0,0,0-3.69-10,16.49,16.49,0,0,0-1.6-1.55c-1.26-1.11-2-1.81-2-3.2,0-1.86,0-3.72,0-5.59,0-1.62,0-3.25,0-4.87,0-1.19,0-2.38,0-3.56a1,1,0,0,0-1-1h-5v-7A1,1,0,0,0,62.91,4L59.35.3A1,1,0,0,0,57.66,1V11.64h-5a1,1,0,0,0-1,1c0,1.18,0,2.37,0,3.56,0,1.62,0,3.25,0,4.87,0,1.87,0,3.73,0,5.59,0,1.39-.69,2.09-2,3.2a15.3,15.3,0,0,0,2.38,24.83,3,3,0,0,0-.42,1.56,2.26,2.26,0,0,0,1.94,2.51H67.23c1.09,0,1.94-1.1,1.94-2.51a3,3,0,0,0-.42-1.56A15.4,15.4,0,0,0,76.42,41.38ZM63.19,13.61h4c0,.86,0,1.73,0,2.59V17h-4Zm0,5.32h4v2.13c0,1.85,0,3.7,0,5.56,0,2.37,1.39,3.62,2.64,4.71a13.62,13.62,0,0,1,1.39,1.35,13.19,13.19,0,0,1,1.91,3H63.19ZM59.63,3.43l1.58,1.62v6.59H59.63Zm0,10.18h1.58V17H59.63V13.61Zm0,5.32h1.58V35.62H59.63Zm-6-2.73V13.61h4V17h-4Zm-4,16.48A13.62,13.62,0,0,1,51,31.33c1.25-1.09,2.67-2.34,2.64-4.71,0-1.86,0-3.71,0-5.56V18.93h4.06V35.62H47.71A13.35,13.35,0,0,1,49.62,32.68Zm17.46,24.1H53.77a1.1,1.1,0,0,1-.12-.54,1.12,1.12,0,0,1,.12-.55H67.08a1.24,1.24,0,0,1,.12.55A1.23,1.23,0,0,1,67.08,56.78Zm-.8-3.06H54.56A13.44,13.44,0,0,1,46.4,41.38,13,13,0,0,1,47,37.6H73.88a13,13,0,0,1,.57,3.78A13.43,13.43,0,0,1,66.28,53.72Z"/><path class="cls-1" d="M60.26,52A11.45,11.45,0,0,1,48.82,40.51a1,1,0,0,1,2,0A9.47,9.47,0,0,0,60.26,50a1,1,0,0,1,0,2Z"/></g></g></svg>