<svg xmlns="http://www.w3.org/2000/svg" viewBox="0 0 102.83 94.52"><defs><style>.cls-1{fill:#fff;}</style></defs><title>foodproductswithfry_hover</title><g id="Layer_2" data-name="Layer 2"><g id="Layer_1-2" data-name="Layer 1"><path class="cls-1" d="M6.34,66.87H1.54v5H0V60.53H7.13v1.21H1.54v3.92h4.8Z"/><path class="cls-1" d="M8.09,67.6a4.64,4.64,0,0,1,1-3.09,3.42,3.42,0,0,1,2.76-1.22,3.43,3.43,0,0,1,2.77,1.22,4.61,4.61,0,0,1,1,3.09v.17a4.6,4.6,0,0,1-1,3.09,3.42,3.42,0,0,1-2.77,1.21,3.43,3.43,0,0,1-2.77-1.21,4.61,4.61,0,0,1-1-3.09Zm1.54.17A4,4,0,0,0,10.2,70a1.88,1.88,0,0,0,1.68.87A1.86,1.86,0,0,0,13.55,70a4,4,0,0,0,.58-2.22V67.6a4,4,0,0,0-.58-2.21,1.87,1.87,0,0,0-1.68-.88,1.85,1.85,0,0,0-1.67.88,4,4,0,0,0-.57,2.21Z"/><path class="cls-1" d="M17.19,67.6a4.69,4.69,0,0,1,1-3.09A3.42,3.42,0,0,1,21,63.29a3.45,3.45,0,0,1,2.78,1.22,4.61,4.61,0,0,1,1,3.09v.17a4.61,4.61,0,0,1-1,3.09A3.4,3.4,0,0,1,21,72.07a3.42,3.42,0,0,1-2.77-1.21,4.61,4.61,0,0,1-1-3.09Zm1.54.17A4.06,4.06,0,0,0,19.29,70a2.06,2.06,0,0,0,3.36,0,4,4,0,0,0,.57-2.22V67.6a3.91,3.91,0,0,0-.58-2.21,2,2,0,0,0-3.35,0,4.07,4.07,0,0,0-.56,2.21Z"/><path class="cls-1" d="M26.29,67.83a5.66,5.66,0,0,1,.87-3.29,2.81,2.81,0,0,1,2.44-1.25,3.05,3.05,0,0,1,1.32.28,2.76,2.76,0,0,1,1,.79V59.72h1.54V71.9H32.26L32,70.83a2.67,2.67,0,0,1-1,.93,3.18,3.18,0,0,1-1.41.31A2.93,2.93,0,0,1,27.16,71a4.68,4.68,0,0,1-.87-3Zm1.54.17a3.58,3.58,0,0,0,.52,2,1.84,1.84,0,0,0,1.63.77,2.1,2.1,0,0,0,1.15-.31,2.29,2.29,0,0,0,.77-.88V65.68a2.56,2.56,0,0,0-.77-.83A2.11,2.11,0,0,0,30,64.54a1.75,1.75,0,0,0-1.63.92,4.62,4.62,0,0,0-.53,2.37Z"/><path class="cls-1" d="M41.46,67.34V71.9H39.92V60.53h4.35a4,4,0,0,1,2.84.94,3.53,3.53,0,0,1,0,4.94,4,4,0,0,1-2.84.93Zm0-1.2h2.81a2.21,2.21,0,1,0,0-4.4H41.46Z"/><path class="cls-1" d="M53.88,64.81l-.79,0a1.75,1.75,0,0,0-1,.29,1.88,1.88,0,0,0-.65.81v6H49.88V63.45h1.38l.15,1.23a3,3,0,0,1,.88-1,2.12,2.12,0,0,1,1.22-.37,1.84,1.84,0,0,1,.33,0l.25.06Z"/><path class="cls-1" d="M55,67.6a4.69,4.69,0,0,1,1-3.09,3.75,3.75,0,0,1,5.54,0,4.61,4.61,0,0,1,1,3.09v.17a4.61,4.61,0,0,1-1,3.09,3.76,3.76,0,0,1-5.53,0,4.61,4.61,0,0,1-1-3.09Zm1.54.17A4.06,4.06,0,0,0,57.07,70a2.06,2.06,0,0,0,3.36,0A4,4,0,0,0,61,67.77V67.6a4,4,0,0,0-.57-2.21,1.89,1.89,0,0,0-1.69-.88,1.86,1.86,0,0,0-1.67.88,4.07,4.07,0,0,0-.56,2.21Z"/><path class="cls-1" d="M64.07,67.83a5.66,5.66,0,0,1,.87-3.29,2.82,2.82,0,0,1,2.44-1.25,3.05,3.05,0,0,1,1.32.28,2.76,2.76,0,0,1,1,.79V59.72h1.54V71.9H70l-.24-1.07a2.67,2.67,0,0,1-1,.93,3.15,3.15,0,0,1-1.41.31A2.91,2.91,0,0,1,65,71a4.63,4.63,0,0,1-.88-3Zm1.54.17a3.58,3.58,0,0,0,.52,2,1.84,1.84,0,0,0,1.63.77,2.07,2.07,0,0,0,1.15-.31,2.29,2.29,0,0,0,.77-.88V65.68a2.46,2.46,0,0,0-.77-.83,2.09,2.09,0,0,0-1.14-.31,1.75,1.75,0,0,0-1.63.92,4.73,4.73,0,0,0-.53,2.37Z"/><path class="cls-1" d="M78.88,70.65a2.71,2.71,0,0,1-1,1,2.77,2.77,0,0,1-1.45.37,2.7,2.7,0,0,1-2.15-.89,4.05,4.05,0,0,1-.78-2.75v-5H75v5a3.2,3.2,0,0,0,.4,1.86,1.48,1.48,0,0,0,1.24.51A2.56,2.56,0,0,0,78,70.49a2.09,2.09,0,0,0,.81-.95V63.45h1.54V71.9H79Z"/><path class="cls-1" d="M86,70.86a1.78,1.78,0,0,0,1.24-.47,1.46,1.46,0,0,0,.53-1.16h1.39l0,0a2.45,2.45,0,0,1-.94,1.94,3.58,3.58,0,0,1-5-.36,4.67,4.67,0,0,1-1-3v-.33a4.64,4.64,0,0,1,1-3A3.33,3.33,0,0,1,86,63.29a3.23,3.23,0,0,1,2.32.88,2.78,2.78,0,0,1,.87,2.15l0,0h-1.4a1.88,1.88,0,0,0-.5-1.31A1.67,1.67,0,0,0,86,64.51a1.77,1.77,0,0,0-1.65.87,4.1,4.1,0,0,0-.52,2.13v.33A4.2,4.2,0,0,0,84.31,70,1.77,1.77,0,0,0,86,70.86Z"/><path class="cls-1" d="M93.13,61.41v2h1.6v1.14h-1.6v5.13a1.17,1.17,0,0,0,.24.84.9.9,0,0,0,.65.24l.3,0,.27-.08.21,1.06a1.37,1.37,0,0,1-.5.23,2.63,2.63,0,0,1-.67.09,2,2,0,0,1-1.49-.57,2.47,2.47,0,0,1-.55-1.78V64.59H90.24V63.45h1.35v-2Z"/><path class="cls-1" d="M101.29,69.63a1,1,0,0,0-.39-.83,3.75,3.75,0,0,0-1.46-.56,6.06,6.06,0,0,1-2.3-.9,1.82,1.82,0,0,1-.8-1.55A2.25,2.25,0,0,1,97.22,64a3.86,3.86,0,0,1,4.61,0,2.23,2.23,0,0,1,.85,1.82l0,0H101.2a1.32,1.32,0,0,0-.49-1,1.69,1.69,0,0,0-1.21-.44,1.75,1.75,0,0,0-1.21.36,1.16,1.16,0,0,0-.41.88.93.93,0,0,0,.35.77,3.86,3.86,0,0,0,1.43.5A6,6,0,0,1,102,68a1.87,1.87,0,0,1,.81,1.57,2.26,2.26,0,0,1-.91,1.84A4.36,4.36,0,0,1,97,71.25a2.35,2.35,0,0,1-.88-1.92l0,0h1.46a1.46,1.46,0,0,0,.61,1.2,2.39,2.39,0,0,0,1.34.37,2.09,2.09,0,0,0,1.28-.34A1.07,1.07,0,0,0,101.29,69.63Z"/><path class="cls-1" d="M25.92,88l.2,1.08h0L26.37,88l1.68-5.38h1.24L31,88l.22,1.21h.05L31.5,88l1.25-5.38h1.61L31.91,91.1H30.66L29,86l-.32-1.35h0L28.33,86,26.69,91.1H25.45L23,82.65h1.6Z"/><path class="cls-1" d="M37.53,80.49H36V78.92h1.54Zm0,10.61H36V82.65h1.54Z"/><path class="cls-1" d="M42,80.61v2h1.6v1.14H42v5.13a1.13,1.13,0,0,0,.25.84.88.88,0,0,0,.65.24l.29,0,.28-.08L43.72,91a1.52,1.52,0,0,1-.51.23,2.5,2.5,0,0,1-.66.09,2,2,0,0,1-1.5-.57,2.47,2.47,0,0,1-.55-1.78V83.79H39.16V82.65H40.5v-2Z"/><path class="cls-1" d="M46.83,83.78a3.24,3.24,0,0,1,1.07-1,3.06,3.06,0,0,1,1.41-.34,2.75,2.75,0,0,1,2.11.82,3.58,3.58,0,0,1,.75,2.5V91.1H50.63V85.79a2.28,2.28,0,0,0-.45-1.55,1.71,1.71,0,0,0-1.34-.5,2.52,2.52,0,0,0-1.19.27,2.22,2.22,0,0,0-.82.76V91.1H45.29V78.92h1.54Z"/><path class="cls-1" d="M64.91,86.07h-4.8v5H58.57V79.73H65.7v1.21H60.11v3.92h4.8Z"/><path class="cls-1" d="M71,84,70.2,84a1.79,1.79,0,0,0-1,.29,1.94,1.94,0,0,0-.65.81v6H67V82.65h1.38l.15,1.24a3,3,0,0,1,.88-1,2.14,2.14,0,0,1,1.22-.37,1.84,1.84,0,0,1,.33,0l.26.06Z"/><path class="cls-1" d="M75.31,88,75.59,89h0l2.08-6.38h1.71L75.87,92.4A4.55,4.55,0,0,1,75,93.89a2.12,2.12,0,0,1-1.61.63c-.13,0-.29,0-.48,0l-.45-.09.16-1.21.28,0,.41,0a1,1,0,0,0,.8-.44,4.3,4.3,0,0,0,.53-1l.36-.88-3.14-8.28h1.72Z"/><path class="cls-1" d="M62.05,51.69a.77.77,0,0,1-.46-.15,17.32,17.32,0,0,0-20.88,0,.78.78,0,0,1-.74.1.82.82,0,0,1-.51-.56L30.17,14.74a.81.81,0,0,1,1.32-.81c14.15,12.24,25.17,12.24,39.32,0a.83.83,0,0,1,1-.08.81.81,0,0,1,.35.89L62.84,51.08a.82.82,0,0,1-.51.56A.66.66,0,0,1,62.05,51.69Zm-10.9-5.26a19.34,19.34,0,0,1,10.4,3.15l8.39-32.82c-13.36,10.76-24.22,10.76-37.58,0l8.38,32.82A19.39,19.39,0,0,1,51.15,46.43Z"/><path class="cls-1" d="M51.15,24.83c-6.63,0-13.27-3.23-20.72-9.68a.8.8,0,0,1-.27-.74.82.82,0,0,1,.49-.62c1.63-.66,3.28-1.25,4.92-1.74,1.06-.33,2.16-.63,3.28-.9l1.63-.37c.55-.11,1.1-.22,1.64-.31s1.1-.19,1.65-.26,1.1-.15,1.64-.21,1.09-.11,1.64-.15l1.64-.1c.54,0,1.09-.05,1.65-.05s1.08,0,1.63,0l1.56.05c.62,0,1.17.07,1.72.12s1.1.09,1.65.16l1.64.21,1.64.26,1.64.32,1.63.37a60.87,60.87,0,0,1,8.19,2.6.8.8,0,0,1,.5.61.85.85,0,0,1-.27.75C64.41,21.6,57.78,24.83,51.15,24.83Zm-18.64-10c13.32,11.08,24,11.08,37.27,0a59.34,59.34,0,0,0-6.7-2.05l-1.6-.35c-.52-.12-1.06-.22-1.59-.32s-1.06-.18-1.58-.25l-1.59-.21-1.59-.15-1.6-.11c-.58,0-1.08,0-1.59,0s-1,0-1.57,0-1.08,0-1.6,0l-1.6.1c-.53,0-1.06.09-1.58.15s-1.06.12-1.59.2-1.07.15-1.59.24l-1.6.31-1.59.36c-1.08.26-2.15.55-3.18.87S33.68,14.35,32.51,14.8Z"/><path class="cls-1" d="M40.65,12.38a.81.81,0,0,1-.81-.81V.81A.81.81,0,0,1,40.65,0h3.23a.81.81,0,0,1,.81.81V11a.81.81,0,0,1-.7.8c-.53.07-1.06.15-1.58.24l-1.6.31A.44.44,0,0,1,40.65,12.38Zm.81-10.76v9l.66-.12,1-.16V1.62Z"/><path class="cls-1" d="M47.11,11.46a.8.8,0,0,1-.81-.81V3.23a.81.81,0,0,1,.81-.81h3.23a.81.81,0,0,1,.81.81v7.28a.81.81,0,0,1-.81.81c-.52,0-1.05,0-1.57,0l-1.6.1ZM47.92,4V9.79l.77,0,.84,0V4Z"/><path class="cls-1" d="M47.11,11.46a.8.8,0,0,1-.81-.81V3.23a.81.81,0,0,1,.81-.81h3.23a.81.81,0,0,1,.81.81v7.28a.81.81,0,0,1-.81.81c-.52,0-1.05,0-1.57,0l-1.6.1ZM47.92,4V9.79l.77,0,.84,0V4Z"/><path class="cls-1" d="M56.8,11.64h-.09l-1.58-.15-1.6-.11a.81.81,0,0,1-.77-.81V.81A.81.81,0,0,1,53.57,0H56.8a.81.81,0,0,1,.81.81v10a.84.84,0,0,1-.27.61A.82.82,0,0,1,56.8,11.64ZM54.38,9.8l.87.07.75.06V1.62H54.38Z"/><path class="cls-1" d="M63.26,12.79l-.18,0-1.6-.35c-.52-.12-1.06-.22-1.59-.32a.8.8,0,0,1-.66-.79V3.23a.8.8,0,0,1,.8-.81h3.23a.81.81,0,0,1,.81.81V12a.81.81,0,0,1-.81.81Zm-2.42-2.16,1,.19.64.14V4H60.84Z"/><path class="cls-1" d="M51.15,43.52A7.29,7.29,0,0,1,46,41.38a.82.82,0,0,1-.24-.57V31.59a.79.79,0,0,1,.33-.65.81.81,0,0,1,.72-.13,14.33,14.33,0,0,0,8.74,0,.82.82,0,0,1,1,.78v9.22a.82.82,0,0,1-.24.57A7.29,7.29,0,0,1,51.15,43.52Zm-3.8-3.06a5.71,5.71,0,0,0,7.6,0V32.65a16,16,0,0,1-7.6,0Z"/></g></g></svg>