<svg xmlns="http://www.w3.org/2000/svg" viewBox="0 0 102.83 90.67"><defs><style>.cls-1{fill:#0097d6;}</style></defs><title>foodproducts</title><g id="Layer_2" data-name="Layer 2"><g id="Layer_1-2" data-name="Layer 1"><path class="cls-1" d="M6.34,63H1.54v5H0V56.68H7.13v1.21H1.54v3.93h4.8Z"/><path class="cls-1" d="M8.09,63.75a4.64,4.64,0,0,1,1-3.09,3.41,3.41,0,0,1,2.76-1.21,3.42,3.42,0,0,1,2.77,1.21,4.64,4.64,0,0,1,1,3.09v.17a4.66,4.66,0,0,1-1,3.1,3.44,3.44,0,0,1-2.77,1.2A3.42,3.42,0,0,1,9.11,67a4.61,4.61,0,0,1-1-3.09Zm1.54.17a4,4,0,0,0,.57,2.22,1.87,1.87,0,0,0,1.68.88,1.85,1.85,0,0,0,1.67-.88,4,4,0,0,0,.58-2.22v-.17a4,4,0,0,0-.58-2.21,1.87,1.87,0,0,0-1.68-.88,1.85,1.85,0,0,0-1.67.88,4,4,0,0,0-.57,2.21Z"/><path class="cls-1" d="M17.19,63.75a4.69,4.69,0,0,1,1-3.09A3.41,3.41,0,0,1,21,59.45a3.44,3.44,0,0,1,2.78,1.21,4.64,4.64,0,0,1,1,3.09v.17a4.61,4.61,0,0,1-1,3.1A3.43,3.43,0,0,1,21,68.22,3.42,3.42,0,0,1,18.21,67a4.61,4.61,0,0,1-1-3.09Zm1.54.17a4,4,0,0,0,.56,2.22,2,2,0,0,0,3.36,0,4,4,0,0,0,.57-2.22v-.17a3.93,3.93,0,0,0-.58-2.21,2,2,0,0,0-3.35,0,4,4,0,0,0-.56,2.21Z"/><path class="cls-1" d="M26.29,64a5.64,5.64,0,0,1,.87-3.29,2.81,2.81,0,0,1,2.44-1.25,3.05,3.05,0,0,1,1.32.27,2.69,2.69,0,0,1,1,.8V55.87h1.54V68.06H32.26L32,67a2.72,2.72,0,0,1-1,.92,3,3,0,0,1-1.41.31,2.91,2.91,0,0,1-2.43-1.12,4.68,4.68,0,0,1-.87-2.95Zm1.54.16a3.56,3.56,0,0,0,.52,2A1.82,1.82,0,0,0,30,67a2,2,0,0,0,1.15-.31,2.29,2.29,0,0,0,.77-.88V61.84a2.37,2.37,0,0,0-.77-.83A2,2,0,0,0,30,60.7a1.74,1.74,0,0,0-1.63.91A4.64,4.64,0,0,0,27.83,64Z"/><path class="cls-1" d="M41.46,63.5v4.56H39.92V56.68h4.35a4.05,4.05,0,0,1,2.84.94,3.54,3.54,0,0,1,0,5,4,4,0,0,1-2.84.93Zm0-1.21h2.81a2.06,2.06,0,0,0,2.3-2.19A2.25,2.25,0,0,0,46,58.53a2.21,2.21,0,0,0-1.73-.64H41.46Z"/><path class="cls-1" d="M53.88,61l-.79,0a1.68,1.68,0,0,0-1,.29,1.82,1.82,0,0,0-.65.81v6H49.88V59.6h1.38l.15,1.24a2.77,2.77,0,0,1,.88-1,2,2,0,0,1,1.22-.37l.33,0,.25.05Z"/><path class="cls-1" d="M55,63.75a4.69,4.69,0,0,1,1-3.09,3.78,3.78,0,0,1,5.54,0,4.64,4.64,0,0,1,1,3.09v.17a4.61,4.61,0,0,1-1,3.1A3.77,3.77,0,0,1,56,67a4.61,4.61,0,0,1-1-3.09Zm1.54.17a4.06,4.06,0,0,0,.56,2.22,2,2,0,0,0,3.36,0A4,4,0,0,0,61,63.92v-.17a4,4,0,0,0-.57-2.21,1.89,1.89,0,0,0-1.69-.88,1.86,1.86,0,0,0-1.67.88,4.1,4.1,0,0,0-.56,2.21Z"/><path class="cls-1" d="M64.07,64a5.64,5.64,0,0,1,.87-3.29,2.82,2.82,0,0,1,2.44-1.25,3.05,3.05,0,0,1,1.32.27,2.69,2.69,0,0,1,1,.8V55.87h1.54V68.06H70L69.8,67a2.72,2.72,0,0,1-1,.92,3,3,0,0,1-1.41.31A2.89,2.89,0,0,1,65,67.1a4.63,4.63,0,0,1-.88-2.95Zm1.54.16a3.56,3.56,0,0,0,.52,2,1.82,1.82,0,0,0,1.63.77,2,2,0,0,0,1.15-.31,2.29,2.29,0,0,0,.77-.88V61.84a2.37,2.37,0,0,0-.77-.83,2,2,0,0,0-1.14-.31,1.74,1.74,0,0,0-1.63.91A4.74,4.74,0,0,0,65.61,64Z"/><path class="cls-1" d="M78.88,66.81a2.74,2.74,0,0,1-2.47,1.41,2.69,2.69,0,0,1-2.15-.88,4.09,4.09,0,0,1-.78-2.75v-5H75v5a3.15,3.15,0,0,0,.4,1.86,1.48,1.48,0,0,0,1.24.51A2.56,2.56,0,0,0,78,66.64a2.13,2.13,0,0,0,.81-.94V59.6h1.54v8.46H79Z"/><path class="cls-1" d="M86,67a1.83,1.83,0,0,0,1.24-.47,1.53,1.53,0,0,0,.53-1.16h1.39l0,0a2.44,2.44,0,0,1-.94,1.94,3.58,3.58,0,0,1-5-.36,4.65,4.65,0,0,1-1-3v-.33a4.65,4.65,0,0,1,1-3A3.33,3.33,0,0,1,86,59.45a3.23,3.23,0,0,1,2.32.87,2.79,2.79,0,0,1,.87,2.15l0,.05h-1.4a1.89,1.89,0,0,0-.5-1.32A1.67,1.67,0,0,0,86,60.66a1.76,1.76,0,0,0-1.65.88,4.05,4.05,0,0,0-.52,2.13V64a4.19,4.19,0,0,0,.51,2.14A1.76,1.76,0,0,0,86,67Z"/><path class="cls-1" d="M93.13,57.57v2h1.6v1.15h-1.6v5.13a1.16,1.16,0,0,0,.24.83A.87.87,0,0,0,94,67a1.77,1.77,0,0,0,.3,0l.27-.07.21,1.05a1.23,1.23,0,0,1-.5.23,2.63,2.63,0,0,1-.67.09,2,2,0,0,1-1.49-.56,2.47,2.47,0,0,1-.55-1.78V60.75H90.24V59.6h1.35v-2Z"/><path class="cls-1" d="M101.29,65.78a1,1,0,0,0-.39-.82,3.72,3.72,0,0,0-1.46-.57,6.23,6.23,0,0,1-2.3-.89,1.84,1.84,0,0,1-.8-1.55,2.25,2.25,0,0,1,.88-1.77,3.9,3.9,0,0,1,4.61,0,2.24,2.24,0,0,1,.85,1.82l0,.05H101.2a1.32,1.32,0,0,0-.49-1,1.73,1.73,0,0,0-1.21-.44,1.7,1.7,0,0,0-1.21.37,1.13,1.13,0,0,0-.41.87.92.92,0,0,0,.35.77,3.69,3.69,0,0,0,1.43.5,6,6,0,0,1,2.36.93,1.89,1.89,0,0,1,.81,1.57,2.25,2.25,0,0,1-.91,1.84A4.36,4.36,0,0,1,97,67.4a2.34,2.34,0,0,1-.88-1.91l0,0h1.46a1.43,1.43,0,0,0,.61,1.2,2.39,2.39,0,0,0,1.34.38,2.09,2.09,0,0,0,1.28-.35A1.07,1.07,0,0,0,101.29,65.78Z"/><path class="cls-1" d="M40.16,87.26V75.88h3.58a4.68,4.68,0,0,1,4.94,4.92v1.55a4.68,4.68,0,0,1-4.94,4.91ZM41.7,77.09v9h2a3.15,3.15,0,0,0,2.49-1,3.9,3.9,0,0,0,.91-2.67V80.78a3.88,3.88,0,0,0-.91-2.65,3.16,3.16,0,0,0-2.49-1Z"/><path class="cls-1" d="M54.79,80.16l-.79,0a1.71,1.71,0,0,0-1,.29,1.8,1.8,0,0,0-.64.81v6H50.79V78.8h1.37L52.31,80a2.88,2.88,0,0,1,.89-1,2,2,0,0,1,1.21-.37,1.69,1.69,0,0,1,.33,0,1.33,1.33,0,0,1,.26,0Z"/><path class="cls-1" d="M59.12,84.13l.27,1.06h0l2.08-6.39h1.71l-3.56,9.75A4.3,4.3,0,0,1,58.75,90a2.09,2.09,0,0,1-1.61.63,3.28,3.28,0,0,1-.48,0l-.44-.08.16-1.21h.27l.41,0a1,1,0,0,0,.81-.44,5,5,0,0,0,.52-1l.37-.88L55.62,78.8h1.72Z"/><path class="cls-1" d="M49.75,2.81H32.66a.7.7,0,0,0-.7.7V20.6a.7.7,0,0,0,.7.7H49.75a.71.71,0,0,0,.7-.7V3.51A.7.7,0,0,0,49.75,2.81ZM49,19.89H33.36V4.21H49Z"/><path class="cls-1" d="M69.64,0h-37a3.51,3.51,0,0,0-3.51,3.51v37A3.51,3.51,0,0,0,32.66,44h37a3.51,3.51,0,0,0,3.51-3.51v-37A3.51,3.51,0,0,0,69.64,0Zm2.1,40.49a2.11,2.11,0,0,1-2.1,2.11h-37a2.12,2.12,0,0,1-2.11-2.11v-37A2.12,2.12,0,0,1,32.66,1.4h37a2.11,2.11,0,0,1,2.1,2.11Z"/><path class="cls-1" d="M59.34,5.73a2.81,2.81,0,0,0,0,5.62.7.7,0,0,1,.7.7.71.71,0,0,1-.7.71,2.81,2.81,0,1,0,0,5.61,6.32,6.32,0,0,0,0-12.64Zm0,11.24a1.41,1.41,0,0,1,0-2.81,2.11,2.11,0,0,0,0-4.21,1.41,1.41,0,0,1,0-2.81,4.92,4.92,0,1,1,0,9.83Z"/><path class="cls-1" d="M69.64,2.81H52.55a.7.7,0,0,0-.7.7V20.6a.71.71,0,0,0,.7.7H69.64a.7.7,0,0,0,.7-.7V3.51A.7.7,0,0,0,69.64,2.81Zm-.7,17.08H53.26V4.21H68.94V19.89Z"/><path class="cls-1" d="M66,33.34a10.27,10.27,0,0,0-1.64-5.22c-1-1.56-2.24-2.49-3.27-2.49H61c-1,0-2.22,1-3.21,2.49a10.19,10.19,0,0,0-1.65,5.22h0a4.92,4.92,0,1,0,9.83,0Zm-6.5-5a24.56,24.56,0,0,0-.52,5,10.92,10.92,0,0,0,.4,3.07,3.52,3.52,0,0,1-1.8-3.06A8.81,8.81,0,0,1,59,28.88c.19-.28.38-.53.56-.75A2.25,2.25,0,0,1,59.51,28.35Zm3.29,8.07a8.79,8.79,0,0,0,.32-1.58.71.71,0,0,0-1.4-.17,4.75,4.75,0,0,1-.62,2.13,6.42,6.42,0,0,1-.71-3.45,21.52,21.52,0,0,1,.71-5.55A20.75,20.75,0,0,1,61.75,32a.71.71,0,0,0,.75.66.7.7,0,0,0,.65-.75,24.81,24.81,0,0,0-.52-3.78c.18.22.37.48.56.76a8.82,8.82,0,0,1,1.42,4.48A3.53,3.53,0,0,1,62.8,36.42Z"/><path class="cls-1" d="M69.64,22.7H52.55a.71.71,0,0,0-.7.71V40.49a.7.7,0,0,0,.7.7H69.64a.7.7,0,0,0,.7-.7V23.41A.7.7,0,0,0,69.64,22.7Zm-.7,17.09H53.26V24.11H68.94V39.79Z"/><path class="cls-1" d="M39.45,25.63a2.81,2.81,0,0,0,0,5.62.7.7,0,1,1,0,1.4,2.81,2.81,0,0,0,0,5.62,6.32,6.32,0,0,0,0-12.64Zm0,11.23a1.41,1.41,0,1,1,0-2.81,2.11,2.11,0,0,0,0-4.21,1.41,1.41,0,1,1,0-2.81,4.92,4.92,0,0,1,0,9.83Z"/><path class="cls-1" d="M49.75,22.7H32.66a.7.7,0,0,0-.7.71V40.49a.7.7,0,0,0,.7.7H49.75a.7.7,0,0,0,.7-.7V23.41A.71.71,0,0,0,49.75,22.7ZM49,39.79H33.36V24.11H49Z"/><path class="cls-1" d="M46.12,13.45a10.23,10.23,0,0,0-1.65-5.23c-1-1.55-2.23-2.49-3.27-2.49h-.06c-1,0-2.22,1-3.21,2.48a10.12,10.12,0,0,0-1.64,5.23h0a4.92,4.92,0,0,0,9.83,0Zm-6.5-5a24.49,24.49,0,0,0-.52,5,10.5,10.5,0,0,0,.4,3.06,3.49,3.49,0,0,1-1.81-3.06A8.76,8.76,0,0,1,39.11,9a7.15,7.15,0,0,1,.56-.76C39.65,8.31,39.64,8.38,39.62,8.46Zm3.29,8.06a8.79,8.79,0,0,0,.32-1.58.7.7,0,1,0-1.4-.16,4.76,4.76,0,0,1-.63,2.13,6.56,6.56,0,0,1-.7-3.45,22.06,22.06,0,0,1,.7-5.55,20.38,20.38,0,0,1,.66,4.19.7.7,0,0,0,1.4-.09,23.42,23.42,0,0,0-.53-3.78,6,6,0,0,1,.56.76,8.66,8.66,0,0,1,1.42,4.47A3.5,3.5,0,0,1,42.91,16.52Z"/></g></g></svg>