<svg xmlns="http://www.w3.org/2000/svg" viewBox="0 0 121.81 90.35"><defs><style>.cls-1{fill:#fff;}</style></defs><title>fruits_vegetablesfrozen_hover</title><g id="Layer_2" data-name="Layer 2"><g id="Layer_1-2" data-name="Layer 1"><path class="cls-1" d="M6.34,66H1.54v5H0V59.62H7.13v1.21H1.54v3.92h4.8Z"/><path class="cls-1" d="M12.41,63.9l-.78,0a1.79,1.79,0,0,0-1,.29A1.82,1.82,0,0,0,10,65v6H8.41V62.54H9.79l.15,1.23a2.86,2.86,0,0,1,.88-1A2.07,2.07,0,0,1,12,62.38l.33,0,.26.06Z"/><path class="cls-1" d="M19.38,69.74a2.69,2.69,0,0,1-2.47,1.41,2.69,2.69,0,0,1-2.15-.88A4.07,4.07,0,0,1,14,67.52v-5h1.54v5a3.2,3.2,0,0,0,.4,1.86,1.48,1.48,0,0,0,1.24.5,2.56,2.56,0,0,0,1.36-.33,2.08,2.08,0,0,0,.81-.94V62.54h1.54V71H19.48Z"/><path class="cls-1" d="M24.77,60.37H23.23V58.8h1.54Zm0,10.62H23.23V62.54h1.54Z"/><path class="cls-1" d="M29.28,60.5v2h1.6v1.14h-1.6v5.13a1.13,1.13,0,0,0,.25.84.88.88,0,0,0,.65.24,1.13,1.13,0,0,0,.3,0,1.31,1.31,0,0,0,.27-.07l.21,1a1.1,1.1,0,0,1-.51.23,2.5,2.5,0,0,1-.66.09,2,2,0,0,1-1.49-.56,2.47,2.47,0,0,1-.56-1.78V63.68H26.4V62.54h1.34v-2Z"/><path class="cls-1" d="M37.45,68.72a1,1,0,0,0-.39-.83,3.81,3.81,0,0,0-1.47-.56,6.34,6.34,0,0,1-2.29-.9,1.83,1.83,0,0,1-.8-1.55,2.19,2.19,0,0,1,.88-1.76,3.86,3.86,0,0,1,4.6,0A2.25,2.25,0,0,1,38.84,65l0,0H37.35a1.32,1.32,0,0,0-.48-1,1.71,1.71,0,0,0-1.21-.45,1.73,1.73,0,0,0-1.22.37,1.13,1.13,0,0,0-.4.87.91.91,0,0,0,.35.78,3.86,3.86,0,0,0,1.43.5,6.1,6.1,0,0,1,2.36.93,1.88,1.88,0,0,1,.8,1.57,2.2,2.2,0,0,1-.91,1.83,3.7,3.7,0,0,1-2.37.71,3.71,3.71,0,0,1-2.55-.82,2.3,2.3,0,0,1-.88-1.91v0h1.47a1.43,1.43,0,0,0,.61,1.2A2.29,2.29,0,0,0,35.7,70,2,2,0,0,0,37,69.6,1.05,1.05,0,0,0,37.45,68.72Z"/><path class="cls-1" d="M42.24,70.62,41.07,73h-.91l.54-2.47V69.26h1.54Z"/><path class="cls-1" d="M47.72,68,48,69h0l.26-.94,2.94-8.39h1.66L48.66,71H47.34L43.11,59.62h1.67Z"/><path class="cls-1" d="M57.33,71.15A3.55,3.55,0,0,1,54.49,70a4.49,4.49,0,0,1-1-3.06v-.35a4.4,4.4,0,0,1,1.05-3,3.3,3.3,0,0,1,2.57-1.19,3.06,3.06,0,0,1,2.54,1.06,4.35,4.35,0,0,1,.85,2.8v.81H55.07l0,0a3.47,3.47,0,0,0,.56,2.07,2,2,0,0,0,1.72.79,3.86,3.86,0,0,0,1.37-.22,3.1,3.1,0,0,0,1-.61l.6,1a3.71,3.71,0,0,1-1.19.73A4.79,4.79,0,0,1,57.33,71.15Zm-.24-7.56a1.71,1.71,0,0,0-1.34.62,3,3,0,0,0-.64,1.59l0,0h3.81v-.12a2.44,2.44,0,0,0-.46-1.53A1.63,1.63,0,0,0,57.09,63.59Z"/><path class="cls-1" d="M61.93,66.92a5.64,5.64,0,0,1,.87-3.29,2.8,2.8,0,0,1,2.43-1.25,3,3,0,0,1,1.42.33,2.82,2.82,0,0,1,1,.93l.19-1.1h1.23V71a3.22,3.22,0,0,1-1,2.49,3.89,3.89,0,0,1-2.73.87,5.77,5.77,0,0,1-1.31-.16,5.71,5.71,0,0,1-1.25-.46l.24-1.2a3.93,3.93,0,0,0,1.07.38,5.32,5.32,0,0,0,1.24.15A2.27,2.27,0,0,0,67,72.6,2.12,2.12,0,0,0,67.55,71v-1a2.75,2.75,0,0,1-1,.8,3.1,3.1,0,0,1-1.33.27A2.89,2.89,0,0,1,62.8,70a4.66,4.66,0,0,1-.87-3Zm1.54.16a3.58,3.58,0,0,0,.52,2,1.81,1.81,0,0,0,1.62.77,2,2,0,0,0,1.16-.31,2.39,2.39,0,0,0,.78-.9V64.8a2.37,2.37,0,0,0-.78-.85,2,2,0,0,0-1.14-.32,1.75,1.75,0,0,0-1.63.92,4.6,4.6,0,0,0-.53,2.37Z"/><path class="cls-1" d="M74.8,71.15A3.55,3.55,0,0,1,72,70a4.49,4.49,0,0,1-1-3.06v-.35a4.4,4.4,0,0,1,1-3,3.29,3.29,0,0,1,2.56-1.19,3.07,3.07,0,0,1,2.55,1.06,4.35,4.35,0,0,1,.85,2.8v.81H72.54l0,0a3.47,3.47,0,0,0,.56,2.07A2,2,0,0,0,74.8,70a3.86,3.86,0,0,0,1.37-.22,3.1,3.1,0,0,0,1-.61l.6,1a3.71,3.71,0,0,1-1.19.73A4.83,4.83,0,0,1,74.8,71.15Zm-.25-7.56a1.69,1.69,0,0,0-1.33.62,3,3,0,0,0-.64,1.59v0h3.82v-.12A2.51,2.51,0,0,0,76,64.19,1.64,1.64,0,0,0,74.55,63.59Z"/><path class="cls-1" d="M81.81,60.5v2h1.6v1.14h-1.6v5.13a1.13,1.13,0,0,0,.25.84.88.88,0,0,0,.65.24,1.13,1.13,0,0,0,.3,0,1.31,1.31,0,0,0,.27-.07l.21,1a1.1,1.1,0,0,1-.51.23,2.5,2.5,0,0,1-.66.09,2,2,0,0,1-1.49-.56,2.47,2.47,0,0,1-.56-1.78V63.68H78.93V62.54h1.34v-2Z"/><path class="cls-1" d="M90.26,71c-.05-.25-.1-.48-.12-.68a3.81,3.81,0,0,1,0-.59,3.48,3.48,0,0,1-1.13,1,3.15,3.15,0,0,1-3.5-.26,2.48,2.48,0,0,1-.69-1.86,2.2,2.2,0,0,1,1-1.9A4.64,4.64,0,0,1,88.41,66h1.68V65.2A1.54,1.54,0,0,0,89.63,64a1.77,1.77,0,0,0-1.28-.44,1.86,1.86,0,0,0-1.21.38,1.12,1.12,0,0,0-.46.9H85.22l0,0a2,2,0,0,1,.87-1.68,3.57,3.57,0,0,1,2.37-.77,3.48,3.48,0,0,1,2.31.73,2.61,2.61,0,0,1,.88,2.11v4.07a8.19,8.19,0,0,0,0,.87,4.7,4.7,0,0,0,.17.83ZM87.7,69.87a2.8,2.8,0,0,0,1.51-.43,2.09,2.09,0,0,0,.88-1V67.08H88.36a2.2,2.2,0,0,0-1.49.47,1.39,1.39,0,0,0-.56,1.1,1.18,1.18,0,0,0,.35.89A1.48,1.48,0,0,0,87.7,69.87Z"/><path class="cls-1" d="M101.08,67.08a4.61,4.61,0,0,1-.88,3,2.9,2.9,0,0,1-2.42,1.12,3.06,3.06,0,0,1-1.46-.33,2.68,2.68,0,0,1-1-1L95,71H93.86V58.8H95.4v4.74a2.56,2.56,0,0,1,1-.86,3,3,0,0,1,1.38-.3,2.8,2.8,0,0,1,2.43,1.25,5.57,5.57,0,0,1,.88,3.29Zm-1.54-.16A4.62,4.62,0,0,0,99,64.55a1.76,1.76,0,0,0-1.62-.92,2,2,0,0,0-1.2.35,2.38,2.38,0,0,0-.78.93v3.67a2.54,2.54,0,0,0,.78,1,2,2,0,0,0,1.21.35A1.83,1.83,0,0,0,99,69.13a3.58,3.58,0,0,0,.53-2Z"/><path class="cls-1" d="M104.62,71h-1.54V58.8h1.54Z"/><path class="cls-1" d="M110.48,71.15A3.57,3.57,0,0,1,107.64,70a4.48,4.48,0,0,1-1-3.06v-.35a4.35,4.35,0,0,1,1.05-3,3.29,3.29,0,0,1,2.56-1.19,3.07,3.07,0,0,1,2.55,1.06,4.35,4.35,0,0,1,.84,2.8v.81h-5.4l0,0a3.47,3.47,0,0,0,.57,2.07,1.94,1.94,0,0,0,1.71.79,3.92,3.92,0,0,0,1.38-.22,3.1,3.1,0,0,0,1-.61l.6,1a3.65,3.65,0,0,1-1.2.73A4.75,4.75,0,0,1,110.48,71.15Zm-.24-7.56a1.69,1.69,0,0,0-1.33.62,2.92,2.92,0,0,0-.64,1.59v0h3.81v-.12a2.5,2.5,0,0,0-.45-1.53A1.64,1.64,0,0,0,110.24,63.59Z"/><path class="cls-1" d="M120.27,68.72a1,1,0,0,0-.38-.83,3.81,3.81,0,0,0-1.47-.56,6.34,6.34,0,0,1-2.29-.9,1.81,1.81,0,0,1-.8-1.55,2.19,2.19,0,0,1,.88-1.76,3.86,3.86,0,0,1,4.6,0,2.21,2.21,0,0,1,.85,1.82v0h-1.47a1.32,1.32,0,0,0-.48-1,2,2,0,0,0-2.43-.08,1.13,1.13,0,0,0-.4.87.93.93,0,0,0,.34.78,3.93,3.93,0,0,0,1.44.5A6.16,6.16,0,0,1,121,67a1.88,1.88,0,0,1,.8,1.57,2.2,2.2,0,0,1-.91,1.83,4.34,4.34,0,0,1-4.92-.11,2.33,2.33,0,0,1-.89-1.91l0,0h1.47a1.4,1.4,0,0,0,.61,1.2,2.28,2.28,0,0,0,1.33.38,2.06,2.06,0,0,0,1.29-.35A1,1,0,0,0,120.27,68.72Z"/><path class="cls-1" d="M44.09,85.16h-4.8v5H37.75V78.82h7.14V80h-5.6V84h4.8Z"/><path class="cls-1" d="M50.17,83.1l-.79,0a1.7,1.7,0,0,0-1.67,1.1v6H46.17V81.74h1.37L47.69,83a2.88,2.88,0,0,1,.89-1,2,2,0,0,1,1.21-.37,1.69,1.69,0,0,1,.33,0l.26.06Z"/><path class="cls-1" d="M51.25,85.89a4.64,4.64,0,0,1,1-3.09,3.75,3.75,0,0,1,5.53,0,4.65,4.65,0,0,1,1,3.1v.17a4.65,4.65,0,0,1-1,3.09,3.8,3.8,0,0,1-5.54,0,4.64,4.64,0,0,1-1-3.09Zm1.54.17a4,4,0,0,0,.57,2.22,2,2,0,0,0,3.35,0,4,4,0,0,0,.58-2.22v-.17a4,4,0,0,0-.58-2.21,2,2,0,0,0-3.35,0,4,4,0,0,0-.57,2.21Z"/><path class="cls-1" d="M62,89h4.88v1.2H60.2V89.11L64.77,83H60.25V81.74h6.4v1Z"/><path class="cls-1" d="M72,90.35a3.57,3.57,0,0,1-2.84-1.16,4.47,4.47,0,0,1-1-3.06v-.35a4.36,4.36,0,0,1,1.06-3,3.28,3.28,0,0,1,2.56-1.19,3,3,0,0,1,2.54,1.06,4.29,4.29,0,0,1,.85,2.8v.81h-5.4l0,0a3.47,3.47,0,0,0,.57,2.07,1.94,1.94,0,0,0,1.71.79,3.92,3.92,0,0,0,1.38-.22,3.1,3.1,0,0,0,1-.61l.6,1a3.65,3.65,0,0,1-1.2.73A4.75,4.75,0,0,1,72,90.35Zm-.24-7.56a1.67,1.67,0,0,0-1.33.62A2.92,2.92,0,0,0,69.79,85v0h3.81v-.12a2.5,2.5,0,0,0-.45-1.53A1.64,1.64,0,0,0,71.76,82.79Z"/><path class="cls-1" d="M78.25,81.74,78.36,83a3.13,3.13,0,0,1,1.06-1,2.92,2.92,0,0,1,1.45-.37,2.78,2.78,0,0,1,2.12.8,3.53,3.53,0,0,1,.75,2.47v5.34H82.2v-5.3a2.31,2.31,0,0,0-.44-1.59,1.8,1.8,0,0,0-1.35-.47,2.41,2.41,0,0,0-1.21.29,2,2,0,0,0-.78.8v6.27H76.88V81.74Z"/><path class="cls-1" d="M53,16v1.6a1.6,1.6,0,0,1,1.6,1.6h1.6A3.21,3.21,0,0,0,53,16Z"/><rect class="cls-1" x="66.63" y="14.07" width="1.6" height="2.26" transform="translate(9 52.13) rotate(-45)"/><rect class="cls-1" x="78.63" y="24.8" width="3.2" height="1.6"/><rect class="cls-1" x="43.43" y="24.8" width="3.2" height="1.6"/><rect class="cls-1" x="78.63" y="32.8" width="3.2" height="1.6"/><rect class="cls-1" x="43.43" y="32.8" width="3.2" height="1.6"/><rect class="cls-1" x="78.63" y="40.8" width="3.2" height="1.6"/><rect class="cls-1" x="43.43" y="40.8" width="3.2" height="1.6"/><path class="cls-1" d="M68.23,36.8a.8.8,0,0,0-.8-.8,5.22,5.22,0,0,0-4,1.71V36.43c.78-.55,2.4-1.89,2.4-3.63,0-2.16-2.51-3.72-2.79-3.89a.8.8,0,0,0-.82,0c-.29.17-2.79,1.73-2.79,3.89,0,1.74,1.62,3.08,2.4,3.63v1.28a5.23,5.23,0,0,0-4-1.71.8.8,0,0,0-.8.8c0,3.45,1.94,6,4.8,6.34V44.8h1.6V43.14C66.29,42.75,68.23,40.25,68.23,36.8Zm-1.66.88a4.15,4.15,0,0,1-3.09,3.84C63.71,39.79,64.61,38.07,66.57,37.68Zm-3.94-7.11c.65.48,1.6,1.38,1.6,2.23s-1,1.75-1.6,2.23C62,34.55,61,33.66,61,32.8S62,31.05,62.63,30.57Zm-3.94,7.11c2,.39,2.86,2.11,3.08,3.84A4.14,4.14,0,0,1,58.69,37.68Z"/><path class="cls-1" d="M84.23,20.8h-.85a7.09,7.09,0,0,0-2.7-4.63A4.69,4.69,0,0,0,81,14.4a4.82,4.82,0,0,0-3.88-4.71c0-.32-.07-.64-.12-.95a5.6,5.6,0,0,0,4.8-5.54V2.4a.8.8,0,0,0-.8-.8h-.8a5.6,5.6,0,0,0-4.8,2.72,13.9,13.9,0,0,0-1.82-2.46L72.44,3a12,12,0,0,1,2.33,3.66,10.43,10.43,0,0,1,.5,1.58s0,0,0,0c.06.24.12.47.16.72s.07.49.09.73a4.8,4.8,0,0,0-3.67,2.77,6.79,6.79,0,0,0-4.83-2h-.4c-.12,0-.23,0-.34,0a10.84,10.84,0,0,1,1.41-2h0l.09-.1L68,8.11h0a11.91,11.91,0,0,1,2.25-1.83L69.4,4.93c-.34.21-.72.48-1.1.77a5.44,5.44,0,0,0-1.07-3.56C66.36,1,63,.22,62,0a.79.79,0,0,0-.91.5c-.11.3-1.07,3,0,4.9a5.59,5.59,0,0,0,3.59,2.52l1.09.35a11.94,11.94,0,0,0-1.21,2,5.56,5.56,0,0,0-8.14,3.45,6.34,6.34,0,0,0-7.87.88A4,4,0,0,1,48.81,13l.12-.27a16.16,16.16,0,0,1,2-3l.37-.49L50,8.32l-.37.49c-.37.48-.71.95-1,1.4A4,4,0,0,0,45,8h-.8a.8.8,0,0,0-.8.8v.8a4,4,0,0,0,3.58,4,5.46,5.46,0,0,0,0,1.67l-.36,0a4.8,4.8,0,0,0-4.8,4.8,5.29,5.29,0,0,0,.07.8H41a2.41,2.41,0,0,0-2.4,2.4V28a2.38,2.38,0,0,0,.62,1.6,2.4,2.4,0,0,0-.62,1.6V36a2.38,2.38,0,0,0,.62,1.6,2.4,2.4,0,0,0-.62,1.6V44A2.41,2.41,0,0,0,41,46.4H56.89a11.1,11.1,0,0,0,11.48,0H84.23a2.41,2.41,0,0,0,2.4-2.4V39.2A2.36,2.36,0,0,0,86,37.6a2.34,2.34,0,0,0,.63-1.6V31.2A2.36,2.36,0,0,0,86,29.6a2.34,2.34,0,0,0,.63-1.6V23.2A2.41,2.41,0,0,0,84.23,20.8ZM45,9.6a2.41,2.41,0,0,1,2.4,2.4A2.41,2.41,0,0,1,45,9.6Zm35.2-6.4a4,4,0,0,1-3.57,4c-.09-.33-.2-.64-.31-.94A4,4,0,0,1,80.23,3.2Zm-4.66,8.07a11,11,0,0,1-.13,1.4l1.58.26a11.91,11.91,0,0,0,.15-1.57A3.15,3.15,0,0,1,79,16a.8.8,0,0,0,.25,1.08,5.44,5.44,0,0,1,2.54,3.7H69.1s0,0,0-.07a5.48,5.48,0,0,1,.17-.67l.1-.24a3.76,3.76,0,0,1,.2-.46,1.82,1.82,0,0,1,.15-.27A3.22,3.22,0,0,1,70,18.7a2.48,2.48,0,0,1,.19-.26c.09-.12.2-.24.3-.36l.23-.23c.12-.11.24-.22.37-.32a2.43,2.43,0,0,1,.25-.2,5.27,5.27,0,0,1,.46-.31l.23-.14a6.82,6.82,0,0,1,.77-.37.81.81,0,0,0,.46-1A3,3,0,0,1,73,14.42a.76.76,0,0,0,0-.14v0A3.21,3.21,0,0,1,75.57,11.27ZM65.09,6.39a4,4,0,0,1-2.61-1.77,4.31,4.31,0,0,1-.1-2.88c1.59.38,3.27,1,3.56,1.36a4.15,4.15,0,0,1,.7,3.19.41.41,0,0,0,0,.11v.49l-1.38-.46ZM61.83,11.2a4,4,0,0,1,2.12.63,13,13,0,0,0-.52,2.49l1.59.16a10.73,10.73,0,0,1,.48-2.25A3.14,3.14,0,0,1,66.59,12H67a5.22,5.22,0,0,1,4.4,2.44v0a5,5,0,0,0,.1.85,8,8,0,0,0-.86.5l-.26.19c-.17.13-.35.26-.51.4l-.27.25c-.14.14-.28.27-.4.41l-.25.3a4.59,4.59,0,0,0-.33.44,3.62,3.62,0,0,0-.22.32c-.09.16-.18.31-.26.47L68,19c-.07.17-.13.34-.19.51a3.59,3.59,0,0,0-.12.35c0,.18-.09.37-.13.56a3.43,3.43,0,0,0-.06.34.29.29,0,0,0,0,.09H59.22a.13.13,0,0,0,0-.06,5.6,5.6,0,0,0,.12-.59l0-.18a6.49,6.49,0,0,0,0-.77c0-.21,0-.41,0-.62l0-.19L59.31,18c0-.07,0-.14-.05-.21s-.06-.26-.1-.39,0-.13-.07-.2S59,16.92,59,16.8l-.09-.19c0-.12-.11-.24-.17-.36l-.1-.19c-.06-.11-.13-.21-.2-.32l-.12-.19-.22-.29-.16-.2L57.83,15A4,4,0,0,1,61.83,11.2ZM43.43,20a3.2,3.2,0,0,1,3.2-3.2,3,3,0,0,1,.84.13c.14.34.29.68.48,1a4.8,4.8,0,0,0,1.9,1.92l.81-1.38a3.24,3.24,0,0,1-1.29-1.28c-.13-.24-.23-.46-.33-.68a4.77,4.77,0,0,1,7.5-.61l.22.24.11.16.16.21.13.22.1.17c.05.09.08.17.12.26a.8.8,0,0,1,.08.16c0,.09.07.19.1.28l.06.16a2.21,2.21,0,0,1,.07.3.83.83,0,0,1,0,.15c0,.11,0,.21.05.32a.77.77,0,0,1,0,.15,3.87,3.87,0,0,1,0,.48,5.67,5.67,0,0,1-.06.71,1.77,1.77,0,0,1,0,.2,4.34,4.34,0,0,1-.16.62l0,.07h-14A3.08,3.08,0,0,1,43.43,20Zm-3.2,3.2a.8.8,0,0,1,.8-.8h43.2a.8.8,0,0,1,.8.8V28a.8.8,0,0,1-.8.8H70.46l-.2-.17-.58-.52c-.14-.12-.3-.23-.45-.34l-.39-.28-.69-.42-.22-.13c-.27-.15-.55-.28-.84-.41L67,26.48c-.3-.13-.61-.24-.92-.34l-.11,0a9.32,9.32,0,0,0-.91-.23l-.17,0c-.29-.06-.59-.1-.89-.14l-.21,0a10.69,10.69,0,0,0-1.13-.06,10.55,10.55,0,0,0-1.13.06l-.22,0c-.3,0-.59.08-.89.14l-.16,0a8.65,8.65,0,0,0-.91.23l-.12,0c-.31.1-.61.21-.91.34l-.12.05c-.29.13-.57.26-.85.41l-.21.13a7.92,7.92,0,0,0-.69.42c-.14.09-.26.19-.39.28l-.46.34c-.2.17-.38.34-.57.52l-.2.17H41a.8.8,0,0,1-.8-.8Zm44.8,8V36a.8.8,0,0,1-.8.8H73.83c0-.34,0-.69,0-1,0-.1,0-.2,0-.31s-.07-.48-.11-.72l-.06-.31c-.06-.29-.14-.58-.22-.87l0-.1c-.1-.32-.22-.63-.34-.93l-.12-.27c-.1-.21-.2-.42-.31-.63s-.11-.21-.16-.31-.23-.38-.35-.57l-.18-.28,0-.07H84.23A.8.8,0,0,1,85,31.2Zm-31.81-.45c-.12.19-.24.38-.35.57l-.17.31c-.1.21-.21.42-.3.63l-.12.27a9.33,9.33,0,0,0-.34.93l0,.1c-.09.29-.16.58-.22.87a2.84,2.84,0,0,0-.06.31,6,6,0,0,0-.11.72c0,.11,0,.21,0,.31,0,.34,0,.69,0,1H41a.8.8,0,0,1-.8-.8V31.2a.8.8,0,0,1,.8-.8H53.44l0,.07ZM41,44.8a.8.8,0,0,1-.8-.8V39.2a.8.8,0,0,1,.8-.8H51.55a.29.29,0,0,1,0,.09,11.14,11.14,0,0,0,1.53,4.17h0a7,7,0,0,0,.49.72.18.18,0,0,0,0,.07c.16.23.34.45.52.67l0,0c.19.22.38.43.59.63Zm16.47.1a9.6,9.6,0,0,1-4.43-7.36c0-.24,0-.49,0-.74s0-.64,0-.95c0-.12,0-.23.05-.34a5.58,5.58,0,0,1,.09-.59c0-.13.06-.26.09-.39s.08-.35.13-.51l.15-.41c0-.16.1-.31.16-.46s.13-.29.2-.43.12-.27.19-.4l.27-.45c.06-.11.13-.22.2-.33s.23-.33.35-.49l.18-.24c.14-.18.29-.34.45-.51l.15-.17q.28-.28.57-.54l.15-.13c.16-.14.34-.27.52-.4l.25-.19.37-.23.45-.28h0a9.54,9.54,0,0,1,9.08,0h0l.46.28.36.23.26.19.52.4.15.13c.19.17.38.35.56.54a1.29,1.29,0,0,1,.16.17c.16.17.31.33.45.51l.18.24c.12.16.24.32.35.49l.2.33c.09.15.18.3.26.45s.13.27.2.4.13.28.19.43.12.3.17.46.1.27.14.41.09.34.13.51.07.26.1.39.06.39.09.59,0,.22.05.34c0,.31,0,.63,0,.95s0,.5,0,.74a9.63,9.63,0,0,1-4.43,7.36,9.52,9.52,0,0,1-10.26,0ZM85,44a.8.8,0,0,1-.8.8H70.45c.21-.2.4-.41.59-.63,0,0,0,0,0,0,.19-.22.36-.44.53-.67a.18.18,0,0,0,0-.07c.17-.23.33-.47.49-.72h0a11.14,11.14,0,0,0,1.53-4.17s0-.06,0-.09H84.23a.8.8,0,0,1,.8.8Z"/></g></g></svg>