<svg xmlns="http://www.w3.org/2000/svg" viewBox="0 0 128.99 87.18"><defs><style>.cls-1{fill:#fff;}.cls-2{fill:none;stroke:#fff;stroke-miterlimit:10;stroke-width:2px;}</style></defs><title>fruitdrinksplasticcontainers_hover</title><g id="Layer_2" data-name="Layer 2"><g id="Layer_1-2" data-name="Layer 1"><path class="cls-1" d="M24.88,62.78h-4.8v5H18.54V56.44h7.13v1.21H20.08v3.92h4.8Z"/><path class="cls-1" d="M31,60.72l-.79,0a1.75,1.75,0,0,0-1,.29,1.88,1.88,0,0,0-.65.81v6H27V59.36h1.38l.15,1.23a2.94,2.94,0,0,1,.88-1,2.12,2.12,0,0,1,1.22-.37l.33,0,.25.06Z"/><path class="cls-1" d="M37.92,66.56A2.73,2.73,0,0,1,35.45,68a2.7,2.7,0,0,1-2.15-.89,4.05,4.05,0,0,1-.78-2.75v-5h1.54v5a3.2,3.2,0,0,0,.4,1.86,1.48,1.48,0,0,0,1.24.51,2.56,2.56,0,0,0,1.36-.33,2.22,2.22,0,0,0,.81-1V59.36h1.54v8.45H38Z"/><path class="cls-1" d="M43.31,57.2H41.77V55.63h1.54Zm0,10.61H41.77V59.36h1.54Z"/><path class="cls-1" d="M47.82,57.32v2h1.6V60.5h-1.6v5.13a1.13,1.13,0,0,0,.25.84.88.88,0,0,0,.65.24l.3,0,.27-.08.21,1.06a1.52,1.52,0,0,1-.51.23,2.5,2.5,0,0,1-.66.09,2,2,0,0,1-1.49-.57,2.42,2.42,0,0,1-.56-1.78V60.5H44.94V59.36h1.34v-2Z"/><path class="cls-1" d="M55.26,67.81V56.44h3.58a4.67,4.67,0,0,1,4.93,4.91v1.56a4.65,4.65,0,0,1-4.93,4.9ZM56.8,57.65v9h2a3.12,3.12,0,0,0,2.48-1,3.87,3.87,0,0,0,.91-2.66V61.34a3.84,3.84,0,0,0-.91-2.65,3.12,3.12,0,0,0-2.48-1Z"/><path class="cls-1" d="M69.88,60.72l-.79,0a1.75,1.75,0,0,0-1,.29,1.88,1.88,0,0,0-.65.81v6H65.88V59.36h1.38l.15,1.23a2.94,2.94,0,0,1,.88-1,2.12,2.12,0,0,1,1.22-.37l.33,0,.25.06Z"/><path class="cls-1" d="M73.15,57.2H71.61V55.63h1.54Zm0,10.61H71.61V59.36h1.54Z"/><path class="cls-1" d="M76.89,59.36,77,60.62a3,3,0,0,1,1.06-1,2.87,2.87,0,0,1,1.45-.37,2.78,2.78,0,0,1,2.12.8,3.54,3.54,0,0,1,.75,2.48v5.33H80.84v-5.3a2.27,2.27,0,0,0-.45-1.59,1.76,1.76,0,0,0-1.34-.47,2.38,2.38,0,0,0-1.21.29,2.17,2.17,0,0,0-.79.8v6.27H75.52V59.36Z"/><path class="cls-1" d="M87,63.91h-.79v3.9H84.62V55.63h1.54v7.06h.77l2.54-3.33h1.84l-3.07,3.9,3.34,4.55H89.76Z"/><path class="cls-1" d="M97.73,65.54a1,1,0,0,0-.39-.83,3.82,3.82,0,0,0-1.46-.56,6.06,6.06,0,0,1-2.3-.9,1.82,1.82,0,0,1-.8-1.55,2.22,2.22,0,0,1,.88-1.76,3.43,3.43,0,0,1,2.28-.74,3.39,3.39,0,0,1,2.33.79,2.25,2.25,0,0,1,.85,1.82l0,0H97.63a1.34,1.34,0,0,0-.48-1,1.69,1.69,0,0,0-1.21-.45,1.78,1.78,0,0,0-1.22.37,1.15,1.15,0,0,0-.4.88.93.93,0,0,0,.35.77,3.86,3.86,0,0,0,1.43.5,6.1,6.1,0,0,1,2.36.93,1.86,1.86,0,0,1,.81,1.57,2.26,2.26,0,0,1-.91,1.84,4.36,4.36,0,0,1-4.93-.11,2.35,2.35,0,0,1-.88-1.92v0H94a1.46,1.46,0,0,0,.61,1.2,2.36,2.36,0,0,0,1.34.37,2.11,2.11,0,0,0,1.28-.34A1.07,1.07,0,0,0,97.73,65.54Z"/><path class="cls-1" d="M106,63.61h-4.61v-1.2H106Z"/><path class="cls-1" d="M1.54,82.45V87H0V75.64H4.35a4,4,0,0,1,2.83.94,3.5,3.5,0,0,1,0,4.94,4,4,0,0,1-2.83.93Zm0-1.2H4.35a2.25,2.25,0,0,0,1.73-.62,2.44,2.44,0,0,0,0-3.15,2.2,2.2,0,0,0-1.72-.63H1.54Z"/><path class="cls-1" d="M11.63,87H10.09V74.83h1.54Z"/><path class="cls-1" d="M19.19,87a5.34,5.34,0,0,1-.12-.67,3.92,3.92,0,0,1-.05-.59,3.72,3.72,0,0,1-1.13,1,2.87,2.87,0,0,1-1.48.41,2.8,2.8,0,0,1-2-.68,2.48,2.48,0,0,1-.69-1.86,2.2,2.2,0,0,1,1-1.9,4.64,4.64,0,0,1,2.66-.68H19v-.84a1.56,1.56,0,0,0-.46-1.17,1.77,1.77,0,0,0-1.28-.43,1.86,1.86,0,0,0-1.21.37,1.12,1.12,0,0,0-.46.9H14.15l0,0A2,2,0,0,1,15,79.17a3.57,3.57,0,0,1,2.37-.77,3.53,3.53,0,0,1,2.31.73,2.6,2.6,0,0,1,.87,2.11v4.07a8.49,8.49,0,0,0,.05.88,4.59,4.59,0,0,0,.17.82Zm-2.56-1.12a2.72,2.72,0,0,0,1.51-.43,2.09,2.09,0,0,0,.88-1V83.1H17.29a2.25,2.25,0,0,0-1.49.47,1.41,1.41,0,0,0-.56,1.1,1.18,1.18,0,0,0,.35.89A1.48,1.48,0,0,0,16.63,85.89Z"/><path class="cls-1" d="M27.7,84.74a1.05,1.05,0,0,0-.38-.83,3.81,3.81,0,0,0-1.47-.56,6,6,0,0,1-2.29-.9,1.79,1.79,0,0,1-.8-1.55,2.22,2.22,0,0,1,.88-1.76,3.41,3.41,0,0,1,2.27-.74,3.36,3.36,0,0,1,2.33.79A2.2,2.2,0,0,1,29.09,81v0H27.61a1.34,1.34,0,0,0-.48-1,1.71,1.71,0,0,0-1.22-.44A1.77,1.77,0,0,0,24.7,80a1.15,1.15,0,0,0-.4.88.92.92,0,0,0,.34.77,3.93,3.93,0,0,0,1.44.5,6.16,6.16,0,0,1,2.36.93,1.89,1.89,0,0,1,.8,1.57,2.23,2.23,0,0,1-.91,1.84,3.79,3.79,0,0,1-2.38.71,3.75,3.75,0,0,1-2.54-.82,2.37,2.37,0,0,1-.89-1.92l0,0H24a1.43,1.43,0,0,0,.61,1.2A2.35,2.35,0,0,0,26,86a2.13,2.13,0,0,0,1.29-.34A1.06,1.06,0,0,0,27.7,84.74Z"/><path class="cls-1" d="M33.3,76.52v2h1.6V79.7H33.3v5.13a1.17,1.17,0,0,0,.24.84.91.91,0,0,0,.66.24l.29,0,.28-.08L35,86.86a1.52,1.52,0,0,1-.51.23,2.63,2.63,0,0,1-.67.09,2,2,0,0,1-1.49-.57,2.47,2.47,0,0,1-.55-1.78V79.7H30.41V78.56h1.35v-2Z"/><path class="cls-1" d="M38.21,76.4H36.67V74.83h1.54Zm0,10.61H36.67V78.56h1.54Z"/><path class="cls-1" d="M43.94,86a1.8,1.8,0,0,0,1.24-.47,1.5,1.5,0,0,0,.53-1.16H47.1l0,0a2.47,2.47,0,0,1-.94,1.94,3.58,3.58,0,0,1-5-.36,4.67,4.67,0,0,1-1-3v-.33a4.64,4.64,0,0,1,1-3,3.32,3.32,0,0,1,2.75-1.22,3.19,3.19,0,0,1,2.31.88,2.79,2.79,0,0,1,.88,2.15l0,0h-1.4a1.88,1.88,0,0,0-.5-1.31,1.67,1.67,0,0,0-1.27-.54,1.77,1.77,0,0,0-1.65.87,4.1,4.1,0,0,0-.52,2.13V83a4.2,4.2,0,0,0,.51,2.15A1.77,1.77,0,0,0,43.94,86Z"/><path class="cls-1" d="M61.26,83.37v0a3.42,3.42,0,0,1-1.12,2.68,4.3,4.3,0,0,1-3.06,1.08A4,4,0,0,1,54,85.81a5,5,0,0,1-1.22-3.47v-2A5,5,0,0,1,54,76.85a4,4,0,0,1,3.14-1.38,4.43,4.43,0,0,1,3.07,1,3.4,3.4,0,0,1,1.11,2.72v0H59.78a2.52,2.52,0,0,0-.7-1.89,2.72,2.72,0,0,0-2-.69,2.41,2.41,0,0,0-2.05,1,4.27,4.27,0,0,0-.77,2.58v2a4.29,4.29,0,0,0,.77,2.6,2.41,2.41,0,0,0,2.05,1,2.72,2.72,0,0,0,2-.69,2.54,2.54,0,0,0,.7-1.91Z"/><path class="cls-1" d="M62.7,82.71a4.64,4.64,0,0,1,1-3.09,3.74,3.74,0,0,1,5.53,0,4.61,4.61,0,0,1,1,3.09v.17a4.65,4.65,0,0,1-1,3.09,3.78,3.78,0,0,1-5.54,0,4.61,4.61,0,0,1-1-3.09Zm1.54.17a4,4,0,0,0,.57,2.22,2,2,0,0,0,3.35,0,4,4,0,0,0,.57-2.22v-.17a4,4,0,0,0-.57-2.21,1.88,1.88,0,0,0-1.68-.88,1.85,1.85,0,0,0-1.67.88,4,4,0,0,0-.57,2.21Z"/><path class="cls-1" d="M73.53,78.56l.11,1.26a2.93,2.93,0,0,1,1.06-1,3.11,3.11,0,0,1,3.57.42A3.54,3.54,0,0,1,79,81.68V87H77.48v-5.3A2.32,2.32,0,0,0,77,80.12a1.8,1.8,0,0,0-1.35-.47,2.38,2.38,0,0,0-1.21.29,2.07,2.07,0,0,0-.78.8V87H72.16V78.56Z"/><path class="cls-1" d="M83.39,76.52v2H85V79.7h-1.6v5.13a1.13,1.13,0,0,0,.25.84.88.88,0,0,0,.65.24l.3,0,.27-.08.21,1.06a1.35,1.35,0,0,1-.51.23,2.5,2.5,0,0,1-.66.09,2,2,0,0,1-1.49-.57,2.47,2.47,0,0,1-.56-1.78V79.7H80.51V78.56h1.34v-2Z"/><path class="cls-1" d="M91.84,87c-.06-.25-.1-.48-.13-.67s0-.39,0-.59a3.68,3.68,0,0,1-1.12,1,2.88,2.88,0,0,1-1.49.41,2.76,2.76,0,0,1-2-.68,2.48,2.48,0,0,1-.69-1.86,2.2,2.2,0,0,1,1-1.9A4.61,4.61,0,0,1,90,82.06h1.67v-.84a1.55,1.55,0,0,0-.45-1.17,1.77,1.77,0,0,0-1.28-.43,1.86,1.86,0,0,0-1.21.37,1.12,1.12,0,0,0-.46.9H86.8l0,0a2,2,0,0,1,.86-1.69A3.62,3.62,0,0,1,90,78.4a3.55,3.55,0,0,1,2.31.73,2.6,2.6,0,0,1,.87,2.11v4.07a8.49,8.49,0,0,0,0,.88,4.59,4.59,0,0,0,.17.82Zm-2.56-1.12a2.72,2.72,0,0,0,1.51-.43,2,2,0,0,0,.87-1V83.1H89.94a2.25,2.25,0,0,0-1.49.47,1.41,1.41,0,0,0-.56,1.1,1.18,1.18,0,0,0,.35.89A1.48,1.48,0,0,0,89.28,85.89Z"/><path class="cls-1" d="M97.1,76.4H95.56V74.83H97.1ZM97.1,87H95.56V78.56H97.1Z"/><path class="cls-1" d="M100.84,78.56l.11,1.26a3,3,0,0,1,1.06-1,2.83,2.83,0,0,1,1.45-.38,2.78,2.78,0,0,1,2.12.8,3.54,3.54,0,0,1,.75,2.48V87h-1.54v-5.3a2.32,2.32,0,0,0-.44-1.59,1.8,1.8,0,0,0-1.35-.47,2.41,2.41,0,0,0-1.21.29,2.07,2.07,0,0,0-.78.8V87H99.47V78.56Z"/><path class="cls-1" d="M112.06,87.18A3.57,3.57,0,0,1,109.22,86a4.45,4.45,0,0,1-1-3.06v-.34a4.36,4.36,0,0,1,1-3,3.29,3.29,0,0,1,2.57-1.2,3.07,3.07,0,0,1,2.54,1.06,4.31,4.31,0,0,1,.85,2.8v.82H109.8l0,0a3.53,3.53,0,0,0,.56,2.06,2,2,0,0,0,1.72.79,3.82,3.82,0,0,0,1.37-.22,3.15,3.15,0,0,0,1-.61l.6,1a3.78,3.78,0,0,1-1.2.74A4.75,4.75,0,0,1,112.06,87.18Zm-.24-7.56a1.64,1.64,0,0,0-1.33.62,2.94,2.94,0,0,0-.65,1.59l0,0h3.81v-.13a2.47,2.47,0,0,0-.45-1.52A1.64,1.64,0,0,0,111.82,79.62Z"/><path class="cls-1" d="M120.94,79.92l-.79,0a1.79,1.79,0,0,0-1,.29,1.92,1.92,0,0,0-.64.81v6h-1.54V78.56h1.37l.15,1.23a3.07,3.07,0,0,1,.89-1,2.09,2.09,0,0,1,1.21-.37,1.69,1.69,0,0,1,.33,0l.26.06Z"/><path class="cls-1" d="M127.45,84.74a1.05,1.05,0,0,0-.38-.83,3.81,3.81,0,0,0-1.47-.56,6,6,0,0,1-2.29-.9,1.79,1.79,0,0,1-.8-1.55,2.22,2.22,0,0,1,.88-1.76,3.41,3.41,0,0,1,2.27-.74,3.36,3.36,0,0,1,2.33.79,2.2,2.2,0,0,1,.85,1.82v0h-1.47a1.34,1.34,0,0,0-.48-1,1.71,1.71,0,0,0-1.22-.44,1.77,1.77,0,0,0-1.21.36,1.15,1.15,0,0,0-.4.88.92.92,0,0,0,.34.77,3.93,3.93,0,0,0,1.44.5,6.16,6.16,0,0,1,2.36.93,1.89,1.89,0,0,1,.8,1.57,2.23,2.23,0,0,1-.91,1.84,3.79,3.79,0,0,1-2.38.71,3.75,3.75,0,0,1-2.54-.82,2.37,2.37,0,0,1-.89-1.92l0,0h1.47a1.43,1.43,0,0,0,.61,1.2,2.35,2.35,0,0,0,1.33.37,2.13,2.13,0,0,0,1.29-.34A1.06,1.06,0,0,0,127.45,84.74Z"/><line class="cls-2" x1="64.23" y1="34.48" x2="64.23" y2="42.18"/><line class="cls-2" x1="61.03" y1="34.48" x2="61.39" y2="42.18"/><line class="cls-2" x1="67.43" y1="34.48" x2="67.07" y2="42.18"/><line class="cls-2" x1="70.63" y1="34.48" x2="69.92" y2="42.18"/><line class="cls-2" x1="57.83" y1="34.48" x2="58.54" y2="42.18"/><path class="cls-2" d="M74.54,1H53.92c-2.13,0-2.13,3.35-2.13,3.35V6.69H76.67V4.35S76.67,1,74.54,1Z"/><path class="cls-2" d="M51.79,6.69H77.74A2.42,2.42,0,0,1,80.23,9v2h-32V10A3.46,3.46,0,0,1,51.79,6.69Z"/><polyline class="cls-2" points="50.49 11.04 56.41 42.51 64.23 42.51 72.05 42.51 77.97 11.04"/></g></g></svg>