<svg xmlns="http://www.w3.org/2000/svg" viewBox="0 0 121.78 94.63"><defs><style>.cls-1,.cls-2{fill:#fff;}.cls-2{stroke:#fff;stroke-miterlimit:10;stroke-width:0.5px;}</style></defs><title>fruit_vegetablepapercontainers</title><g id="Layer_2" data-name="Layer 2"><g id="Layer_1-2" data-name="Layer 1"><path class="cls-1" d="M7.3,67.15H2.51v5H1V60.81H8.1V62H2.51v3.92H7.3Z"/><path class="cls-1" d="M13.38,65.09l-.79,0a1.75,1.75,0,0,0-1,.29,1.82,1.82,0,0,0-.65.81v6H9.38V63.73h1.38L10.91,65a2.85,2.85,0,0,1,.88-1A2,2,0,0,1,13,63.57a1.84,1.84,0,0,1,.33,0l.25.06Z"/><path class="cls-1" d="M20.35,70.93a2.94,2.94,0,0,1-1,1,2.87,2.87,0,0,1-1.45.37,2.7,2.7,0,0,1-2.15-.89A4.07,4.07,0,0,1,15,68.71v-5h1.54v5a3.2,3.2,0,0,0,.4,1.86,1.48,1.48,0,0,0,1.24.51,2.47,2.47,0,0,0,1.36-.34,2.14,2.14,0,0,0,.81-.94V63.73h1.54v8.45H20.45Z"/><path class="cls-1" d="M25.74,61.56H24.2V60h1.54Zm0,10.62H24.2V63.73h1.54Z"/><path class="cls-1" d="M30.25,61.69v2h1.6v1.14h-1.6V70a1.13,1.13,0,0,0,.25.84.88.88,0,0,0,.65.24l.3,0,.27-.08L31.93,72a1.52,1.52,0,0,1-.51.23,2.5,2.5,0,0,1-.66.09,2,2,0,0,1-1.49-.57A2.42,2.42,0,0,1,28.71,70V64.87H27.37V63.73h1.34v-2Z"/><path class="cls-1" d="M36.86,69.12a2.64,2.64,0,0,1,.55-1.67A6.66,6.66,0,0,1,39.05,66a8.81,8.81,0,0,1-.9-1.38,2.77,2.77,0,0,1-.3-1.25,2.66,2.66,0,0,1,.76-2,2.94,2.94,0,0,1,2.1-.72,2.89,2.89,0,0,1,2,.71,2.28,2.28,0,0,1,.77,1.71,2.13,2.13,0,0,1-.41,1.33,5.61,5.61,0,0,1-1.21,1.14l-.85.63,2.65,3.19a4.55,4.55,0,0,0,.5-1.12,4.66,4.66,0,0,0,.18-1.31h1.38a5.59,5.59,0,0,1-.31,1.91,5,5,0,0,1-.88,1.57L46,72.14v0H44.18l-.66-.8a4.49,4.49,0,0,1-1.39.72,5.16,5.16,0,0,1-1.57.25,3.9,3.9,0,0,1-2.7-.9A3,3,0,0,1,36.86,69.12Zm3.7,2A3.24,3.24,0,0,0,41.67,71a3.79,3.79,0,0,0,1-.55L39.88,67l-.31.23a3,3,0,0,0-.94,1,2,2,0,0,0-.23.88A2,2,0,0,0,39,70.57,2.15,2.15,0,0,0,40.56,71.14Zm-1.17-7.76a2,2,0,0,0,.21.86,5,5,0,0,0,.63,1l1.08-.74a1.62,1.62,0,0,0,.61-.65,1.89,1.89,0,0,0,.16-.77,1.17,1.17,0,0,0-.38-.84,1.38,1.38,0,0,0-1-.37,1.17,1.17,0,0,0-1,.45A1.68,1.68,0,0,0,39.39,63.38Z"/><path class="cls-1" d="M55.09,69.2l.25.94h0l.26-.94,2.94-8.39h1.66L56,72.18H54.7L50.48,60.81h1.67Z"/><path class="cls-1" d="M64.7,72.35a3.56,3.56,0,0,1-2.84-1.17,4.47,4.47,0,0,1-1-3.06v-.34a4.41,4.41,0,0,1,1-3,3.29,3.29,0,0,1,2.56-1.19A3.07,3.07,0,0,1,67,64.63a4.35,4.35,0,0,1,.84,2.8v.81h-5.4l0,0A3.47,3.47,0,0,0,63,70.35a2,2,0,0,0,1.72.79,3.9,3.9,0,0,0,1.37-.22,3.1,3.1,0,0,0,1-.61l.6,1a3.84,3.84,0,0,1-1.2.74A4.73,4.73,0,0,1,64.7,72.35Zm-.25-7.57a1.69,1.69,0,0,0-1.33.62A2.92,2.92,0,0,0,62.48,67v0H66.3v-.12a2.5,2.5,0,0,0-.45-1.53A1.64,1.64,0,0,0,64.45,64.78Z"/><path class="cls-1" d="M69.3,68.11a5.66,5.66,0,0,1,.87-3.29,2.8,2.8,0,0,1,2.43-1.25A3,3,0,0,1,74,63.9a2.82,2.82,0,0,1,1,.93l.19-1.1h1.22v8.5a3.21,3.21,0,0,1-.94,2.49,3.85,3.85,0,0,1-2.73.88,6,6,0,0,1-1.32-.17A5.16,5.16,0,0,1,70.22,75l.23-1.19a4.54,4.54,0,0,0,1.08.37,5.32,5.32,0,0,0,1.24.15,2.23,2.23,0,0,0,1.63-.51,2.12,2.12,0,0,0,.51-1.56v-1a2.64,2.64,0,0,1-1,.8,3,3,0,0,1-1.33.28,2.88,2.88,0,0,1-2.42-1.13,4.65,4.65,0,0,1-.87-2.94Zm1.54.17a3.57,3.57,0,0,0,.52,2A1.82,1.82,0,0,0,73,71.1a2,2,0,0,0,1.16-.32,2.36,2.36,0,0,0,.77-.9V66a2.35,2.35,0,0,0-.77-.85A2,2,0,0,0,73,64.82a1.76,1.76,0,0,0-1.63.92,4.73,4.73,0,0,0-.52,2.37Z"/><path class="cls-1" d="M82.16,72.35a3.57,3.57,0,0,1-2.84-1.17,4.47,4.47,0,0,1-1-3.06v-.34a4.37,4.37,0,0,1,1.06-3,3.28,3.28,0,0,1,2.56-1.19,3,3,0,0,1,2.54,1.06,4.29,4.29,0,0,1,.85,2.8v.81h-5.4l0,0a3.47,3.47,0,0,0,.57,2.07,1.94,1.94,0,0,0,1.71.79,3.92,3.92,0,0,0,1.38-.22,3.1,3.1,0,0,0,1-.61l.6,1a3.84,3.84,0,0,1-1.2.74A4.75,4.75,0,0,1,82.16,72.35Zm-.24-7.57a1.67,1.67,0,0,0-1.33.62A2.92,2.92,0,0,0,80,67v0h3.81v-.12a2.5,2.5,0,0,0-.45-1.53A1.64,1.64,0,0,0,81.92,64.78Z"/><path class="cls-1" d="M89.18,61.69v2h1.6v1.14h-1.6V70a1.13,1.13,0,0,0,.25.84.88.88,0,0,0,.65.24l.3,0,.27-.08L90.86,72a1.52,1.52,0,0,1-.51.23,2.5,2.5,0,0,1-.66.09,2,2,0,0,1-1.49-.57A2.42,2.42,0,0,1,87.64,70V64.87H86.3V63.73h1.34v-2Z"/><path class="cls-1" d="M97.63,72.18c-.06-.25-.1-.48-.13-.67s0-.4,0-.59a3.68,3.68,0,0,1-1.12,1,2.88,2.88,0,0,1-1.49.41,2.76,2.76,0,0,1-2-.68,2.48,2.48,0,0,1-.69-1.86,2.2,2.2,0,0,1,1-1.9,4.61,4.61,0,0,1,2.66-.68h1.67v-.84A1.55,1.55,0,0,0,97,65.22a1.77,1.77,0,0,0-1.28-.44,1.84,1.84,0,0,0-1.21.38,1.12,1.12,0,0,0-.46.9H92.59l0,0a2,2,0,0,1,.86-1.69,4,4,0,0,1,4.69,0A2.6,2.6,0,0,1,99,66.41v4.07a8.14,8.14,0,0,0,.05.87,4.7,4.7,0,0,0,.17.83Zm-2.56-1.12a2.8,2.8,0,0,0,1.51-.43,2,2,0,0,0,.87-1V68.27H95.73a2.2,2.2,0,0,0-1.49.47,1.41,1.41,0,0,0-.56,1.1,1.18,1.18,0,0,0,.35.89A1.48,1.48,0,0,0,95.07,71.06Z"/><path class="cls-1" d="M108.45,68.28a4.66,4.66,0,0,1-.88,2.94,2.92,2.92,0,0,1-2.42,1.13,3,3,0,0,1-1.47-.34,2.65,2.65,0,0,1-1-1l-.25,1.15h-1.18V60h1.54v4.74a2.6,2.6,0,0,1,1-.86,3,3,0,0,1,1.38-.3,2.82,2.82,0,0,1,2.44,1.25,5.66,5.66,0,0,1,.88,3.29Zm-1.54-.17a4.62,4.62,0,0,0-.54-2.37,1.77,1.77,0,0,0-1.63-.92,2,2,0,0,0-1.2.35,2.44,2.44,0,0,0-.77.93v3.67a2.43,2.43,0,0,0,.77,1,2,2,0,0,0,1.22.36,1.84,1.84,0,0,0,1.62-.78,3.57,3.57,0,0,0,.53-2Z"/><path class="cls-1" d="M112,72.18h-1.53V60H112Z"/><path class="cls-1" d="M117.85,72.35A3.57,3.57,0,0,1,115,71.18a4.47,4.47,0,0,1-1-3.06v-.34a4.41,4.41,0,0,1,1.05-3,3.31,3.31,0,0,1,2.57-1.19,3,3,0,0,1,2.54,1.06,4.29,4.29,0,0,1,.85,2.8v.81h-5.41l0,0a3.54,3.54,0,0,0,.56,2.07,2,2,0,0,0,1.72.79,3.82,3.82,0,0,0,1.37-.22,3,3,0,0,0,1-.61l.61,1a4.09,4.09,0,0,1-1.2.74A4.79,4.79,0,0,1,117.85,72.35Zm-.24-7.57a1.67,1.67,0,0,0-1.33.62,3,3,0,0,0-.65,1.59l0,0h3.81v-.12a2.5,2.5,0,0,0-.45-1.53A1.64,1.64,0,0,0,117.61,64.78Z"/><path class="cls-1" d="M1.54,86.82v4.56H0V80H4.35a4,4,0,0,1,2.83.93,3.51,3.51,0,0,1,0,5,4,4,0,0,1-2.83.93Zm0-1.2H4.35A2.25,2.25,0,0,0,6.08,85a2.44,2.44,0,0,0,0-3.15,2.2,2.2,0,0,0-1.72-.63H1.54Z"/><path class="cls-1" d="M15.07,91.38c-.05-.25-.09-.48-.12-.67a4,4,0,0,1,0-.59,3.8,3.8,0,0,1-1.12,1,2.91,2.91,0,0,1-1.49.41,2.76,2.76,0,0,1-2-.68A2.48,2.48,0,0,1,9.59,89a2.18,2.18,0,0,1,1-1.9,4.61,4.61,0,0,1,2.66-.68H14.9v-.84a1.55,1.55,0,0,0-.45-1.17A1.82,1.82,0,0,0,13.16,84a1.86,1.86,0,0,0-1.21.38,1.12,1.12,0,0,0-.46.9H10v0a2,2,0,0,1,.86-1.69,3.57,3.57,0,0,1,2.37-.77,3.51,3.51,0,0,1,2.31.73,2.61,2.61,0,0,1,.88,2.11v4.07a8.19,8.19,0,0,0,0,.87,4.54,4.54,0,0,0,.18.83Zm-2.55-1.12a2.79,2.79,0,0,0,1.5-.43,2.09,2.09,0,0,0,.88-1V87.47H13.17a2.2,2.2,0,0,0-1.49.47,1.4,1.4,0,0,0-.55,1.1,1.15,1.15,0,0,0,.35.89A1.46,1.46,0,0,0,12.52,90.26Z"/><path class="cls-1" d="M25.88,87.48a4.71,4.71,0,0,1-.88,3,2.91,2.91,0,0,1-2.41,1.12,3.3,3.3,0,0,1-1.38-.27,2.6,2.6,0,0,1-1-.78v4.13H18.67V82.93h1.18L20.09,84a2.89,2.89,0,0,1,1-.93,3.11,3.11,0,0,1,1.43-.32A2.81,2.81,0,0,1,25,84a5.64,5.64,0,0,1,.88,3.29Zm-1.54-.17A4.43,4.43,0,0,0,23.77,85,1.83,1.83,0,0,0,22.1,84a2,2,0,0,0-1.13.3,2.26,2.26,0,0,0-.76.83v4.08a2.23,2.23,0,0,0,.76.82,2.07,2.07,0,0,0,1.15.29,1.86,1.86,0,0,0,1.65-.8,3.46,3.46,0,0,0,.57-2.06Z"/><path class="cls-1" d="M31.27,91.55a3.56,3.56,0,0,1-2.84-1.17,4.45,4.45,0,0,1-1-3.06V87a4.41,4.41,0,0,1,1.05-3A3.29,3.29,0,0,1,31,82.77a3.07,3.07,0,0,1,2.55,1.06,4.37,4.37,0,0,1,.84,2.8v.81H29l0,0a3.47,3.47,0,0,0,.57,2.07,2,2,0,0,0,1.72.79,3.86,3.86,0,0,0,1.37-.22,3.1,3.1,0,0,0,1-.61l.6,1a3.67,3.67,0,0,1-1.2.74A4.73,4.73,0,0,1,31.27,91.55ZM31,84a1.69,1.69,0,0,0-1.33.62,3,3,0,0,0-.64,1.59v0h3.82v-.12a2.45,2.45,0,0,0-.46-1.52A1.62,1.62,0,0,0,31,84Z"/><path class="cls-1" d="M40.14,84.29l-.79-.05a1.7,1.7,0,0,0-1.67,1.1v6H36.14V82.93h1.38l.14,1.23a3,3,0,0,1,.89-1,2.12,2.12,0,0,1,1.22-.37,1.66,1.66,0,0,1,.32,0l.26.06Z"/><path class="cls-1" d="M54.05,87.74v.05a3.42,3.42,0,0,1-1.12,2.68,4.3,4.3,0,0,1-3.06,1.08,4,4,0,0,1-3.14-1.37,5,5,0,0,1-1.22-3.47v-2a5.08,5.08,0,0,1,1.22-3.48,4,4,0,0,1,3.14-1.37,4.43,4.43,0,0,1,3.07,1,3.4,3.4,0,0,1,1.11,2.72v0H52.57a2.52,2.52,0,0,0-.7-1.89,2.72,2.72,0,0,0-2-.7,2.42,2.42,0,0,0-2.05,1,4.27,4.27,0,0,0-.77,2.58v2a4.23,4.23,0,0,0,.77,2.59,2.4,2.4,0,0,0,2.05,1,2.72,2.72,0,0,0,2-.69,2.55,2.55,0,0,0,.7-1.91Z"/><path class="cls-1" d="M55.49,87.08a4.64,4.64,0,0,1,1-3.09,3.39,3.39,0,0,1,2.76-1.22A3.45,3.45,0,0,1,62,84a4.65,4.65,0,0,1,1,3.1v.17a4.65,4.65,0,0,1-1,3.09,3.78,3.78,0,0,1-5.54,0,4.62,4.62,0,0,1-1-3.09Zm1.54.17a4,4,0,0,0,.57,2.22,2,2,0,0,0,3.35,0,4,4,0,0,0,.57-2.22v-.17A4,4,0,0,0,61,84.87,1.89,1.89,0,0,0,59.27,84a1.85,1.85,0,0,0-1.67.89A4,4,0,0,0,57,87.08Z"/><path class="cls-1" d="M66.32,82.93l.11,1.26a3,3,0,0,1,1.06-1,2.87,2.87,0,0,1,1.45-.37,2.76,2.76,0,0,1,2.11.8,3.54,3.54,0,0,1,.75,2.48v5.33H70.27v-5.3a2.25,2.25,0,0,0-.45-1.59A1.76,1.76,0,0,0,68.48,84a2.38,2.38,0,0,0-1.21.29,2.09,2.09,0,0,0-.79.8v6.27H65V82.93Z"/><path class="cls-1" d="M76.18,80.89v2h1.6v1.14h-1.6V89.2a1.13,1.13,0,0,0,.25.84.88.88,0,0,0,.65.24l.3,0,.27-.08.21,1.06a1.52,1.52,0,0,1-.51.23,2.5,2.5,0,0,1-.66.09A2,2,0,0,1,75.2,91a2.42,2.42,0,0,1-.56-1.78V84.07H73.3V82.93h1.34v-2Z"/><path class="cls-1" d="M84.63,91.38c-.06-.25-.1-.48-.13-.67s0-.4,0-.59a3.68,3.68,0,0,1-1.12,1,2.88,2.88,0,0,1-1.49.41,2.76,2.76,0,0,1-2-.68A2.48,2.48,0,0,1,79.14,89a2.2,2.2,0,0,1,1-1.9,4.61,4.61,0,0,1,2.66-.68h1.67v-.84A1.55,1.55,0,0,0,84,84.42,1.77,1.77,0,0,0,82.72,84a1.84,1.84,0,0,0-1.21.38,1.12,1.12,0,0,0-.46.9H79.59l0,0a2,2,0,0,1,.86-1.69,4,4,0,0,1,4.69,0A2.6,2.6,0,0,1,86,85.61v4.07a8.14,8.14,0,0,0,.05.87,4.52,4.52,0,0,0,.17.83Zm-2.56-1.12a2.8,2.8,0,0,0,1.51-.43,2,2,0,0,0,.87-1V87.47H82.73a2.2,2.2,0,0,0-1.49.47,1.41,1.41,0,0,0-.56,1.1,1.18,1.18,0,0,0,.35.89A1.48,1.48,0,0,0,82.07,90.26Z"/><path class="cls-1" d="M89.89,80.76H88.35V79.19h1.54Zm0,10.62H88.35V82.93h1.54Z"/><path class="cls-1" d="M93.63,82.93l.11,1.26a3.13,3.13,0,0,1,1.06-1,2.89,2.89,0,0,1,1.45-.37,2.78,2.78,0,0,1,2.12.8,3.54,3.54,0,0,1,.75,2.48v5.33H97.58v-5.3a2.31,2.31,0,0,0-.44-1.59A1.8,1.8,0,0,0,95.79,84a2.38,2.38,0,0,0-1.21.29,2,2,0,0,0-.78.8v6.27H92.26V82.93Z"/><path class="cls-1" d="M104.85,91.55A3.57,3.57,0,0,1,102,90.38a4.45,4.45,0,0,1-1-3.06V87A4.41,4.41,0,0,1,102,84a3.31,3.31,0,0,1,2.57-1.19,3,3,0,0,1,2.54,1.06,4.31,4.31,0,0,1,.85,2.8v.81h-5.41l0,0a3.54,3.54,0,0,0,.56,2.07,2,2,0,0,0,1.72.79,3.82,3.82,0,0,0,1.37-.22,3,3,0,0,0,1-.61l.61,1a3.89,3.89,0,0,1-1.2.74A4.79,4.79,0,0,1,104.85,91.55ZM104.61,84a1.67,1.67,0,0,0-1.33.62,3,3,0,0,0-.65,1.59l0,0h3.81v-.12a2.45,2.45,0,0,0-.45-1.52A1.62,1.62,0,0,0,104.61,84Z"/><path class="cls-1" d="M113.73,84.29l-.79-.05a1.7,1.7,0,0,0-1.67,1.1v6h-1.54V82.93h1.37l.15,1.23a3,3,0,0,1,.89-1,2.09,2.09,0,0,1,1.21-.37,1.84,1.84,0,0,1,.33,0l.26.06Z"/><path class="cls-1" d="M120.24,89.11a1,1,0,0,0-.38-.83,3.81,3.81,0,0,0-1.47-.56,5.93,5.93,0,0,1-2.29-.9,1.81,1.81,0,0,1-.8-1.55,2.22,2.22,0,0,1,.88-1.76,3.86,3.86,0,0,1,4.6,0,2.22,2.22,0,0,1,.85,1.82v0h-1.47a1.34,1.34,0,0,0-.48-1,1.72,1.72,0,0,0-1.22-.45,1.77,1.77,0,0,0-1.21.37,1.15,1.15,0,0,0-.4.88.92.92,0,0,0,.34.77,3.86,3.86,0,0,0,1.44.5,6.16,6.16,0,0,1,2.36.93,1.88,1.88,0,0,1,.8,1.57,2.23,2.23,0,0,1-.91,1.84,3.79,3.79,0,0,1-2.38.71,3.71,3.71,0,0,1-2.54-.82,2.34,2.34,0,0,1-.89-1.92l0,0h1.47a1.4,1.4,0,0,0,.61,1.2,2.28,2.28,0,0,0,1.33.38,2.13,2.13,0,0,0,1.29-.34A1.07,1.07,0,0,0,120.24,89.11Z"/><path class="cls-2" d="M41.22,46.53a.6.6,0,0,1-.59-.59V14.67a.59.59,0,0,1,.59-.59.58.58,0,0,1,.59.59V45.94A.59.59,0,0,1,41.22,46.53Z"/><path class="cls-2" d="M53.53,52a.64.64,0,0,1-.24,0L41,46.47a.6.6,0,0,1-.34-.39.62.62,0,0,1,.11-.51L46,38.73a.62.62,0,0,1,.51-.23.63.63,0,0,1,.47.3l6,10.39V9.86l-5,8.84a.61.61,0,0,1-.37.28.59.59,0,0,1-.45-.07l-6.15-3.73a.61.61,0,0,1-.29-.52.58.58,0,0,1,.3-.5l12.31-7h0a.29.29,0,0,1,.13,0h0a.46.46,0,0,1,.26,0h0l23.36,6.4a.59.59,0,0,1,.41.73.6.6,0,0,1-.73.41L54.12,8.41V50.68l22.76-4.86a.6.6,0,0,1,.7.46.59.59,0,0,1-.46.7L53.65,52h-.12ZM42.14,45.7l10,4.43-5.72-10Zm.25-31,4.77,2.9,4.78-8.37Z"/><path class="cls-2" d="M76.89,32.84a.59.59,0,0,1-.59-.59V14a.59.59,0,0,1,.59-.59.58.58,0,0,1,.59.59V32.25A.58.58,0,0,1,76.89,32.84Z"/><path class="cls-2" d="M76.89,46.53a.6.6,0,0,1-.59-.59V32.25a.6.6,0,0,1,.59-.59.59.59,0,0,1,.59.59V45.94A.59.59,0,0,1,76.89,46.53Z"/><path class="cls-2" d="M68.75,12.4l-.15,0a.59.59,0,0,1-.42-.72L69.66,6.1a.59.59,0,0,1,.28-.36L72,4.56a.44.44,0,0,1,.16-.06l7.22-1.76a1.41,1.41,0,0,0-.19-1.24L70.53,3.61l-1.76,1L67.35,11a.59.59,0,0,1-.71.45.6.6,0,0,1-.45-.71L67.67,4.1A.6.6,0,0,1,68,3.72L70,2.54a.44.44,0,0,1,.16-.06L79.27.27a.58.58,0,0,1,.55.15,2.61,2.61,0,0,1,.5,3.11.6.6,0,0,1-.37.29L72.52,5.63l-1.78,1L69.32,12A.59.59,0,0,1,68.75,12.4Z"/><path class="cls-2" d="M70.23,6.84a.61.61,0,0,1-.42-.17l-2-2a.59.59,0,0,1-.08-.74.61.61,0,0,1,.71-.23l1.86.73-.54-1.1a.6.6,0,0,1,.27-.79.59.59,0,0,1,.79.27l1.21,2.46a.59.59,0,0,1-.74.81l-.71-.27.05,0a.6.6,0,0,1,0,.84A.57.57,0,0,1,70.23,6.84Z"/><path class="cls-2" d="M74.27,28h0l-16.66-.7a.59.59,0,0,1-.56-.59v-12a.57.57,0,0,1,.21-.45.59.59,0,0,1,.48-.13l16.65,3a.58.58,0,0,1,.48.68.59.59,0,0,1-.68.48l-16-2.86V26.11l16.08.67a.59.59,0,0,1,0,1.18Z"/><path class="cls-2" d="M74.27,28a.59.59,0,0,1-.59-.59V17.66a.59.59,0,0,1,1.18,0v9.71A.59.59,0,0,1,74.27,28Z"/></g></g></svg>