<svg xmlns="http://www.w3.org/2000/svg" viewBox="0 0 129.05 92.52"><defs><style>.cls-1{fill:#0097d6;}</style></defs><title>fruits_vegetables_jams_jellies</title><g id="Layer_2" data-name="Layer 2"><g id="Layer_1-2" data-name="Layer 1"><path class="cls-1" d="M6.34,68.12H1.54v5H0V61.78H7.13V63H1.54v3.92h4.8Z"/><path class="cls-1" d="M12.41,66.06l-.78,0a1.79,1.79,0,0,0-1,.29,1.82,1.82,0,0,0-.65.81v6H8.41V64.7H9.79l.15,1.23a3,3,0,0,1,.88-1A2.14,2.14,0,0,1,12,64.54a1.84,1.84,0,0,1,.33,0l.26.06Z"/><path class="cls-1" d="M19.38,71.9a2.71,2.71,0,0,1-1,1,2.87,2.87,0,0,1-1.45.37,2.7,2.7,0,0,1-2.15-.89A4.05,4.05,0,0,1,14,69.68v-5h1.54v5a3.2,3.2,0,0,0,.4,1.86,1.48,1.48,0,0,0,1.24.51,2.47,2.47,0,0,0,1.36-.34,2.08,2.08,0,0,0,.81-.94V64.7h1.54v8.45H19.48Z"/><path class="cls-1" d="M24.77,62.54H23.23V61h1.54Zm0,10.61H23.23V64.7h1.54Z"/><path class="cls-1" d="M29.28,62.66v2h1.6v1.14h-1.6V71a1.13,1.13,0,0,0,.25.84.88.88,0,0,0,.65.24l.3,0,.27-.08L31,73a1.35,1.35,0,0,1-.51.23,2.5,2.5,0,0,1-.66.09,2,2,0,0,1-1.49-.57A2.47,2.47,0,0,1,27.74,71V65.84H26.4V64.7h1.34v-2Z"/><path class="cls-1" d="M37.45,70.88a1,1,0,0,0-.39-.83,3.81,3.81,0,0,0-1.47-.56,6,6,0,0,1-2.29-.9A1.82,1.82,0,0,1,32.5,67a2.22,2.22,0,0,1,.88-1.76,3.86,3.86,0,0,1,4.6,0,2.26,2.26,0,0,1,.86,1.82l0,0H37.35a1.34,1.34,0,0,0-.48-1,1.71,1.71,0,0,0-1.21-.45,1.78,1.78,0,0,0-1.22.37A1.15,1.15,0,0,0,34,67a.9.9,0,0,0,.35.77,3.86,3.86,0,0,0,1.43.5,6.1,6.1,0,0,1,2.36.93,1.88,1.88,0,0,1,.8,1.57,2.23,2.23,0,0,1-.91,1.84,3.76,3.76,0,0,1-2.37.71,3.75,3.75,0,0,1-2.55-.82,2.33,2.33,0,0,1-.88-1.92v0h1.47a1.42,1.42,0,0,0,.61,1.19,2.29,2.29,0,0,0,1.34.38A2.11,2.11,0,0,0,37,71.77,1.08,1.08,0,0,0,37.45,70.88Z"/><path class="cls-1" d="M42.24,72.78l-1.17,2.39h-.91l.54-2.47V71.43h1.54Z"/><path class="cls-1" d="M51.7,70.17l.25.94h0l.26-.94,2.94-8.39h1.66L52.63,73.15H51.31L47.09,61.78h1.67Z"/><path class="cls-1" d="M61.3,73.32a3.57,3.57,0,0,1-2.84-1.17,4.5,4.5,0,0,1-1-3.06v-.34a4.36,4.36,0,0,1,1-3,3.29,3.29,0,0,1,2.56-1.19,3.07,3.07,0,0,1,2.55,1.06,4.37,4.37,0,0,1,.84,2.8v.82h-5.4l0,0a3.47,3.47,0,0,0,.57,2.07,1.94,1.94,0,0,0,1.71.79,3.92,3.92,0,0,0,1.38-.22,3.1,3.1,0,0,0,1-.61l.6,1a3.67,3.67,0,0,1-1.2.74A4.75,4.75,0,0,1,61.3,73.32Zm-.24-7.57a1.67,1.67,0,0,0-1.33.63A2.86,2.86,0,0,0,59.09,68v0h3.81v-.12a2.45,2.45,0,0,0-.45-1.52A1.65,1.65,0,0,0,61.06,65.75Z"/><path class="cls-1" d="M65.91,69.08a5.66,5.66,0,0,1,.87-3.29,2.8,2.8,0,0,1,2.43-1.25,3,3,0,0,1,1.42.33,2.82,2.82,0,0,1,1,.93l.19-1.1h1.22v8.5a3.25,3.25,0,0,1-.94,2.5,3.89,3.89,0,0,1-2.73.87,5.83,5.83,0,0,1-1.32-.17,5.16,5.16,0,0,1-1.24-.46l.23-1.19a5,5,0,0,0,1.08.38,5.82,5.82,0,0,0,1.24.14A2.23,2.23,0,0,0,71,74.76a2.12,2.12,0,0,0,.51-1.56v-1a2.64,2.64,0,0,1-1,.8,3,3,0,0,1-1.33.28,2.9,2.9,0,0,1-2.42-1.12,4.68,4.68,0,0,1-.87-3Zm1.54.17a3.55,3.55,0,0,0,.52,2,1.82,1.82,0,0,0,1.62.78,2,2,0,0,0,1.16-.32,2.41,2.41,0,0,0,.77-.89V67a2.38,2.38,0,0,0-.77-.86,2,2,0,0,0-1.15-.32,1.76,1.76,0,0,0-1.63.92,4.73,4.73,0,0,0-.52,2.37Z"/><path class="cls-1" d="M78.77,73.32a3.57,3.57,0,0,1-2.84-1.17,4.45,4.45,0,0,1-1-3.06v-.34a4.41,4.41,0,0,1,1-3,3.31,3.31,0,0,1,2.57-1.19,3,3,0,0,1,2.54,1.06,4.31,4.31,0,0,1,.85,2.8v.82h-5.4l0,0a3.54,3.54,0,0,0,.56,2.07,2,2,0,0,0,1.72.79,3.82,3.82,0,0,0,1.37-.22,3,3,0,0,0,1-.61l.6,1a3.67,3.67,0,0,1-1.2.74A4.75,4.75,0,0,1,78.77,73.32Zm-.24-7.57a1.65,1.65,0,0,0-1.33.63A2.94,2.94,0,0,0,76.55,68l0,0h3.81v-.12a2.45,2.45,0,0,0-.45-1.52A1.65,1.65,0,0,0,78.53,65.75Z"/><path class="cls-1" d="M85.79,62.66v2h1.6v1.14h-1.6V71a1.13,1.13,0,0,0,.25.84.88.88,0,0,0,.65.24L87,72l.28-.08L87.47,73a1.52,1.52,0,0,1-.51.23,2.5,2.5,0,0,1-.66.09,2,2,0,0,1-1.5-.57A2.47,2.47,0,0,1,84.25,71V65.84H82.91V64.7h1.34v-2Z"/><path class="cls-1" d="M94.23,73.15c0-.25-.09-.48-.12-.67a5.87,5.87,0,0,1,0-.59,3.68,3.68,0,0,1-1.12,1,2.91,2.91,0,0,1-1.49.41,2.76,2.76,0,0,1-2-.68,2.48,2.48,0,0,1-.69-1.86,2.2,2.2,0,0,1,1-1.9,4.61,4.61,0,0,1,2.66-.68h1.67v-.84a1.55,1.55,0,0,0-.45-1.17,1.77,1.77,0,0,0-1.28-.44,1.84,1.84,0,0,0-1.21.38,1.12,1.12,0,0,0-.46.9H89.2l0,0A2,2,0,0,1,90,65.31a4,4,0,0,1,4.69,0,2.6,2.6,0,0,1,.87,2.11v4.07a8.14,8.14,0,0,0,.05.87,4.52,4.52,0,0,0,.17.83ZM91.68,72a2.72,2.72,0,0,0,1.51-.43,2.07,2.07,0,0,0,.87-1V69.24H92.34a2.18,2.18,0,0,0-1.49.47,1.38,1.38,0,0,0-.56,1.1,1.18,1.18,0,0,0,.35.89A1.48,1.48,0,0,0,91.68,72Z"/><path class="cls-1" d="M105.05,69.25a4.68,4.68,0,0,1-.87,3,2.94,2.94,0,0,1-2.42,1.12,3,3,0,0,1-1.47-.34,2.65,2.65,0,0,1-1-1L99,73.15H97.84V61h1.54V65.7a2.6,2.6,0,0,1,1-.86,3,3,0,0,1,1.38-.3,2.82,2.82,0,0,1,2.44,1.25,5.66,5.66,0,0,1,.87,3.29Zm-1.53-.17a4.62,4.62,0,0,0-.54-2.37,1.77,1.77,0,0,0-1.63-.92,2,2,0,0,0-1.2.35,2.44,2.44,0,0,0-.77.93v3.67a2.46,2.46,0,0,0,.77,1,2,2,0,0,0,1.22.35,1.81,1.81,0,0,0,1.61-.78,3.47,3.47,0,0,0,.54-2Z"/><path class="cls-1" d="M108.59,73.15h-1.54V61h1.54Z"/><path class="cls-1" d="M114.46,73.32a3.57,3.57,0,0,1-2.84-1.17,4.45,4.45,0,0,1-1-3.06v-.34a4.41,4.41,0,0,1,1.05-3,3.31,3.31,0,0,1,2.57-1.19,3,3,0,0,1,2.54,1.06,4.31,4.31,0,0,1,.85,2.8v.82H112.2l0,0a3.54,3.54,0,0,0,.56,2.07,2,2,0,0,0,1.72.79,3.82,3.82,0,0,0,1.37-.22,3.1,3.1,0,0,0,1-.61l.61,1a3.89,3.89,0,0,1-1.2.74A4.79,4.79,0,0,1,114.46,73.32Zm-.24-7.57a1.65,1.65,0,0,0-1.33.63,2.94,2.94,0,0,0-.65,1.59l0,0h3.81v-.12a2.45,2.45,0,0,0-.45-1.52A1.66,1.66,0,0,0,114.22,65.75Z"/><path class="cls-1" d="M124.25,70.88a1,1,0,0,0-.39-.83,3.68,3.68,0,0,0-1.46-.56,5.93,5.93,0,0,1-2.29-.9A1.8,1.8,0,0,1,119.3,67a2.25,2.25,0,0,1,.88-1.76,3.45,3.45,0,0,1,2.28-.74,3.4,3.4,0,0,1,2.33.78,2.25,2.25,0,0,1,.85,1.82v0h-1.47a1.34,1.34,0,0,0-.48-1,1.72,1.72,0,0,0-1.22-.45,1.75,1.75,0,0,0-1.21.37,1.16,1.16,0,0,0-.41.88.93.93,0,0,0,.35.77,3.86,3.86,0,0,0,1.44.5,6,6,0,0,1,2.35.93,1.86,1.86,0,0,1,.81,1.57,2.26,2.26,0,0,1-.91,1.84A4.36,4.36,0,0,1,120,72.5a2.35,2.35,0,0,1-.88-1.92l0,0h1.46a1.42,1.42,0,0,0,.61,1.19,2.32,2.32,0,0,0,1.34.38,2.15,2.15,0,0,0,1.29-.34A1.1,1.1,0,0,0,124.25,70.88Z"/><path class="cls-1" d="M129.05,72.78l-1.17,2.39H127l.55-2.47V71.43h1.54Z"/><path class="cls-1" d="M18.22,81h1.54v8.08a3.38,3.38,0,0,1-1,2.52,3.48,3.48,0,0,1-2.51.94,3.56,3.56,0,0,1-2.49-.84,2.94,2.94,0,0,1-.89-2.41l0,0H14.4a2.26,2.26,0,0,0,.49,1.58,1.87,1.87,0,0,0,1.4.51,1.76,1.76,0,0,0,1.39-.61,2.4,2.4,0,0,0,.54-1.64Z"/><path class="cls-1" d="M27.38,92.35c-.05-.25-.09-.48-.12-.67a3.92,3.92,0,0,1-.05-.59,3.8,3.8,0,0,1-1.12,1,2.91,2.91,0,0,1-1.49.41,2.76,2.76,0,0,1-2-.68,2.49,2.49,0,0,1-.7-1.86,2.19,2.19,0,0,1,1-1.9,4.59,4.59,0,0,1,2.66-.68h1.67v-.84a1.56,1.56,0,0,0-.46-1.17A1.77,1.77,0,0,0,25.47,85a1.86,1.86,0,0,0-1.21.38,1.12,1.12,0,0,0-.46.9H22.34l0,0a2,2,0,0,1,.87-1.69,3.57,3.57,0,0,1,2.37-.77,3.51,3.51,0,0,1,2.31.73,2.61,2.61,0,0,1,.88,2.11v4.07a8.19,8.19,0,0,0,0,.87,4.52,4.52,0,0,0,.17.83Zm-2.56-1.12a2.72,2.72,0,0,0,1.51-.43,2.09,2.09,0,0,0,.88-1V88.44H25.48a2.25,2.25,0,0,0-1.49.47,1.41,1.41,0,0,0-.56,1.1,1.15,1.15,0,0,0,.36.89A1.45,1.45,0,0,0,24.82,91.23Z"/><path class="cls-1" d="M32.36,83.9l.1,1.11a2.87,2.87,0,0,1,1.06-.93A3,3,0,0,1,35,83.74a2.64,2.64,0,0,1,1.45.39,2.45,2.45,0,0,1,.91,1.18,3.16,3.16,0,0,1,1-1.15,2.79,2.79,0,0,1,1.53-.42,2.54,2.54,0,0,1,2,.89,4.05,4.05,0,0,1,.75,2.67v5H41.19V87.28a2.8,2.8,0,0,0-.43-1.77A1.59,1.59,0,0,0,39.48,85a1.66,1.66,0,0,0-1.28.55,2.46,2.46,0,0,0-.57,1.38v5.43H36.08V87.28a2.82,2.82,0,0,0-.44-1.74A1.55,1.55,0,0,0,34.37,85a2.17,2.17,0,0,0-1.16.29,1.92,1.92,0,0,0-.69.82v6.25H31V83.9Z"/><path class="cls-1" d="M49.88,90.08a1,1,0,0,0-.39-.83A3.75,3.75,0,0,0,48,88.69a6.06,6.06,0,0,1-2.3-.9,1.82,1.82,0,0,1-.8-1.55,2.25,2.25,0,0,1,.88-1.76,3.88,3.88,0,0,1,4.61,0,2.29,2.29,0,0,1,.85,1.83l0,0H49.79a1.32,1.32,0,0,0-.49-1A1.69,1.69,0,0,0,48.09,85a1.75,1.75,0,0,0-1.21.37,1.16,1.16,0,0,0-.41.88.93.93,0,0,0,.35.77,3.86,3.86,0,0,0,1.43.5,6,6,0,0,1,2.36.93A1.86,1.86,0,0,1,51.42,90a2.26,2.26,0,0,1-.91,1.84,4.36,4.36,0,0,1-4.93-.11,2.35,2.35,0,0,1-.88-1.92v0h1.47a1.42,1.42,0,0,0,.61,1.19,2.32,2.32,0,0,0,1.34.38A2.09,2.09,0,0,0,49.41,91,1.08,1.08,0,0,0,49.88,90.08Z"/><path class="cls-1" d="M56.69,89.29a2.72,2.72,0,0,1,.55-1.67,6.94,6.94,0,0,1,1.65-1.43A8.28,8.28,0,0,1,58,84.81a2.77,2.77,0,0,1-.3-1.25,2.65,2.65,0,0,1,.77-2,2.9,2.9,0,0,1,2.09-.72,2.85,2.85,0,0,1,2,.71,2.25,2.25,0,0,1,.77,1.72,2.12,2.12,0,0,1-.41,1.32A5.61,5.61,0,0,1,61.7,85.7l-.85.63,2.65,3.19A4.07,4.07,0,0,0,64,88.4a4.64,4.64,0,0,0,.18-1.3h1.38a5.57,5.57,0,0,1-.31,1.9,4.75,4.75,0,0,1-.88,1.57l1.45,1.74,0,0H64l-.66-.79a4.69,4.69,0,0,1-1.39.71,5.11,5.11,0,0,1-1.57.25,3.85,3.85,0,0,1-2.69-.9A3,3,0,0,1,56.69,89.29Zm3.7,2a3.24,3.24,0,0,0,1.11-.19,3.72,3.72,0,0,0,1-.55l-2.83-3.4-.31.23a2.89,2.89,0,0,0-.94,1,2.09,2.09,0,0,0-.23.87,2,2,0,0,0,.56,1.45A2.11,2.11,0,0,0,60.39,91.31Zm-1.17-7.76a2,2,0,0,0,.21.86,5.07,5.07,0,0,0,.64,1l1.07-.74a1.66,1.66,0,0,0,.61-.64,1.8,1.8,0,0,0,.16-.77,1.17,1.17,0,0,0-.38-.85,1.38,1.38,0,0,0-1-.37,1.14,1.14,0,0,0-1,.45A1.69,1.69,0,0,0,59.22,83.55Z"/><path class="cls-1" d="M76.07,81h1.54v8.08a3.38,3.38,0,0,1-1,2.52,3.46,3.46,0,0,1-2.5.94,3.58,3.58,0,0,1-2.5-.84,3,3,0,0,1-.89-2.41l0,0h1.48a2.22,2.22,0,0,0,.49,1.58,1.85,1.85,0,0,0,1.4.51,1.77,1.77,0,0,0,1.39-.61,2.4,2.4,0,0,0,.54-1.64Z"/><path class="cls-1" d="M83.53,92.52a3.56,3.56,0,0,1-2.84-1.17,4.45,4.45,0,0,1-1-3.06V88a4.41,4.41,0,0,1,1-3,3.3,3.3,0,0,1,2.57-1.19,3.09,3.09,0,0,1,2.54,1.06,4.37,4.37,0,0,1,.85,2.8v.82H81.27l0,0a3.47,3.47,0,0,0,.56,2.07,2,2,0,0,0,1.72.79,3.86,3.86,0,0,0,1.37-.22,3.1,3.1,0,0,0,1-.61l.6,1a3.72,3.72,0,0,1-1.19.74A4.83,4.83,0,0,1,83.53,92.52ZM83.29,85a1.67,1.67,0,0,0-1.34.63,2.94,2.94,0,0,0-.64,1.59v0h3.82v-.12a2.47,2.47,0,0,0-.46-1.52A1.64,1.64,0,0,0,83.29,85Z"/><path class="cls-1" d="M90.07,92.35H88.53V80.17h1.54Z"/><path class="cls-1" d="M94.1,92.35H92.56V80.17H94.1Z"/><path class="cls-1" d="M98.13,81.74H96.59V80.17h1.54Zm0,10.61H96.59V83.9h1.54Z"/><path class="cls-1" d="M104,92.52a3.56,3.56,0,0,1-2.84-1.17,4.45,4.45,0,0,1-1-3.06V88a4.41,4.41,0,0,1,1-3,3.29,3.29,0,0,1,2.56-1.19,3.1,3.1,0,0,1,2.55,1.06,4.37,4.37,0,0,1,.84,2.8v.82h-5.4l0,0a3.47,3.47,0,0,0,.57,2.07,2,2,0,0,0,1.72.79,3.86,3.86,0,0,0,1.37-.22,3.1,3.1,0,0,0,1-.61l.6,1a3.72,3.72,0,0,1-1.19.74A4.83,4.83,0,0,1,104,92.52ZM103.75,85a1.67,1.67,0,0,0-1.33.63,2.94,2.94,0,0,0-.64,1.59v0h3.82v-.12a2.47,2.47,0,0,0-.46-1.52A1.65,1.65,0,0,0,103.75,85Z"/><path class="cls-1" d="M113.79,90.08a1,1,0,0,0-.39-.83,3.81,3.81,0,0,0-1.47-.56,6,6,0,0,1-2.29-.9,1.82,1.82,0,0,1-.8-1.55,2.22,2.22,0,0,1,.88-1.76,3.86,3.86,0,0,1,4.6,0,2.27,2.27,0,0,1,.86,1.83l0,0h-1.47a1.34,1.34,0,0,0-.48-1A1.71,1.71,0,0,0,112,85a1.78,1.78,0,0,0-1.22.37,1.15,1.15,0,0,0-.4.88.9.9,0,0,0,.35.77,3.86,3.86,0,0,0,1.43.5,6.1,6.1,0,0,1,2.36.93,1.88,1.88,0,0,1,.8,1.57,2.23,2.23,0,0,1-.91,1.84,4.34,4.34,0,0,1-4.92-.11,2.33,2.33,0,0,1-.88-1.92v0h1.47a1.42,1.42,0,0,0,.61,1.19,2.29,2.29,0,0,0,1.34.38,2.11,2.11,0,0,0,1.28-.34A1.08,1.08,0,0,0,113.79,90.08Z"/><path class="cls-1" d="M82.39,17.59v-1.2a.87.87,0,0,0,0-.28,3.7,3.7,0,0,0,1.59-.61,3.32,3.32,0,0,0,1.23-3.22,6.32,6.32,0,0,0-3.68-4.7V4.31C81.48.9,72.12,0,67.17,0s-14.3.9-14.3,4.31V7.39a3.38,3.38,0,0,1-4.12-.91.89.89,0,0,0-1.25-.09.87.87,0,0,0-.09,1.24,5.09,5.09,0,0,0,2.88,1.76,6.45,6.45,0,0,0-.81,1.49c-.69,1.79-.59,3.65.25,4.63a3.31,3.31,0,0,0,2.75.89v1.17c-.76.63-2.11,2.23-2.11,5.7V44.85a.41.41,0,0,0,0,.11c0,.38,1.35,9.23,17.06,9.23s17-8.85,17.06-9.23V23.27C84.5,19.89,83.13,18.24,82.39,17.59Zm-27.76-11c3,1.59,8.92,2.08,12.54,2.08s9.59-.49,12.54-2.08V7.74c0,.74-4.39,2.55-12.54,2.55S54.63,8.48,54.63,7.74ZM67.17,1.77c8.15,0,12.54,1.8,12.54,2.54S75.32,6.86,67.17,6.86,54.63,5.05,54.63,4.31,59,1.77,67.17,1.77ZM51.07,14.36a3.35,3.35,0,0,1,.06-2.84,3.83,3.83,0,0,1,2.34-2.39c2.13,2.28,9.5,2.93,13.7,2.93s11.38-.64,13.62-2.85a4.55,4.55,0,0,1,2.62,3.29,1.58,1.58,0,0,1-.5,1.56c-.89.62-2.7.38-5.37-.05a.87.87,0,0,0-.83.31c-.14.17-3.42,4.06-9.06.39a.87.87,0,0,0-1,0,6.52,6.52,0,0,1-9-.47.88.88,0,0,0-.8-.27l-1.2.2C53.8,14.53,51.55,14.92,51.07,14.36ZM82.74,44.78c-.13.72-1.68,7.64-15.3,7.64s-15.19-7-15.31-7.64V23.27c0-3.53,1.56-4.41,1.61-4.44a.88.88,0,0,0,.5-.8V16.39a.86.86,0,0,0,0-.16L55.91,16l.75-.13a9,9,0,0,0,5.73,2.32,8.37,8.37,0,0,0,4.82-1.63c4.93,2.92,8.82,1,10.52-.68a26.85,26.85,0,0,0,2.92.35,1.49,1.49,0,0,0,0,.21V18a.87.87,0,0,0,.45.77s1.66,1,1.66,4.47Z"/><path class="cls-1" d="M73.48,27.78a.88.88,0,0,0-.19-.89,8.21,8.21,0,0,0-4.62-2.12,4.58,4.58,0,0,1,1-1.17.88.88,0,1,0-1.11-1.37,6.16,6.16,0,0,0-1.84,2.43,8.8,8.8,0,0,0-5.69,2.22.88.88,0,0,0,.39,1.46,6.55,6.55,0,0,0-1.77,5.21c.26,5.42,5.73,9.09,7.49,9.09s7.24-3.67,7.49-9.09a6.55,6.55,0,0,0-1.77-5.21A.87.87,0,0,0,73.48,27.78ZM66.3,26.46a5.73,5.73,0,0,0,0,.84.89.89,0,0,0,.88.78h.1a.88.88,0,0,0,.78-1,3.8,3.8,0,0,1,0-.63,8.51,8.51,0,0,1,2.81.82,2.49,2.49,0,0,0-.65.68,2.23,2.23,0,0,0-.24.49,3.49,3.49,0,0,0-2.82.65,3.21,3.21,0,0,0-2.1-.7,5.55,5.55,0,0,0-.72.05,1.86,1.86,0,0,0-.24-.49,2.35,2.35,0,0,0-.65-.68A8.15,8.15,0,0,1,66.3,26.46Zm.87,14.42c-.81,0-5.51-2.86-5.72-7.42a5,5,0,0,1,1.18-3.79.92.92,0,0,0,.3.61.88.88,0,0,0,.93.14c.08,0,1.9-.8,2.51.51a.88.88,0,0,0,1.6,0c.6-1.27,2.32-.59,2.51-.51a.9.9,0,0,0,.93-.14.92.92,0,0,0,.3-.62,5,5,0,0,1,1.19,3.8C72.68,38,68,40.85,67.17,40.88Z"/></g></g></svg>