<svg xmlns="http://www.w3.org/2000/svg" viewBox="0 0 113.15 99.91"><defs><style>.cls-1,.cls-2{fill:#0097d6;}.cls-2{stroke:#fff;stroke-miterlimit:10;stroke-width:0.5px;}</style></defs><title>fruitorvegetablejuice</title><g id="Layer_2" data-name="Layer 2"><g id="Layer_1-2" data-name="Layer 1"><path class="cls-1" d="M36.76,72.26H32v5H30.43V65.92h7.13v1.21H32v3.92h4.8Z"/><path class="cls-1" d="M42.84,70.2l-.79,0a1.79,1.79,0,0,0-1,.29,1.89,1.89,0,0,0-.64.82v6H38.84V68.84h1.37l.15,1.24a3,3,0,0,1,.89-1,2.1,2.1,0,0,1,1.21-.36l.33,0,.26.06Z"/><path class="cls-1" d="M49.81,76a2.86,2.86,0,0,1-1,1,3.07,3.07,0,0,1-3.61-.51,4.14,4.14,0,0,1-.77-2.75v-5H46v5a3.12,3.12,0,0,0,.4,1.86,1.47,1.47,0,0,0,1.24.51A2.56,2.56,0,0,0,49,75.88a2.11,2.11,0,0,0,.8-.94v-6.1h1.54v8.45H49.91Z"/><path class="cls-1" d="M55.2,66.68H53.66V65.11H55.2Zm0,10.61H53.66V68.84H55.2Z"/><path class="cls-1" d="M59.71,66.8v2h1.6V70h-1.6v5.14A1.16,1.16,0,0,0,60,76a.91.91,0,0,0,.66.24l.29,0,.28-.08.21,1.06a1.52,1.52,0,0,1-.51.23,2.63,2.63,0,0,1-.67.09,2,2,0,0,1-1.49-.57,2.44,2.44,0,0,1-.55-1.77V70H56.82V68.84h1.35v-2Z"/><path class="cls-1" d="M66.57,73a4.64,4.64,0,0,1,1-3.09,3.78,3.78,0,0,1,5.54,0,4.67,4.67,0,0,1,1,3.09v.17a4.7,4.7,0,0,1-1,3.1,3.79,3.79,0,0,1-5.54,0,4.61,4.61,0,0,1-1-3.09Zm1.54.17a4,4,0,0,0,.57,2.22,2,2,0,0,0,3.36,0,4.06,4.06,0,0,0,.57-2.22V73A4,4,0,0,0,72,70.78a2,2,0,0,0-3.35,0A4,4,0,0,0,68.11,73Z"/><path class="cls-1" d="M80,70.2l-.79,0a1.79,1.79,0,0,0-1,.29,1.89,1.89,0,0,0-.64.82v6H76V68.84H77.4l.15,1.24a3,3,0,0,1,.89-1,2.08,2.08,0,0,1,1.21-.36l.33,0,.26.06Z"/><path class="cls-1" d="M4.61,93.51l.26.95h0l.26-.95,2.94-8.39H9.77L5.55,96.49H4.23L0,85.12H1.67Z"/><path class="cls-1" d="M14.22,96.66a3.56,3.56,0,0,1-2.84-1.17,4.45,4.45,0,0,1-1-3.06v-.34a4.38,4.38,0,0,1,1.05-3A3.27,3.27,0,0,1,14,87.89a3.07,3.07,0,0,1,2.54,1,4.37,4.37,0,0,1,.85,2.8v.82H12l0,0a3.51,3.51,0,0,0,.56,2.06,2,2,0,0,0,1.72.8,3.82,3.82,0,0,0,1.37-.23,3.1,3.1,0,0,0,1-.61l.6,1a3.72,3.72,0,0,1-1.19.74A4.79,4.79,0,0,1,14.22,96.66ZM14,89.1a1.68,1.68,0,0,0-1.34.62A2.94,2.94,0,0,0,12,91.31l0,0h3.81v-.13a2.47,2.47,0,0,0-.45-1.52A1.65,1.65,0,0,0,14,89.1Z"/><path class="cls-1" d="M18.82,92.42a5.63,5.63,0,0,1,.87-3.28,2.78,2.78,0,0,1,2.44-1.25,2.93,2.93,0,0,1,1.41.32,2.84,2.84,0,0,1,1,.93l.19-1.1H26v8.5A3.24,3.24,0,0,1,25,99a3.89,3.89,0,0,1-2.73.87A5.82,5.82,0,0,1,21,99.74a4.84,4.84,0,0,1-1.25-.46L20,98.09a4.74,4.74,0,0,0,1.07.38,5.89,5.89,0,0,0,1.24.14,2.27,2.27,0,0,0,1.64-.51,2.12,2.12,0,0,0,.51-1.56v-1a2.83,2.83,0,0,1-1,.81,3.18,3.18,0,0,1-1.34.27,2.89,2.89,0,0,1-2.42-1.12,4.68,4.68,0,0,1-.87-3Zm1.54.17a3.6,3.6,0,0,0,.52,2,1.83,1.83,0,0,0,1.62.77,2,2,0,0,0,1.16-.32,2.43,2.43,0,0,0,.78-.89V90.31a2.4,2.4,0,0,0-.78-.86,2,2,0,0,0-1.14-.31,1.74,1.74,0,0,0-1.63.91,4.73,4.73,0,0,0-.53,2.37Z"/><path class="cls-1" d="M31.69,96.66a3.56,3.56,0,0,1-2.84-1.17,4.45,4.45,0,0,1-1-3.06v-.34a4.38,4.38,0,0,1,1.05-3,3.27,3.27,0,0,1,2.57-1.19,3.09,3.09,0,0,1,2.54,1,4.37,4.37,0,0,1,.85,2.8v.82H29.43l0,0A3.44,3.44,0,0,0,30,94.66a2,2,0,0,0,1.72.8,3.86,3.86,0,0,0,1.37-.23,3.1,3.1,0,0,0,1-.61l.6,1a3.72,3.72,0,0,1-1.19.74A4.83,4.83,0,0,1,31.69,96.66Zm-.24-7.56a1.66,1.66,0,0,0-1.34.62,2.94,2.94,0,0,0-.64,1.59v0H33.3v-.13a2.47,2.47,0,0,0-.46-1.52A1.63,1.63,0,0,0,31.45,89.1Z"/><path class="cls-1" d="M38.7,86v2h1.6v1.14H38.7v5.14a1.16,1.16,0,0,0,.25.83.88.88,0,0,0,.65.24l.3,0,.27-.08.21,1.06a1.37,1.37,0,0,1-.5.23,2.63,2.63,0,0,1-.67.09,2,2,0,0,1-1.49-.57,2.44,2.44,0,0,1-.56-1.77V89.18H35.82V88h1.34V86Z"/><path class="cls-1" d="M47.15,96.49c0-.25-.1-.48-.12-.67a3.92,3.92,0,0,1-.05-.59,3.55,3.55,0,0,1-1.12,1,2.93,2.93,0,0,1-1.49.41,2.76,2.76,0,0,1-2-.68,2.45,2.45,0,0,1-.7-1.86,2.17,2.17,0,0,1,1-1.89,4.56,4.56,0,0,1,2.66-.69H47v-.83a1.57,1.57,0,0,0-.46-1.18,1.77,1.77,0,0,0-1.28-.43,1.86,1.86,0,0,0-1.21.37,1.12,1.12,0,0,0-.46.9l-1.46,0,0,0A2,2,0,0,1,43,88.65a3.57,3.57,0,0,1,2.37-.76,3.46,3.46,0,0,1,2.31.73,2.59,2.59,0,0,1,.88,2.1v4.07a8.38,8.38,0,0,0,0,.88,4.59,4.59,0,0,0,.17.82Zm-2.56-1.12a2.72,2.72,0,0,0,1.51-.43A2.08,2.08,0,0,0,47,94V92.58H45.25a2.25,2.25,0,0,0-1.49.47,1.41,1.41,0,0,0-.56,1.1,1.17,1.17,0,0,0,.35.89A1.48,1.48,0,0,0,44.59,95.37Z"/><path class="cls-1" d="M58,92.59a4.63,4.63,0,0,1-.88,3,2.9,2.9,0,0,1-2.42,1.12,3.06,3.06,0,0,1-1.46-.33,2.68,2.68,0,0,1-1-1l-.25,1.14H50.75V84.31h1.54V89a2.65,2.65,0,0,1,1-.86,3.12,3.12,0,0,1,1.38-.29,2.78,2.78,0,0,1,2.43,1.25A5.56,5.56,0,0,1,58,92.42Zm-1.54-.17a4.67,4.67,0,0,0-.54-2.37,1.75,1.75,0,0,0-1.62-.91,2,2,0,0,0-1.2.34,2.48,2.48,0,0,0-.78.94v3.66a2.57,2.57,0,0,0,.78,1,2,2,0,0,0,1.21.35,1.86,1.86,0,0,0,1.62-.77,3.6,3.6,0,0,0,.53-2Z"/><path class="cls-1" d="M61.51,96.49H60V84.31h1.54Z"/><path class="cls-1" d="M67.38,96.66a3.55,3.55,0,0,1-2.84-1.17,4.45,4.45,0,0,1-1-3.06v-.34a4.38,4.38,0,0,1,1-3,3.26,3.26,0,0,1,2.56-1.19,3.09,3.09,0,0,1,2.55,1,4.37,4.37,0,0,1,.84,2.8v.82h-5.4l0,0a3.44,3.44,0,0,0,.57,2.06,2,2,0,0,0,1.72.8,3.9,3.9,0,0,0,1.37-.23,3.1,3.1,0,0,0,1-.61l.6,1a3.67,3.67,0,0,1-1.2.74A4.73,4.73,0,0,1,67.38,96.66Zm-.25-7.56a1.66,1.66,0,0,0-1.33.62,2.86,2.86,0,0,0-.64,1.59v0H69v-.13a2.47,2.47,0,0,0-.45-1.52A1.64,1.64,0,0,0,67.13,89.1Z"/><path class="cls-1" d="M81,85.12h1.54V93.2a3.31,3.31,0,0,1-1,2.52,3.42,3.42,0,0,1-2.5.94,3.63,3.63,0,0,1-2.5-.83,3,3,0,0,1-.88-2.42v0h1.48a2.2,2.2,0,0,0,.49,1.58,1.86,1.86,0,0,0,1.4.52,1.76,1.76,0,0,0,1.39-.62A2.4,2.4,0,0,0,81,93.2Z"/><path class="cls-1" d="M90.37,95.24a2.81,2.81,0,0,1-1,1.05,3.05,3.05,0,0,1-3.6-.51A4.14,4.14,0,0,1,85,93V88h1.54v5a3.12,3.12,0,0,0,.4,1.86,1.47,1.47,0,0,0,1.24.51,2.5,2.5,0,0,0,1.35-.33,2.07,2.07,0,0,0,.81-.94V88h1.54v8.45H90.47Z"/><path class="cls-1" d="M95.76,85.88H94.22V84.31h1.54Zm0,10.61H94.22V88h1.54Z"/><path class="cls-1" d="M101.48,95.46a1.81,1.81,0,0,0,1.25-.48,1.5,1.5,0,0,0,.53-1.16h1.39l0,.05a2.41,2.41,0,0,1-.94,1.94,3.27,3.27,0,0,1-2.25.85,3.33,3.33,0,0,1-2.75-1.21,4.71,4.71,0,0,1-1-3V92.1a4.64,4.64,0,0,1,1-3,3.31,3.31,0,0,1,2.74-1.21,3.19,3.19,0,0,1,2.32.87,2.78,2.78,0,0,1,.87,2.15v0h-1.4a1.85,1.85,0,0,0-.51-1.32,1.66,1.66,0,0,0-1.27-.54,1.78,1.78,0,0,0-1.65.88,4,4,0,0,0-.52,2.12v.33a4.2,4.2,0,0,0,.51,2.15A1.79,1.79,0,0,0,101.48,95.46Z"/><path class="cls-1" d="M110,96.66a3.57,3.57,0,0,1-2.84-1.17,4.45,4.45,0,0,1-1-3.06v-.34a4.38,4.38,0,0,1,1-3,3.28,3.28,0,0,1,2.57-1.19,3.07,3.07,0,0,1,2.54,1,4.31,4.31,0,0,1,.85,2.8v.82h-5.41l0,0a3.51,3.51,0,0,0,.56,2.06,2,2,0,0,0,1.72.8,3.82,3.82,0,0,0,1.37-.23,3.1,3.1,0,0,0,1-.61l.6,1a3.72,3.72,0,0,1-1.19.74A4.79,4.79,0,0,1,110,96.66Zm-.24-7.56a1.64,1.64,0,0,0-1.33.62,2.87,2.87,0,0,0-.65,1.59l0,0h3.81v-.13a2.47,2.47,0,0,0-.45-1.52A1.65,1.65,0,0,0,109.76,89.1Z"/><path class="cls-2" d="M75.79,10.74A9,9,0,0,0,58,8.74h-6.9L44.74.3l-7,2.75,1,2.24,5.2-2,4,5.44H43.36l-.25,1C43,10.61,39,30.11,39,33.6A16.58,16.58,0,0,0,54.26,50.07v7.61H49.18v2.49H61.86V57.68H56.79V50.07A16.59,16.59,0,0,0,72.05,33.6c0-2-1.16-8.6-2.29-14.38A9.52,9.52,0,0,0,75.79,10.74Zm-10.06.5c.62,3.2,1.62,8.31,2.45,12.93H62.49L52.88,11.24Zm-20.37,0h4.49l9.56,12.93H42.91C43.74,19.55,44.74,14.4,45.36,11.24ZM55.55,47.62A14.12,14.12,0,0,1,41.49,33.56c0-1,.42-3.66,1-6.94H68.6a67.86,67.86,0,0,1,1,6.94A14.06,14.06,0,0,1,55.55,47.62Zm13.8-30.81C68.64,13,68,10.07,68,9.74l-.25-1h-7.2a6.59,6.59,0,0,1,6.2-4.49,6.46,6.46,0,0,1,6.57,6.57A6.56,6.56,0,0,1,69.35,16.81Z"/></g></g></svg>