<svg xmlns="http://www.w3.org/2000/svg" viewBox="0 0 129.36 92.88"><defs><style>.cls-1{fill:#fff;}</style></defs><title>fruitdrinks_carbonated_glass_hover</title><g id="Layer_2" data-name="Layer 2"><g id="Layer_1-2" data-name="Layer 1"><path class="cls-1" d="M29.28,68.48h-4.8v5H22.94V62.14h7.13v1.21H24.48v3.92h4.8Z"/><path class="cls-1" d="M35.36,66.42l-.79,0a1.79,1.79,0,0,0-1,.29,1.91,1.91,0,0,0-.65.82v6H31.36V65.06h1.37l.15,1.24a2.91,2.91,0,0,1,.89-1A2.08,2.08,0,0,1,35,64.91a1.83,1.83,0,0,1,.33,0l.26.06Z"/><path class="cls-1" d="M42.32,72.26a2.71,2.71,0,0,1-1,1,2.76,2.76,0,0,1-1.44.37,2.73,2.73,0,0,1-2.16-.88,4.09,4.09,0,0,1-.77-2.75v-5h1.53v5a3.2,3.2,0,0,0,.4,1.86,1.49,1.49,0,0,0,1.25.51,2.55,2.55,0,0,0,1.35-.33,2.12,2.12,0,0,0,.81-.94v-6.1h1.54v8.45H42.43Z"/><path class="cls-1" d="M47.71,62.9H46.18V61.33h1.53Zm0,10.61H46.18V65.06h1.53Z"/><path class="cls-1" d="M52.22,63v2h1.6V66.2h-1.6v5.13a1.13,1.13,0,0,0,.25.84.88.88,0,0,0,.65.24l.3,0,.27-.08.21,1.06a1.35,1.35,0,0,1-.51.23,2.5,2.5,0,0,1-.66.09,2,2,0,0,1-1.49-.57,2.47,2.47,0,0,1-.56-1.78V66.2H49.34V65.06h1.34V63Z"/><path class="cls-1" d="M59.66,73.51V62.14h3.58a4.68,4.68,0,0,1,4.94,4.91v1.56a4.67,4.67,0,0,1-4.94,4.9ZM61.2,63.35v9h2a3.16,3.16,0,0,0,2.49-1,3.92,3.92,0,0,0,.91-2.66V67a3.89,3.89,0,0,0-.91-2.65,3.16,3.16,0,0,0-2.49-1Z"/><path class="cls-1" d="M74.29,66.42l-.79,0a1.79,1.79,0,0,0-1,.29,1.91,1.91,0,0,0-.65.82v6H70.29V65.06h1.37l.15,1.24a2.91,2.91,0,0,1,.89-1,2.08,2.08,0,0,1,1.21-.36,1.83,1.83,0,0,1,.33,0l.26.06Z"/><path class="cls-1" d="M77.55,62.9H76V61.33h1.54Zm0,10.61H76V65.06h1.54Z"/><path class="cls-1" d="M81.29,65.06l.11,1.26a3,3,0,0,1,1.06-1,2.79,2.79,0,0,1,1.45-.37,2.75,2.75,0,0,1,2.12.8,3.49,3.49,0,0,1,.75,2.47v5.33H85.24v-5.3a2.32,2.32,0,0,0-.44-1.59,1.8,1.8,0,0,0-1.35-.46,2.38,2.38,0,0,0-1.21.28,2.07,2.07,0,0,0-.78.8v6.27H79.92V65.06Z"/><path class="cls-1" d="M91.35,69.62h-.79v3.89H89V61.33h1.54v7.06h.77l2.54-3.33h1.84L92.64,69,96,73.51H94.16Z"/><path class="cls-1" d="M102.13,71.24a1,1,0,0,0-.39-.83,3.75,3.75,0,0,0-1.46-.56A6.06,6.06,0,0,1,98,69a1.81,1.81,0,0,1-.8-1.54,2.25,2.25,0,0,1,.88-1.77,3.9,3.9,0,0,1,4.61,0,2.25,2.25,0,0,1,.85,1.82l0,0H102a1.32,1.32,0,0,0-.49-1,1.69,1.69,0,0,0-1.21-.44,1.75,1.75,0,0,0-1.21.36,1.16,1.16,0,0,0-.41.88.93.93,0,0,0,.35.77,3.86,3.86,0,0,0,1.43.5,6,6,0,0,1,2.36.93,1.87,1.87,0,0,1,.81,1.57,2.26,2.26,0,0,1-.91,1.84,3.79,3.79,0,0,1-2.38.71,3.71,3.71,0,0,1-2.55-.82A2.35,2.35,0,0,1,97,70.94v0h1.47A1.46,1.46,0,0,0,99,72.1a2.39,2.39,0,0,0,1.34.38,2.09,2.09,0,0,0,1.28-.35A1.07,1.07,0,0,0,102.13,71.24Z"/><path class="cls-1" d="M106.93,73.14l-1.18,2.39h-.91l.55-2.47V71.79h1.54Z"/><path class="cls-1" d="M8.52,89.07l0,.05A3.43,3.43,0,0,1,7.41,91.8a4.27,4.27,0,0,1-3,1.08,4,4,0,0,1-3.15-1.37A5,5,0,0,1,0,88V86a5,5,0,0,1,1.21-3.47,4,4,0,0,1,3.15-1.37,4.45,4.45,0,0,1,3.07,1,3.42,3.42,0,0,1,1.11,2.73l0,0H7.05a2.56,2.56,0,0,0-.71-1.89,2.7,2.7,0,0,0-2-.69,2.41,2.41,0,0,0-2.06,1A4.21,4.21,0,0,0,1.54,86v2a4.28,4.28,0,0,0,.76,2.6,2.44,2.44,0,0,0,2.06,1,2.66,2.66,0,0,0,2-.7,2.54,2.54,0,0,0,.71-1.91Z"/><path class="cls-1" d="M15.52,92.71c0-.25-.09-.48-.12-.67a5.87,5.87,0,0,1-.05-.59,3.55,3.55,0,0,1-1.12,1,2.91,2.91,0,0,1-1.49.41,2.76,2.76,0,0,1-2-.68A2.48,2.48,0,0,1,10,90.34a2.17,2.17,0,0,1,1-1.89,4.54,4.54,0,0,1,2.66-.69h1.67v-.83a1.56,1.56,0,0,0-.45-1.18,1.77,1.77,0,0,0-1.28-.43,1.84,1.84,0,0,0-1.21.37,1.12,1.12,0,0,0-.46.9l-1.47,0v0a2,2,0,0,1,.86-1.69,3.57,3.57,0,0,1,2.37-.76,3.5,3.5,0,0,1,2.32.73,2.58,2.58,0,0,1,.87,2.1V91a8.33,8.33,0,0,0,.05.88,4.59,4.59,0,0,0,.17.82ZM13,91.59a2.72,2.72,0,0,0,1.51-.43,2.1,2.1,0,0,0,.87-1V88.8H13.63a2.24,2.24,0,0,0-1.49.47,1.38,1.38,0,0,0-.56,1.1,1.17,1.17,0,0,0,.35.89A1.46,1.46,0,0,0,13,91.59Z"/><path class="cls-1" d="M23.13,85.62l-.79-.05a1.79,1.79,0,0,0-1,.29,1.91,1.91,0,0,0-.65.82v6H19.13V84.26H20.5l.15,1.24a2.91,2.91,0,0,1,.89-1,2.08,2.08,0,0,1,1.21-.36l.33,0,.26.06Z"/><path class="cls-1" d="M32,88.81a4.69,4.69,0,0,1-.88,3,2.91,2.91,0,0,1-2.42,1.12,3.12,3.12,0,0,1-1.47-.33,2.73,2.73,0,0,1-1-1l-.25,1.14H24.73V80.53h1.54v4.73a2.69,2.69,0,0,1,1-.86,3.18,3.18,0,0,1,1.38-.29,2.8,2.8,0,0,1,2.44,1.25A5.63,5.63,0,0,1,32,88.64Zm-1.54-.17a4.67,4.67,0,0,0-.54-2.37,1.76,1.76,0,0,0-1.63-.91,2,2,0,0,0-1.2.34,2.55,2.55,0,0,0-.77.94V90.3a2.46,2.46,0,0,0,.77,1,2,2,0,0,0,1.22.35,1.86,1.86,0,0,0,1.62-.77,3.6,3.6,0,0,0,.53-2Z"/><path class="cls-1" d="M33.46,88.41a4.64,4.64,0,0,1,1-3.09,3.38,3.38,0,0,1,2.75-1.21A3.43,3.43,0,0,1,40,85.32a4.62,4.62,0,0,1,1,3.09v.17a4.7,4.7,0,0,1-1,3.1,3.79,3.79,0,0,1-5.54,0,4.61,4.61,0,0,1-1-3.09Zm1.54.17a4,4,0,0,0,.57,2.22,2,2,0,0,0,3.35,0,4,4,0,0,0,.57-2.22v-.17a4,4,0,0,0-.57-2.21,1.88,1.88,0,0,0-1.69-.88,1.83,1.83,0,0,0-1.66.88A4,4,0,0,0,35,88.41Z"/><path class="cls-1" d="M44.29,84.26l.11,1.26a2.93,2.93,0,0,1,1.06-1,2.77,2.77,0,0,1,1.45-.37,2.72,2.72,0,0,1,2.11.8,3.49,3.49,0,0,1,.75,2.47v5.33H48.23v-5.3a2.29,2.29,0,0,0-.44-1.59,1.76,1.76,0,0,0-1.34-.46,2.38,2.38,0,0,0-1.21.28,2.09,2.09,0,0,0-.79.8v6.27H42.91V84.26Z"/><path class="cls-1" d="M57.2,92.71c-.05-.25-.09-.48-.12-.67a5.87,5.87,0,0,1,0-.59,3.55,3.55,0,0,1-1.12,1,2.91,2.91,0,0,1-1.49.41,2.76,2.76,0,0,1-2-.68,2.48,2.48,0,0,1-.69-1.86,2.15,2.15,0,0,1,1-1.89,4.54,4.54,0,0,1,2.66-.69H57v-.83a1.56,1.56,0,0,0-.45-1.18,1.77,1.77,0,0,0-1.28-.43,1.84,1.84,0,0,0-1.21.37,1.12,1.12,0,0,0-.46.9l-1.47,0v0A2,2,0,0,1,53,84.87a3.57,3.57,0,0,1,2.37-.76,3.5,3.5,0,0,1,2.32.73,2.58,2.58,0,0,1,.87,2.1V91a8.33,8.33,0,0,0,0,.88,4.59,4.59,0,0,0,.17.82Zm-2.55-1.12a2.72,2.72,0,0,0,1.51-.43,2.1,2.1,0,0,0,.87-1V88.8H55.3a2.23,2.23,0,0,0-1.48.47,1.38,1.38,0,0,0-.56,1.1,1.17,1.17,0,0,0,.35.89A1.46,1.46,0,0,0,54.65,91.59Z"/><path class="cls-1" d="M63,82.22v2h1.6V85.4H63v5.14a1.16,1.16,0,0,0,.24.83.9.9,0,0,0,.65.24l.3,0,.27-.08.22,1.06a1.52,1.52,0,0,1-.51.23,2.63,2.63,0,0,1-.67.09A2,2,0,0,1,62,92.31a2.44,2.44,0,0,1-.55-1.77V85.4H60.06V84.26h1.35v-2Z"/><path class="cls-1" d="M69.7,92.88a3.56,3.56,0,0,1-2.84-1.17,4.45,4.45,0,0,1-1-3.06v-.34a4.38,4.38,0,0,1,1-3,3.26,3.26,0,0,1,2.56-1.19,3.09,3.09,0,0,1,2.55,1,4.37,4.37,0,0,1,.84,2.8v.82h-5.4l0,0A3.44,3.44,0,0,0,68,90.88a2,2,0,0,0,1.72.8,3.9,3.9,0,0,0,1.37-.23,3.1,3.1,0,0,0,1-.61l.6,1a3.67,3.67,0,0,1-1.2.74A4.73,4.73,0,0,1,69.7,92.88Zm-.25-7.56a1.66,1.66,0,0,0-1.33.62,2.86,2.86,0,0,0-.64,1.59v0H71.3v-.13a2.47,2.47,0,0,0-.45-1.52A1.64,1.64,0,0,0,69.45,85.32Z"/><path class="cls-1" d="M74.22,88.64a5.63,5.63,0,0,1,.87-3.28,2.78,2.78,0,0,1,2.44-1.25,3.08,3.08,0,0,1,1.32.27,2.69,2.69,0,0,1,1,.8V80.53h1.54V92.71H80.19L80,91.64a2.67,2.67,0,0,1-1,.93,3.18,3.18,0,0,1-1.41.31,2.91,2.91,0,0,1-2.43-1.12,4.68,4.68,0,0,1-.87-3Zm1.54.17a3.58,3.58,0,0,0,.52,2,1.84,1.84,0,0,0,1.63.77,2,2,0,0,0,1.15-.31,2.29,2.29,0,0,0,.77-.88V86.5a2.5,2.5,0,0,0-.77-.84,2.11,2.11,0,0,0-1.14-.3,1.74,1.74,0,0,0-1.63.91,4.62,4.62,0,0,0-.53,2.37Z"/><path class="cls-1" d="M88.46,88.51H83.85v-1.2h4.61Z"/><path class="cls-1" d="M99.27,91.18a3.79,3.79,0,0,1-1.41,1.17,5.63,5.63,0,0,1-2.61.53A4.4,4.4,0,0,1,92,91.57,4.57,4.57,0,0,1,90.7,88.2V85.86A4.7,4.7,0,0,1,92,82.48a4.2,4.2,0,0,1,3.2-1.3,4.26,4.26,0,0,1,3,1,3.25,3.25,0,0,1,1.07,2.57l0,0H97.73a2.38,2.38,0,0,0-.68-1.73,2.52,2.52,0,0,0-1.9-.69,2.57,2.57,0,0,0-2.1,1,3.81,3.81,0,0,0-.8,2.48V88.2a3.72,3.72,0,0,0,.84,2.5,2.75,2.75,0,0,0,2.16,1,3.94,3.94,0,0,0,1.6-.27,2.33,2.33,0,0,0,.88-.62V88.23H95.15V87h4.12Z"/><path class="cls-1" d="M103.38,92.71h-1.54V80.53h1.54Z"/><path class="cls-1" d="M110.94,92.71a5.34,5.34,0,0,1-.12-.67,3.92,3.92,0,0,1,0-.59,3.48,3.48,0,0,1-1.13,1,2.87,2.87,0,0,1-1.48.41,2.8,2.8,0,0,1-2-.68,2.48,2.48,0,0,1-.69-1.86,2.17,2.17,0,0,1,1-1.89,4.56,4.56,0,0,1,2.66-.69h1.68v-.83a1.57,1.57,0,0,0-.46-1.18,1.77,1.77,0,0,0-1.28-.43,1.86,1.86,0,0,0-1.21.37,1.12,1.12,0,0,0-.46.9l-1.46,0,0,0a2,2,0,0,1,.87-1.69,3.57,3.57,0,0,1,2.37-.76,3.48,3.48,0,0,1,2.31.73,2.58,2.58,0,0,1,.87,2.1V91a8.33,8.33,0,0,0,0,.88,4.59,4.59,0,0,0,.17.82Zm-2.56-1.12a2.72,2.72,0,0,0,1.51-.43,2.08,2.08,0,0,0,.88-1V88.8H109a2.25,2.25,0,0,0-1.49.47,1.41,1.41,0,0,0-.56,1.1,1.17,1.17,0,0,0,.35.89A1.48,1.48,0,0,0,108.38,91.59Z"/><path class="cls-1" d="M119.45,90.44a1.05,1.05,0,0,0-.38-.83,3.81,3.81,0,0,0-1.47-.56,6,6,0,0,1-2.29-.9,1.79,1.79,0,0,1-.8-1.54,2.22,2.22,0,0,1,.88-1.77,3.88,3.88,0,0,1,4.6,0,2.2,2.2,0,0,1,.85,1.82v0h-1.47a1.34,1.34,0,0,0-.48-1,1.71,1.71,0,0,0-1.22-.44,1.77,1.77,0,0,0-1.21.36,1.15,1.15,0,0,0-.4.88.92.92,0,0,0,.34.77,3.93,3.93,0,0,0,1.44.5,6.16,6.16,0,0,1,2.36.93,1.89,1.89,0,0,1,.8,1.57,2.23,2.23,0,0,1-.91,1.84,3.79,3.79,0,0,1-2.38.71,3.7,3.7,0,0,1-2.54-.82,2.37,2.37,0,0,1-.89-1.92l0,0h1.47a1.43,1.43,0,0,0,.61,1.2,2.36,2.36,0,0,0,1.33.38,2.13,2.13,0,0,0,1.29-.35A1.06,1.06,0,0,0,119.45,90.44Z"/><path class="cls-1" d="M127.82,90.44a1,1,0,0,0-.39-.83,3.68,3.68,0,0,0-1.46-.56,5.93,5.93,0,0,1-2.29-.9,1.79,1.79,0,0,1-.8-1.54,2.24,2.24,0,0,1,.87-1.77,3.45,3.45,0,0,1,2.28-.73,3.4,3.4,0,0,1,2.33.78,2.23,2.23,0,0,1,.85,1.82v0h-1.47a1.34,1.34,0,0,0-.48-1,1.71,1.71,0,0,0-1.22-.44,1.75,1.75,0,0,0-1.21.36,1.16,1.16,0,0,0-.41.88.93.93,0,0,0,.35.77,3.86,3.86,0,0,0,1.44.5,6,6,0,0,1,2.35.93,1.87,1.87,0,0,1,.81,1.57,2.26,2.26,0,0,1-.91,1.84,3.79,3.79,0,0,1-2.38.71,3.71,3.71,0,0,1-2.55-.82,2.35,2.35,0,0,1-.88-1.92l0,0h1.47a1.42,1.42,0,0,0,.6,1.2,2.39,2.39,0,0,0,1.34.38,2.15,2.15,0,0,0,1.29-.35A1.09,1.09,0,0,0,127.82,90.44Z"/><path class="cls-1" d="M46,38.29a.94.94,0,0,0-.8-1.06.93.93,0,0,0-1.06.8,7.81,7.81,0,0,0,.35,4.35.94.94,0,0,0,.85.54.88.88,0,0,0,.39-.08.94.94,0,0,0,.47-1.25A6,6,0,0,1,46,38.29Z"/><path class="cls-1" d="M45.89,34.31a.93.93,0,0,0-1.14.67q-.11.35-.18.69a.94.94,0,0,0,.69,1.14.83.83,0,0,0,.22,0,.94.94,0,0,0,.91-.72c.06-.22.11-.44.17-.66A.94.94,0,0,0,45.89,34.31Z"/><path class="cls-1" d="M48.67,25.86a1,1,0,0,0-1.23.5A21,21,0,0,0,46,30.8a.93.93,0,0,0,.77,1.08l.16,0a.93.93,0,0,0,.92-.79,20,20,0,0,1,1.31-4A.94.94,0,0,0,48.67,25.86Z"/><path class="cls-1" d="M50,23.21a.94.94,0,0,0-1.27.4s-.11.21-.28.58a.94.94,0,0,0,.43,1.25,1,1,0,0,0,.41.09.93.93,0,0,0,.85-.53c.16-.33.26-.52.26-.53A.93.93,0,0,0,50,23.21Z"/><path class="cls-1" d="M88.62,35.66c0-1.66-1.47-3-3.68-3.91,0-.69.08-1.27.08-1.72,0-1.31-.24-4.7-.25-4.85a.08.08,0,0,0,0,0c-.09-2.14-3.12-3.75-7.13-3.75-3.1,0-5.62,1-6.64,2.4-1-1.43-3.55-2.4-6.65-2.4-.23,0-.45,0-.68,0A41.64,41.64,0,0,1,61.3,10.9a3.7,3.7,0,0,0,.25-.43l2.55-5.2a.76.76,0,0,0,.09-.18c0-.07,0-.13.07-.19a2.39,2.39,0,0,0,.12-.7c0-2.76-4.82-4.2-9.57-4.2s-9.58,1.44-9.58,4.2a2.38,2.38,0,0,0,.47,1.4c-.29,1.07-.37,3,1.15,3.74l.17.05a3.88,3.88,0,0,1,1,1.06,4.4,4.4,0,0,0,.3.45,41.07,41.07,0,0,1-3.15,12.41C43.1,28,38.69,39,41.56,42.94a6.58,6.58,0,0,0,1.92,3.86c2.24,2.29,6.05,3.45,11.33,3.45S64,49.09,66.17,46.81a6.59,6.59,0,0,0,1.6-2.59A17.29,17.29,0,0,0,75,45.73c7.53,0,13.65-4.5,13.65-10h0ZM69,38.8a19.25,19.25,0,0,0-.23-2.3,26.39,26.39,0,0,1,6.42-.74c4.44,0,7.73.89,9.43,1.9A23.64,23.64,0,0,1,75,39.38,29.77,29.77,0,0,1,69,38.8ZM79.21,29a4.07,4.07,0,0,1,.37,1.36,34,34,0,0,0-3.54-.3A7.59,7.59,0,0,0,75.88,29a14,14,0,0,0,1.75.11A13.31,13.31,0,0,0,79.21,29Zm-5.47-.5a5.16,5.16,0,0,1,.42,1.55c-.69,0-1.37.05-2,.11a.57.57,0,0,1,0-.13c0-.58,0-1.42.08-2.24A7.06,7.06,0,0,0,73.74,28.51Zm-3.49,1.86a28.44,28.44,0,0,0-2.89.57q-.33-1.05-.69-2a7.81,7.81,0,0,0,3.68-1.51c-.06.93-.11,2-.11,2.65C70.24,30.15,70.25,30.26,70.25,30.37Zm16.49,5.29a1.35,1.35,0,0,1-.46.89c-2.09-1.64-6.31-2.67-11.13-2.67a28,28,0,0,0-6.78.78q-.21-1-.48-1.92A29,29,0,0,1,75,31.93C82.15,31.93,86.74,34.13,86.74,35.66Zm-5.26-5a6.14,6.14,0,0,0-.38-2.05,7.44,7.44,0,0,0,2-.84c0,.85.09,1.72.09,2.22,0,.29,0,.65,0,1.08C82.58,31,82,30.82,81.48,30.7Zm-3.85-7.43c3.17,0,5.27,1.19,5.27,2s-2.1,2-5.27,2-5.26-1.19-5.26-2S74.47,23.27,77.63,23.27Zm-8,2c0,.59-1.25,1.52-3.59,1.85l-.25-.63c.82-.2,1.24-.61,1.24-1.22s-.41-1.3-2.31-1.37c-.09-.21-.18-.4-.25-.57l0,0C67.54,23.29,69.6,24.47,69.6,25.25ZM54.91,15.91c3.55,0,5.47,1.15,5.47,1.62s-1.92,1.62-5.47,1.62S49.44,18,49.44,17.53,51.36,15.91,54.91,15.91Zm0-1.88a13.06,13.06,0,0,0-5.26,1c.2-1.08.33-2,.41-2.72a10.89,10.89,0,0,0,4.75.92,11,11,0,0,0,4.74-.91c.08.69.21,1.58.4,2.6A13.57,13.57,0,0,0,54.91,14Zm-7.3-7c0,.16,0,.33-.08.46A1.16,1.16,0,0,1,47.42,7ZM59.86,9.65c-.38.82-2.13,1.69-5,1.69-3.1,0-4.69-.93-5.14-1.8l0-.07A6.58,6.58,0,0,0,49,8.7a3.14,3.14,0,0,0,.37-1,20.47,20.47,0,0,0,5.4.68,19.38,19.38,0,0,0,6.11-.9Zm-5-7.77c5,0,7.69,1.53,7.69,2.32a.5.5,0,0,1,0,.12l-.08.16c-.52.82-3.16,2-7.59,2-5,0-7.7-1.54-7.7-2.32S49.83,1.88,54.81,1.88Zm0,46.49c-11.26,0-11.4-5.54-11.4-5.77a.92.92,0,0,0-.23-.64c-1.71-1.91-.21-9.09,3.71-17.88a37.63,37.63,0,0,0,1.71-4.67C50,20.47,52.44,21,54.91,21a11.36,11.36,0,0,0,6.14-1.49,38.46,38.46,0,0,0,1.67,4.55c2.87,6.42,4.44,12.13,4.38,15.45v0a3.86,3.86,0,0,1-.69,2.51.45.45,0,0,0-.06.12.76.76,0,0,0-.11.14.93.93,0,0,0-.09.67,4.55,4.55,0,0,1-1.3,2.46C63.57,46.8,60.79,48.37,54.81,48.37ZM75,43.85a15.53,15.53,0,0,1-6.58-1.41,5.62,5.62,0,0,0,.49-1.74,32.52,32.52,0,0,0,6.07.56,26,26,0,0,0,10.56-2C83.59,42,79.59,43.85,75,43.85Z"/><path class="cls-1" d="M77.63,26.63c2.2,0,2.67-.75,2.67-1.38s-.47-1.38-2.67-1.38S75,24.62,75,25.25,75.43,26.63,77.63,26.63Z"/></g></g></svg>