<svg xmlns="http://www.w3.org/2000/svg" viewBox="0 0 121.81 95.67"><defs><style>.cls-1{fill:#0097d6;}</style></defs><title>fruits_vegetables_pickledetc</title><g id="Layer_2" data-name="Layer 2"><g id="Layer_1-2" data-name="Layer 1"><path class="cls-1" d="M6.34,69.43H1.54v5H0V63.08H7.13v1.21H1.54v3.93h4.8Z"/><path class="cls-1" d="M12.41,67.37l-.78-.05a1.71,1.71,0,0,0-1,.29,1.82,1.82,0,0,0-.65.81v6H8.41V66H9.79l.15,1.23a2.86,2.86,0,0,1,.88-1A2.07,2.07,0,0,1,12,65.85a1.84,1.84,0,0,1,.33,0,1.43,1.43,0,0,1,.26.06Z"/><path class="cls-1" d="M19.38,73.21a2.69,2.69,0,0,1-2.47,1.41,2.69,2.69,0,0,1-2.15-.88A4.07,4.07,0,0,1,14,71V66h1.54v5a3.2,3.2,0,0,0,.4,1.86,1.51,1.51,0,0,0,1.24.5A2.56,2.56,0,0,0,18.52,73a2.08,2.08,0,0,0,.81-.94V66h1.54v8.45H19.48Z"/><path class="cls-1" d="M24.77,63.84H23.23V62.27h1.54Zm0,10.62H23.23V66h1.54Z"/><path class="cls-1" d="M29.28,64v2h1.6v1.14h-1.6v5.13a1.14,1.14,0,0,0,.25.84.88.88,0,0,0,.65.24,1.13,1.13,0,0,0,.3,0l.27-.07.21,1a1.21,1.21,0,0,1-.51.23,2.5,2.5,0,0,1-.66.09,2,2,0,0,1-1.49-.56,2.47,2.47,0,0,1-.56-1.78V67.15H26.4V66h1.34V64Z"/><path class="cls-1" d="M37.45,72.19a1,1,0,0,0-.39-.83,3.79,3.79,0,0,0-1.47-.57,6.17,6.17,0,0,1-2.29-.89,1.83,1.83,0,0,1-.8-1.55,2.22,2.22,0,0,1,.88-1.77,3.88,3.88,0,0,1,4.6,0,2.25,2.25,0,0,1,.86,1.82l0,0H37.35a1.31,1.31,0,0,0-.48-1,1.71,1.71,0,0,0-1.21-.45,1.73,1.73,0,0,0-1.22.37,1.12,1.12,0,0,0-.4.87.92.92,0,0,0,.35.78,3.86,3.86,0,0,0,1.43.5,5.94,5.94,0,0,1,2.36.93,1.88,1.88,0,0,1,.8,1.57,2.2,2.2,0,0,1-.91,1.83,3.7,3.7,0,0,1-2.37.71,3.71,3.71,0,0,1-2.55-.82,2.3,2.3,0,0,1-.88-1.91v0h1.47a1.43,1.43,0,0,0,.61,1.2,2.37,2.37,0,0,0,1.34.38A2.11,2.11,0,0,0,37,73.07,1.07,1.07,0,0,0,37.45,72.19Z"/><path class="cls-1" d="M42.24,74.08l-1.17,2.39h-.91L40.7,74V72.73h1.54Z"/><path class="cls-1" d="M47.72,71.47l.26,1h0l.26-1,2.94-8.39h1.66L48.66,74.46H47.34L43.11,63.08h1.67Z"/><path class="cls-1" d="M57.33,74.62a3.55,3.55,0,0,1-2.84-1.16,4.49,4.49,0,0,1-1-3.06v-.35a4.4,4.4,0,0,1,1.05-3,3.3,3.3,0,0,1,2.57-1.19,3.09,3.09,0,0,1,2.54,1.05,4.4,4.4,0,0,1,.85,2.81v.81H55.07l0,0a3.47,3.47,0,0,0,.56,2.07,2,2,0,0,0,1.72.79,3.86,3.86,0,0,0,1.37-.22,3.12,3.12,0,0,0,1-.62l.6,1a3.56,3.56,0,0,1-1.19.74A4.79,4.79,0,0,1,57.33,74.62Zm-.24-7.56a1.71,1.71,0,0,0-1.34.62,3,3,0,0,0-.64,1.59l0,0h3.81v-.12a2.42,2.42,0,0,0-.46-1.53A1.63,1.63,0,0,0,57.09,67.06Z"/><path class="cls-1" d="M61.93,70.39a5.64,5.64,0,0,1,.87-3.29,2.8,2.8,0,0,1,2.43-1.25,3.06,3.06,0,0,1,1.42.32,2.94,2.94,0,0,1,1,.94l.19-1.1h1.23v8.5a3.22,3.22,0,0,1-1,2.49,3.89,3.89,0,0,1-2.73.87,5.3,5.3,0,0,1-1.31-.17,5.24,5.24,0,0,1-1.25-.45l.24-1.2a4.29,4.29,0,0,0,1.07.38,5.32,5.32,0,0,0,1.24.15A2.23,2.23,0,0,0,67,76.06a2.11,2.11,0,0,0,.51-1.55v-1a2.68,2.68,0,0,1-1,.81,3.1,3.1,0,0,1-1.33.27A2.89,2.89,0,0,1,62.8,73.5a4.68,4.68,0,0,1-.87-3Zm1.54.16a3.6,3.6,0,0,0,.52,2,1.81,1.81,0,0,0,1.62.77,2,2,0,0,0,1.16-.31,2.39,2.39,0,0,0,.78-.9V68.27a2.37,2.37,0,0,0-.78-.85,1.94,1.94,0,0,0-1.14-.32A1.74,1.74,0,0,0,64,68a4.64,4.64,0,0,0-.53,2.38Z"/><path class="cls-1" d="M74.8,74.62A3.55,3.55,0,0,1,72,73.46a4.49,4.49,0,0,1-1-3.06v-.35a4.4,4.4,0,0,1,1-3,3.29,3.29,0,0,1,2.56-1.19A3.09,3.09,0,0,1,77.1,66.9,4.4,4.4,0,0,1,78,69.71v.81H72.54l0,0a3.47,3.47,0,0,0,.56,2.07,2,2,0,0,0,1.72.79,3.86,3.86,0,0,0,1.37-.22,3.12,3.12,0,0,0,1-.62l.6,1a3.56,3.56,0,0,1-1.19.74A4.83,4.83,0,0,1,74.8,74.62Zm-.25-7.56a1.69,1.69,0,0,0-1.33.62,3,3,0,0,0-.64,1.59v0h3.82v-.12A2.48,2.48,0,0,0,76,67.66,1.64,1.64,0,0,0,74.55,67.06Z"/><path class="cls-1" d="M81.81,64v2h1.6v1.14h-1.6v5.13a1.14,1.14,0,0,0,.25.84.88.88,0,0,0,.65.24,1.13,1.13,0,0,0,.3,0l.27-.07.21,1a1.21,1.21,0,0,1-.51.23,2.5,2.5,0,0,1-.66.09,2,2,0,0,1-1.49-.56,2.47,2.47,0,0,1-.56-1.78V67.15H78.93V66h1.34V64Z"/><path class="cls-1" d="M90.26,74.46c-.05-.26-.1-.48-.12-.68a3.81,3.81,0,0,1,0-.59,3.48,3.48,0,0,1-1.13,1,3.15,3.15,0,0,1-3.5-.26,2.49,2.49,0,0,1-.69-1.87,2.2,2.2,0,0,1,1-1.89,4.56,4.56,0,0,1,2.66-.68h1.68v-.84a1.58,1.58,0,0,0-.46-1.18,1.77,1.77,0,0,0-1.28-.43,1.86,1.86,0,0,0-1.21.38,1.11,1.11,0,0,0-.46.89l-1.46,0,0,0a2,2,0,0,1,.87-1.68,3.57,3.57,0,0,1,2.37-.77,3.48,3.48,0,0,1,2.31.73,2.61,2.61,0,0,1,.88,2.11v4.07a8.19,8.19,0,0,0,0,.87,4.7,4.7,0,0,0,.17.83ZM87.7,73.33a2.72,2.72,0,0,0,1.51-.43,2,2,0,0,0,.88-1V70.54H88.36a2.25,2.25,0,0,0-1.49.47,1.43,1.43,0,0,0-.56,1.11,1.18,1.18,0,0,0,.35.89A1.52,1.52,0,0,0,87.7,73.33Z"/><path class="cls-1" d="M101.08,70.55a4.63,4.63,0,0,1-.88,3,2.9,2.9,0,0,1-2.42,1.12,3.06,3.06,0,0,1-1.46-.33,2.68,2.68,0,0,1-1-1L95,74.46H93.86V62.27H95.4V67a2.48,2.48,0,0,1,1-.86,3,3,0,0,1,1.38-.3,2.8,2.8,0,0,1,2.43,1.25,5.57,5.57,0,0,1,.88,3.29Zm-1.54-.16A4.62,4.62,0,0,0,99,68a1.76,1.76,0,0,0-1.62-.92,2,2,0,0,0-1.2.35,2.38,2.38,0,0,0-.78.93V72a2.5,2.5,0,0,0,.78,1,2,2,0,0,0,1.21.35A1.83,1.83,0,0,0,99,72.6a3.6,3.6,0,0,0,.53-2Z"/><path class="cls-1" d="M104.62,74.46h-1.54V62.27h1.54Z"/><path class="cls-1" d="M110.48,74.62a3.57,3.57,0,0,1-2.84-1.16,4.48,4.48,0,0,1-1-3.06v-.35a4.35,4.35,0,0,1,1.05-3,3.29,3.29,0,0,1,2.56-1.19,3.09,3.09,0,0,1,2.55,1.05,4.39,4.39,0,0,1,.84,2.81v.81h-5.4l0,0a3.47,3.47,0,0,0,.57,2.07,1.94,1.94,0,0,0,1.71.79,3.92,3.92,0,0,0,1.38-.22,3.12,3.12,0,0,0,1-.62l.6,1a3.51,3.51,0,0,1-1.2.74A4.75,4.75,0,0,1,110.48,74.62Zm-.24-7.56a1.69,1.69,0,0,0-1.33.62,2.92,2.92,0,0,0-.64,1.59v0h3.81v-.12a2.48,2.48,0,0,0-.45-1.53A1.64,1.64,0,0,0,110.24,67.06Z"/><path class="cls-1" d="M120.27,72.19a1,1,0,0,0-.38-.83,3.79,3.79,0,0,0-1.47-.57,6.17,6.17,0,0,1-2.29-.89,1.81,1.81,0,0,1-.8-1.55,2.22,2.22,0,0,1,.88-1.77,3.88,3.88,0,0,1,4.6,0,2.21,2.21,0,0,1,.85,1.82v0h-1.47a1.31,1.31,0,0,0-.48-1,2,2,0,0,0-2.43-.08,1.12,1.12,0,0,0-.4.87.94.94,0,0,0,.34.78,3.93,3.93,0,0,0,1.44.5,6,6,0,0,1,2.36.93,1.88,1.88,0,0,1,.8,1.57,2.2,2.2,0,0,1-.91,1.83A4.34,4.34,0,0,1,116,73.8a2.33,2.33,0,0,1-.89-1.91l0,0h1.47a1.4,1.4,0,0,0,.61,1.2,2.36,2.36,0,0,0,1.33.38,2.13,2.13,0,0,0,1.29-.35A1.06,1.06,0,0,0,120.27,72.19Z"/><path class="cls-1" d="M18.3,89.1v4.56H16.76V82.28h4.35a4,4,0,0,1,2.83.94,3.54,3.54,0,0,1,0,5,4,4,0,0,1-2.83.93Zm0-1.21h2.81a2.22,2.22,0,0,0,1.73-.62,2.25,2.25,0,0,0,.57-1.56,2.28,2.28,0,0,0-.58-1.58,2.2,2.2,0,0,0-1.72-.64H18.3Z"/><path class="cls-1" d="M28.38,83H26.84V81.47h1.54Zm0,10.62H26.84V85.21h1.54Z"/><path class="cls-1" d="M34.11,92.62a1.83,1.83,0,0,0,1.24-.47A1.48,1.48,0,0,0,35.88,91h1.39l0,0a2.47,2.47,0,0,1-.94,2,3.35,3.35,0,0,1-2.25.84,3.3,3.3,0,0,1-2.75-1.21,4.63,4.63,0,0,1-1-3v-.33a4.68,4.68,0,0,1,1-3,3.33,3.33,0,0,1,2.75-1.21,3.23,3.23,0,0,1,2.32.87,2.79,2.79,0,0,1,.87,2.15l0,.05h-1.4a1.9,1.9,0,0,0-.5-1.32,1.67,1.67,0,0,0-1.27-.54,1.76,1.76,0,0,0-1.65.88,4.1,4.1,0,0,0-.52,2.13v.33a4.16,4.16,0,0,0,.51,2.14A1.76,1.76,0,0,0,34.11,92.62Z"/><path class="cls-1" d="M41.46,89.76h-.79v3.9H39.13V81.47h1.54v7.06h.78L44,85.21h1.85L42.76,89.1l3.33,4.56H44.27Z"/><path class="cls-1" d="M49,93.66H47.45V81.47H49Z"/><path class="cls-1" d="M54.86,93.82A3.55,3.55,0,0,1,52,92.66a4.49,4.49,0,0,1-1-3.06v-.35a4.4,4.4,0,0,1,1-3,3.31,3.31,0,0,1,2.57-1.19,3.07,3.07,0,0,1,2.54,1A4.4,4.4,0,0,1,58,88.91v.81H52.6l0,0a3.54,3.54,0,0,0,.56,2.07,2,2,0,0,0,1.72.79,3.82,3.82,0,0,0,1.37-.22,3.12,3.12,0,0,0,1-.62l.6,1a3.56,3.56,0,0,1-1.19.74A4.79,4.79,0,0,1,54.86,93.82Zm-.24-7.56a1.67,1.67,0,0,0-1.33.62,2.93,2.93,0,0,0-.65,1.59l0,0h3.81v-.12A2.48,2.48,0,0,0,56,86.86,1.65,1.65,0,0,0,54.62,86.26Z"/><path class="cls-1" d="M59.38,89.59a5.64,5.64,0,0,1,.87-3.29,2.82,2.82,0,0,1,2.45-1.25,3,3,0,0,1,1.31.27,2.79,2.79,0,0,1,1,.8V81.47h1.54V93.66H65.35l-.23-1.07a2.83,2.83,0,0,1-1,.92,3,3,0,0,1-1.41.31,2.89,2.89,0,0,1-2.42-1.12,4.63,4.63,0,0,1-.88-3Zm1.54.16a3.56,3.56,0,0,0,.53,2,1.8,1.8,0,0,0,1.62.77,2.05,2.05,0,0,0,1.16-.31,2.4,2.4,0,0,0,.76-.87v-4a2.28,2.28,0,0,0-.77-.83,2,2,0,0,0-1.13-.31,1.76,1.76,0,0,0-1.64.91,4.77,4.77,0,0,0-.53,2.38Z"/><path class="cls-1" d="M70.17,93.28,69,95.67h-.91l.54-2.46V91.93h1.54Z"/><path class="cls-1" d="M79.46,93.82a3.57,3.57,0,0,1-2.84-1.16,4.49,4.49,0,0,1-1-3.06v-.35a4.4,4.4,0,0,1,1.05-3,3.31,3.31,0,0,1,2.57-1.19,3.06,3.06,0,0,1,2.54,1,4.34,4.34,0,0,1,.85,2.81v.81H77.2l0,0a3.54,3.54,0,0,0,.56,2.07,2,2,0,0,0,1.72.79,3.82,3.82,0,0,0,1.37-.22,3.12,3.12,0,0,0,1-.62l.61,1a3.71,3.71,0,0,1-1.2.74A4.79,4.79,0,0,1,79.46,93.82Zm-.24-7.56a1.67,1.67,0,0,0-1.33.62,3,3,0,0,0-.65,1.59l0,0h3.81v-.12a2.48,2.48,0,0,0-.45-1.53A1.65,1.65,0,0,0,79.22,86.26Z"/><path class="cls-1" d="M86.48,83.17v2h1.6v1.14h-1.6v5.13a1.19,1.19,0,0,0,.24.84.91.91,0,0,0,.66.24,1.11,1.11,0,0,0,.29,0l.28-.07.21,1a1.35,1.35,0,0,1-.51.23,2.63,2.63,0,0,1-.67.09,2,2,0,0,1-1.49-.56,2.47,2.47,0,0,1-.55-1.78V86.35H83.59V85.21h1.35v-2Z"/><path class="cls-1" d="M93.09,92.62a1.84,1.84,0,0,0,1.24-.47A1.51,1.51,0,0,0,94.86,91h1.39l0,0a2.46,2.46,0,0,1-.93,2,3.35,3.35,0,0,1-2.25.84,3.3,3.3,0,0,1-2.75-1.21,4.63,4.63,0,0,1-1-3v-.33a4.68,4.68,0,0,1,1-3,3.31,3.31,0,0,1,2.75-1.21,3.19,3.19,0,0,1,2.31.87,2.79,2.79,0,0,1,.87,2.15v.05h-1.4a1.9,1.9,0,0,0-.5-1.32,1.67,1.67,0,0,0-1.27-.54,1.78,1.78,0,0,0-1.66.88,4.2,4.2,0,0,0-.52,2.13v.33a4.06,4.06,0,0,0,.52,2.14A1.76,1.76,0,0,0,93.09,92.62Z"/><path class="cls-1" d="M99.78,93.66H98.24V92.08h1.54Z"/><path class="cls-1" d="M104.06,93.66h-1.54V92.08h1.54Z"/><path class="cls-1" d="M108.34,93.66H106.8V92.08h1.54Z"/><path class="cls-1" d="M86.3,43.65a4.67,4.67,0,0,0-2.82-1.52h-.09a5.9,5.9,0,0,0-1.92-1.38c0-.06,0-.12,0-.18s0-.14,0-.17h0v-.06c0-2.35-4-3.59-7.93-3.78-2.22-.81-2.06-1.57-2-1.93a1.1,1.1,0,0,0-.36-1.19l-.08,0c-.27-12.42.58-29.94.59-30.12a.93.93,0,0,0-.78-1c-.08,0-8.43-1.33-19.5-2l-.25,0c-1,.11-2.39,1-4.27,2.69L43.8.65s0,0,0,0C43.4.23,42-.84,39.9,1.26s-1.13,3.36-.72,3.81l2.65,3.52a9.13,9.13,0,0,0-2,3.58,1.1,1.1,0,0,0,0,.18,1.36,1.36,0,0,0,0,.35c0,1.13.09,2.21.14,3.27.13,2.73.26,5.56.26,9.58,0,15.57-.85,24.09-.86,24.17a.92.92,0,0,0,.74,1l2.67.52h.08l.22.19c.17.14.4.29.66.47a5.32,5.32,0,0,0,.84.5h0a22.7,22.7,0,0,0,10.91,2.35h.07a26.9,26.9,0,0,0,7.51-1,15.42,15.42,0,0,0,9.35,3c7.68,0,14-5.43,14.19-12.1A1.7,1.7,0,0,0,86.3,43.65ZM73.09,38.34a1.28,1.28,0,0,0,.27,0c4.22.17,6.17,1.39,6.3,1.89-.18.44-1.29,1.41-4.83,1.46a.92.92,0,0,0,0,1.84h0c2.9,0,4.53-.65,5.45-1.33,1.43.62,2,1.27,2,1.67a1,1,0,0,1-.28.58.91.91,0,0,0,.09,1.3.87.87,0,0,0,.6.23.92.92,0,0,0,.7-.32,2.8,2.8,0,0,0,.7-1.45,2,2,0,0,1,.66.42.71.71,0,0,0-.1.14c-.91,1.63-5.73,3.31-12.21,3.31-6.74,0-11.56-1.76-12.26-3.42a3.41,3.41,0,0,1,.63-.3,2.83,2.83,0,0,0,.68,1.3.91.91,0,0,0,1.3.09.93.93,0,0,0,.09-1.3.91.91,0,0,1-.28-.58c0-.44.63-1.18,2.39-1.85a.91.91,0,0,0,.57-.65.94.94,0,0,0-.21-.83.48.48,0,0,1-.14-.26c0-.25.84-1.09,3.37-1.6.11.14.23.29.37.44a.91.91,0,0,0,.68.3.92.92,0,0,0,.68-1.54,4.22,4.22,0,0,1-.47-.6s0,0,0,0c-.36-.74-.29-1.19,0-1.52C70.21,36.85,71.28,37.7,73.09,38.34ZM69.81,5.29C67.15,5,58.55,4.15,52.76,3.89A6.41,6.41,0,0,0,53,3.22a3.8,3.8,0,0,0,.11-1c8.18.55,14.6,1.42,16.79,1.74C69.85,4.35,69.83,4.78,69.81,5.29ZM43.7,8l-2-2.69a6,6,0,0,0,1.21-1,6.32,6.32,0,0,0,1-1.31l2.7,2a6.86,6.86,0,0,1-1.29,1.69A6.51,6.51,0,0,1,43.7,8ZM41.2,2.56c.44-.43,1-.85,1.25-.69l0,0c0,.05-.09.38-.88,1.16a3.07,3.07,0,0,1-1,.8l0,0C40.32,3.6,40.76,3,41.2,2.56Zm1.95,7.33a1.26,1.26,0,0,0,.33,0c1.18,0,2.65-1.35,3.16-1.85a9.19,9.19,0,0,0,1.51-1.93,1.93,1.93,0,0,0,.23-1.94,10.17,10.17,0,0,1,2.86-2,1.93,1.93,0,0,1-.06.57c-.72,3-6,8.58-8.8,9.38a1.94,1.94,0,0,1-.65.07A9.5,9.5,0,0,1,43.15,9.89Zm12.36,43c-5.87,0-9.19-1.54-10.71-2.52-.41-.41-.34-1.21.14-4.31A163.36,163.36,0,0,0,46.87,25,.93.93,0,0,0,45,24.88a161.82,161.82,0,0,1-1.9,20.92,29,29,0,0,0-.43,3.54l-1.39-.27c.21-2.52.79-10.62.79-23.52,0-4.07-.13-6.91-.26-9.66,0-.6,0-1.2-.08-1.81h.12a3.63,3.63,0,0,0,1-.15c2.75-.78,6.94-4.8,9-8.24,5.79.21,15.25,1.17,17.87,1.44-.24,6-.63,17.78-.41,26.73l0,0a2.88,2.88,0,0,0-1.51,3V37c-2.83.65-4.43,1.83-4.43,3.32a1.84,1.84,0,0,0,0,.41,5.5,5.5,0,0,0-2.11,1.61,5.53,5.53,0,0,0-2.59,1.19,1.83,1.83,0,0,0-.46,1.27,11.39,11.39,0,0,0,3.18,7.48,26,26,0,0,1-5.85.62ZM72.44,55C67,55,62.25,51.84,60.66,47.6,63.44,49.21,68.18,50,72.44,50c5,0,9.25-.9,11.77-2.37C82.62,51.85,77.92,55,72.44,55Z"/><path class="cls-1" d="M65,34.25a.93.93,0,0,0,.92.85H66a.93.93,0,0,0,.85-1l-.13-1.62c-.27-3.23-.57-6.89-.67-11.47a.9.9,0,0,0-.94-.9.92.92,0,0,0-.9.94c.1,4.64.4,8.33.67,11.59Z"/><path class="cls-1" d="M52.18,19.18a.93.93,0,0,0-.93.92c0,.08,0,8.37-1.42,21.83a.91.91,0,0,0,.82,1h.09a.92.92,0,0,0,.92-.83c1.42-13.57,1.44-21.94,1.44-22A.92.92,0,0,0,52.18,19.18Z"/><path class="cls-1" d="M52.18,13.94a.93.93,0,0,0-.93.93v1.61a.93.93,0,0,0,1.85,0V14.87A.93.93,0,0,0,52.18,13.94Z"/></g></g></svg>