<svg xmlns="http://www.w3.org/2000/svg" viewBox="0 0 114.09 87.73"><defs><style>.cls-1{fill:#0097d6;}</style></defs><title>icecream_frozendesserts</title><g id="Layer_2" data-name="Layer 2"><g id="Layer_1-2" data-name="Layer 1"><path class="cls-1" d="M14.86,68.37H13.31V57h1.55Z"/><path class="cls-1" d="M20.82,67.33a1.81,1.81,0,0,0,1.25-.48,1.5,1.5,0,0,0,.53-1.16H24l0,0a2.41,2.41,0,0,1-.94,1.94,3.27,3.27,0,0,1-2.25.85,3.33,3.33,0,0,1-2.75-1.21,4.71,4.71,0,0,1-1-3V64a4.65,4.65,0,0,1,1-3,3.31,3.31,0,0,1,2.74-1.21,3.19,3.19,0,0,1,2.32.87A2.79,2.79,0,0,1,24,62.78v0H22.6a1.85,1.85,0,0,0-.51-1.32A1.66,1.66,0,0,0,20.82,61a1.78,1.78,0,0,0-1.65.88A4.05,4.05,0,0,0,18.65,64v.32a4.2,4.2,0,0,0,.51,2.15A1.77,1.77,0,0,0,20.82,67.33Z"/><path class="cls-1" d="M29.34,68.53a3.6,3.6,0,0,1-2.84-1.16,4.5,4.5,0,0,1-1-3.07V64a4.38,4.38,0,0,1,1.05-3,3.28,3.28,0,0,1,2.57-1.19,3.07,3.07,0,0,1,2.54,1.05,4.32,4.32,0,0,1,.85,2.81v.81H27.08l0,0a3.49,3.49,0,0,0,.56,2.06,2,2,0,0,0,1.72.8,3.82,3.82,0,0,0,1.37-.23,2.94,2.94,0,0,0,1-.61l.6,1a3.72,3.72,0,0,1-1.19.74A4.79,4.79,0,0,1,29.34,68.53ZM29.1,61a1.64,1.64,0,0,0-1.33.62,2.87,2.87,0,0,0-.65,1.59l0,0H31v-.13a2.47,2.47,0,0,0-.45-1.52A1.65,1.65,0,0,0,29.1,61Z"/><path class="cls-1" d="M46.52,64.73l0,0a3.46,3.46,0,0,1-1.13,2.68,4.29,4.29,0,0,1-3,1.08,4,4,0,0,1-3.15-1.37A5,5,0,0,1,38,63.69v-2a5,5,0,0,1,1.21-3.47,4,4,0,0,1,3.15-1.37,4.46,4.46,0,0,1,3.07,1,3.46,3.46,0,0,1,1.11,2.73l0,0H45a2.55,2.55,0,0,0-.7-1.89,2.71,2.71,0,0,0-2-.69,2.41,2.41,0,0,0-2.06,1,4.21,4.21,0,0,0-.76,2.57v2a4.26,4.26,0,0,0,.76,2.6,2.44,2.44,0,0,0,2.06,1,2.71,2.71,0,0,0,2-.69,2.57,2.57,0,0,0,.7-1.91Z"/><path class="cls-1" d="M52.32,61.27l-.78,0a1.78,1.78,0,0,0-1,.28,1.91,1.91,0,0,0-.65.82v6H48.32V59.91H49.7l.15,1.24a3,3,0,0,1,.88-1A2.13,2.13,0,0,1,52,59.76l.33,0,.26.06Z"/><path class="cls-1" d="M57.28,68.53a3.58,3.58,0,0,1-2.84-1.16,4.5,4.5,0,0,1-1-3.07V64a4.38,4.38,0,0,1,1-3A3.27,3.27,0,0,1,57,59.76a3.09,3.09,0,0,1,2.54,1.05,4.38,4.38,0,0,1,.85,2.81v.81H55l0,0a3.42,3.42,0,0,0,.56,2.06,2,2,0,0,0,1.72.8,3.86,3.86,0,0,0,1.37-.23,2.94,2.94,0,0,0,1-.61l.6,1a3.72,3.72,0,0,1-1.19.74A4.83,4.83,0,0,1,57.28,68.53ZM57,61a1.66,1.66,0,0,0-1.34.62,2.94,2.94,0,0,0-.64,1.59v0h3.82v-.13a2.47,2.47,0,0,0-.46-1.52A1.63,1.63,0,0,0,57,61Z"/><path class="cls-1" d="M67.35,68.37a5.46,5.46,0,0,1-.12-.68,3.92,3.92,0,0,1,0-.59,3.48,3.48,0,0,1-1.13,1,2.87,2.87,0,0,1-1.48.41,2.76,2.76,0,0,1-2-.68A2.48,2.48,0,0,1,61.86,66a2.17,2.17,0,0,1,1-1.89,4.56,4.56,0,0,1,2.66-.69h1.68v-.83a1.57,1.57,0,0,0-.46-1.18A1.77,1.77,0,0,0,65.44,61a1.86,1.86,0,0,0-1.21.37,1.12,1.12,0,0,0-.46.9l-1.46,0,0,0a2,2,0,0,1,.87-1.69,3.57,3.57,0,0,1,2.37-.76,3.48,3.48,0,0,1,2.31.73,2.58,2.58,0,0,1,.87,2.1v4.07a8.18,8.18,0,0,0,.05.88,4.7,4.7,0,0,0,.17.83Zm-2.56-1.13a2.72,2.72,0,0,0,1.51-.43,2,2,0,0,0,.88-1V64.45H65.45a2.25,2.25,0,0,0-1.49.47A1.41,1.41,0,0,0,63.4,66a1.17,1.17,0,0,0,.35.89A1.48,1.48,0,0,0,64.79,67.24Z"/><path class="cls-1" d="M72.32,59.91,72.43,61a2.92,2.92,0,0,1,1-.93A3.19,3.19,0,0,1,75,59.76a2.6,2.6,0,0,1,1.45.39,2.31,2.31,0,0,1,.91,1.17,3.18,3.18,0,0,1,1.06-1.15,2.87,2.87,0,0,1,1.53-.41,2.53,2.53,0,0,1,2,.88,4.05,4.05,0,0,1,.75,2.67v5.06H81.16V63.3a2.76,2.76,0,0,0-.43-1.77A1.56,1.56,0,0,0,79.45,61a1.65,1.65,0,0,0-1.28.54,2.39,2.39,0,0,0-.57,1.39v5.43H76.05V63.3a2.78,2.78,0,0,0-.44-1.74A1.53,1.53,0,0,0,74.34,61a2.06,2.06,0,0,0-1.16.29,1.83,1.83,0,0,0-.69.81v6.26H71V59.91Z"/><path class="cls-1" d="M88.29,65.3a2.67,2.67,0,0,1,.55-1.66,6.74,6.74,0,0,1,1.65-1.44,7.53,7.53,0,0,1-.91-1.38,2.75,2.75,0,0,1-.29-1.24,2.66,2.66,0,0,1,.76-2,2.94,2.94,0,0,1,2.09-.71,2.81,2.81,0,0,1,2,.71,2.22,2.22,0,0,1,.78,1.71,2.18,2.18,0,0,1-.41,1.32,5.47,5.47,0,0,1-1.22,1.15l-.85.62,2.66,3.2a5,5,0,0,0,.5-1.13,5,5,0,0,0,.18-1.3h1.37a5.78,5.78,0,0,1-.3,1.9A5,5,0,0,1,96,66.58l1.45,1.75,0,0H95.61l-.66-.8a4.75,4.75,0,0,1-1.38.71,4.91,4.91,0,0,1-1.57.25,3.88,3.88,0,0,1-2.7-.9A3,3,0,0,1,88.29,65.3Zm3.71,2a3.6,3.6,0,0,0,1.11-.19,4.15,4.15,0,0,0,1-.56l-2.82-3.39-.32.22a3.07,3.07,0,0,0-.94,1,2.09,2.09,0,0,0-.23.87,2,2,0,0,0,.56,1.46A2.14,2.14,0,0,0,92,67.33Zm-1.18-7.77a1.86,1.86,0,0,0,.22.86,5,5,0,0,0,.63,1l1.08-.74a1.64,1.64,0,0,0,.6-.64,1.77,1.77,0,0,0,.16-.77,1.17,1.17,0,0,0-.38-.85,1.37,1.37,0,0,0-1-.36,1.17,1.17,0,0,0-1,.44A1.69,1.69,0,0,0,90.82,59.56Z"/><path class="cls-1" d="M6.34,82.53H1.54v5H0V76.19H7.13V77.4H1.54v3.92h4.8Z"/><path class="cls-1" d="M12.41,80.47l-.78,0a1.78,1.78,0,0,0-1,.28,1.91,1.91,0,0,0-.65.82v6H8.41V79.11H9.79l.15,1.24a3,3,0,0,1,.88-1A2.13,2.13,0,0,1,12,79l.33,0,.26.06Z"/><path class="cls-1" d="M13.5,83.26a4.64,4.64,0,0,1,1-3.09A3.38,3.38,0,0,1,17.27,79a3.43,3.43,0,0,1,2.78,1.21,4.64,4.64,0,0,1,1,3.09v.17a4.63,4.63,0,0,1-1,3.1,3.41,3.41,0,0,1-2.76,1.2,3.42,3.42,0,0,1-2.77-1.21,4.61,4.61,0,0,1-1-3.09Zm1.54.17a4,4,0,0,0,.57,2.22,1.85,1.85,0,0,0,1.68.88A1.86,1.86,0,0,0,19,85.65a4,4,0,0,0,.57-2.22v-.17A4,4,0,0,0,19,81.05a1.89,1.89,0,0,0-1.69-.88,1.83,1.83,0,0,0-1.66.88A4,4,0,0,0,15,83.26Z"/><path class="cls-1" d="M24.28,86.36h4.88v1.21H22.45V86.49L27,80.33H22.5V79.11h6.4v1Z"/><path class="cls-1" d="M34.25,87.73a3.6,3.6,0,0,1-2.84-1.16,4.5,4.5,0,0,1-1-3.07v-.34a4.38,4.38,0,0,1,1.05-3A3.28,3.28,0,0,1,34,79,3.07,3.07,0,0,1,36.55,80a4.32,4.32,0,0,1,.85,2.81v.81H32l0,0a3.49,3.49,0,0,0,.56,2.06,2,2,0,0,0,1.72.8,3.82,3.82,0,0,0,1.37-.23,2.94,2.94,0,0,0,1-.61l.6,1a3.72,3.72,0,0,1-1.19.74A4.79,4.79,0,0,1,34.25,87.73ZM34,80.17a1.64,1.64,0,0,0-1.33.62A2.87,2.87,0,0,0,32,82.38l0,0h3.81v-.13a2.47,2.47,0,0,0-.45-1.52A1.65,1.65,0,0,0,34,80.17Z"/><path class="cls-1" d="M40.5,79.11l.11,1.26a3,3,0,0,1,1.06-1A2.77,2.77,0,0,1,43.12,79a2.72,2.72,0,0,1,2.11.8A3.51,3.51,0,0,1,46,82.23v5.34H44.45V82.26A2.24,2.24,0,0,0,44,80.68a1.72,1.72,0,0,0-1.34-.47,2.38,2.38,0,0,0-1.21.28,2.17,2.17,0,0,0-.79.8v6.28H39.13V79.11Z"/><path class="cls-1" d="M52.41,87.57V76.19H56a4.67,4.67,0,0,1,4.94,4.92v1.55A4.67,4.67,0,0,1,56,87.57ZM54,77.4v9h2a3.1,3.1,0,0,0,2.49-1,3.87,3.87,0,0,0,.91-2.66V81.09a3.86,3.86,0,0,0-.91-2.65,3.13,3.13,0,0,0-2.49-1Z"/><path class="cls-1" d="M66.53,87.73a3.6,3.6,0,0,1-2.84-1.16,4.5,4.5,0,0,1-1-3.07v-.34a4.38,4.38,0,0,1,1-3A3.28,3.28,0,0,1,66.29,79,3.06,3.06,0,0,1,68.83,80a4.32,4.32,0,0,1,.85,2.81v.81H64.27l0,0a3.49,3.49,0,0,0,.56,2.06,2,2,0,0,0,1.72.8,3.82,3.82,0,0,0,1.37-.23,2.94,2.94,0,0,0,1-.61l.61,1a3.89,3.89,0,0,1-1.2.74A4.79,4.79,0,0,1,66.53,87.73Zm-.24-7.56a1.64,1.64,0,0,0-1.33.62,2.94,2.94,0,0,0-.65,1.59l0,0h3.81v-.13a2.47,2.47,0,0,0-.45-1.52A1.65,1.65,0,0,0,66.29,80.17Z"/><path class="cls-1" d="M76.32,85.29a1,1,0,0,0-.39-.83,3.68,3.68,0,0,0-1.46-.56,5.93,5.93,0,0,1-2.29-.9,1.79,1.79,0,0,1-.8-1.54,2.24,2.24,0,0,1,.87-1.77A3.45,3.45,0,0,1,74.53,79a3.4,3.4,0,0,1,2.33.78,2.24,2.24,0,0,1,.85,1.82v0H76.23a1.34,1.34,0,0,0-.48-1,2,2,0,0,0-2.43-.08,1.16,1.16,0,0,0-.41.88.93.93,0,0,0,.35.77,3.68,3.68,0,0,0,1.44.5,6,6,0,0,1,2.35.93,1.87,1.87,0,0,1,.81,1.57A2.25,2.25,0,0,1,77,87a3.79,3.79,0,0,1-2.38.71A3.71,3.71,0,0,1,72,86.91,2.34,2.34,0,0,1,71.14,85l0,0h1.47a1.4,1.4,0,0,0,.6,1.2,2.39,2.39,0,0,0,1.34.38,2.15,2.15,0,0,0,1.29-.35A1.09,1.09,0,0,0,76.32,85.29Z"/><path class="cls-1" d="M84.69,85.29a1,1,0,0,0-.39-.83,3.82,3.82,0,0,0-1.46-.56,6.06,6.06,0,0,1-2.3-.9,1.81,1.81,0,0,1-.8-1.54,2.25,2.25,0,0,1,.88-1.77,3.9,3.9,0,0,1,4.61,0,2.27,2.27,0,0,1,.85,1.82l0,0H84.59a1.34,1.34,0,0,0-.48-1,1.73,1.73,0,0,0-1.21-.44,1.8,1.8,0,0,0-1.22.36,1.15,1.15,0,0,0-.4.88.93.93,0,0,0,.35.77,3.69,3.69,0,0,0,1.43.5,6.1,6.1,0,0,1,2.36.93,1.87,1.87,0,0,1,.81,1.57A2.25,2.25,0,0,1,85.32,87a3.79,3.79,0,0,1-2.38.71,3.71,3.71,0,0,1-2.55-.82A2.34,2.34,0,0,1,79.51,85v0H81a1.43,1.43,0,0,0,.61,1.2,2.39,2.39,0,0,0,1.34.38,2.11,2.11,0,0,0,1.28-.35A1.07,1.07,0,0,0,84.69,85.29Z"/><path class="cls-1" d="M91.64,87.73a3.6,3.6,0,0,1-2.84-1.16,4.5,4.5,0,0,1-1-3.07v-.34a4.38,4.38,0,0,1,1-3A3.28,3.28,0,0,1,91.4,79,3.06,3.06,0,0,1,93.94,80a4.32,4.32,0,0,1,.85,2.81v.81H89.38l0,0a3.49,3.49,0,0,0,.56,2.06,2,2,0,0,0,1.72.8A3.82,3.82,0,0,0,93,86.3a2.94,2.94,0,0,0,1-.61l.61,1a3.89,3.89,0,0,1-1.2.74A4.79,4.79,0,0,1,91.64,87.73Zm-.24-7.56a1.64,1.64,0,0,0-1.33.62,2.87,2.87,0,0,0-.65,1.59l0,0h3.81v-.13a2.47,2.47,0,0,0-.45-1.52A1.65,1.65,0,0,0,91.4,80.17Z"/><path class="cls-1" d="M100.52,80.47l-.79,0a1.78,1.78,0,0,0-1,.28,2,2,0,0,0-.65.82v6H96.52V79.11h1.37L98,80.35a2.91,2.91,0,0,1,.89-1,2.08,2.08,0,0,1,1.21-.36l.33,0,.26.06Z"/><path class="cls-1" d="M104.39,77.07v2H106v1.14h-1.6v5.14a1.11,1.11,0,0,0,.25.83.88.88,0,0,0,.65.24l.3,0,.27-.07.21,1a1.35,1.35,0,0,1-.51.23,2.5,2.5,0,0,1-.66.09,2,2,0,0,1-1.49-.57,2.44,2.44,0,0,1-.56-1.77V80.25h-1.34V79.11h1.34v-2Z"/><path class="cls-1" d="M112.55,85.29a1,1,0,0,0-.38-.83,3.81,3.81,0,0,0-1.47-.56,6,6,0,0,1-2.29-.9,1.81,1.81,0,0,1-.8-1.54,2.22,2.22,0,0,1,.88-1.77,3.88,3.88,0,0,1,4.6,0,2.25,2.25,0,0,1,.86,1.82l0,0h-1.47a1.34,1.34,0,0,0-.48-1,1.75,1.75,0,0,0-1.21-.44,1.78,1.78,0,0,0-1.22.36,1.15,1.15,0,0,0-.4.88.9.9,0,0,0,.35.77,3.69,3.69,0,0,0,1.43.5,6.16,6.16,0,0,1,2.36.93,1.89,1.89,0,0,1,.8,1.57,2.22,2.22,0,0,1-.91,1.84,3.77,3.77,0,0,1-2.38.71,3.7,3.7,0,0,1-2.54-.82,2.31,2.31,0,0,1-.88-1.91v0h1.47a1.4,1.4,0,0,0,.61,1.2,2.36,2.36,0,0,0,1.33.38,2.13,2.13,0,0,0,1.29-.35A1.06,1.06,0,0,0,112.55,85.29Z"/><path class="cls-1" d="M65.23,7.81a7.25,7.25,0,0,1,1,.29l.08,0a.71.71,0,0,1,.4.92.76.76,0,0,1-.18.25.71.71,0,0,1-.48.19.6.6,0,0,1-.26-.05l-.1,0a6.21,6.21,0,0,0-.81-.24.7.7,0,0,1,.28-1.38Zm-2.75,0a6.88,6.88,0,0,0-3.76,2.05.7.7,0,0,0,0,1,.73.73,0,0,0,.49.2.72.72,0,0,0,.51-.22,5.6,5.6,0,0,1,1.28-1,5.49,5.49,0,0,1,1.72-.64.7.7,0,1,0-.26-1.38ZM38.62,12a.68.68,0,0,0,.38.12.69.69,0,0,0,.59-.32,8.51,8.51,0,0,1,.87-1.11.7.7,0,1,0-1-1,10.51,10.51,0,0,0-1,1.29A.71.71,0,0,0,38.62,12Zm2.91-2.45a.72.72,0,0,0,.4-.12A8.19,8.19,0,0,1,45.28,8a.72.72,0,0,0,.37-.21.67.67,0,0,0,.21-.56v0A.71.71,0,0,0,45,6.65a9.82,9.82,0,0,0-3.91,1.58.71.71,0,0,0-.18,1A.69.69,0,0,0,41.53,9.52ZM81.78,26.27a2.7,2.7,0,0,1-1.37,2.37c-4.63,2.67-9.74,5.94-12.52,10-.4,2-2.61,4-5.59,5.16a11.89,11.89,0,0,1-4.09.79,6.44,6.44,0,0,1-2.7-.52,3.21,3.21,0,0,1-1.75-1.78,2.89,2.89,0,0,1-.1-1.52H53.6a29.09,29.09,0,0,1-15.19-3.89,6.17,6.17,0,0,1-2.53-4.36L33.93,20a4.06,4.06,0,0,1-2.15-3.32,3.59,3.59,0,0,1,1.27-2.64,1.71,1.71,0,0,1,.93-.44A13.09,13.09,0,0,1,46.73,3.39a14.93,14.93,0,0,1,1.51.09A11.19,11.19,0,0,1,65.7,5a9.79,9.79,0,0,1,7.79,8.65,1.73,1.73,0,0,1,.67.38,3.59,3.59,0,0,1,1.27,2.64A4.08,4.08,0,0,1,73.27,20l-1.12,7.23a44.26,44.26,0,0,1,5.76-3.44,2.63,2.63,0,0,1,2.49.1A2.66,2.66,0,0,1,81.78,26.27Zm-1.69,0a1,1,0,0,0-.52-.89,1.13,1.13,0,0,0-.53-.14.78.78,0,0,0-.37.09h0a41.57,41.57,0,0,0-6.89,4.3c-.34.26-.66.52-1,.78s-.66.54-1,.81c-1.2,1-2.37,2.08-3.59,3.19L65,35.57a4,4,0,0,1-2.16.92,10.8,10.8,0,0,0-6,2.46,6.17,6.17,0,0,0-.87.93,3.56,3.56,0,0,0-.49.88,1.32,1.32,0,0,0,.82,1.8,7.8,7.8,0,0,0,5.48-.32c2.75-1,4.35-2.77,4.54-4v0a.78.78,0,0,1,.13-.36c.22-.33.46-.65.7-1A24.82,24.82,0,0,1,70.2,33.6c.36-.31.72-.63,1.1-.94a63.74,63.74,0,0,1,8.27-5.49A1,1,0,0,0,80.09,26.28Zm-44.5-12a14.54,14.54,0,0,0,5.18,2,52,52,0,0,0,6.06.94l1.08.09,1.12.08c1.45.09,3,.14,4.57.14h1.72l.89,0c.63,0,1.25-.05,1.85-.09q0-.43,0-.87c0-.08,0-.16,0-.24a11.37,11.37,0,0,0-1.46-5.34c-.16-.28-.33-.55-.51-.82s-.35-.49-.54-.73a11.42,11.42,0,0,0-6.68-4c-.31-.06-.62-.11-.94-.14s-.66,0-1-.06h-.23A11.37,11.37,0,0,0,35.59,14.25Zm31.2-7.12a9.72,9.72,0,0,0-1.08-.35,8.68,8.68,0,0,0-1-.19c-.3,0-.6,0-.9,0a8.07,8.07,0,0,0-6.1,2.79,13,13,0,0,1,2.11,6.88c0,.08,0,.16,0,.24,0,.25,0,.5,0,.75,1.6-.14,3.07-.33,4.41-.55l1.13-.2,1.08-.23h.06c2.69-.62,4.57-1.38,5.37-2.12A8.08,8.08,0,0,0,66.79,7.13Zm6.94,9.58a1.53,1.53,0,0,0-.29-.86,2.47,2.47,0,0,0-.39-.49l0,0-.07.06-.31.24-.39.27c-.16.11-.34.21-.53.32h0l-.24.12a25,25,0,0,1-6.32,1.88l-1.33.22-1.46.2c-.9.12-1.82.21-2.79.29l-.87.07L57.8,19c-1.36.07-2.76.12-4.2.12-.88,0-1.74,0-2.6-.05L49.55,19,48.24,19c-.52,0-1-.08-1.55-.13l-1.56-.17a29.42,29.42,0,0,1-9.6-2.45l-.14-.08a4.06,4.06,0,0,1-.41-.25,4.85,4.85,0,0,1-.41-.28l-.29-.23-.07-.06-.05,0a2.74,2.74,0,0,0-.47.6,1.52,1.52,0,0,0-.21.75,1.62,1.62,0,0,0,.24.83,3.23,3.23,0,0,0,.77.82l0,0a7.85,7.85,0,0,0,1,.61c3.19,1.71,9.86,2.9,17.62,2.95h.49c2.41,0,4.72-.11,6.86-.32,4.94-.46,9-1.42,11.26-2.64a8.72,8.72,0,0,0,1-.61A2.24,2.24,0,0,0,73.73,16.71Zm-17.38-15a9.54,9.54,0,0,0-6.08,2.19A13.12,13.12,0,0,1,56.64,8a9.68,9.68,0,0,1,6.78-3.1A9.47,9.47,0,0,0,56.35,1.69ZM35.8,21l1.76,11.27a4.53,4.53,0,0,0,1.75,3.18A27.33,27.33,0,0,0,53.6,39.11l.79,0a10.22,10.22,0,0,1,4.89-3.54,11.69,11.69,0,0,1,3.41-.75,2.29,2.29,0,0,0,1.13-.49l1.26-1.14c1.73-1.57,3.35-3.05,5.13-4.45L71.4,21c-4.68,2-12.46,2.64-17.8,2.64S40.49,23,35.8,21Z"/></g></g></svg>