<svg xmlns="http://www.w3.org/2000/svg" viewBox="0 0 106.14 103.34"><defs><style>.cls-1{fill:#0097d6;}</style></defs><title>macaroni_cappellinietc</title><g id="Layer_2" data-name="Layer 2"><g id="Layer_1-2" data-name="Layer 1"><path class="cls-1" d="M17.59,78.76h.05l3.63-9.24h1.92V80.89H21.65V72.37h0l-3.44,8.53H17.09l-3.55-8.81h0v8.8H12V69.52h2Z"/><path class="cls-1" d="M30.84,80.89c-.06-.25-.1-.48-.13-.67s0-.4-.05-.59a3.68,3.68,0,0,1-1.12,1,2.88,2.88,0,0,1-1.49.41,2.76,2.76,0,0,1-2-.68,2.48,2.48,0,0,1-.69-1.86,2.2,2.2,0,0,1,1-1.9A4.61,4.61,0,0,1,29,75.94h1.67V75.1a1.55,1.55,0,0,0-.45-1.17,1.77,1.77,0,0,0-1.28-.44,1.86,1.86,0,0,0-1.21.38,1.12,1.12,0,0,0-.46.9H25.8l0,0a2,2,0,0,1,.86-1.69A3.62,3.62,0,0,1,29,72.28a3.55,3.55,0,0,1,2.31.73,2.6,2.6,0,0,1,.87,2.11v4.07a8.14,8.14,0,0,0,0,.87,4.7,4.7,0,0,0,.17.83Zm-2.56-1.12a2.8,2.8,0,0,0,1.51-.43,2,2,0,0,0,.87-1V77H28.94a2.2,2.2,0,0,0-1.49.47,1.41,1.41,0,0,0-.56,1.1,1.18,1.18,0,0,0,.35.89A1.48,1.48,0,0,0,28.28,79.77Z"/><path class="cls-1" d="M37.8,79.85A1.8,1.8,0,0,0,39,79.38a1.5,1.5,0,0,0,.53-1.16H41l0,0a2.44,2.44,0,0,1-.93,1.94,3.35,3.35,0,0,1-2.25.85,3.31,3.31,0,0,1-2.75-1.22,4.63,4.63,0,0,1-1-3V76.5a4.64,4.64,0,0,1,1-3,3.32,3.32,0,0,1,2.75-1.22,3.15,3.15,0,0,1,2.31.88A2.78,2.78,0,0,1,41,75.31v0h-1.4a1.88,1.88,0,0,0-.5-1.31,1.64,1.64,0,0,0-1.27-.55,1.8,1.8,0,0,0-1.66.88,4.2,4.2,0,0,0-.51,2.13v.33A4.12,4.12,0,0,0,36.14,79,1.77,1.77,0,0,0,37.8,79.85Z"/><path class="cls-1" d="M48,80.89c0-.25-.1-.48-.12-.67a4,4,0,0,1,0-.59,3.72,3.72,0,0,1-1.13,1,2.87,2.87,0,0,1-1.48.41,2.8,2.8,0,0,1-2-.68,2.48,2.48,0,0,1-.69-1.86,2.2,2.2,0,0,1,1-1.9,4.64,4.64,0,0,1,2.66-.68h1.68V75.1a1.56,1.56,0,0,0-.46-1.17,1.77,1.77,0,0,0-1.28-.44,1.86,1.86,0,0,0-1.21.38,1.12,1.12,0,0,0-.46.9H43l0,0a2,2,0,0,1,.87-1.69,3.57,3.57,0,0,1,2.37-.77A3.53,3.53,0,0,1,48.5,73a2.61,2.61,0,0,1,.88,2.11v4.07a8.19,8.19,0,0,0,0,.87,4.7,4.7,0,0,0,.17.83Zm-2.56-1.12A2.8,2.8,0,0,0,47,79.34a2.09,2.09,0,0,0,.88-1V77H46.11a2.2,2.2,0,0,0-1.49.47,1.41,1.41,0,0,0-.56,1.1,1.18,1.18,0,0,0,.35.89A1.48,1.48,0,0,0,45.45,79.77Z"/><path class="cls-1" d="M55.61,73.8l-.79,0a1.7,1.7,0,0,0-1.67,1.1v6H51.61V72.44H53l.15,1.23a3,3,0,0,1,.89-1,2.11,2.11,0,0,1,1.21-.37,1.69,1.69,0,0,1,.33,0l.26.06Z"/><path class="cls-1" d="M56.7,76.59a4.64,4.64,0,0,1,1-3.09,3.42,3.42,0,0,1,2.76-1.22,3.47,3.47,0,0,1,2.78,1.21,4.65,4.65,0,0,1,1,3.1v.17a4.61,4.61,0,0,1-1,3.09,3.42,3.42,0,0,1-2.77,1.21,3.46,3.46,0,0,1-2.77-1.21,4.69,4.69,0,0,1-1-3.09Zm1.53.17A4,4,0,0,0,58.8,79a2.06,2.06,0,0,0,3.36,0,4,4,0,0,0,.57-2.22v-.17a3.89,3.89,0,0,0-.58-2.21,2,2,0,0,0-3.35,0,4,4,0,0,0-.57,2.21Z"/><path class="cls-1" d="M67.52,72.44l.11,1.26a3.13,3.13,0,0,1,1.06-1,2.92,2.92,0,0,1,1.45-.37,2.78,2.78,0,0,1,2.12.8A3.54,3.54,0,0,1,73,75.56v5.33H71.47v-5.3A2.31,2.31,0,0,0,71,74a1.8,1.8,0,0,0-1.35-.47,2.41,2.41,0,0,0-1.21.29,2,2,0,0,0-.78.8v6.27H66.15V72.44Z"/><path class="cls-1" d="M76.91,70.27H75.37V68.7h1.54Zm0,10.62H75.37V72.44h1.54Z"/><path class="cls-1" d="M82.63,77.83a2.7,2.7,0,0,1,.55-1.67,6.73,6.73,0,0,1,1.65-1.43,8.28,8.28,0,0,1-.91-1.38,2.76,2.76,0,0,1-.29-1.25,2.63,2.63,0,0,1,.76-2,2.9,2.9,0,0,1,2.09-.72,2.85,2.85,0,0,1,2,.71,2.25,2.25,0,0,1,.78,1.71,2.19,2.19,0,0,1-.41,1.33,5.69,5.69,0,0,1-1.22,1.14l-.85.63,2.66,3.19a4.76,4.76,0,0,0,.5-1.12,5.05,5.05,0,0,0,.18-1.31H91.5a5.84,5.84,0,0,1-.3,1.91,5.07,5.07,0,0,1-.89,1.57l1.45,1.74,0,0H90l-.66-.8a4.55,4.55,0,0,1-1.38.72,5.21,5.21,0,0,1-1.57.25,3.88,3.88,0,0,1-2.7-.9A3,3,0,0,1,82.63,77.83Zm3.71,2a3.32,3.32,0,0,0,1.11-.19,4.11,4.11,0,0,0,1-.55l-2.82-3.4-.32.23a3,3,0,0,0-.94,1,2.17,2.17,0,0,0-.23.88,2,2,0,0,0,.56,1.45A2.14,2.14,0,0,0,86.34,79.85Zm-1.18-7.76a1.93,1.93,0,0,0,.22.86,5,5,0,0,0,.63,1l1.08-.74a1.66,1.66,0,0,0,.6-.65,1.74,1.74,0,0,0,.16-.77,1.17,1.17,0,0,0-.38-.84,1.38,1.38,0,0,0-1-.37,1.17,1.17,0,0,0-1,.44A1.74,1.74,0,0,0,85.16,72.09Z"/><path class="cls-1" d="M8.52,96.45l0,0a3.43,3.43,0,0,1-1.13,2.68,4.27,4.27,0,0,1-3,1.08,4,4,0,0,1-3.15-1.37A5,5,0,0,1,0,95.42v-2a5.07,5.07,0,0,1,1.21-3.48,4,4,0,0,1,3.15-1.37,4.45,4.45,0,0,1,3.07,1A3.4,3.4,0,0,1,8.54,92.3l0,0H7.05a2.53,2.53,0,0,0-.71-1.89,2.7,2.7,0,0,0-2-.7,2.44,2.44,0,0,0-2.06,1,4.26,4.26,0,0,0-.76,2.58v2A4.23,4.23,0,0,0,2.3,98a2.41,2.41,0,0,0,2.06,1,2.7,2.7,0,0,0,2-.69,2.56,2.56,0,0,0,.71-1.91Z"/><path class="cls-1" d="M15.52,100.09c0-.25-.09-.48-.12-.67s0-.4-.05-.59a3.8,3.8,0,0,1-1.12,1,2.91,2.91,0,0,1-1.49.41,2.76,2.76,0,0,1-2-.68A2.48,2.48,0,0,1,10,97.72a2.2,2.2,0,0,1,1-1.9,4.61,4.61,0,0,1,2.66-.68h1.67V94.3a1.55,1.55,0,0,0-.45-1.17,1.77,1.77,0,0,0-1.28-.44,1.84,1.84,0,0,0-1.21.38A1.12,1.12,0,0,0,12,94H10.48v0a2,2,0,0,1,.86-1.69,3.57,3.57,0,0,1,2.37-.77,3.56,3.56,0,0,1,2.32.73,2.6,2.6,0,0,1,.87,2.11v4.07a8.14,8.14,0,0,0,.05.87,4.7,4.7,0,0,0,.17.83ZM13,99a2.8,2.8,0,0,0,1.51-.43,2.12,2.12,0,0,0,.87-1V96.18H13.63a2.18,2.18,0,0,0-1.49.47,1.38,1.38,0,0,0-.56,1.1,1.18,1.18,0,0,0,.35.89A1.46,1.46,0,0,0,13,99Z"/><path class="cls-1" d="M26.33,96.19a4.6,4.6,0,0,1-.88,2.94A2.89,2.89,0,0,1,23,100.26a3.25,3.25,0,0,1-1.37-.27,2.56,2.56,0,0,1-1-.78v4.13H19.13V91.64H20.3l.25,1.09a2.87,2.87,0,0,1,1-.93A3.12,3.12,0,0,1,23,91.48a2.82,2.82,0,0,1,2.44,1.25A5.64,5.64,0,0,1,26.33,96ZM24.79,96a4.43,4.43,0,0,0-.57-2.36,1.83,1.83,0,0,0-1.67-.93,2,2,0,0,0-1.13.3,2.35,2.35,0,0,0-.76.83v4.08a2.31,2.31,0,0,0,.76.82,2.18,2.18,0,0,0,1.15.29,1.89,1.89,0,0,0,1.66-.8,3.53,3.53,0,0,0,.56-2.06Z"/><path class="cls-1" d="M35.42,96.19a4.65,4.65,0,0,1-.87,2.94,2.91,2.91,0,0,1-2.42,1.13,3.25,3.25,0,0,1-1.37-.27,2.53,2.53,0,0,1-1-.78v4.13H28.22V91.64H29.4l.24,1.09a3,3,0,0,1,1-.93,3.12,3.12,0,0,1,1.44-.32,2.81,2.81,0,0,1,2.44,1.25A5.64,5.64,0,0,1,35.42,96ZM33.88,96a4.53,4.53,0,0,0-.56-2.36,1.84,1.84,0,0,0-1.67-.93,2,2,0,0,0-1.13.3,2.18,2.18,0,0,0-.76.83v4.08a2,2,0,0,0,1.9,1.11,1.88,1.88,0,0,0,1.66-.8,3.46,3.46,0,0,0,.56-2.06Z"/><path class="cls-1" d="M40.81,100.26A3.57,3.57,0,0,1,38,99.09,4.47,4.47,0,0,1,37,96v-.34a4.41,4.41,0,0,1,1-3,3.31,3.31,0,0,1,2.57-1.19,3,3,0,0,1,2.54,1.06,4.31,4.31,0,0,1,.85,2.8v.81H38.55l0,0a3.54,3.54,0,0,0,.56,2.07,2,2,0,0,0,1.72.79,3.82,3.82,0,0,0,1.37-.22,3.15,3.15,0,0,0,1-.61l.6,1a3.76,3.76,0,0,1-1.2.73A4.55,4.55,0,0,1,40.81,100.26Zm-.24-7.57a1.67,1.67,0,0,0-1.33.62,3,3,0,0,0-.65,1.59l0,0h3.81v-.12A2.5,2.5,0,0,0,42,93.29,1.64,1.64,0,0,0,40.57,92.69Z"/><path class="cls-1" d="M47.35,100.09H45.81V87.9h1.54Z"/><path class="cls-1" d="M51.38,100.09H49.84V87.9h1.54Z"/><path class="cls-1" d="M55.41,89.47H53.88V87.9h1.53Zm0,10.62H53.88V91.64h1.53Z"/><path class="cls-1" d="M59.16,91.64l.11,1.26a3.1,3.1,0,0,1,1-1.05,2.92,2.92,0,0,1,1.45-.37,2.78,2.78,0,0,1,2.12.8,3.54,3.54,0,0,1,.75,2.48v5.33H63.1v-5.3a2.31,2.31,0,0,0-.44-1.59,1.77,1.77,0,0,0-1.35-.47,2.37,2.37,0,0,0-1.2.29,2,2,0,0,0-.79.8v6.27H57.78V91.64Z"/><path class="cls-1" d="M68.54,89.47H67V87.9h1.54Zm0,10.62H67V91.64h1.54Z"/><path class="cls-1" d="M72.25,99.72l-1.17,2.39h-.92l.55-2.47V98.37h1.54Z"/><path class="cls-1" d="M81.54,100.26a3.56,3.56,0,0,1-2.84-1.17,4.47,4.47,0,0,1-1-3.06v-.34a4.41,4.41,0,0,1,1-3,3.31,3.31,0,0,1,2.57-1.19,3.05,3.05,0,0,1,2.54,1.06,4.37,4.37,0,0,1,.85,2.8v.81H79.28l0,0a3.54,3.54,0,0,0,.56,2.07,2,2,0,0,0,1.72.79,3.82,3.82,0,0,0,1.37-.22,3.1,3.1,0,0,0,1-.61l.6,1a3.71,3.71,0,0,1-1.19.73A4.59,4.59,0,0,1,81.54,100.26Zm-.24-7.57a1.71,1.71,0,0,0-1.34.62,3,3,0,0,0-.64,1.59l0,0h3.81v-.12a2.5,2.5,0,0,0-.45-1.53A1.65,1.65,0,0,0,81.3,92.69Z"/><path class="cls-1" d="M88.55,89.6v2h1.61v1.14H88.55v5.13a1.17,1.17,0,0,0,.25.84.88.88,0,0,0,.65.24,1.13,1.13,0,0,0,.3,0,1.31,1.31,0,0,0,.27-.07l.21,1.06a1.37,1.37,0,0,1-.5.23,2.63,2.63,0,0,1-.67.09,2,2,0,0,1-1.49-.57A2.47,2.47,0,0,1,87,97.91V92.78H85.67V91.64H87v-2Z"/><path class="cls-1" d="M95.16,99.05a1.8,1.8,0,0,0,1.25-.47,1.5,1.5,0,0,0,.53-1.16h1.39l0,0a2.42,2.42,0,0,1-.94,1.94,3.57,3.57,0,0,1-5-.37,4.68,4.68,0,0,1-1-3V95.7a4.64,4.64,0,0,1,1-3,3.31,3.31,0,0,1,2.74-1.22,3.16,3.16,0,0,1,2.32.88,2.78,2.78,0,0,1,.87,2.15v0h-1.4a1.84,1.84,0,0,0-.51-1.31,1.63,1.63,0,0,0-1.27-.55,1.79,1.79,0,0,0-1.65.88A4.1,4.1,0,0,0,93,95.7V96a4.22,4.22,0,0,0,.51,2.15A1.78,1.78,0,0,0,95.16,99.05Z"/><path class="cls-1" d="M101.86,100.09h-1.54V98.51h1.54Z"/><path class="cls-1" d="M106.14,100.09H104.6V98.51h1.54Z"/><path class="cls-1" d="M71.36,51.12V5.88l.79-2A2.85,2.85,0,0,0,69.5,0H37.2a2.85,2.85,0,0,0-2.65,3.91l.79,2V51.12l-.79,2A2.85,2.85,0,0,0,37.2,57H69.5a2.85,2.85,0,0,0,2.65-3.9ZM36.42,2.32a.9.9,0,0,1,.78-.42H69.5a1,1,0,0,1,.79.42,1,1,0,0,1,.09.88l-.61,1.55H36.94L36.32,3.2A.92.92,0,0,1,36.42,2.32ZM58.6,41.8c-11.78,0-21.36-7.67-21.36-17.1V22.25a17.31,17.31,0,0,0,10.54,3.4,25.5,25.5,0,0,0,17.69-7.84C67,16.31,68.22,15,69.25,14l.21-.23V41.8Zm10.86,1.9v6.65H37.24V32.22C40.81,39,49,43.7,58.6,43.7ZM37.24,19.77V6.65H69.46V11c-.46.47-1,1-1.58,1.63-1,1-2.26,2.33-3.75,3.83a23.59,23.59,0,0,1-16.35,7.28A14.94,14.94,0,0,1,37.24,19.77Zm1,35a1,1,0,0,0,0,.3h-1a.9.9,0,0,1-.78-.41.94.94,0,0,1-.1-.89l.62-1.55h2.14Zm4.69.3H40.14L41,52.55a1,1,0,0,0,0-.3h1.9V55.1Zm3.79,0H44.82V52.25h1.89Zm3.8,0h-1.9V52.25h1.9Zm3.79,0H52.41V52.25H54.3Zm3.79,0H56.2V52.25h1.89Zm3.79,0H60V52.25h1.89Zm1.9,0V52.25h1.9a1,1,0,0,0,0,.3l.84,2.55Zm6.51-.41h0a.93.93,0,0,1-.79.41h-1a.77.77,0,0,0,0-.3l-.85-2.55h2.15l.61,1.55A.94.94,0,0,1,70.29,54.69Z"/><path class="cls-1" d="M59,25.65h-.95a8.55,8.55,0,0,0-8.53,8.55v1.9c0,1.6,1.66,2.85,3.79,2.85s3.79-1.25,3.79-2.85V33.73a1.42,1.42,0,1,1,2.84,0V36.1c0,1.6,1.67,2.85,3.8,2.85s3.79-1.25,3.79-2.85V34.2A8.55,8.55,0,0,0,59,25.65Zm-5.69,11.4c-1.15,0-1.89-.56-1.89-.95s.74-1,1.89-1,1.89.56,1.89,1S54.51,37.05,53.35,37.05Zm10.43,0c-1.16,0-1.9-.56-1.9-.95s.74-1,1.9-1,1.89.56,1.89,1S64.93,37.05,63.78,37.05Zm-1.91-3.41a3.31,3.31,0,0,0-6.62,0,4.86,4.86,0,0,0-3.76,0,6.64,6.64,0,0,1,6.6-6.07H59a6.65,6.65,0,0,1,6.6,6.07A4.88,4.88,0,0,0,61.87,33.64Z"/><path class="cls-1" d="M44.82,42.75H40.08a1,1,0,0,0-.95,1v3.8a.93.93,0,0,0,.28.67,1,1,0,0,0,.67.28h4.74a.93.93,0,0,0,.67-.28.91.91,0,0,0,.28-.67V43.7a1,1,0,0,0-.28-.67A.93.93,0,0,0,44.82,42.75Zm-1,3.8H41v-1.9h2.84Z"/><path class="cls-1" d="M41,11.4h8.53a.95.95,0,1,0,0-1.9H41a1,1,0,0,0,0,1.9Z"/><path class="cls-1" d="M53.35,11.4H59a.95.95,0,1,0,0-1.9H53.35a1,1,0,1,0,0,1.9Z"/><path class="cls-1" d="M41,15.2h3.79a1,1,0,0,0,0-1.9H41a.95.95,0,1,0,0,1.9Z"/><path class="cls-1" d="M55.25,13.3H48.61a1,1,0,1,0,0,1.9h6.64a.95.95,0,1,0,0-1.9Z"/><path class="cls-1" d="M42,17.1H41A.95.95,0,1,0,41,19H42a1,1,0,0,0,0-1.9Z"/><path class="cls-1" d="M53.35,18.05a1,1,0,0,0-1-.95H45.77a.95.95,0,1,0,0,1.9H52.4A.94.94,0,0,0,53.35,18.05Z"/><path class="cls-1" d="M59.71,13.58l-.15-.12a.4.4,0,0,0-.16-.08.55.55,0,0,0-.18-.06.77.77,0,0,0-.37,0,.64.64,0,0,0-.18.06.48.48,0,0,0-.16.08l-.14.12a1,1,0,0,0-.21.31.9.9,0,0,0-.08.36,1.23,1.23,0,0,0,0,.19l.06.17.08.17.13.15.14.11a.35.35,0,0,0,.16.08.64.64,0,0,0,.18.06.77.77,0,0,0,.37,0,.55.55,0,0,0,.18-.06.3.3,0,0,0,.16-.08.83.83,0,0,0,.15-.11l.12-.15.09-.17a1.09,1.09,0,0,1,0-.17,1.23,1.23,0,0,0,0-.19,1.1,1.1,0,0,0-.07-.36A1.41,1.41,0,0,0,59.71,13.58Z"/></g></g></svg>