<svg xmlns="http://www.w3.org/2000/svg" viewBox="0 0 113.55 96.66"><defs><style>.cls-1{fill:#fff;}</style></defs><title>maltbeverage_microbreweries_hover</title><g id="Layer_2" data-name="Layer 2"><g id="Layer_1-2" data-name="Layer 1"><path class="cls-1" d="M12.53,75.16h0l3.64-9.24h1.91V77.29H16.58V68.77h0l-3.45,8.53H12L8.47,68.48h0v8.8H6.89V65.92h2Z"/><path class="cls-1" d="M25.77,77.29c-.05-.25-.09-.48-.12-.67a4,4,0,0,1,0-.59,3.8,3.8,0,0,1-1.12,1,2.91,2.91,0,0,1-1.49.41,2.76,2.76,0,0,1-2-.68,2.48,2.48,0,0,1-.69-1.86,2.18,2.18,0,0,1,1-1.9,4.61,4.61,0,0,1,2.66-.68H25.6V71.5a1.52,1.52,0,0,0-.46-1.17,1.76,1.76,0,0,0-1.28-.44,1.86,1.86,0,0,0-1.21.38,1.12,1.12,0,0,0-.46.9H20.73l0,0a2.05,2.05,0,0,1,.87-1.69A3.57,3.57,0,0,1,24,68.68a3.51,3.51,0,0,1,2.31.73,2.61,2.61,0,0,1,.88,2.11v4.07a8.19,8.19,0,0,0,0,.87,4,4,0,0,0,.18.83Zm-2.56-1.12a2.8,2.8,0,0,0,1.51-.43,2.09,2.09,0,0,0,.88-1V73.38H23.87a2.2,2.2,0,0,0-1.49.47,1.41,1.41,0,0,0-.56,1.1,1.15,1.15,0,0,0,.36.89A1.45,1.45,0,0,0,23.21,76.17Z"/><path class="cls-1" d="M31,77.29H29.5V65.1H31Z"/><path class="cls-1" d="M35.54,66.8v2h1.6V70h-1.6v5.13a1.17,1.17,0,0,0,.25.84.88.88,0,0,0,.65.24l.3,0,.27-.08.21,1.06a1.35,1.35,0,0,1-.51.23,2.5,2.5,0,0,1-.66.09,2,2,0,0,1-1.49-.57A2.47,2.47,0,0,1,34,75.11V70H32.66V68.84H34v-2Z"/><path class="cls-1" d="M43,77.29V65.92h3.71a4.45,4.45,0,0,1,2.79.77,2.72,2.72,0,0,1,1,2.3A2.11,2.11,0,0,1,50,70.31a3,3,0,0,1-1.21.89,2.58,2.58,0,0,1,1.77,1,2.93,2.93,0,0,1,.65,1.91,2.89,2.89,0,0,1-1,2.39,4.25,4.25,0,0,1-2.75.82Zm1.54-6.54H47a2,2,0,0,0,1.4-.47A1.66,1.66,0,0,0,49,69a1.68,1.68,0,0,0-.58-1.38,2.71,2.71,0,0,0-1.68-.45H44.52Zm0,1.21v4.13h3a2.37,2.37,0,0,0,1.64-.52,1.9,1.9,0,0,0,.58-1.47,2,2,0,0,0-.6-1.53,2.32,2.32,0,0,0-1.6-.61h-3Z"/><path class="cls-1" d="M56.44,77.46a3.57,3.57,0,0,1-2.84-1.17,4.47,4.47,0,0,1-1-3.06v-.34a4.41,4.41,0,0,1,1.05-3,3.31,3.31,0,0,1,2.57-1.19,3,3,0,0,1,2.54,1.06,4.29,4.29,0,0,1,.85,2.8v.81H54.18l0,0a3.54,3.54,0,0,0,.56,2.07,2,2,0,0,0,1.72.79A3.82,3.82,0,0,0,57.81,76a3,3,0,0,0,1-.61l.61,1a4,4,0,0,1-1.2.74A4.75,4.75,0,0,1,56.44,77.46Zm-.24-7.57a1.67,1.67,0,0,0-1.33.62,3,3,0,0,0-.65,1.59l0,0h3.81V72a2.5,2.5,0,0,0-.45-1.53A1.64,1.64,0,0,0,56.2,69.89Z"/><path class="cls-1" d="M64,74.8l.13.59h0l.15-.59,2-6h1.57l-3.11,8.45H63.61l-3.15-8.45H62Z"/><path class="cls-1" d="M72.66,77.46a3.57,3.57,0,0,1-2.84-1.17,4.47,4.47,0,0,1-1-3.06v-.34a4.41,4.41,0,0,1,1-3,3.31,3.31,0,0,1,2.57-1.19A3,3,0,0,1,75,69.74a4.29,4.29,0,0,1,.85,2.8v.81H70.4l0,0a3.54,3.54,0,0,0,.56,2.07,2,2,0,0,0,1.72.79A3.82,3.82,0,0,0,74,76a3.1,3.1,0,0,0,1-.61l.6,1a3.91,3.91,0,0,1-1.19.74A4.79,4.79,0,0,1,72.66,77.46Zm-.24-7.57a1.67,1.67,0,0,0-1.33.62,2.93,2.93,0,0,0-.65,1.59l0,0h3.81V72a2.5,2.5,0,0,0-.45-1.53A1.65,1.65,0,0,0,72.42,69.89Z"/><path class="cls-1" d="M81.54,70.2l-.79,0a1.79,1.79,0,0,0-1,.29,1.89,1.89,0,0,0-.65.81v6H77.54V68.84h1.37l.15,1.23a2.87,2.87,0,0,1,.89-1,2,2,0,0,1,1.21-.37,1.84,1.84,0,0,1,.33,0l.26.06Z"/><path class="cls-1" d="M88.33,77.29c0-.25-.09-.48-.12-.67s0-.4,0-.59a3.8,3.8,0,0,1-1.12,1,2.91,2.91,0,0,1-1.49.41,2.76,2.76,0,0,1-2-.68,2.48,2.48,0,0,1-.69-1.86,2.18,2.18,0,0,1,1-1.9,4.61,4.61,0,0,1,2.66-.68h1.67V71.5a1.55,1.55,0,0,0-.45-1.17,1.77,1.77,0,0,0-1.28-.44,1.89,1.89,0,0,0-1.22.38,1.15,1.15,0,0,0-.46.9H83.29v0a2,2,0,0,1,.86-1.69,3.57,3.57,0,0,1,2.37-.77,3.51,3.51,0,0,1,2.31.73,2.58,2.58,0,0,1,.88,2.11v4.07a6.17,6.17,0,0,0,0,.87,4,4,0,0,0,.17.83Zm-2.55-1.12a2.82,2.82,0,0,0,1.51-.43,2.12,2.12,0,0,0,.87-1V73.38H86.43a2.17,2.17,0,0,0-1.48.47,1.38,1.38,0,0,0-.56,1.1,1.15,1.15,0,0,0,.35.89A1.46,1.46,0,0,0,85.78,76.17Z"/><path class="cls-1" d="M91.66,73.22a5.66,5.66,0,0,1,.87-3.29A2.8,2.8,0,0,1,95,68.68a3,3,0,0,1,1.42.33,2.67,2.67,0,0,1,1,.93l.19-1.1h1.23v8.5a3.22,3.22,0,0,1-.95,2.49,3.85,3.85,0,0,1-2.73.88,5.82,5.82,0,0,1-1.31-.17,5.24,5.24,0,0,1-1.25-.46l.24-1.19a4.31,4.31,0,0,0,1.07.37,5.32,5.32,0,0,0,1.24.15,2.27,2.27,0,0,0,1.64-.51,2.12,2.12,0,0,0,.51-1.56v-1a2.8,2.8,0,0,1-1,.8,3.18,3.18,0,0,1-1.34.28,2.89,2.89,0,0,1-2.42-1.13,4.65,4.65,0,0,1-.87-2.94Zm1.54.17a3.57,3.57,0,0,0,.52,2,1.82,1.82,0,0,0,1.62.78,2,2,0,0,0,1.16-.32,2.39,2.39,0,0,0,.78-.9V71.1a2.37,2.37,0,0,0-.78-.85,2,2,0,0,0-1.14-.32,1.75,1.75,0,0,0-1.63.92,4.73,4.73,0,0,0-.53,2.37Z"/><path class="cls-1" d="M104.53,77.46a3.56,3.56,0,0,1-2.84-1.17,4.47,4.47,0,0,1-1-3.06v-.34a4.41,4.41,0,0,1,1-3,3.3,3.3,0,0,1,2.57-1.19,3.05,3.05,0,0,1,2.54,1.06,4.35,4.35,0,0,1,.85,2.8v.81h-5.41l0,0a3.47,3.47,0,0,0,.56,2.07,2,2,0,0,0,1.72.79A3.86,3.86,0,0,0,105.9,76a3.1,3.1,0,0,0,1-.61l.6,1a3.91,3.91,0,0,1-1.19.74A4.79,4.79,0,0,1,104.53,77.46Zm-.24-7.57a1.69,1.69,0,0,0-1.34.62,3,3,0,0,0-.64,1.59v0h3.82V72a2.44,2.44,0,0,0-.46-1.53A1.62,1.62,0,0,0,104.29,69.89Z"/><path class="cls-1" d="M110.75,76.92l-1.18,2.39h-.91l.55-2.47V75.57h1.54Z"/><path class="cls-1" d="M5.64,94.36h.05l3.63-9.24h1.91V96.49H9.7V88h0L6.2,96.49H5.13L1.59,87.68H1.54v8.8H0V85.12H2Z"/><path class="cls-1" d="M15.35,85.87H13.81V84.3h1.54Zm0,10.62H13.81V88h1.54Z"/><path class="cls-1" d="M21.08,95.45A1.78,1.78,0,0,0,22.32,95a1.5,1.5,0,0,0,.53-1.16h1.39l0,.05a2.45,2.45,0,0,1-.94,1.94,3.58,3.58,0,0,1-5-.36,4.67,4.67,0,0,1-1-3V92.1a4.64,4.64,0,0,1,1-3,3.33,3.33,0,0,1,2.75-1.22,3.15,3.15,0,0,1,2.31.88,2.75,2.75,0,0,1,.88,2.15l0,0h-1.4a1.88,1.88,0,0,0-.5-1.31,1.68,1.68,0,0,0-1.27-.55,1.77,1.77,0,0,0-1.65.88,4.1,4.1,0,0,0-.52,2.13v.33a4.22,4.22,0,0,0,.51,2.15A1.77,1.77,0,0,0,21.08,95.45Z"/><path class="cls-1" d="M30.09,89.4l-.79-.05a1.78,1.78,0,0,0-1,.29,1.82,1.82,0,0,0-.65.81v6H26.09V88h1.38l.15,1.23a3,3,0,0,1,.88-1,2.14,2.14,0,0,1,1.22-.37,1.84,1.84,0,0,1,.33,0l.25.06Z"/><path class="cls-1" d="M31.18,92.19a4.64,4.64,0,0,1,1-3.09A3.39,3.39,0,0,1,35,87.88a3.46,3.46,0,0,1,2.78,1.21,4.65,4.65,0,0,1,1,3.1v.17a4.61,4.61,0,0,1-1,3.09A3.39,3.39,0,0,1,35,96.66a3.45,3.45,0,0,1-2.77-1.21,4.64,4.64,0,0,1-1-3.09Zm1.54.17a4,4,0,0,0,.57,2.22,2,2,0,0,0,3.35,0,4,4,0,0,0,.57-2.22v-.17A4,4,0,0,0,36.64,90,1.9,1.9,0,0,0,35,89.09a1.84,1.84,0,0,0-1.66.89,4,4,0,0,0-.57,2.21Z"/><path class="cls-1" d="M44.82,96.49V85.12h3.71a4.45,4.45,0,0,1,2.79.77,2.72,2.72,0,0,1,1,2.31,2.08,2.08,0,0,1-.45,1.31,2.88,2.88,0,0,1-1.21.89,2.62,2.62,0,0,1,1.77,1,3.24,3.24,0,0,1-.36,4.3,4.25,4.25,0,0,1-2.75.82ZM46.36,90h2.49a2,2,0,0,0,1.4-.47,1.65,1.65,0,0,0,.54-1.32,1.68,1.68,0,0,0-.58-1.38,2.71,2.71,0,0,0-1.68-.45H46.36Zm0,1.21v4.13h3A2.33,2.33,0,0,0,51,94.77a1.88,1.88,0,0,0,.59-1.47,2,2,0,0,0-.6-1.53,2.32,2.32,0,0,0-1.6-.61h-3Z"/><path class="cls-1" d="M58.78,89.4,58,89.35a1.81,1.81,0,0,0-1,.29,1.87,1.87,0,0,0-.64.81v6H54.78V88h1.38l.14,1.23a3,3,0,0,1,.89-1,2.12,2.12,0,0,1,1.22-.37,1.66,1.66,0,0,1,.32,0L59,88Z"/><path class="cls-1" d="M63.73,96.66a3.57,3.57,0,0,1-2.84-1.17,4.45,4.45,0,0,1-1-3.06v-.34a4.41,4.41,0,0,1,1-3,3.29,3.29,0,0,1,2.56-1.19A3.07,3.07,0,0,1,66,88.94a4.37,4.37,0,0,1,.84,2.8v.81h-5.4l0,0A3.47,3.47,0,0,0,62,94.66a1.94,1.94,0,0,0,1.71.79,3.92,3.92,0,0,0,1.38-.22,3.1,3.1,0,0,0,1-.61l.6,1a3.67,3.67,0,0,1-1.2.74A4.75,4.75,0,0,1,63.73,96.66Zm-.24-7.57a1.69,1.69,0,0,0-1.33.62,2.92,2.92,0,0,0-.64,1.59v0h3.81v-.12a2.45,2.45,0,0,0-.45-1.52A1.62,1.62,0,0,0,63.49,89.09Z"/><path class="cls-1" d="M70.77,93.41,71,94.5h0l.2-1.09L72.91,88h1.23l1.7,5.37.21,1.21h0l.25-1.21L77.6,88h1.61l-2.45,8.45H75.52l-1.68-5.15L73.52,90h0l-.3,1.34-1.64,5.15H70.3L67.84,88h1.61Z"/><path class="cls-1" d="M84.22,96.66a3.56,3.56,0,0,1-2.84-1.17,4.45,4.45,0,0,1-1-3.06v-.34a4.41,4.41,0,0,1,1-3A3.31,3.31,0,0,1,84,87.88a3.05,3.05,0,0,1,2.54,1.06,4.37,4.37,0,0,1,.85,2.8v.81H82l0,0a3.54,3.54,0,0,0,.56,2.07,2,2,0,0,0,1.72.79,3.82,3.82,0,0,0,1.37-.22,3.1,3.1,0,0,0,1-.61l.6,1a3.72,3.72,0,0,1-1.19.74A4.79,4.79,0,0,1,84.22,96.66ZM84,89.09a1.71,1.71,0,0,0-1.34.62A3,3,0,0,0,82,91.3l0,0h3.81v-.12a2.45,2.45,0,0,0-.45-1.52A1.63,1.63,0,0,0,84,89.09Z"/><path class="cls-1" d="M93.09,89.4l-.79-.05a1.78,1.78,0,0,0-1,.29,1.82,1.82,0,0,0-.65.81v6H89.09V88h1.38l.15,1.23a3,3,0,0,1,.88-1,2.14,2.14,0,0,1,1.22-.37,1.84,1.84,0,0,1,.33,0l.25.06Z"/><path class="cls-1" d="M96.36,85.87H94.82V84.3h1.54Zm0,10.62H94.82V88h1.54Z"/><path class="cls-1" d="M102.23,96.66a3.56,3.56,0,0,1-2.84-1.17,4.45,4.45,0,0,1-1-3.06v-.34a4.41,4.41,0,0,1,1-3A3.29,3.29,0,0,1,102,87.88a3.07,3.07,0,0,1,2.55,1.06,4.37,4.37,0,0,1,.85,2.8v.81H100l0,0a3.47,3.47,0,0,0,.56,2.07,2,2,0,0,0,1.72.79,3.86,3.86,0,0,0,1.37-.22,3.1,3.1,0,0,0,1-.61l.6,1a3.72,3.72,0,0,1-1.19.74A4.83,4.83,0,0,1,102.23,96.66ZM102,89.09a1.69,1.69,0,0,0-1.33.62A3,3,0,0,0,100,91.3v0h3.82v-.12a2.45,2.45,0,0,0-.46-1.52A1.62,1.62,0,0,0,102,89.09Z"/><path class="cls-1" d="M112,94.22a1,1,0,0,0-.39-.83,3.81,3.81,0,0,0-1.47-.56,6.24,6.24,0,0,1-2.29-.9,1.83,1.83,0,0,1-.8-1.55,2.22,2.22,0,0,1,.88-1.76,3.43,3.43,0,0,1,2.28-.74,3.39,3.39,0,0,1,2.32.78,2.26,2.26,0,0,1,.86,1.82l0,0h-1.47a1.34,1.34,0,0,0-.48-1,1.69,1.69,0,0,0-1.21-.45,1.78,1.78,0,0,0-1.22.37,1.15,1.15,0,0,0-.4.88.93.93,0,0,0,.35.77,3.86,3.86,0,0,0,1.43.5,6.1,6.1,0,0,1,2.36.93,1.85,1.85,0,0,1,.8,1.57,2.23,2.23,0,0,1-.91,1.84,4.34,4.34,0,0,1-4.92-.11,2.33,2.33,0,0,1-.88-1.92v0h1.47a1.43,1.43,0,0,0,.61,1.2,2.29,2.29,0,0,0,1.34.38,2.11,2.11,0,0,0,1.28-.34A1.08,1.08,0,0,0,112,94.22Z"/><path class="cls-1" d="M71.69,19.66V17A.85.85,0,1,0,70,17V48.51a.8.8,0,0,0,.85.85,1.71,1.71,0,0,1,0,3.41H41.9a1.71,1.71,0,0,1,0-3.41.81.81,0,0,0,.86-.85V17a.86.86,0,0,0-1.71,0V47.74a3.42,3.42,0,0,0,.85,6.73H70.84a3.42,3.42,0,0,0,3.41-3.41,3.49,3.49,0,0,0-2.56-3.32V42.47a7.65,7.65,0,0,0,6.81-7.58V27.23A7.65,7.65,0,0,0,71.69,19.66ZM76.8,34.89a6,6,0,0,1-5.11,5.88V21.36a6,6,0,0,1,5.11,5.87ZM64.88,36.6A9.34,9.34,0,0,0,56.37,42a9.32,9.32,0,0,0-8.51-5.44.8.8,0,0,0-.85.85V41.7a5.13,5.13,0,0,0,5.11,5.11h8.51a5.12,5.12,0,0,0,5.1-5.11V37.45A.8.8,0,0,0,64.88,36.6ZM52.12,45.11a3.43,3.43,0,0,1-3.41-3.41V38.38a7.61,7.61,0,0,1,6.73,6.73ZM64,41.7a3.42,3.42,0,0,1-3.4,3.41H57.31A7.59,7.59,0,0,1,64,38.38ZM65.73,34A.85.85,0,1,1,64,34V30.72a7.65,7.65,0,0,0-6.81,7.58.85.85,0,1,1-1.7,0,7.65,7.65,0,0,0-6.81-7.58V34A.85.85,0,1,1,47,34V29.79a.8.8,0,0,1,.85-.85,9.32,9.32,0,0,1,8.51,5.44,9.34,9.34,0,0,1,8.51-5.44.8.8,0,0,1,.85.85Zm-13.61-5.1a.8.8,0,0,1-.85-.85,5,5,0,0,1,1.44-3.49l3.07-3.07a.82.82,0,0,1,1.19,0L60,24.6a4.94,4.94,0,0,1,1.45,3.49.85.85,0,1,1-1.7,0,3.25,3.25,0,0,0-.94-2.3l-2.47-2.47L53.9,25.79a3.29,3.29,0,0,0-.93,2.3A.8.8,0,0,1,52.12,28.94ZM41.9,14.47h17v5.1a3.4,3.4,0,1,0,6.8,0v-5.1h5.11a.8.8,0,0,0,.85-.85V10.21a5.11,5.11,0,0,0-5.1-5.1h-.94a3.4,3.4,0,0,0-3.32-2.56A3.65,3.65,0,0,0,60,3.4,5.84,5.84,0,0,0,54.67,0a5.92,5.92,0,0,0-6,6h-3.4a4.22,4.22,0,0,0-4.26,4.25v3.41A.8.8,0,0,0,41.9,14.47Zm.86-4.26a2.5,2.5,0,0,1,2.55-2.55h4.25a.81.81,0,0,0,.86-.85V6a4.26,4.26,0,1,1,8.51,0,.85.85,0,1,0,1.7,0A1.7,1.7,0,0,1,64,6a.8.8,0,0,0,.85.85h1.71a3.41,3.41,0,0,1,3.4,3.4v2.56H64.88a.8.8,0,0,0-.85.85v6a1.7,1.7,0,1,1-3.4,0v-6a.8.8,0,0,0-.85-.85h-17Z"/></g></g></svg>