<svg xmlns="http://www.w3.org/2000/svg" viewBox="0 0 102.74 84.01"><defs><style>.cls-1{fill:#0097d6;}</style></defs><title>meatpreparedfrozen_hover</title><g id="Layer_2" data-name="Layer 2"><g id="Layer_1-2" data-name="Layer 1"><path class="cls-1" d="M5.64,62.51h.05l3.63-9.24h1.91V64.65H9.7V56.12h0L6.2,64.65H5.13L1.59,55.83H1.54v8.81H0V53.27H2Z"/><path class="cls-1" d="M17.19,64.81a3.58,3.58,0,0,1-2.84-1.16,4.5,4.5,0,0,1-1-3.07v-.34a4.38,4.38,0,0,1,1.05-3A3.27,3.27,0,0,1,17,56a3.09,3.09,0,0,1,2.54,1.05,4.38,4.38,0,0,1,.85,2.81v.81H14.93l0,0a3.42,3.42,0,0,0,.56,2.06,2,2,0,0,0,1.72.8,3.86,3.86,0,0,0,1.37-.23,2.94,2.94,0,0,0,1-.61l.6,1a3.72,3.72,0,0,1-1.19.74A4.83,4.83,0,0,1,17.19,64.81ZM17,57.25a1.69,1.69,0,0,0-1.34.62A2.94,2.94,0,0,0,15,59.46v0H18.8v-.13a2.47,2.47,0,0,0-.46-1.52A1.63,1.63,0,0,0,17,57.25Z"/><path class="cls-1" d="M27.26,64.65c-.05-.26-.1-.48-.12-.68a3.81,3.81,0,0,1-.05-.59,3.48,3.48,0,0,1-1.13,1,2.87,2.87,0,0,1-1.48.41,2.76,2.76,0,0,1-2-.68,2.48,2.48,0,0,1-.69-1.86,2.17,2.17,0,0,1,1-1.89,4.56,4.56,0,0,1,2.66-.69h1.68v-.83a1.57,1.57,0,0,0-.46-1.18,1.77,1.77,0,0,0-1.28-.43,1.86,1.86,0,0,0-1.21.37,1.12,1.12,0,0,0-.46.9l-1.46,0,0,0a2,2,0,0,1,.87-1.69A3.57,3.57,0,0,1,25.44,56a3.48,3.48,0,0,1,2.31.73,2.59,2.59,0,0,1,.88,2.1v4.07a8.26,8.26,0,0,0,0,.88,4.7,4.7,0,0,0,.17.83ZM24.7,63.52a2.72,2.72,0,0,0,1.51-.43,2,2,0,0,0,.88-1V60.73H25.36a2.25,2.25,0,0,0-1.49.47,1.41,1.41,0,0,0-.56,1.1,1.17,1.17,0,0,0,.35.89A1.48,1.48,0,0,0,24.7,63.52Z"/><path class="cls-1" d="M33,54.15v2h1.6v1.14H33v5.14a1.11,1.11,0,0,0,.25.83.88.88,0,0,0,.65.24l.3,0,.27-.07.21,1a1.52,1.52,0,0,1-.51.23,2.5,2.5,0,0,1-.66.09A2,2,0,0,1,32,64.24a2.4,2.4,0,0,1-.56-1.77V57.33H30.12V56.19h1.34v-2Z"/><path class="cls-1" d="M42,60.08v4.57H40.44V53.27h4.35a4,4,0,0,1,2.83.94,3.53,3.53,0,0,1,0,4.94,4,4,0,0,1-2.83.93Zm0-1.2h2.81a2.25,2.25,0,0,0,1.72-3.76,2.18,2.18,0,0,0-1.72-.64H42Z"/><path class="cls-1" d="M54.4,57.55l-.79,0a1.78,1.78,0,0,0-1,.28,1.89,1.89,0,0,0-.64.82v6H50.4V56.19h1.37l.15,1.24a3,3,0,0,1,.89-1A2.08,2.08,0,0,1,54,56l.33,0,.26.06Z"/><path class="cls-1" d="M59.35,64.81a3.6,3.6,0,0,1-2.84-1.16,4.5,4.5,0,0,1-1-3.07v-.34a4.38,4.38,0,0,1,1-3A3.28,3.28,0,0,1,59.11,56a3.06,3.06,0,0,1,2.54,1.05,4.32,4.32,0,0,1,.85,2.81v.81H57.09l0,0a3.49,3.49,0,0,0,.56,2.06,2,2,0,0,0,1.72.8,3.82,3.82,0,0,0,1.37-.23,2.85,2.85,0,0,0,1-.61l.61,1a3.89,3.89,0,0,1-1.2.74A4.79,4.79,0,0,1,59.35,64.81Zm-.24-7.56a1.67,1.67,0,0,0-1.33.62,2.94,2.94,0,0,0-.65,1.59l0,0H61v-.13a2.47,2.47,0,0,0-.45-1.52A1.64,1.64,0,0,0,59.11,57.25Z"/><path class="cls-1" d="M71.43,60.74a4.63,4.63,0,0,1-.88,2.95,2.87,2.87,0,0,1-2.41,1.12,3.42,3.42,0,0,1-1.37-.26,2.55,2.55,0,0,1-1-.79V67.9H64.23V56.19h1.18l.24,1.1a2.69,2.69,0,0,1,1-.93A3,3,0,0,1,68.12,56a2.81,2.81,0,0,1,2.44,1.24,5.65,5.65,0,0,1,.87,3.3Zm-1.54-.16a4.47,4.47,0,0,0-.57-2.37,1.83,1.83,0,0,0-1.66-.92,2.08,2.08,0,0,0-1.14.3,2.2,2.2,0,0,0-.75.82V62.5a2,2,0,0,0,1.9,1.11,1.91,1.91,0,0,0,1.66-.8,3.59,3.59,0,0,0,.56-2.07Z"/><path class="cls-1" d="M78.52,64.65c-.06-.26-.1-.48-.13-.68s0-.39,0-.59a3.45,3.45,0,0,1-1.12,1,2.88,2.88,0,0,1-1.49.41,2.72,2.72,0,0,1-2-.68A2.48,2.48,0,0,1,73,62.27a2.17,2.17,0,0,1,1-1.89,4.54,4.54,0,0,1,2.66-.69h1.67v-.83a1.56,1.56,0,0,0-.45-1.18,1.77,1.77,0,0,0-1.28-.43,1.86,1.86,0,0,0-1.21.37,1.12,1.12,0,0,0-.46.9l-1.46,0,0,0a2,2,0,0,1,.86-1.69A3.61,3.61,0,0,1,76.7,56a3.49,3.49,0,0,1,2.31.73,2.58,2.58,0,0,1,.87,2.1v4.07a8.18,8.18,0,0,0,.05.88,4.7,4.7,0,0,0,.17.83ZM76,63.52a2.72,2.72,0,0,0,1.51-.43,2,2,0,0,0,.87-1V60.73H76.62a2.25,2.25,0,0,0-1.49.47,1.41,1.41,0,0,0-.56,1.1,1.17,1.17,0,0,0,.35.89A1.48,1.48,0,0,0,76,63.52Z"/><path class="cls-1" d="M86.12,57.55l-.79,0a1.78,1.78,0,0,0-1,.28,1.89,1.89,0,0,0-.64.82v6H82.12V56.19h1.37l.15,1.24a3,3,0,0,1,.89-1A2.08,2.08,0,0,1,85.74,56l.33,0,.26.06Z"/><path class="cls-1" d="M91.07,64.81a3.6,3.6,0,0,1-2.84-1.16,4.5,4.5,0,0,1-1-3.07v-.34a4.38,4.38,0,0,1,1.05-3A3.28,3.28,0,0,1,90.83,56a3.07,3.07,0,0,1,2.54,1.05,4.32,4.32,0,0,1,.85,2.81v.81H88.81l0,0a3.49,3.49,0,0,0,.56,2.06,2,2,0,0,0,1.72.8,3.82,3.82,0,0,0,1.37-.23,2.94,2.94,0,0,0,1-.61l.6,1a3.72,3.72,0,0,1-1.19.74A4.79,4.79,0,0,1,91.07,64.81Zm-.24-7.56a1.67,1.67,0,0,0-1.33.62,2.87,2.87,0,0,0-.65,1.59l0,0h3.81v-.13a2.47,2.47,0,0,0-.45-1.52A1.65,1.65,0,0,0,90.83,57.25Z"/><path class="cls-1" d="M95.59,60.58a5.64,5.64,0,0,1,.87-3.29A2.8,2.8,0,0,1,98.91,56a3,3,0,0,1,1.31.27,2.61,2.61,0,0,1,1,.8V52.46h1.54V64.65h-1.18l-.23-1.07a2.83,2.83,0,0,1-1,.92,3,3,0,0,1-1.41.31,2.89,2.89,0,0,1-2.42-1.12,4.63,4.63,0,0,1-.88-2.95Zm1.54.16a3.58,3.58,0,0,0,.53,2,1.82,1.82,0,0,0,1.62.77,2,2,0,0,0,1.16-.31,2.35,2.35,0,0,0,.76-.88V58.43a2.28,2.28,0,0,0-.77-.83,2,2,0,0,0-1.13-.31,1.76,1.76,0,0,0-1.64.91,4.74,4.74,0,0,0-.53,2.38Z"/><path class="cls-1" d="M34.75,78.82H30v5H28.41V72.47h7.13v1.21H30V77.6h4.8Z"/><path class="cls-1" d="M40.82,76.75l-.78,0A1.71,1.71,0,0,0,39,77a1.82,1.82,0,0,0-.65.81v6H36.82V75.39H38.2l.15,1.24a3,3,0,0,1,.88-1,2.13,2.13,0,0,1,1.22-.36l.33,0,.26.06Z"/><path class="cls-1" d="M41.91,79.54a4.64,4.64,0,0,1,1-3.09,3.38,3.38,0,0,1,2.75-1.21,3.43,3.43,0,0,1,2.78,1.21,4.64,4.64,0,0,1,1,3.09v.17a4.63,4.63,0,0,1-1,3.1,3.77,3.77,0,0,1-5.53,0,4.61,4.61,0,0,1-1-3.09Zm1.54.17A4,4,0,0,0,44,81.93a2,2,0,0,0,3.35,0,4,4,0,0,0,.57-2.22v-.17a4,4,0,0,0-.57-2.21,1.89,1.89,0,0,0-1.69-.88,1.83,1.83,0,0,0-1.66.88,4,4,0,0,0-.57,2.21Z"/><path class="cls-1" d="M52.69,82.64h4.88v1.21H50.86V82.77l4.57-6.16H50.91V75.39h6.4v1Z"/><path class="cls-1" d="M62.66,84a3.6,3.6,0,0,1-2.84-1.16,4.5,4.5,0,0,1-1-3.07v-.34a4.38,4.38,0,0,1,1.05-3,3.28,3.28,0,0,1,2.57-1.19A3.07,3.07,0,0,1,65,76.29a4.34,4.34,0,0,1,.85,2.81v.81H60.4l0,0A3.49,3.49,0,0,0,60.94,82a2,2,0,0,0,1.72.8A3.82,3.82,0,0,0,64,82.58,2.94,2.94,0,0,0,65,82l.6,1a3.72,3.72,0,0,1-1.19.74A4.79,4.79,0,0,1,62.66,84Zm-.24-7.56a1.67,1.67,0,0,0-1.33.62,2.87,2.87,0,0,0-.65,1.59l0,0h3.81v-.13a2.47,2.47,0,0,0-.45-1.52A1.65,1.65,0,0,0,62.42,76.45Z"/><path class="cls-1" d="M68.91,75.39,69,76.65a3,3,0,0,1,1.06-1,2.77,2.77,0,0,1,1.45-.37,2.72,2.72,0,0,1,2.11.8,3.51,3.51,0,0,1,.75,2.47v5.34H72.86V78.54A2.24,2.24,0,0,0,72.41,77a1.72,1.72,0,0,0-1.34-.47,2.38,2.38,0,0,0-1.21.28,2.17,2.17,0,0,0-.79.8v6.28H67.54V75.39Z"/><path class="cls-1" d="M72.51,6.64H51.57a.59.59,0,1,0,0,1.18H72.51A3.5,3.5,0,0,1,76.1,11.2V32.61A3.49,3.49,0,0,1,72.51,36H34.06a3.49,3.49,0,0,1-3.59-3.38V11.2a3.5,3.5,0,0,1,3.59-3.38h13a.59.59,0,1,0,0-1.18h-13a4.69,4.69,0,0,0-4.78,4.56V32.61a4.69,4.69,0,0,0,4.78,4.57H72.51a4.68,4.68,0,0,0,4.77-4.57V11.2A4.67,4.67,0,0,0,72.51,6.64Z"/><path class="cls-1" d="M47.15,6.12h1.6V8.3H47.1a2.72,2.72,0,0,0-2.28,1.24H35.06a2.79,2.79,0,0,0-2.89,2.68V31.6a2.79,2.79,0,0,0,2.89,2.68h9.76a2.72,2.72,0,0,0,2.28,1.24h4.48a2.69,2.69,0,0,0,2.28-1.24H71.51A2.79,2.79,0,0,0,74.4,31.6V12.22a2.79,2.79,0,0,0-2.89-2.68H53.86A2.69,2.69,0,0,0,51.58,8.3H49.93V5.53a.58.58,0,0,0-.59-.59H47.15A1.54,1.54,0,0,1,45.62,3.4V2.72a1.54,1.54,0,0,1,1.53-1.54h4.48a1.54,1.54,0,0,1,1.54,1.54V3.4a1.54,1.54,0,0,1-1.54,1.54h-.16a.59.59,0,0,0,0,1.18h.16A2.72,2.72,0,0,0,54.35,3.4V2.72A2.72,2.72,0,0,0,51.63,0H47.15a2.72,2.72,0,0,0-2.72,2.72V3.4A2.72,2.72,0,0,0,47.15,6.12Zm5.94,4.6a1.53,1.53,0,0,1,0,.3V32.8a1.53,1.53,0,0,1,0,.3A1.56,1.56,0,0,1,52,34.28H46.68a1.56,1.56,0,0,1-1.09-1.18,1.53,1.53,0,0,1,0-.3V11a1.53,1.53,0,0,1,0-.3,1.54,1.54,0,0,1,1.09-1.18H52A1.54,1.54,0,0,1,53.09,10.72ZM44.38,20.88c-2.8-.22-7.08-1.94-7.87-4,.79-2,5.07-3.77,7.87-4Zm0,10c-2.8-.23-7.08-1.94-7.87-4,.79-2,5.07-3.76,7.87-4Zm-9.32,2.18a1.62,1.62,0,0,1-1.71-1.49V12.22a1.62,1.62,0,0,1,1.71-1.5H44.4a1.51,1.51,0,0,0,0,.3v.7c-3,.23-8.21,2.09-9.07,5a.62.62,0,0,0,0,.33c.76,2.56,4.82,4.3,7.85,4.85-3,.55-7.1,2.29-7.85,4.85a.62.62,0,0,0,0,.33c.86,2.92,6,4.78,9.07,5v.71a1.37,1.37,0,0,0,0,.29ZM71.51,10.72a1.62,1.62,0,0,1,1.71,1.5V31.6a1.62,1.62,0,0,1-1.71,1.5H54.29c0-.1,0-.2,0-.3V11c0-.1,0-.2,0-.3Z"/><path class="cls-1" d="M40.9,17a1,1,0,1,0-1-1A1,1,0,0,0,40.9,17Z"/><path class="cls-1" d="M40.9,27.13a1,1,0,1,0-1-1A1,1,0,0,0,40.9,27.13Z"/></g></g></svg>