<svg xmlns="http://www.w3.org/2000/svg" viewBox="0 0 102.74 96"><defs><style>.cls-1{fill:#0097d6;}</style></defs><title>meatpreparedpackaging</title><g id="Layer_2" data-name="Layer 2"><g id="Layer_1-2" data-name="Layer 1"><path class="cls-1" d="M5.64,71.25h.05L9.32,62h1.91V73.38H9.7V64.86h0L6.2,73.38H5.13L1.59,64.57H1.54v8.8H0V62H2Z"/><path class="cls-1" d="M17.19,73.55a3.56,3.56,0,0,1-2.84-1.17,4.47,4.47,0,0,1-1-3.06V69a4.41,4.41,0,0,1,1.05-3A3.3,3.3,0,0,1,17,64.77a3.05,3.05,0,0,1,2.54,1.06,4.37,4.37,0,0,1,.85,2.8v.81H14.93l0,0a3.47,3.47,0,0,0,.56,2.07,2,2,0,0,0,1.72.79,3.82,3.82,0,0,0,1.37-.22,3.1,3.1,0,0,0,1-.61l.6,1a3.71,3.71,0,0,1-1.19.73A4.82,4.82,0,0,1,17.19,73.55ZM17,66a1.69,1.69,0,0,0-1.34.62A3,3,0,0,0,15,68.19v0H18.8v-.12a2.44,2.44,0,0,0-.46-1.53A1.62,1.62,0,0,0,17,66Z"/><path class="cls-1" d="M27.26,73.38c-.05-.25-.09-.48-.12-.67a4,4,0,0,1-.05-.59,3.72,3.72,0,0,1-1.13,1,2.87,2.87,0,0,1-1.48.41,2.8,2.8,0,0,1-2-.68A2.48,2.48,0,0,1,21.77,71a2.2,2.2,0,0,1,1-1.9,4.64,4.64,0,0,1,2.66-.68h1.68v-.84a1.56,1.56,0,0,0-.46-1.17A1.77,1.77,0,0,0,25.35,66a1.86,1.86,0,0,0-1.21.38,1.12,1.12,0,0,0-.46.9H22.22l0,0a2,2,0,0,1,.87-1.69,3.57,3.57,0,0,1,2.37-.77,3.51,3.51,0,0,1,2.31.73,2.61,2.61,0,0,1,.88,2.11v4.07a8.19,8.19,0,0,0,0,.87,4.7,4.7,0,0,0,.17.83ZM24.7,72.26a2.8,2.8,0,0,0,1.51-.43,2.09,2.09,0,0,0,.88-1V69.47H25.36a2.2,2.2,0,0,0-1.49.47,1.41,1.41,0,0,0-.56,1.1,1.18,1.18,0,0,0,.35.89A1.48,1.48,0,0,0,24.7,72.26Z"/><path class="cls-1" d="M33,62.89v2h1.6v1.14H33V71.2a1.13,1.13,0,0,0,.25.84.88.88,0,0,0,.65.24,1.13,1.13,0,0,0,.3,0,1.5,1.5,0,0,0,.27-.07l.21,1.06a1.43,1.43,0,0,1-.51.23,2.5,2.5,0,0,1-.66.09A2,2,0,0,1,32,73a2.47,2.47,0,0,1-.56-1.78V66.07H30.12V64.93h1.34v-2Z"/><path class="cls-1" d="M42,68.82v4.56H40.44V62h4.35a4,4,0,0,1,2.83.93,3.54,3.54,0,0,1,0,5,4,4,0,0,1-2.83.93Zm0-1.2h2.81A2.24,2.24,0,0,0,46.52,67a2.21,2.21,0,0,0,.57-1.56,2.28,2.28,0,0,0-.58-1.58,2.21,2.21,0,0,0-1.72-.63H42Z"/><path class="cls-1" d="M54.4,66.29l-.79-.05a1.7,1.7,0,0,0-1.67,1.1v6H50.4V64.93h1.37l.15,1.23a3,3,0,0,1,.89-1A2,2,0,0,1,54,64.77a1.69,1.69,0,0,1,.33,0l.26.06Z"/><path class="cls-1" d="M59.35,73.55a3.57,3.57,0,0,1-2.84-1.17,4.47,4.47,0,0,1-1-3.06V69a4.41,4.41,0,0,1,1-3,3.31,3.31,0,0,1,2.57-1.19,3,3,0,0,1,2.54,1.06,4.31,4.31,0,0,1,.85,2.8v.81H57.09l0,0a3.54,3.54,0,0,0,.56,2.07,2,2,0,0,0,1.72.79,3.82,3.82,0,0,0,1.37-.22,3,3,0,0,0,1-.61l.61,1a3.88,3.88,0,0,1-1.2.73A4.74,4.74,0,0,1,59.35,73.55ZM59.11,66a1.67,1.67,0,0,0-1.33.62,3,3,0,0,0-.65,1.59l0,0H61v-.12a2.5,2.5,0,0,0-.45-1.53A1.64,1.64,0,0,0,59.11,66Z"/><path class="cls-1" d="M71.43,69.48a4.6,4.6,0,0,1-.88,2.94,2.88,2.88,0,0,1-2.41,1.13,3.25,3.25,0,0,1-1.37-.27,2.53,2.53,0,0,1-1-.78v4.13H64.23V64.93h1.18L65.65,66a2.87,2.87,0,0,1,1-.93,3.12,3.12,0,0,1,1.44-.32A2.82,2.82,0,0,1,70.56,66a5.64,5.64,0,0,1,.87,3.29Zm-1.54-.17A4.41,4.41,0,0,0,69.32,67,1.82,1.82,0,0,0,67.66,66a2.08,2.08,0,0,0-1.14.3,2.23,2.23,0,0,0-.75.83v4.08a2,2,0,0,0,1.9,1.11,1.89,1.89,0,0,0,1.66-.8,3.53,3.53,0,0,0,.56-2.06Z"/><path class="cls-1" d="M78.52,73.38c-.06-.25-.1-.48-.13-.67s0-.4,0-.59a3.68,3.68,0,0,1-1.12,1,2.88,2.88,0,0,1-1.49.41,2.76,2.76,0,0,1-2-.68A2.48,2.48,0,0,1,73,71a2.2,2.2,0,0,1,1-1.9,4.64,4.64,0,0,1,2.66-.68h1.67v-.84a1.55,1.55,0,0,0-.45-1.17A1.77,1.77,0,0,0,76.61,66a1.86,1.86,0,0,0-1.21.38,1.12,1.12,0,0,0-.46.9H73.48l0,0a2,2,0,0,1,.86-1.69,3.62,3.62,0,0,1,2.38-.77A3.55,3.55,0,0,1,79,65.5a2.6,2.6,0,0,1,.87,2.11v4.07a8.14,8.14,0,0,0,.05.87,4.7,4.7,0,0,0,.17.83ZM76,72.26a2.8,2.8,0,0,0,1.51-.43,2,2,0,0,0,.87-1V69.47H76.62a2.2,2.2,0,0,0-1.49.47,1.41,1.41,0,0,0-.56,1.1,1.18,1.18,0,0,0,.35.89A1.48,1.48,0,0,0,76,72.26Z"/><path class="cls-1" d="M86.12,66.29l-.79-.05a1.7,1.7,0,0,0-1.67,1.1v6H82.12V64.93h1.37l.15,1.23a3,3,0,0,1,.89-1,2,2,0,0,1,1.21-.37,1.69,1.69,0,0,1,.33,0l.26.06Z"/><path class="cls-1" d="M91.07,73.55a3.57,3.57,0,0,1-2.84-1.17,4.47,4.47,0,0,1-1-3.06V69a4.41,4.41,0,0,1,1.05-3,3.31,3.31,0,0,1,2.57-1.19,3,3,0,0,1,2.54,1.06,4.31,4.31,0,0,1,.85,2.8v.81H88.81l0,0a3.54,3.54,0,0,0,.56,2.07,2,2,0,0,0,1.72.79,3.82,3.82,0,0,0,1.37-.22,3.1,3.1,0,0,0,1-.61l.6,1a3.71,3.71,0,0,1-1.19.73A4.78,4.78,0,0,1,91.07,73.55ZM90.83,66a1.67,1.67,0,0,0-1.33.62,2.93,2.93,0,0,0-.65,1.59l0,0h3.81v-.12a2.5,2.5,0,0,0-.45-1.53A1.65,1.65,0,0,0,90.83,66Z"/><path class="cls-1" d="M95.59,69.31A5.66,5.66,0,0,1,96.46,66a2.82,2.82,0,0,1,2.45-1.25,2.9,2.9,0,0,1,1.31.28,2.58,2.58,0,0,1,1,.79V61.19h1.54V73.38h-1.18l-.23-1.07a2.74,2.74,0,0,1-1,.92,3,3,0,0,1-1.41.32,2.89,2.89,0,0,1-2.42-1.13,4.6,4.6,0,0,1-.88-2.94Zm1.54.17a3.6,3.6,0,0,0,.53,2,1.82,1.82,0,0,0,1.62.77,2,2,0,0,0,1.16-.32,2.4,2.4,0,0,0,.76-.87v-4a2.37,2.37,0,0,0-.77-.83A2.05,2.05,0,0,0,99.3,66a1.77,1.77,0,0,0-1.64.92,4.73,4.73,0,0,0-.53,2.37Z"/><path class="cls-1" d="M22.33,88.68a4.6,4.6,0,0,1-.88,2.94A2.89,2.89,0,0,1,19,92.75a3.25,3.25,0,0,1-1.37-.27,2.56,2.56,0,0,1-1-.78v4.13H15.13V84.13H16.3l.25,1.09a2.87,2.87,0,0,1,1-.93A3.12,3.12,0,0,1,19,84a2.82,2.82,0,0,1,2.44,1.25,5.64,5.64,0,0,1,.87,3.29Zm-1.54-.17a4.43,4.43,0,0,0-.57-2.36,1.83,1.83,0,0,0-1.67-.93,2,2,0,0,0-1.13.3,2.35,2.35,0,0,0-.76.83v4.08a2.31,2.31,0,0,0,.76.82,2.18,2.18,0,0,0,1.15.29,1.89,1.89,0,0,0,1.66-.8,3.53,3.53,0,0,0,.56-2.06Z"/><path class="cls-1" d="M29.41,92.58c-.05-.25-.09-.48-.12-.67s0-.4-.05-.59a3.68,3.68,0,0,1-1.12,1,2.91,2.91,0,0,1-1.49.41,2.76,2.76,0,0,1-2-.68,2.48,2.48,0,0,1-.69-1.86,2.2,2.2,0,0,1,1-1.9,4.61,4.61,0,0,1,2.66-.68h1.67v-.84a1.55,1.55,0,0,0-.45-1.17,1.77,1.77,0,0,0-1.28-.44,1.84,1.84,0,0,0-1.21.38,1.12,1.12,0,0,0-.46.9H24.38l0,0a2,2,0,0,1,.86-1.69A3.59,3.59,0,0,1,27.59,84a3.56,3.56,0,0,1,2.32.73,2.6,2.6,0,0,1,.87,2.11v4.07a8.14,8.14,0,0,0,0,.87,4.7,4.7,0,0,0,.17.83Zm-2.55-1.12A2.8,2.8,0,0,0,28.37,91a2.07,2.07,0,0,0,.87-1V88.67H27.52a2.2,2.2,0,0,0-1.49.47,1.38,1.38,0,0,0-.56,1.1,1.18,1.18,0,0,0,.35.89A1.46,1.46,0,0,0,26.86,91.46Z"/><path class="cls-1" d="M36.38,91.54a1.8,1.8,0,0,0,1.24-.47,1.5,1.5,0,0,0,.53-1.16h1.39l0,0a2.44,2.44,0,0,1-.93,1.94,3.35,3.35,0,0,1-2.25.85,3.31,3.31,0,0,1-2.75-1.22,4.63,4.63,0,0,1-1-3v-.33a4.64,4.64,0,0,1,1-3A3.32,3.32,0,0,1,36.38,84a3.15,3.15,0,0,1,2.31.88A2.78,2.78,0,0,1,39.56,87v0h-1.4a1.84,1.84,0,0,0-.51-1.31,1.62,1.62,0,0,0-1.26-.55,1.8,1.8,0,0,0-1.66.88,4.2,4.2,0,0,0-.52,2.13v.33a4.22,4.22,0,0,0,.51,2.15A1.8,1.8,0,0,0,36.38,91.54Z"/><path class="cls-1" d="M43.73,88.68h-.79v3.9H41.4V80.39h1.54v7.07h.77l2.54-3.33h1.84L45,88l3.34,4.55H46.54Z"/><path class="cls-1" d="M54.79,92.58c0-.25-.09-.48-.12-.67a4,4,0,0,1-.05-.59,3.8,3.8,0,0,1-1.12,1,2.91,2.91,0,0,1-1.49.41,2.76,2.76,0,0,1-2-.68,2.49,2.49,0,0,1-.7-1.86,2.19,2.19,0,0,1,1-1.9A4.61,4.61,0,0,1,53,87.63h1.67v-.84a1.52,1.52,0,0,0-.46-1.17,1.77,1.77,0,0,0-1.28-.44,1.86,1.86,0,0,0-1.21.38,1.12,1.12,0,0,0-.46.9H49.75l0,0a2.05,2.05,0,0,1,.87-1.69A3.57,3.57,0,0,1,53,84a3.51,3.51,0,0,1,2.31.73,2.61,2.61,0,0,1,.88,2.11v4.07a8.19,8.19,0,0,0,0,.87,4,4,0,0,0,.18.83Zm-2.56-1.12A2.8,2.8,0,0,0,53.74,91a2.09,2.09,0,0,0,.88-1V88.67H52.89a2.2,2.2,0,0,0-1.49.47,1.41,1.41,0,0,0-.56,1.1,1.15,1.15,0,0,0,.36.89A1.45,1.45,0,0,0,52.23,91.46Z"/><path class="cls-1" d="M58.12,88.51A5.66,5.66,0,0,1,59,85.22,2.8,2.8,0,0,1,61.42,84a3,3,0,0,1,1.42.33,2.82,2.82,0,0,1,1,.93l.19-1.1h1.22v8.5a3.21,3.21,0,0,1-.94,2.49A3.85,3.85,0,0,1,61.6,96a5.82,5.82,0,0,1-1.31-.17A5.09,5.09,0,0,1,59,95.37l.23-1.19a4.54,4.54,0,0,0,1.08.37,5.32,5.32,0,0,0,1.24.15,2.23,2.23,0,0,0,1.63-.51,2.12,2.12,0,0,0,.51-1.56v-1a2.64,2.64,0,0,1-1,.8,3.1,3.1,0,0,1-1.33.28A2.89,2.89,0,0,1,59,91.62a4.65,4.65,0,0,1-.87-2.94Zm1.54.17a3.57,3.57,0,0,0,.52,2,1.82,1.82,0,0,0,1.62.78A2,2,0,0,0,63,91.18a2.36,2.36,0,0,0,.77-.9V86.39a2.26,2.26,0,0,0-.77-.85,2,2,0,0,0-1.15-.32,1.77,1.77,0,0,0-1.63.92,4.73,4.73,0,0,0-.52,2.37Z"/><path class="cls-1" d="M69.15,82H67.61V80.39h1.54Zm0,10.62H67.61V84.13h1.54Z"/><path class="cls-1" d="M72.89,84.13,73,85.39a3,3,0,0,1,1.06-1A2.89,2.89,0,0,1,75.51,84a2.78,2.78,0,0,1,2.12.8,3.54,3.54,0,0,1,.75,2.48v5.33H76.84v-5.3a2.25,2.25,0,0,0-.45-1.59,1.76,1.76,0,0,0-1.34-.47,2.38,2.38,0,0,0-1.21.29,2.09,2.09,0,0,0-.79.8v6.27H71.52V84.13Z"/><path class="cls-1" d="M80.34,88.51a5.66,5.66,0,0,1,.87-3.29A2.8,2.8,0,0,1,83.64,84a2.88,2.88,0,0,1,1.41.33,2.77,2.77,0,0,1,1,.93l.19-1.1h1.22v8.5a3.21,3.21,0,0,1-.94,2.49,3.85,3.85,0,0,1-2.73.88,5.83,5.83,0,0,1-1.32-.17,5.16,5.16,0,0,1-1.24-.46l.23-1.19a4.54,4.54,0,0,0,1.08.37,5.3,5.3,0,0,0,1.23.15,2.25,2.25,0,0,0,1.64-.51A2.12,2.12,0,0,0,86,92.63v-1a2.64,2.64,0,0,1-1,.8,3.1,3.1,0,0,1-1.33.28,2.88,2.88,0,0,1-2.42-1.13,4.65,4.65,0,0,1-.87-2.94Zm1.54.17a3.57,3.57,0,0,0,.52,2A1.82,1.82,0,0,0,84,91.5a2,2,0,0,0,1.16-.32,2.36,2.36,0,0,0,.77-.9V86.39a2.35,2.35,0,0,0-.77-.85A2,2,0,0,0,84,85.22a1.76,1.76,0,0,0-1.63.92,4.73,4.73,0,0,0-.52,2.37Z"/><path class="cls-1" d="M77.26,34.23,66.82,23.79l-.62-.62-21-21A7.23,7.23,0,0,0,40,0h0a7.21,7.21,0,0,0-5.13,2.13L23.8,13.22,46.71,36.14h-.52c-7.62,0-22,1.1-22,5.29v7.93c0,4.18,14.41,5.29,22,5.29s22-1.11,22-5.29V41.42c0-3.29-8.7-4.52-14.06-5l5.25-5.24L69.85,41.64a5.2,5.2,0,0,0,3.7,1.54,5.24,5.24,0,0,0,3.71-9ZM66.46,45.82c0,.35-1.74,2-9.8,2.94l.21,1.75c3.47-.41,7.38-1.15,9.59-2.41v1.25c0,1-6.9,3.52-20.27,3.52S25.92,50.4,25.92,49.35V48.09c2.69,1.54,7.87,2.28,11.38,2.62L37.46,49c-8.8-.84-11.54-2.59-11.54-3.13V43.69c4.08,2.33,14.28,3,20.27,3s16.19-.68,20.27-3v2.13Zm0-4.4c0,1-6.9,3.52-20.27,3.52s-20.27-2.47-20.27-3.52,6.9-3.53,20.27-3.53c.78,0,1.55,0,2.31,0L50.6,40l1.92-1.92C63,38.79,66.46,40.79,66.46,41.42ZM54.12,34l-2-2-1.24,1.25,2,2L50.6,37.53,26.29,13.22l2.28-2.28,21,21,1.25-1.24-21-21,6.32-6.32A5.5,5.5,0,0,1,40,1.76h0a5.5,5.5,0,0,1,3.89,1.61L64.33,23.79Zm19.43,7.42a3.49,3.49,0,0,1-2.46-1L60.66,30,65.58,25,76,35.47a3.49,3.49,0,0,1-2.46,6Z"/><path class="cls-1" d="M40,3.52a2.65,2.65,0,1,0,2.65,2.65A2.65,2.65,0,0,0,40,3.52Zm0,3.53a.88.88,0,0,1,0-1.76.88.88,0,1,1,0,1.76Z"/><path class="cls-1" d="M60.1,40.48a79.2,79.2,0,0,1-13.91.94,79.2,79.2,0,0,1-13.91-.94l-.37,1.72a81.16,81.16,0,0,0,14.28,1,81.37,81.37,0,0,0,14.29-1Z"/></g></g></svg>