<svg xmlns="http://www.w3.org/2000/svg" viewBox="0 0 102.18 96.89"><defs><style>.cls-1,.cls-2{fill:#fff;}.cls-2{stroke:#0097d6;stroke-miterlimit:10;stroke-width:0.5px;}</style></defs><title>milkmanufacturingfluid_hover</title><g id="Layer_2" data-name="Layer 2"><g id="Layer_1-2" data-name="Layer 1"><path class="cls-1" d="M17.31,72.15h.05L21,62.9h1.92V74.28H21.37V65.76h-.05l-3.44,8.53H16.8l-3.54-8.81h0v8.8H11.67V62.9h2Z"/><path class="cls-1" d="M27,63.66H25.48V62.09H27Zm0,10.62H25.48V65.83H27Z"/><path class="cls-1" d="M31.05,74.28H29.52V62.09h1.53Z"/><path class="cls-1" d="M35.76,70.38H35v3.9H33.43V62.09H35v7.06h.77l2.54-3.32h1.85l-3.08,3.9,3.34,4.55H38.57Z"/><path class="cls-1" d="M51.45,72.15h0l3.63-9.25h1.92V74.28H55.51V65.76h0L52,74.28H51L47.4,65.47h0v8.8H45.81V62.9h2Z"/><path class="cls-1" d="M64.7,74.28c-.06-.25-.1-.48-.13-.68a5.63,5.63,0,0,1,0-.59,3.45,3.45,0,0,1-1.12,1,2.79,2.79,0,0,1-1.49.41,2.76,2.76,0,0,1-2-.67,2.49,2.49,0,0,1-.69-1.87,2.2,2.2,0,0,1,1-1.89,4.61,4.61,0,0,1,2.66-.68h1.67v-.84a1.54,1.54,0,0,0-.45-1.17,1.77,1.77,0,0,0-1.28-.44,1.84,1.84,0,0,0-1.21.38,1.11,1.11,0,0,0-.46.89l-1.46,0,0,0a2,2,0,0,1,.86-1.68,3.62,3.62,0,0,1,2.38-.77,3.49,3.49,0,0,1,2.31.73,2.6,2.6,0,0,1,.87,2.11v4.07a8.14,8.14,0,0,0,0,.87,4.7,4.7,0,0,0,.17.83Zm-2.56-1.13a2.79,2.79,0,0,0,1.51-.42,2,2,0,0,0,.87-1V70.37H62.8a2.25,2.25,0,0,0-1.49.46,1.43,1.43,0,0,0-.56,1.11,1.18,1.18,0,0,0,.35.89A1.47,1.47,0,0,0,62.14,73.15Z"/><path class="cls-1" d="M69.67,65.83l.11,1.25a3.1,3.1,0,0,1,1.06-1,3.14,3.14,0,0,1,3.57.43,3.53,3.53,0,0,1,.75,2.47v5.34H73.62V69a2.31,2.31,0,0,0-.44-1.59,1.8,1.8,0,0,0-1.35-.47,2.38,2.38,0,0,0-1.21.29,2,2,0,0,0-.78.8v6.27H68.3V65.83Z"/><path class="cls-1" d="M82.76,73a3,3,0,0,1-1,1,2.8,2.8,0,0,1-1.44.36,2.73,2.73,0,0,1-2.16-.88,4.12,4.12,0,0,1-.77-2.75v-5H78.9v5a3.12,3.12,0,0,0,.4,1.86,1.47,1.47,0,0,0,1.24.5,2.5,2.5,0,0,0,1.35-.33,2,2,0,0,0,.81-.94V65.83h1.54v8.45H82.86Z"/><path class="cls-1" d="M91.28,70.08H86.67V68.87h4.61Z"/><path class="cls-1" d="M1.32,93.48V86.17H0V85H1.32V84A2.86,2.86,0,0,1,2,81.87a2.57,2.57,0,0,1,2-.74,3.27,3.27,0,0,1,.54,0l.59.12L5,82.46l-.34,0a3,3,0,0,0-.42,0,1.21,1.21,0,0,0-1,.4A1.81,1.81,0,0,0,2.86,84V85H4.39v1.14H2.86v7.31Z"/><path class="cls-1" d="M11.14,93.48c-.05-.25-.09-.48-.12-.68a3.81,3.81,0,0,1,0-.59,3.55,3.55,0,0,1-1.12,1,2.81,2.81,0,0,1-1.49.41,2.76,2.76,0,0,1-2-.67,2.48,2.48,0,0,1-.69-1.86,2.18,2.18,0,0,1,1-1.9,4.61,4.61,0,0,1,2.66-.68H11v-.84a1.54,1.54,0,0,0-.45-1.17,1.8,1.8,0,0,0-1.29-.44A1.86,1.86,0,0,0,8,86.46a1.12,1.12,0,0,0-.46.9H6.1v-.05A2,2,0,0,1,7,85.64a3.57,3.57,0,0,1,2.37-.77,3.46,3.46,0,0,1,2.31.73,2.61,2.61,0,0,1,.88,2.11v4.07a8.19,8.19,0,0,0,0,.87,4.73,4.73,0,0,0,.18.83ZM8.59,92.36a2.79,2.79,0,0,0,1.5-.43,2.09,2.09,0,0,0,.88-1V89.57H9.24A2.27,2.27,0,0,0,7.75,90a1.41,1.41,0,0,0-.55,1.11,1.15,1.15,0,0,0,.35.89A1.46,1.46,0,0,0,8.59,92.36Z"/><path class="cls-1" d="M18.1,92.44A1.83,1.83,0,0,0,19.34,92a1.49,1.49,0,0,0,.54-1.16h1.39l0,0a2.44,2.44,0,0,1-.94,1.94,3.31,3.31,0,0,1-2.25.84,3.31,3.31,0,0,1-2.75-1.21,4.68,4.68,0,0,1-1-3v-.33a4.64,4.64,0,0,1,1-3,3.3,3.3,0,0,1,2.74-1.22,3.18,3.18,0,0,1,2.32.88,2.77,2.77,0,0,1,.87,2.14l0,0H19.88a1.88,1.88,0,0,0-.51-1.32,1.66,1.66,0,0,0-1.27-.54,1.77,1.77,0,0,0-1.65.88,4.1,4.1,0,0,0-.52,2.13v.33a4.22,4.22,0,0,0,.51,2.15A1.78,1.78,0,0,0,18.1,92.44Z"/><path class="cls-1" d="M25.26,83v2h1.6v1.14h-1.6V91.3a1.17,1.17,0,0,0,.24.84.91.91,0,0,0,.66.24,1.11,1.11,0,0,0,.29,0,1.63,1.63,0,0,0,.28-.07l.21,1a1.35,1.35,0,0,1-.51.23,2.56,2.56,0,0,1-.66.09,2,2,0,0,1-1.5-.56,2.47,2.47,0,0,1-.55-1.78V86.17H22.38V85h1.34V83Z"/><path class="cls-1" d="M33.88,92.23a3,3,0,0,1-1,1,2.85,2.85,0,0,1-1.44.36,2.71,2.71,0,0,1-2.16-.88A4.07,4.07,0,0,1,28.48,90V85H30v5a3.21,3.21,0,0,0,.39,1.86,1.49,1.49,0,0,0,1.25.5A2.55,2.55,0,0,0,33,92.06a2,2,0,0,0,.81-.94V85h1.54v8.45H34Z"/><path class="cls-1" d="M41.6,86.39l-.79,0a1.75,1.75,0,0,0-1,.29,1.82,1.82,0,0,0-.65.81v6H37.6V85H39l.15,1.23a2.77,2.77,0,0,1,.88-1,2,2,0,0,1,1.22-.37,1.66,1.66,0,0,1,.32,0l.26.06Z"/><path class="cls-1" d="M44.87,82.86H43.33V81.29h1.54Zm0,10.62H43.33V85h1.54Z"/><path class="cls-1" d="M48.61,85l.11,1.25a3.1,3.1,0,0,1,1.06-1,3.12,3.12,0,0,1,3.56.43,3.53,3.53,0,0,1,.75,2.47v5.34H52.55v-5.3a2.26,2.26,0,0,0-.44-1.59,1.76,1.76,0,0,0-1.34-.47,2.38,2.38,0,0,0-1.21.29,2,2,0,0,0-.79.8v6.27H47.23V85Z"/><path class="cls-1" d="M56.05,89.41a5.57,5.57,0,0,1,.88-3.29,2.8,2.8,0,0,1,2.43-1.25,2.91,2.91,0,0,1,1.41.33,2.77,2.77,0,0,1,1,.93L62,85h1.23v8.5A3.25,3.25,0,0,1,62.27,96a3.91,3.91,0,0,1-2.73.87,5.79,5.79,0,0,1-1.32-.16A5.62,5.62,0,0,1,57,96.27l.23-1.2a4.13,4.13,0,0,0,1.08.38,5.24,5.24,0,0,0,1.23.15,2.25,2.25,0,0,0,1.64-.51,2.14,2.14,0,0,0,.51-1.56v-1a2.8,2.8,0,0,1-1,.8,3.14,3.14,0,0,1-1.34.27,2.87,2.87,0,0,1-2.41-1.12,4.61,4.61,0,0,1-.88-3Zm1.54.16a3.58,3.58,0,0,0,.53,2.05,1.78,1.78,0,0,0,1.61.77,2,2,0,0,0,1.17-.31,2.36,2.36,0,0,0,.77-.9V87.29a2.44,2.44,0,0,0-.77-.85,2,2,0,0,0-1.15-.32,1.77,1.77,0,0,0-1.63.91,4.77,4.77,0,0,0-.53,2.38Z"/><path class="cls-1" d="M76,88.45h-4.8v5H69.61V82.11h7.13v1.21H71.15v3.92H76Z"/><path class="cls-1" d="M79.89,93.48H78.35V81.29h1.54Z"/><path class="cls-1" d="M87.63,92.23a3,3,0,0,1-1,1,2.85,2.85,0,0,1-1.44.36A2.71,2.71,0,0,1,83,92.76,4.07,4.07,0,0,1,82.23,90V85h1.54v5a3.21,3.21,0,0,0,.39,1.86,1.49,1.49,0,0,0,1.25.5,2.55,2.55,0,0,0,1.35-.33,2,2,0,0,0,.81-.94V85h1.54v8.45H87.73Z"/><path class="cls-1" d="M93,82.86H91.48V81.29H93Zm0,10.62H91.48V85H93Z"/><path class="cls-1" d="M95,89.41a5.64,5.64,0,0,1,.87-3.29,2.82,2.82,0,0,1,2.44-1.25,3.05,3.05,0,0,1,1.32.27,2.79,2.79,0,0,1,1,.8V81.29h1.54V93.48H101l-.23-1.07a2.74,2.74,0,0,1-1,.92,3,3,0,0,1-1.41.31,2.89,2.89,0,0,1-2.42-1.12,4.61,4.61,0,0,1-.88-3Zm1.54.16a3.56,3.56,0,0,0,.52,2.05,1.82,1.82,0,0,0,1.63.77,2.05,2.05,0,0,0,1.16-.31,2.4,2.4,0,0,0,.76-.87V87.26a2.37,2.37,0,0,0-.77-.83,2,2,0,0,0-1.14-.31A1.76,1.76,0,0,0,97.1,87a4.77,4.77,0,0,0-.53,2.38Z"/><path class="cls-2" d="M67.45,17.42a23.23,23.23,0,0,0-5.1-11.23,3,3,0,0,0,.83-2.08V3.28a3,3,0,0,0-3-3H42.76a3,3,0,0,0-3,3v.83a3,3,0,0,0,.83,2.08,23.23,23.23,0,0,0-5.1,11.23.41.41,0,0,0,0,.11V52.77a3.42,3.42,0,0,0,3.42,3.42H64a3.42,3.42,0,0,0,3.42-3.42V17.53A.41.41,0,0,0,67.45,17.42ZM65.56,52.77A1.53,1.53,0,0,1,64,54.3H38.88a1.53,1.53,0,0,1-1.52-1.53V17.59A22,22,0,0,1,42,7.43H60.92a22,22,0,0,1,4.64,10.16V52.77ZM61.29,3.28v.83a1.14,1.14,0,0,1-1.13,1.13H42.76a1.14,1.14,0,0,1-1.13-1.13V3.28a1.13,1.13,0,0,1,1.13-1.13h17.4A1.13,1.13,0,0,1,61.29,3.28Z"/><path class="cls-2" d="M39.43,20.5a1,1,0,0,0-.69.27,1,1,0,0,0-.28.68v28.2A3.39,3.39,0,0,0,41.84,53H61.08a3.39,3.39,0,0,0,3.38-3.38V17.46a.93.93,0,0,0-.66-.9c-.28-.09-3-.83-9.21,1.72C48.76,20.67,39.52,20.51,39.43,20.5Zm23.13-2.2V49.65a1.48,1.48,0,0,1-1.48,1.48H41.84a1.48,1.48,0,0,1-1.48-1.48V22.4c2.6,0,9.84-.27,15-2.37C59.2,18.44,61.52,18.26,62.56,18.3Z"/></g></g></svg>