<svg xmlns="http://www.w3.org/2000/svg" viewBox="0 0 92.67 89.85"><defs><style>.cls-1{fill:#fff;}</style></defs><title>milkmanufacturingdry_hover</title><g id="Layer_2" data-name="Layer 2"><g id="Layer_1-2" data-name="Layer 1"><path class="cls-1" d="M12.09,65.1h0l3.64-9.24h1.91V67.23H16.14V58.71h-.05l-3.44,8.53H11.58L8,58.42H8v8.8H6.45V55.86h2Z"/><path class="cls-1" d="M21.8,56.61H20.26V55H21.8Zm0,10.62H20.26V58.78H21.8Z"/><path class="cls-1" d="M25.83,67.23H24.29V55h1.54Z"/><path class="cls-1" d="M30.53,63.33h-.79v3.9H28.2V55h1.54v7.07h.78l2.53-3.33H34.9l-3.07,3.9,3.33,4.55H33.34Z"/><path class="cls-1" d="M46.23,65.1h0l3.64-9.24h1.91V67.23H50.28V58.71h-.05l-3.44,8.53H45.72l-3.55-8.81h0v8.8H40.59V55.86h2Z"/><path class="cls-1" d="M59.47,67.23c0-.25-.09-.48-.12-.67A4,4,0,0,1,59.3,66a3.8,3.8,0,0,1-1.12,1,2.93,2.93,0,0,1-1.49.41,2.76,2.76,0,0,1-2-.68,2.45,2.45,0,0,1-.7-1.86A2.2,2.2,0,0,1,55,63a4.65,4.65,0,0,1,2.67-.68H59.3v-.84a1.52,1.52,0,0,0-.46-1.17,1.77,1.77,0,0,0-1.28-.44,1.86,1.86,0,0,0-1.21.38,1.12,1.12,0,0,0-.46.9H54.43l0,0a2.05,2.05,0,0,1,.87-1.69,3.57,3.57,0,0,1,2.37-.77,3.51,3.51,0,0,1,2.31.73,2.61,2.61,0,0,1,.88,2.11v4.07a8.19,8.19,0,0,0,0,.87,4.7,4.7,0,0,0,.17.83Zm-2.56-1.12a2.8,2.8,0,0,0,1.51-.43,2.09,2.09,0,0,0,.88-1V63.32H57.57a2.2,2.2,0,0,0-1.49.47,1.41,1.41,0,0,0-.56,1.1,1.15,1.15,0,0,0,.36.89A1.45,1.45,0,0,0,56.91,66.11Z"/><path class="cls-1" d="M64.45,58.78l.1,1.26a3.22,3.22,0,0,1,1.06-1,2.92,2.92,0,0,1,1.45-.37,2.78,2.78,0,0,1,2.12.8,3.54,3.54,0,0,1,.75,2.48v5.33H68.39v-5.3A2.31,2.31,0,0,0,68,60.34a1.77,1.77,0,0,0-1.35-.47,2.43,2.43,0,0,0-1.21.29,2,2,0,0,0-.78.8v6.27H63.07V58.78Z"/><path class="cls-1" d="M77.53,66a2.94,2.94,0,0,1-1,1,2.87,2.87,0,0,1-1.45.37,2.7,2.7,0,0,1-2.15-.89,4.07,4.07,0,0,1-.78-2.75v-5h1.54v5a3.12,3.12,0,0,0,.4,1.86,1.48,1.48,0,0,0,1.24.51,2.56,2.56,0,0,0,1.36-.34,2.14,2.14,0,0,0,.81-.94V58.78H79v8.45H77.63Z"/><path class="cls-1" d="M86.05,63h-4.6v-1.2h4.6Z"/><path class="cls-1" d="M1.32,86.43V79.12H0V78H1.32V76.91A2.91,2.91,0,0,1,2,74.82a2.61,2.61,0,0,1,2-.74,3.27,3.27,0,0,1,.54,0l.59.12L5,75.42l-.34-.06-.42,0a1.21,1.21,0,0,0-1,.4,1.81,1.81,0,0,0-.33,1.17V78H4.39v1.14H2.86v7.31Z"/><path class="cls-1" d="M11.14,86.43c-.05-.25-.09-.48-.12-.67a4,4,0,0,1,0-.59,3.8,3.8,0,0,1-1.12,1,2.91,2.91,0,0,1-1.49.41,2.76,2.76,0,0,1-2-.68,2.48,2.48,0,0,1-.69-1.86,2.18,2.18,0,0,1,1-1.9,4.61,4.61,0,0,1,2.66-.68H11v-.84a1.55,1.55,0,0,0-.45-1.17A1.8,1.8,0,0,0,9.23,79,1.86,1.86,0,0,0,8,79.41a1.15,1.15,0,0,0-.46.9H6.1v0A2,2,0,0,1,7,78.59a3.57,3.57,0,0,1,2.37-.77,3.51,3.51,0,0,1,2.31.73,2.58,2.58,0,0,1,.88,2.11v4.07a8.19,8.19,0,0,0,0,.87,4.73,4.73,0,0,0,.18.83ZM8.59,85.31a2.77,2.77,0,0,0,1.5-.43,2.09,2.09,0,0,0,.88-1V82.52H9.24A2.22,2.22,0,0,0,7.75,83a1.4,1.4,0,0,0-.55,1.1,1.15,1.15,0,0,0,.35.89A1.46,1.46,0,0,0,8.59,85.31Z"/><path class="cls-1" d="M18.1,85.39a1.76,1.76,0,0,0,1.24-.47,1.47,1.47,0,0,0,.54-1.16h1.39l0,0a2.42,2.42,0,0,1-.94,1.94,3.32,3.32,0,0,1-2.25.85,3.32,3.32,0,0,1-2.75-1.22,4.68,4.68,0,0,1-1-3V82a4.64,4.64,0,0,1,1-3,3.3,3.3,0,0,1,2.74-1.22,3.18,3.18,0,0,1,2.32.88,2.78,2.78,0,0,1,.87,2.15l0,0H19.88a1.84,1.84,0,0,0-.51-1.31A1.63,1.63,0,0,0,18.1,79a1.79,1.79,0,0,0-1.65.88A4.1,4.1,0,0,0,15.93,82v.33a4.22,4.22,0,0,0,.51,2.15A1.78,1.78,0,0,0,18.1,85.39Z"/><path class="cls-1" d="M25.26,75.94v2h1.6v1.14h-1.6v5.13a1.17,1.17,0,0,0,.24.84.92.92,0,0,0,.66.24,1.06,1.06,0,0,0,.29,0,1.63,1.63,0,0,0,.28-.07l.21,1.06a1.52,1.52,0,0,1-.51.23,2.56,2.56,0,0,1-.66.09,2,2,0,0,1-1.5-.57,2.47,2.47,0,0,1-.55-1.78V79.12H22.38V78h1.34v-2Z"/><path class="cls-1" d="M33.88,85.18a3,3,0,0,1-1,1,2.86,2.86,0,0,1-1.44.37,2.72,2.72,0,0,1-2.16-.89A4.07,4.07,0,0,1,28.48,83V78H30v5a3.21,3.21,0,0,0,.39,1.86,1.49,1.49,0,0,0,1.25.51A2.44,2.44,0,0,0,33,85a2,2,0,0,0,.81-.94V78h1.54v8.45H34Z"/><path class="cls-1" d="M41.6,79.34l-.79,0a1.75,1.75,0,0,0-1,.29,1.82,1.82,0,0,0-.65.81v6H37.6V78H39l.15,1.23a2.85,2.85,0,0,1,.88-1,2.12,2.12,0,0,1,1.22-.37,1.66,1.66,0,0,1,.32,0l.26.06Z"/><path class="cls-1" d="M44.87,75.81H43.33V74.24h1.54Zm0,10.62H43.33V78h1.54Z"/><path class="cls-1" d="M48.61,78l.11,1.26a3,3,0,0,1,1.06-1,2.87,2.87,0,0,1,1.45-.37,2.76,2.76,0,0,1,2.11.8,3.54,3.54,0,0,1,.75,2.48v5.33H52.55v-5.3a2.26,2.26,0,0,0-.44-1.59,1.76,1.76,0,0,0-1.34-.47,2.38,2.38,0,0,0-1.21.29,2.09,2.09,0,0,0-.79.8v6.27H47.23V78Z"/><path class="cls-1" d="M56.05,82.36a5.59,5.59,0,0,1,.88-3.29,2.8,2.8,0,0,1,2.43-1.25,2.88,2.88,0,0,1,1.41.33,2.77,2.77,0,0,1,1,.93L62,78h1.23v8.5A3.21,3.21,0,0,1,62.27,89a3.85,3.85,0,0,1-2.73.88,5.83,5.83,0,0,1-1.32-.17A5.16,5.16,0,0,1,57,89.22L57.21,88a4.54,4.54,0,0,0,1.08.37,5.24,5.24,0,0,0,1.23.15A2.25,2.25,0,0,0,61.16,88a2.12,2.12,0,0,0,.51-1.56v-1a2.64,2.64,0,0,1-1,.8,3.14,3.14,0,0,1-1.34.28,2.88,2.88,0,0,1-2.41-1.13,4.6,4.6,0,0,1-.88-2.94Zm1.54.17a3.57,3.57,0,0,0,.53,2,1.8,1.8,0,0,0,1.61.78A2,2,0,0,0,60.9,85a2.36,2.36,0,0,0,.77-.9V80.24a2.35,2.35,0,0,0-.77-.85,2,2,0,0,0-1.15-.32,1.76,1.76,0,0,0-1.63.92,4.73,4.73,0,0,0-.53,2.37Z"/><path class="cls-1" d="M69.61,86.43V75.06h3.58A4.68,4.68,0,0,1,78.13,80v1.56a4.67,4.67,0,0,1-4.94,4.9Zm1.54-10.16v9h2a3.16,3.16,0,0,0,2.49-1,3.92,3.92,0,0,0,.91-2.66V80a3.88,3.88,0,0,0-.91-2.64,3.13,3.13,0,0,0-2.49-1Z"/><path class="cls-1" d="M84.23,79.34l-.78,0a1.79,1.79,0,0,0-1,.29,1.82,1.82,0,0,0-.65.81v6H80.23V78h1.38l.15,1.23a3,3,0,0,1,.88-1,2.14,2.14,0,0,1,1.22-.37,1.84,1.84,0,0,1,.33,0l.26.06Z"/><path class="cls-1" d="M88.56,83.3l.28,1.06h0L91,78h1.71l-3.55,9.75a4.4,4.4,0,0,1-.92,1.48,2.13,2.13,0,0,1-1.61.64,3.26,3.26,0,0,1-.48,0c-.19,0-.34,0-.45-.08l.16-1.21.28,0,.41,0a1,1,0,0,0,.8-.44,4.3,4.3,0,0,0,.53-1l.36-.88L85.06,78h1.72Z"/><path class="cls-1" d="M54.84,11.5a.62.62,0,0,1,.62.63V38.38a.62.62,0,0,1-.62.63H36.2a.63.63,0,0,1-.63-.63V12.11a.63.63,0,0,1,.63-.63H54.84m0-1.45H36.2a2.1,2.1,0,0,0-2.1,2.1V38.38a2.1,2.1,0,0,0,2.1,2.1H54.84a2.1,2.1,0,0,0,2.1-2.1V12.11A2.1,2.1,0,0,0,54.84,10Z"/><path class="cls-1" d="M48.34,8.06h-5a2.38,2.38,0,0,1-2.25-1.67L39.56,1.23a.94.94,0,0,1,.15-.84A1,1,0,0,1,40.48,0H75.21a1.53,1.53,0,0,1,0,3.05H52.52l-2.15,3.8A2.33,2.33,0,0,1,48.34,8.06Zm-7.65-7,1.45,5A1.24,1.24,0,0,0,43.32,7h5a1.23,1.23,0,0,0,1.07-.63L51.87,2H75.23a.42.42,0,0,0,.42-.42.44.44,0,0,0-.42-.45Z"/><path class="cls-1" d="M28.19,19.21a.58.58,0,0,1,.59.59V38.59a.58.58,0,0,1-.59.59H17.61a.58.58,0,0,1-.59-.59V19.8a.58.58,0,0,1,.59-.59H28.19m0-1.29H17.61a1.89,1.89,0,0,0-1.88,1.88V38.59a1.88,1.88,0,0,0,1.88,1.87H28.19a1.88,1.88,0,0,0,1.88-1.87V19.8a1.88,1.88,0,0,0-1.88-1.88Z"/><path class="cls-1" d="M27.55,18.75H18.26a1,1,0,0,1-1-1V15.94a1,1,0,0,1,1-1h9.29a1,1,0,0,1,1,1v1.78A1,1,0,0,1,27.55,18.75Zm-9-1.29h8.78V16.19H18.51Z"/><path class="cls-1" d="M19.67,25.56H16.49a.65.65,0,0,1,0-1.29h3.18a.66.66,0,0,1,.65.65A.65.65,0,0,1,19.67,25.56Z"/><path class="cls-1" d="M19.67,30H16.49a.64.64,0,0,1-.64-.64.65.65,0,0,1,.64-.65h3.18a.66.66,0,0,1,.65.65A.64.64,0,0,1,19.67,30Z"/><path class="cls-1" d="M19.67,34.48H16.49a.64.64,0,0,1,0-1.28h3.18a.65.65,0,0,1,.65.64A.64.64,0,0,1,19.67,34.48Z"/><path class="cls-1" d="M27.25,15.66,26,15.46s.39-2.74-1.47-3.55l-.31-.15-.06-.35c0-.06-.27-1.49-1.34-1.49s-1.32,1.49-1.34,1.49l-.06.35-.31.15c-1.86.82-1.47,3.53-1.47,3.55l-1.27.2a6.62,6.62,0,0,1,0-1.95,3.87,3.87,0,0,1,1.88-2.83A2.78,2.78,0,0,1,22.8,8.63a2.78,2.78,0,0,1,2.54,2.25,3.87,3.87,0,0,1,1.88,2.83A5.91,5.91,0,0,1,27.25,15.66Z"/></g></g></svg>