<svg xmlns="http://www.w3.org/2000/svg" viewBox="0 0 93.91 67.98"><defs><style>.cls-1{fill:#0097d6;}</style></defs><title>nuts_seeds</title><g id="Layer_2" data-name="Layer 2"><g id="Layer_1-2" data-name="Layer 1"><path class="cls-1" d="M8.6,67.82H7.06L1.59,59.13H1.54v8.68H0V56.44H1.54L7,65.12h0V56.44H8.6Z"/><path class="cls-1" d="M16.42,66.57a2.83,2.83,0,0,1-1,1A2.77,2.77,0,0,1,14,68a2.69,2.69,0,0,1-2.15-.88A4.09,4.09,0,0,1,11,64.35v-5h1.54v5a3.2,3.2,0,0,0,.4,1.86,1.48,1.48,0,0,0,1.24.51,2.56,2.56,0,0,0,1.36-.33,2.19,2.19,0,0,0,.81-.94v-6.1h1.54v8.46H16.52Z"/><path class="cls-1" d="M22.29,57.32v2h1.6V60.5h-1.6v5.14a1.11,1.11,0,0,0,.25.83.88.88,0,0,0,.65.24l.29,0,.28-.07.21,1a1.52,1.52,0,0,1-.51.23,2.5,2.5,0,0,1-.66.09,2,2,0,0,1-1.5-.57,2.44,2.44,0,0,1-.55-1.77V60.5H19.41V59.36h1.34v-2Z"/><path class="cls-1" d="M30.45,65.54a1.05,1.05,0,0,0-.38-.83,3.81,3.81,0,0,0-1.47-.56,6,6,0,0,1-2.29-.9,1.79,1.79,0,0,1-.8-1.54,2.22,2.22,0,0,1,.88-1.77,3.4,3.4,0,0,1,2.27-.73A3.4,3.4,0,0,1,31,60a2.21,2.21,0,0,1,.85,1.82v0H30.36a1.34,1.34,0,0,0-.48-1,2,2,0,0,0-2.43-.08,1.15,1.15,0,0,0-.4.88.92.92,0,0,0,.34.77,3.75,3.75,0,0,0,1.44.5,6.16,6.16,0,0,1,2.36.93,1.89,1.89,0,0,1,.8,1.57,2.22,2.22,0,0,1-.91,1.84A3.79,3.79,0,0,1,28.7,68a3.7,3.7,0,0,1-2.54-.82,2.35,2.35,0,0,1-.89-1.91l0,0h1.47a1.4,1.4,0,0,0,.61,1.2,2.36,2.36,0,0,0,1.33.38A2.13,2.13,0,0,0,30,66.43,1.06,1.06,0,0,0,30.45,65.54Z"/><path class="cls-1" d="M37.27,64.75a2.61,2.61,0,0,1,.55-1.66,6.49,6.49,0,0,1,1.64-1.44,7.53,7.53,0,0,1-.91-1.38A2.89,2.89,0,0,1,38.26,59,2.66,2.66,0,0,1,39,57a3,3,0,0,1,2.1-.71,2.84,2.84,0,0,1,2,.71,2.24,2.24,0,0,1,.77,1.71A2.18,2.18,0,0,1,43.49,60a5.47,5.47,0,0,1-1.22,1.15l-.85.62L44.08,65a4.46,4.46,0,0,0,.5-1.13,4.59,4.59,0,0,0,.18-1.3h1.37a5.78,5.78,0,0,1-.3,1.9A4.94,4.94,0,0,1,45,66l1.44,1.75v0H44.59l-.67-.8a4.75,4.75,0,0,1-1.38.71A4.91,4.91,0,0,1,41,68a3.9,3.9,0,0,1-2.7-.9A3,3,0,0,1,37.27,64.75Zm3.7,2a3.6,3.6,0,0,0,1.11-.19,3.7,3.7,0,0,0,1-.56l-2.82-3.39-.31.22a3,3,0,0,0-.94,1,2,2,0,0,0-.24.87,2,2,0,0,0,.56,1.46A2.15,2.15,0,0,0,41,66.78ZM39.8,59a2,2,0,0,0,.21.86,5.33,5.33,0,0,0,.63,1l1.08-.75a1.5,1.5,0,0,0,.6-.64,1.77,1.77,0,0,0,.16-.77,1.12,1.12,0,0,0-.37-.84,1.37,1.37,0,0,0-1-.37,1.19,1.19,0,0,0-1,.44A1.68,1.68,0,0,0,39.8,59Z"/><path class="cls-1" d="M58.1,65a1.71,1.71,0,0,0-.55-1.3,4.66,4.66,0,0,0-2-.89,6.53,6.53,0,0,1-2.7-1.26,2.67,2.67,0,0,1-1-2.11A2.78,2.78,0,0,1,53,57.17a4,4,0,0,1,2.72-.89,4,4,0,0,1,2.86,1,3.1,3.1,0,0,1,1,2.38l0,0H58.09a2.11,2.11,0,0,0-.68-1.6,2.44,2.44,0,0,0-1.73-.63A2.35,2.35,0,0,0,54,58a1.73,1.73,0,0,0-.58,1.36,1.51,1.51,0,0,0,.63,1.24,5.81,5.81,0,0,0,2.05.87,5.82,5.82,0,0,1,2.61,1.31,2.85,2.85,0,0,1,.9,2.14,2.64,2.64,0,0,1-1.08,2.21,4.49,4.49,0,0,1-2.83.84,4.83,4.83,0,0,1-2.91-.92,2.81,2.81,0,0,1-1.22-2.47l0,0h1.47a1.89,1.89,0,0,0,.81,1.65,3.05,3.05,0,0,0,1.83.59,2.74,2.74,0,0,0,1.73-.5A1.57,1.57,0,0,0,58.1,65Z"/><path class="cls-1" d="M65.11,68a3.58,3.58,0,0,1-2.84-1.16,4.5,4.5,0,0,1-1-3.07v-.34a4.38,4.38,0,0,1,1-3,3.28,3.28,0,0,1,2.57-1.19,3.07,3.07,0,0,1,2.54,1,4.38,4.38,0,0,1,.85,2.81v.81H62.85l0,0A3.49,3.49,0,0,0,63.39,66a2,2,0,0,0,1.72.8,3.82,3.82,0,0,0,1.37-.23,2.94,2.94,0,0,0,1-.61l.6,1a3.72,3.72,0,0,1-1.19.74A4.79,4.79,0,0,1,65.11,68Zm-.24-7.56a1.64,1.64,0,0,0-1.33.62,2.87,2.87,0,0,0-.65,1.59l0,0h3.81v-.13A2.47,2.47,0,0,0,66.27,61,1.65,1.65,0,0,0,64.87,60.42Z"/><path class="cls-1" d="M73.48,68a3.6,3.6,0,0,1-2.84-1.16,4.49,4.49,0,0,1-1-3.07v-.34a4.33,4.33,0,0,1,1.05-3,3.26,3.26,0,0,1,2.56-1.19,3.09,3.09,0,0,1,2.55,1,4.38,4.38,0,0,1,.84,2.81v.81h-5.4l0,0A3.42,3.42,0,0,0,71.77,66a2,2,0,0,0,1.71.8,3.91,3.91,0,0,0,1.38-.23,2.94,2.94,0,0,0,1-.61l.6,1a3.67,3.67,0,0,1-1.2.74A4.75,4.75,0,0,1,73.48,68Zm-.24-7.56a1.66,1.66,0,0,0-1.33.62,2.86,2.86,0,0,0-.64,1.59v0h3.81v-.13A2.47,2.47,0,0,0,74.64,61,1.64,1.64,0,0,0,73.24,60.42Z"/><path class="cls-1" d="M78,63.75a5.64,5.64,0,0,1,.87-3.29,2.78,2.78,0,0,1,2.44-1.25,3.11,3.11,0,0,1,1.32.27,2.69,2.69,0,0,1,1,.8V55.63h1.54V67.82H84l-.24-1.07a2.8,2.8,0,0,1-1,.92A3.06,3.06,0,0,1,81.3,68a2.89,2.89,0,0,1-2.42-1.12,4.68,4.68,0,0,1-.87-3Zm1.54.16a3.58,3.58,0,0,0,.52,2,1.84,1.84,0,0,0,1.63.77,2,2,0,0,0,1.15-.31,2.37,2.37,0,0,0,.77-.88V61.6a2.37,2.37,0,0,0-.77-.83,2,2,0,0,0-1.14-.31,1.77,1.77,0,0,0-1.64.91,4.74,4.74,0,0,0-.52,2.38Z"/><path class="cls-1" d="M92.37,65.54a1,1,0,0,0-.39-.83,3.82,3.82,0,0,0-1.46-.56,6.06,6.06,0,0,1-2.3-.9,1.81,1.81,0,0,1-.8-1.54,2.22,2.22,0,0,1,.88-1.77,3.9,3.9,0,0,1,4.61.05,2.27,2.27,0,0,1,.85,1.82l0,0H92.27a1.34,1.34,0,0,0-.48-1,1.73,1.73,0,0,0-1.21-.44,1.8,1.8,0,0,0-1.22.36,1.15,1.15,0,0,0-.4.88.93.93,0,0,0,.35.77,3.69,3.69,0,0,0,1.43.5,6.1,6.1,0,0,1,2.36.93,1.87,1.87,0,0,1,.81,1.57A2.25,2.25,0,0,1,93,67.27a3.79,3.79,0,0,1-2.38.71,3.71,3.71,0,0,1-2.55-.82,2.34,2.34,0,0,1-.88-1.91v0h1.47a1.43,1.43,0,0,0,.61,1.2,2.39,2.39,0,0,0,1.34.38,2.11,2.11,0,0,0,1.28-.35A1.07,1.07,0,0,0,92.37,65.54Z"/><path class="cls-1" d="M76.16,18.33C75.75,5.13,72.17.47,72,.27a.67.67,0,0,0-1-.13h0a43.38,43.38,0,0,0-12,13.6A3.56,3.56,0,0,0,55,15.1a13.52,13.52,0,0,0-1,2.82,18,18,0,0,0-12.1-6c-13-1.13-26.35,10.23-26.91,10.72a.67.67,0,0,0-.1.95l0,0c5.42,5.51,16.25,9.28,19,10.15a9,9,0,0,0-.33,4.44,1.21,1.21,0,0,0,.05.14c2.09,4.11,6.36,5.18,10.25,5.18a28.39,28.39,0,0,0,8-1.23,27.57,27.57,0,0,0,9.85-5.89,14.56,14.56,0,0,0,3.28.39,10.94,10.94,0,0,0,6.89-2.34c5.42-4.19,6.84-12.58,6.84-13.54C78.67,19.44,77.27,18.65,76.16,18.33ZM71.31,1.67c.94,1.63,3.39,6.94,3.53,18.12l-.61-.13c-.8-.18-1.6-.34-2.41-.5s-1.6-.31-2.39-.51-1.59-.32-2.37-.53c-1.59-.35-3.17-.74-4.74-1.18-1-.29-1.94-.58-2.91-.91A40.76,40.76,0,0,1,71.31,1.67ZM58.41,15c-.13.27-.21.46-.26.57l-.46-.18A15.54,15.54,0,0,0,62,17.93a29,29,0,0,0,4.74,1.51,35.44,35.44,0,0,0,4.92.76c.82.07,1.66.09,2.48.12a16,16,0,0,0,2.49-.11l-.44-.11v-.32a2.58,2.58,0,0,1,.88.56c-9.52,1.27-18.12-3.59-20.49-5.08A2.47,2.47,0,0,1,58.41,15Zm4.41,18.34A50,50,0,0,1,38.09,41a7.71,7.71,0,0,1-1.56-1,95.16,95.16,0,0,0,27.08-7.45ZM65.62,30c-12.86,6.77-27.68,8.47-30.2,8.72l-.17-.22,30.47-8.69ZM34.8,37.19a8.15,8.15,0,0,1,.06-1.56A102.25,102.25,0,0,1,65,28.28l.42.18ZM35.25,34a8,8,0,0,1,.8-1.7c1.36-.68,10.2-5,24.16-5.69.63.16,1.26.35,1.9.55A105.51,105.51,0,0,0,35.25,34Zm2.88-4.12a19.33,19.33,0,0,1,8-3.84A30.18,30.18,0,0,1,55,25.72,65.18,65.18,0,0,0,38.13,29.89Zm3.62-16.65a16.93,16.93,0,0,1,11.87,6.34,19.32,19.32,0,0,0-.16,4.62,28.68,28.68,0,0,0-7.62.52,21.3,21.3,0,0,0-8.12,3.75,47.23,47.23,0,0,1-21.14-5.42c3-2.35,14.43-10.76,25.17-9.83ZM21.12,26.63A51.21,51.21,0,0,0,36.3,29.76a10.61,10.61,0,0,0-1.9,2.76A70.67,70.67,0,0,1,21.12,26.63ZM51.43,41A26.16,26.16,0,0,1,42,42.07a52,52,0,0,0,16.24-4.65A24.64,24.64,0,0,1,51.43,41ZM71,33.38a10,10,0,0,1-8.12,1.88,34.36,34.36,0,0,0,5-6.29.69.69,0,0,0-.25-.93h0A34.44,34.44,0,0,0,54.81,24.3a17.7,17.7,0,0,1,1-7.9c2.2,1.41,9.35,5.51,17.94,5.51a26,26,0,0,0,3.42-.23C76.83,24,75.2,30.12,71,33.38Z"/></g></g></svg>