<svg xmlns="http://www.w3.org/2000/svg" viewBox="0 0 48.5 53.88"><defs><style>.cls-1,.cls-2{fill:#0097d6;}.cls-2{stroke:#fff;stroke-miterlimit:10;}</style></defs><title>other</title><g id="Layer_2" data-name="Layer 2"><g id="Layer_1-2" data-name="Layer 1"><path class="cls-1" d="M14.58,49a4.85,4.85,0,0,1-1.29,3.46,4.39,4.39,0,0,1-3.36,1.38A4.15,4.15,0,0,1,6.7,52.5,4.91,4.91,0,0,1,5.45,49V47A4.92,4.92,0,0,1,6.7,43.56a4.15,4.15,0,0,1,3.23-1.38,4.42,4.42,0,0,1,3.36,1.37A4.89,4.89,0,0,1,14.58,47ZM13,47a3.85,3.85,0,0,0-.84-2.56,2.81,2.81,0,0,0-2.27-1,2.59,2.59,0,0,0-2.14,1A3.94,3.94,0,0,0,7,47v2a4,4,0,0,0,.8,2.58,2.59,2.59,0,0,0,2.14,1,2.79,2.79,0,0,0,2.27-1A3.85,3.85,0,0,0,13,49Z"/><path class="cls-1" d="M18.73,43.22v2h1.6V46.4h-1.6v5.13a1.13,1.13,0,0,0,.25.84.88.88,0,0,0,.65.24l.3,0,.27-.08.21,1.06a1.35,1.35,0,0,1-.51.23,2.5,2.5,0,0,1-.66.09,2,2,0,0,1-1.49-.57,2.47,2.47,0,0,1-.56-1.78V46.4H15.85V45.26h1.34v-2Z"/><path class="cls-1" d="M23.52,46.39a3.24,3.24,0,0,1,1.07-1A3.06,3.06,0,0,1,26,45.1a2.75,2.75,0,0,1,2.11.82,3.58,3.58,0,0,1,.75,2.5v5.29H27.32V48.4a2.33,2.33,0,0,0-.44-1.55,1.74,1.74,0,0,0-1.34-.5,2.53,2.53,0,0,0-1.2.27,2.22,2.22,0,0,0-.82.76v6.33H22V41.53h1.54Z"/><path class="cls-1" d="M34.57,53.88a3.57,3.57,0,0,1-2.84-1.17,4.5,4.5,0,0,1-1-3.06v-.34a4.33,4.33,0,0,1,1.05-3,3.27,3.27,0,0,1,2.56-1.2,3.1,3.1,0,0,1,2.55,1.06,4.37,4.37,0,0,1,.84,2.8v.82h-5.4l0,0a3.44,3.44,0,0,0,.57,2.06,2,2,0,0,0,1.71.8A3.91,3.91,0,0,0,36,52.45a3.1,3.1,0,0,0,1-.61l.6,1a3.67,3.67,0,0,1-1.2.74A4.75,4.75,0,0,1,34.57,53.88Zm-.24-7.56a1.66,1.66,0,0,0-1.33.62,2.86,2.86,0,0,0-.64,1.59v0h3.81v-.13a2.47,2.47,0,0,0-.45-1.52A1.64,1.64,0,0,0,34.33,46.32Z"/><path class="cls-1" d="M43.45,46.62l-.79,0a1.79,1.79,0,0,0-1,.29,1.89,1.89,0,0,0-.64.82v6H39.45V45.26h1.37L41,46.5a3,3,0,0,1,.89-1,2.11,2.11,0,0,1,1.21-.37,1.69,1.69,0,0,1,.33,0l.26.06Z"/><path class="cls-2" d="M6.91,10h0a3.35,3.35,0,0,0,3.39-3.3A3.34,3.34,0,0,0,6.91,3.43,3.33,3.33,0,0,0,3.52,6.72,3.34,3.34,0,0,0,6.91,10Zm0,2.93h0A6.32,6.32,0,0,1,.5,6.72,6.32,6.32,0,0,1,6.91.5a6.32,6.32,0,0,1,6.41,6.22A6.32,6.32,0,0,1,6.91,13Z"/><path class="cls-2" d="M41.59,10h0A3.34,3.34,0,0,0,45,6.72a3.39,3.39,0,0,0-6.78,0A3.35,3.35,0,0,0,41.59,10Zm0,2.93h0a6.32,6.32,0,0,1-6.41-6.23A6.41,6.41,0,0,1,48,6.72,6.32,6.32,0,0,1,41.59,13Z"/><path class="cls-2" d="M24.25,10h0a3.35,3.35,0,0,0,3.39-3.3,3.39,3.39,0,0,0-6.78,0A3.35,3.35,0,0,0,24.25,10Zm0,2.93h0a6.32,6.32,0,0,1-6.41-6.23,6.41,6.41,0,0,1,12.82,0A6.32,6.32,0,0,1,24.25,13Z"/></g></g></svg>