<svg xmlns="http://www.w3.org/2000/svg" viewBox="0 0 110.13 89.13"><defs><style>.cls-1,.cls-2{fill:#0097d6;}.cls-2{stroke:#fff;stroke-miterlimit:10;stroke-width:0.5px;}</style></defs><title>preparedmeals_desserts_1</title><g id="Layer_2" data-name="Layer 2"><g id="Layer_1-2" data-name="Layer 1"><path class="cls-1" d="M1.54,65.21v4.56H0V58.39H4.35a4,4,0,0,1,2.83.94,3.51,3.51,0,0,1,0,5,4,4,0,0,1-2.83.93Zm0-1.21H4.35a2.22,2.22,0,0,0,1.73-.62,2.21,2.21,0,0,0,.57-1.56,2.23,2.23,0,0,0-.58-1.58,2.2,2.2,0,0,0-1.72-.63H1.54Z"/><path class="cls-1" d="M14,62.68l-.79,0a1.81,1.81,0,0,0-1,.29,1.87,1.87,0,0,0-.64.81v6H10V61.32h1.38l.14,1.23a2.88,2.88,0,0,1,.89-1,2,2,0,0,1,1.22-.37,1.66,1.66,0,0,1,.32,0l.26.06Z"/><path class="cls-1" d="M18.91,69.93a3.57,3.57,0,0,1-2.84-1.16,4.49,4.49,0,0,1-1-3.06v-.35a4.36,4.36,0,0,1,1.06-3,3.28,3.28,0,0,1,2.56-1.19,3.06,3.06,0,0,1,2.54,1.05A4.34,4.34,0,0,1,22.06,65v.81h-5.4l0,0a3.47,3.47,0,0,0,.57,2.07,1.94,1.94,0,0,0,1.71.79,3.92,3.92,0,0,0,1.38-.22,3,3,0,0,0,1-.62l.6,1a3.51,3.51,0,0,1-1.2.74A4.75,4.75,0,0,1,18.91,69.93Zm-.24-7.56a1.67,1.67,0,0,0-1.33.62,2.92,2.92,0,0,0-.64,1.59v0h3.81V64.5A2.48,2.48,0,0,0,20.07,63,1.64,1.64,0,0,0,18.67,62.37Z"/><path class="cls-1" d="M31,65.86a4.66,4.66,0,0,1-.87,3,2.9,2.9,0,0,1-2.42,1.12,3.25,3.25,0,0,1-1.37-.26,2.53,2.53,0,0,1-1-.78V73H23.79V61.32H25l.24,1.09a2.77,2.77,0,0,1,1-.93,3.12,3.12,0,0,1,1.44-.32,2.81,2.81,0,0,1,2.44,1.25A5.64,5.64,0,0,1,31,65.7Zm-1.54-.16a4.5,4.5,0,0,0-.56-2.36,1.84,1.84,0,0,0-1.67-.93,2,2,0,0,0-1.13.3,2.18,2.18,0,0,0-.76.83v4.08a2,2,0,0,0,1.9,1.11,1.9,1.9,0,0,0,1.66-.8,3.47,3.47,0,0,0,.56-2.07Z"/><path class="cls-1" d="M38.08,69.77c0-.26-.1-.48-.12-.68a3.81,3.81,0,0,1-.05-.59,3.55,3.55,0,0,1-1.12,1,2.84,2.84,0,0,1-1.49.41,2.76,2.76,0,0,1-2-.67,2.46,2.46,0,0,1-.7-1.87,2.2,2.2,0,0,1,1-1.89,4.56,4.56,0,0,1,2.66-.68h1.68V64a1.58,1.58,0,0,0-.46-1.18,1.82,1.82,0,0,0-1.28-.43,1.86,1.86,0,0,0-1.21.38,1.11,1.11,0,0,0-.46.89l-1.46,0,0,0a2,2,0,0,1,.87-1.68,3.57,3.57,0,0,1,2.37-.77,3.48,3.48,0,0,1,2.31.73A2.61,2.61,0,0,1,39.45,64v4.07a8.19,8.19,0,0,0,0,.87,4.7,4.7,0,0,0,.17.83Zm-2.56-1.13A2.72,2.72,0,0,0,37,68.21a2,2,0,0,0,.88-1V65.86H36.18a2.25,2.25,0,0,0-1.49.46,1.43,1.43,0,0,0-.56,1.11,1.18,1.18,0,0,0,.35.89A1.47,1.47,0,0,0,35.52,68.64Z"/><path class="cls-1" d="M45.68,62.68l-.79,0a1.7,1.7,0,0,0-1.67,1.1v6H41.68V61.32h1.37l.15,1.23a2.88,2.88,0,0,1,.89-1,2,2,0,0,1,1.21-.37,1.69,1.69,0,0,1,.33,0l.26.06Z"/><path class="cls-1" d="M50.63,69.93a3.57,3.57,0,0,1-2.84-1.16,4.49,4.49,0,0,1-1-3.06v-.35a4.4,4.4,0,0,1,1-3,3.31,3.31,0,0,1,2.57-1.19,3.06,3.06,0,0,1,2.54,1.05A4.34,4.34,0,0,1,53.78,65v.81h-5.4l0,0a3.54,3.54,0,0,0,.56,2.07,2,2,0,0,0,1.72.79A3.82,3.82,0,0,0,52,68.51a3,3,0,0,0,1-.62l.6,1a3.61,3.61,0,0,1-1.2.74A4.75,4.75,0,0,1,50.63,69.93Zm-.24-7.56a1.67,1.67,0,0,0-1.33.62,3,3,0,0,0-.65,1.59l0,0h3.81V64.5A2.48,2.48,0,0,0,51.79,63,1.64,1.64,0,0,0,50.39,62.37Z"/><path class="cls-1" d="M55.16,65.7A5.64,5.64,0,0,1,56,62.41a2.81,2.81,0,0,1,2.44-1.25,3.11,3.11,0,0,1,1.32.27,2.88,2.88,0,0,1,1,.8V57.58H62.3V69.77H61.13l-.24-1.07a2.79,2.79,0,0,1-1,.92,3.06,3.06,0,0,1-1.42.31A2.89,2.89,0,0,1,56,68.81a4.66,4.66,0,0,1-.87-3Zm1.54.16a3.56,3.56,0,0,0,.52,2,1.81,1.81,0,0,0,1.62.77A2,2,0,0,0,60,68.37a2.42,2.42,0,0,0,.77-.87v-4a2.37,2.37,0,0,0-.77-.83,2,2,0,0,0-1.14-.31,1.76,1.76,0,0,0-1.64.91,4.77,4.77,0,0,0-.52,2.38Z"/><path class="cls-1" d="M74.43,67.64h0l3.63-9.25H80V69.77H78.48V61.25h0L75,69.77H73.92L70.38,61h0v8.81H68.79V58.39h2Z"/><path class="cls-1" d="M86,69.93a3.55,3.55,0,0,1-2.84-1.16,4.49,4.49,0,0,1-1-3.06v-.35a4.4,4.4,0,0,1,1-3,3.29,3.29,0,0,1,2.56-1.19,3.09,3.09,0,0,1,2.55,1.05A4.4,4.4,0,0,1,89.13,65v.81H83.72l0,0a3.47,3.47,0,0,0,.56,2.07,2,2,0,0,0,1.72.79,3.86,3.86,0,0,0,1.37-.22,3,3,0,0,0,1-.62l.6,1a3.56,3.56,0,0,1-1.19.74A4.83,4.83,0,0,1,86,69.93Zm-.25-7.56A1.69,1.69,0,0,0,84.4,63a3,3,0,0,0-.64,1.59v0h3.82V64.5A2.48,2.48,0,0,0,87.13,63,1.64,1.64,0,0,0,85.73,62.37Z"/><path class="cls-1" d="M96.05,69.77a5.46,5.46,0,0,1-.12-.68,3.81,3.81,0,0,1-.05-.59,3.59,3.59,0,0,1-1.13,1,3.15,3.15,0,0,1-3.5-.26,2.49,2.49,0,0,1-.69-1.87,2.2,2.2,0,0,1,1-1.89,4.56,4.56,0,0,1,2.66-.68h1.68V64a1.58,1.58,0,0,0-.46-1.18,1.82,1.82,0,0,0-1.28-.43,1.86,1.86,0,0,0-1.21.38,1.11,1.11,0,0,0-.46.89l-1.46,0,0,0a2,2,0,0,1,.87-1.68,3.57,3.57,0,0,1,2.37-.77,3.48,3.48,0,0,1,2.31.73A2.6,2.6,0,0,1,97.41,64v4.07a8.14,8.14,0,0,0,0,.87,4.7,4.7,0,0,0,.17.83Zm-2.56-1.13A2.72,2.72,0,0,0,95,68.21a2,2,0,0,0,.88-1V65.86H94.15a2.25,2.25,0,0,0-1.49.46,1.43,1.43,0,0,0-.56,1.11,1.18,1.18,0,0,0,.35.89A1.47,1.47,0,0,0,93.49,68.64Z"/><path class="cls-1" d="M101.31,69.77H99.77V57.58h1.54Z"/><path class="cls-1" d="M108.59,67.5a1,1,0,0,0-.38-.83,3.81,3.81,0,0,0-1.47-.56,6.34,6.34,0,0,1-2.29-.9,1.81,1.81,0,0,1-.8-1.55,2.22,2.22,0,0,1,.88-1.77,3.45,3.45,0,0,1,2.27-.73,3.4,3.4,0,0,1,2.33.78,2.21,2.21,0,0,1,.85,1.82v.05H108.5a1.31,1.31,0,0,0-.48-1,2,2,0,0,0-2.43-.08,1.13,1.13,0,0,0-.4.87.91.91,0,0,0,.35.78,3.79,3.79,0,0,0,1.43.5,6.16,6.16,0,0,1,2.36.93,1.88,1.88,0,0,1,.8,1.57,2.2,2.2,0,0,1-.91,1.83,4.34,4.34,0,0,1-4.92-.11,2.33,2.33,0,0,1-.89-1.91l0,0h1.47a1.4,1.4,0,0,0,.61,1.2,2.36,2.36,0,0,0,1.33.38,2.06,2.06,0,0,0,1.29-.35A1,1,0,0,0,108.59,67.5Z"/><path class="cls-1" d="M18.41,85.91A2.64,2.64,0,0,1,19,84.24a6.73,6.73,0,0,1,1.65-1.43,8.28,8.28,0,0,1-.91-1.38,2.8,2.8,0,0,1-.3-1.25,2.66,2.66,0,0,1,.76-2,2.94,2.94,0,0,1,2.1-.72,2.89,2.89,0,0,1,2,.71A2.24,2.24,0,0,1,25,79.85a2.17,2.17,0,0,1-.41,1.33,5.61,5.61,0,0,1-1.21,1.14l-.85.63,2.65,3.19a4.21,4.21,0,0,0,.5-1.12,4.66,4.66,0,0,0,.18-1.31h1.38A5.59,5.59,0,0,1,27,85.62a5,5,0,0,1-.88,1.57l1.45,1.74,0,0H25.73l-.66-.8a4.71,4.71,0,0,1-1.39.72,5.15,5.15,0,0,1-1.57.24,3.89,3.89,0,0,1-2.7-.89A3,3,0,0,1,18.41,85.91Zm3.7,2a3.24,3.24,0,0,0,1.11-.19,3.79,3.79,0,0,0,1-.55l-2.82-3.4-.31.23a3,3,0,0,0-.94,1,2.17,2.17,0,0,0-.23.88,2,2,0,0,0,.55,1.45A2.15,2.15,0,0,0,22.11,87.93Zm-1.17-7.76a2,2,0,0,0,.21.86,4.64,4.64,0,0,0,.64,1l1.07-.74a1.68,1.68,0,0,0,.61-.65,1.93,1.93,0,0,0,.16-.77,1.15,1.15,0,0,0-.38-.84,1.34,1.34,0,0,0-1-.37,1.15,1.15,0,0,0-1,.44A1.68,1.68,0,0,0,20.94,80.17Z"/><path class="cls-1" d="M33.18,89V77.59h3.58a4.7,4.7,0,0,1,4.94,4.92v1.55A4.67,4.67,0,0,1,36.76,89Zm1.54-10.16v9h2a3.16,3.16,0,0,0,2.49-1,3.88,3.88,0,0,0,.91-2.67V82.49a3.88,3.88,0,0,0-.91-2.65,3.15,3.15,0,0,0-2.49-1Z"/><path class="cls-1" d="M47.31,89.13A3.55,3.55,0,0,1,44.47,88a4.49,4.49,0,0,1-1-3.06v-.35a4.4,4.4,0,0,1,1-3,3.3,3.3,0,0,1,2.57-1.19,3.05,3.05,0,0,1,2.54,1.06,4.35,4.35,0,0,1,.85,2.8V85H45.05l0,0a3.47,3.47,0,0,0,.56,2.07,2,2,0,0,0,1.72.79,3.82,3.82,0,0,0,1.37-.22,3,3,0,0,0,1-.62l.6,1a3.56,3.56,0,0,1-1.19.74A4.79,4.79,0,0,1,47.31,89.13Zm-.24-7.56a1.71,1.71,0,0,0-1.34.62,3,3,0,0,0-.64,1.59l0,0h3.81V83.7a2.42,2.42,0,0,0-.46-1.53A1.62,1.62,0,0,0,47.07,81.57Z"/><path class="cls-1" d="M57.1,86.7a1,1,0,0,0-.39-.83,3.82,3.82,0,0,0-1.46-.56,6.4,6.4,0,0,1-2.3-.9,1.83,1.83,0,0,1-.8-1.55A2.27,2.27,0,0,1,53,81.09a3.5,3.5,0,0,1,2.28-.73,3.42,3.42,0,0,1,2.33.78A2.27,2.27,0,0,1,58.49,83l0,.05H57a1.31,1.31,0,0,0-.48-1,1.69,1.69,0,0,0-1.21-.45,1.75,1.75,0,0,0-1.22.37,1.13,1.13,0,0,0-.4.87.93.93,0,0,0,.35.78,3.86,3.86,0,0,0,1.43.5,6.1,6.1,0,0,1,2.36.93,1.86,1.86,0,0,1,.81,1.57,2.23,2.23,0,0,1-.91,1.83,4.36,4.36,0,0,1-4.93-.11,2.32,2.32,0,0,1-.88-1.91v-.05H53.4a1.43,1.43,0,0,0,.61,1.2,2.39,2.39,0,0,0,1.34.38,2,2,0,0,0,1.28-.35A1.05,1.05,0,0,0,57.1,86.7Z"/><path class="cls-1" d="M65.46,86.7a1,1,0,0,0-.38-.83,3.81,3.81,0,0,0-1.47-.56,6.34,6.34,0,0,1-2.29-.9,1.83,1.83,0,0,1-.8-1.55,2.24,2.24,0,0,1,.88-1.77,3.46,3.46,0,0,1,2.28-.73,3.39,3.39,0,0,1,2.32.78A2.25,2.25,0,0,1,66.86,83l0,.05H65.37a1.31,1.31,0,0,0-.48-1,1.71,1.71,0,0,0-1.21-.45,1.73,1.73,0,0,0-1.22.37,1.13,1.13,0,0,0-.4.87.91.91,0,0,0,.35.78,3.86,3.86,0,0,0,1.43.5A6.1,6.1,0,0,1,66.2,85a1.88,1.88,0,0,1,.8,1.57,2.2,2.2,0,0,1-.91,1.83,4.34,4.34,0,0,1-4.92-.11,2.3,2.3,0,0,1-.88-1.91v-.05h1.47a1.4,1.4,0,0,0,.61,1.2,2.36,2.36,0,0,0,1.33.38A2.06,2.06,0,0,0,65,87.58,1,1,0,0,0,65.46,86.7Z"/><path class="cls-1" d="M72.42,89.13A3.55,3.55,0,0,1,69.58,88a4.49,4.49,0,0,1-1-3.06v-.35a4.4,4.4,0,0,1,1-3,3.3,3.3,0,0,1,2.57-1.19,3.06,3.06,0,0,1,2.54,1.06,4.35,4.35,0,0,1,.85,2.8V85H70.16l0,0a3.47,3.47,0,0,0,.56,2.07,2,2,0,0,0,1.72.79,3.86,3.86,0,0,0,1.37-.22,3,3,0,0,0,1-.62l.6,1a3.56,3.56,0,0,1-1.19.74A4.79,4.79,0,0,1,72.42,89.13Zm-.24-7.56a1.71,1.71,0,0,0-1.34.62,3,3,0,0,0-.64,1.59v0H74V83.7a2.42,2.42,0,0,0-.46-1.53A1.63,1.63,0,0,0,72.18,81.57Z"/><path class="cls-1" d="M81.29,81.88l-.79,0a1.75,1.75,0,0,0-1,.29,1.82,1.82,0,0,0-.65.81v6H77.29V80.52h1.38l.15,1.23a2.77,2.77,0,0,1,.88-1,2,2,0,0,1,1.22-.37,1.84,1.84,0,0,1,.33,0l.25.06Z"/><path class="cls-1" d="M85.17,78.48v2h1.6v1.14h-1.6v5.13a1.19,1.19,0,0,0,.24.84.91.91,0,0,0,.66.24,1.11,1.11,0,0,0,.29,0,1.63,1.63,0,0,0,.28-.07l.21,1a1.35,1.35,0,0,1-.51.23,2.56,2.56,0,0,1-.66.09,2,2,0,0,1-1.5-.56,2.47,2.47,0,0,1-.55-1.78V81.66H82.29V80.52h1.34v-2Z"/><path class="cls-1" d="M93.33,86.7a1,1,0,0,0-.38-.83,3.81,3.81,0,0,0-1.47-.56,6.27,6.27,0,0,1-2.29-.9,1.81,1.81,0,0,1-.8-1.55,2.24,2.24,0,0,1,.88-1.77,3.45,3.45,0,0,1,2.27-.73,3.4,3.4,0,0,1,2.33.78A2.24,2.24,0,0,1,94.72,83V83H93.24a1.31,1.31,0,0,0-.48-1,2,2,0,0,0-2.43-.08,1.13,1.13,0,0,0-.4.87.93.93,0,0,0,.34.78,3.86,3.86,0,0,0,1.44.5,6.16,6.16,0,0,1,2.36.93,1.88,1.88,0,0,1,.8,1.57A2.2,2.2,0,0,1,94,88.42a3.73,3.73,0,0,1-2.38.71A3.66,3.66,0,0,1,89,88.31a2.31,2.31,0,0,1-.89-1.91l0-.05h1.47a1.4,1.4,0,0,0,.61,1.2,2.36,2.36,0,0,0,1.33.38,2.06,2.06,0,0,0,1.29-.35A1,1,0,0,0,93.33,86.7Z"/><path class="cls-2" d="M76.42,2.48a1.77,1.77,0,0,0-1.84.09L70.73,5.08a1.1,1.1,0,0,0,1.2,1.84l3.41-2.23V38.06c0,.17-.21.5-.8.92L70.2,42V11.62a4.94,4.94,0,0,0-4.94-4.94H41a5,5,0,0,0-2.08.46c1.52-2.95,5.5-4.69,8.46-4.69h23.2a1.1,1.1,0,0,0,0-2.2H47.37a13.15,13.15,0,0,0-7.18,2.31,8.76,8.76,0,0,0-4.1,6.76c-.06,1.32-.05,2.16,0,3v30A4.94,4.94,0,0,0,41,47.17H65.26a4.93,4.93,0,0,0,1.67-.29,1,1,0,0,0,.49-.19l.1-.06a5.19,5.19,0,0,0,1.11-.79l7.18-5.07a3.4,3.4,0,0,0,1.73-2.71V4.47A2.26,2.26,0,0,0,76.42,2.48ZM41,45a2.74,2.74,0,0,1-2.74-2.74V11.62A2.74,2.74,0,0,1,41,8.88H65.26A2.74,2.74,0,0,1,68,11.62V42.24a2.71,2.71,0,0,1-.78,1.9l-.82.59a2.72,2.72,0,0,1-1.14.25ZM64.12,38.7A1.1,1.1,0,0,1,63,39.8H43.23a1.1,1.1,0,0,1,0-2.2H63A1.1,1.1,0,0,1,64.12,38.7ZM53.13,36A10.88,10.88,0,0,0,64,25.12V21.87a1.1,1.1,0,0,0-1.1-1.1H49.14l-4.25-7.41A1.1,1.1,0,0,0,43,14.45l3.63,6.32H43.36a1.1,1.1,0,0,0-1.1,1.1v3.25A10.87,10.87,0,0,0,53.13,36ZM44.46,23h3.41l1.49,2.59a3.09,3.09,0,0,0-.2,3.38L50,30.35a3.08,3.08,0,1,0,5.34-3.08l-.83-1.42a3.09,3.09,0,0,0-2.67-1.54,3.18,3.18,0,0,0-.62.06L50.41,23H61.79v2.16a8.67,8.67,0,0,1-17.33,0V23Zm6.93,3.66h0a1,1,0,0,1,.41-.1.89.89,0,0,1,.77.44l.82,1.43a.88.88,0,0,1-.32,1.2.86.86,0,0,1-.44.12.89.89,0,0,1-.77-.44l-.82-1.42A.88.88,0,0,1,51.39,26.62Z"/></g></g></svg>